G04*
G04 #@! TF.GenerationSoftware,Altium Limited,Altium Designer,26.6.0 (10)*
G04*
G04 Layer_Physical_Order=1*
G04 Layer_Color=255*
G04 Board_Origin=9960630|35954724*
%FSLAX44Y44*%
%MOMM*%
G71*
G04*
G04 #@! TF.SameCoordinates,5C4F4FCD-0276-4C2B-93F7-1AEF511F468A*
G04*
G04*
G04 #@! TF.FilePolarity,Positive*
G04*
G01*
G75*
%ADD10C,0.2000*%
%ADD13C,0.2500*%
G04:AMPARAMS|DCode=42|XSize=0.635mm|YSize=0.3mm|CornerRadius=0.012mm|HoleSize=0mm|Usage=FLASHONLY|Rotation=270.000|XOffset=0mm|YOffset=0mm|HoleType=Round|Shape=RoundedRectangle|*
%AMROUNDEDRECTD42*
21,1,0.6350,0.2760,0,0,270.0*
21,1,0.6110,0.3000,0,0,270.0*
1,1,0.0240,-0.1380,-0.3055*
1,1,0.0240,-0.1380,0.3055*
1,1,0.0240,0.1380,0.3055*
1,1,0.0240,0.1380,-0.3055*
%
%ADD42ROUNDEDRECTD42*%
G04:AMPARAMS|DCode=43|XSize=1.125mm|YSize=1.75mm|CornerRadius=0.2813mm|HoleSize=0mm|Usage=FLASHONLY|Rotation=90.000|XOffset=0mm|YOffset=0mm|HoleType=Round|Shape=RoundedRectangle|*
%AMROUNDEDRECTD43*
21,1,1.1250,1.1875,0,0,90.0*
21,1,0.5625,1.7500,0,0,90.0*
1,1,0.5625,0.5938,0.2813*
1,1,0.5625,0.5938,-0.2813*
1,1,0.5625,-0.5938,-0.2813*
1,1,0.5625,-0.5938,0.2813*
%
%ADD43ROUNDEDRECTD43*%
G04:AMPARAMS|DCode=44|XSize=1.5mm|YSize=3mm|CornerRadius=0.375mm|HoleSize=0mm|Usage=FLASHONLY|Rotation=270.000|XOffset=0mm|YOffset=0mm|HoleType=Round|Shape=RoundedRectangle|*
%AMROUNDEDRECTD44*
21,1,1.5000,2.2500,0,0,270.0*
21,1,0.7500,3.0000,0,0,270.0*
1,1,0.7500,-1.1250,-0.3750*
1,1,0.7500,-1.1250,0.3750*
1,1,0.7500,1.1250,0.3750*
1,1,0.7500,1.1250,-0.3750*
%
%ADD44ROUNDEDRECTD44*%
G04:AMPARAMS|DCode=45|XSize=2mm|YSize=3mm|CornerRadius=0.5mm|HoleSize=0mm|Usage=FLASHONLY|Rotation=270.000|XOffset=0mm|YOffset=0mm|HoleType=Round|Shape=RoundedRectangle|*
%AMROUNDEDRECTD45*
21,1,2.0000,2.0000,0,0,270.0*
21,1,1.0000,3.0000,0,0,270.0*
1,1,1.0000,-1.0000,-0.5000*
1,1,1.0000,-1.0000,0.5000*
1,1,1.0000,1.0000,0.5000*
1,1,1.0000,1.0000,-0.5000*
%
%ADD45ROUNDEDRECTD45*%
G04:AMPARAMS|DCode=46|XSize=0.8mm|YSize=0.95mm|CornerRadius=0.2mm|HoleSize=0mm|Usage=FLASHONLY|Rotation=0.000|XOffset=0mm|YOffset=0mm|HoleType=Round|Shape=RoundedRectangle|*
%AMROUNDEDRECTD46*
21,1,0.8000,0.5500,0,0,0.0*
21,1,0.4000,0.9500,0,0,0.0*
1,1,0.4000,0.2000,-0.2750*
1,1,0.4000,-0.2000,-0.2750*
1,1,0.4000,-0.2000,0.2750*
1,1,0.4000,0.2000,0.2750*
%
%ADD46ROUNDEDRECTD46*%
G04:AMPARAMS|DCode=47|XSize=1.15mm|YSize=2.7mm|CornerRadius=0.2875mm|HoleSize=0mm|Usage=FLASHONLY|Rotation=180.000|XOffset=0mm|YOffset=0mm|HoleType=Round|Shape=RoundedRectangle|*
%AMROUNDEDRECTD47*
21,1,1.1500,2.1250,0,0,180.0*
21,1,0.5750,2.7000,0,0,180.0*
1,1,0.5750,-0.2875,1.0625*
1,1,0.5750,0.2875,1.0625*
1,1,0.5750,0.2875,-1.0625*
1,1,0.5750,-0.2875,-1.0625*
%
%ADD47ROUNDEDRECTD47*%
G04:AMPARAMS|DCode=48|XSize=1.15mm|YSize=1.8mm|CornerRadius=0.2875mm|HoleSize=0mm|Usage=FLASHONLY|Rotation=270.000|XOffset=0mm|YOffset=0mm|HoleType=Round|Shape=RoundedRectangle|*
%AMROUNDEDRECTD48*
21,1,1.1500,1.2250,0,0,270.0*
21,1,0.5750,1.8000,0,0,270.0*
1,1,0.5750,-0.6125,-0.2875*
1,1,0.5750,-0.6125,0.2875*
1,1,0.5750,0.6125,0.2875*
1,1,0.5750,0.6125,-0.2875*
%
%ADD48ROUNDEDRECTD48*%
G04:AMPARAMS|DCode=49|XSize=1.125mm|YSize=1.75mm|CornerRadius=0.2813mm|HoleSize=0mm|Usage=FLASHONLY|Rotation=180.000|XOffset=0mm|YOffset=0mm|HoleType=Round|Shape=RoundedRectangle|*
%AMROUNDEDRECTD49*
21,1,1.1250,1.1875,0,0,180.0*
21,1,0.5625,1.7500,0,0,180.0*
1,1,0.5625,-0.2813,0.5938*
1,1,0.5625,0.2813,0.5938*
1,1,0.5625,0.2813,-0.5938*
1,1,0.5625,-0.2813,-0.5938*
%
%ADD49ROUNDEDRECTD49*%
G04:AMPARAMS|DCode=50|XSize=1.15mm|YSize=1.8mm|CornerRadius=0.2875mm|HoleSize=0mm|Usage=FLASHONLY|Rotation=0.000|XOffset=0mm|YOffset=0mm|HoleType=Round|Shape=RoundedRectangle|*
%AMROUNDEDRECTD50*
21,1,1.1500,1.2250,0,0,0.0*
21,1,0.5750,1.8000,0,0,0.0*
1,1,0.5750,0.2875,-0.6125*
1,1,0.5750,-0.2875,-0.6125*
1,1,0.5750,-0.2875,0.6125*
1,1,0.5750,0.2875,0.6125*
%
%ADD50ROUNDEDRECTD50*%
G04:AMPARAMS|DCode=51|XSize=0.8mm|YSize=0.95mm|CornerRadius=0.2mm|HoleSize=0mm|Usage=FLASHONLY|Rotation=270.000|XOffset=0mm|YOffset=0mm|HoleType=Round|Shape=RoundedRectangle|*
%AMROUNDEDRECTD51*
21,1,0.8000,0.5500,0,0,270.0*
21,1,0.4000,0.9500,0,0,270.0*
1,1,0.4000,-0.2750,-0.2000*
1,1,0.4000,-0.2750,0.2000*
1,1,0.4000,0.2750,0.2000*
1,1,0.4000,0.2750,-0.2000*
%
%ADD51ROUNDEDRECTD51*%
%ADD52O,0.6000X0.2500*%
%ADD53O,0.2500X0.6000*%
%ADD54R,3.4500X3.4500*%
G04:AMPARAMS|DCode=55|XSize=1.15mm|YSize=2.7mm|CornerRadius=0.2875mm|HoleSize=0mm|Usage=FLASHONLY|Rotation=90.000|XOffset=0mm|YOffset=0mm|HoleType=Round|Shape=RoundedRectangle|*
%AMROUNDEDRECTD55*
21,1,1.1500,2.1250,0,0,90.0*
21,1,0.5750,2.7000,0,0,90.0*
1,1,0.5750,1.0625,0.2875*
1,1,0.5750,1.0625,-0.2875*
1,1,0.5750,-1.0625,-0.2875*
1,1,0.5750,-1.0625,0.2875*
%
%ADD55ROUNDEDRECTD55*%
G04:AMPARAMS|DCode=56|XSize=1.25mm|YSize=0.59mm|CornerRadius=0.0738mm|HoleSize=0mm|Usage=FLASHONLY|Rotation=0.000|XOffset=0mm|YOffset=0mm|HoleType=Round|Shape=RoundedRectangle|*
%AMROUNDEDRECTD56*
21,1,1.2500,0.4425,0,0,0.0*
21,1,1.1025,0.5900,0,0,0.0*
1,1,0.1475,0.5513,-0.2213*
1,1,0.1475,-0.5513,-0.2213*
1,1,0.1475,-0.5513,0.2213*
1,1,0.1475,0.5513,0.2213*
%
%ADD56ROUNDEDRECTD56*%
G04:AMPARAMS|DCode=57|XSize=1mm|YSize=1.45mm|CornerRadius=0.125mm|HoleSize=0mm|Usage=FLASHONLY|Rotation=270.000|XOffset=0mm|YOffset=0mm|HoleType=Round|Shape=RoundedRectangle|*
%AMROUNDEDRECTD57*
21,1,1.0000,1.2000,0,0,270.0*
21,1,0.7500,1.4500,0,0,270.0*
1,1,0.2500,-0.6000,-0.3750*
1,1,0.2500,-0.6000,0.3750*
1,1,0.2500,0.6000,0.3750*
1,1,0.2500,0.6000,-0.3750*
%
%ADD57ROUNDEDRECTD57*%
G04:AMPARAMS|DCode=58|XSize=1mm|YSize=1.45mm|CornerRadius=0.125mm|HoleSize=0mm|Usage=FLASHONLY|Rotation=180.000|XOffset=0mm|YOffset=0mm|HoleType=Round|Shape=RoundedRectangle|*
%AMROUNDEDRECTD58*
21,1,1.0000,1.2000,0,0,180.0*
21,1,0.7500,1.4500,0,0,180.0*
1,1,0.2500,-0.3750,0.6000*
1,1,0.2500,0.3750,0.6000*
1,1,0.2500,0.3750,-0.6000*
1,1,0.2500,-0.3750,-0.6000*
%
%ADD58ROUNDEDRECTD58*%
%ADD59R,1.1500X0.6000*%
%ADD60R,0.6000X1.2500*%
%ADD61R,1.1500X0.3000*%
%ADD62C,1.5300*%
%ADD63R,1.5300X1.5300*%
%ADD64C,1.8000*%
%ADD65C,1.6000*%
G04:AMPARAMS|DCode=66|XSize=1.6mm|YSize=1.6mm|CornerRadius=0.4mm|HoleSize=0mm|Usage=FLASHONLY|Rotation=0.000|XOffset=0mm|YOffset=0mm|HoleType=Round|Shape=RoundedRectangle|*
%AMROUNDEDRECTD66*
21,1,1.6000,0.8000,0,0,0.0*
21,1,0.8000,1.6000,0,0,0.0*
1,1,0.8000,0.4000,-0.4000*
1,1,0.8000,-0.4000,-0.4000*
1,1,0.8000,-0.4000,0.4000*
1,1,0.8000,0.4000,0.4000*
%
%ADD66ROUNDEDRECTD66*%
G04:AMPARAMS|DCode=67|XSize=1.6mm|YSize=1.6mm|CornerRadius=0.4mm|HoleSize=0mm|Usage=FLASHONLY|Rotation=270.000|XOffset=0mm|YOffset=0mm|HoleType=Round|Shape=RoundedRectangle|*
%AMROUNDEDRECTD67*
21,1,1.6000,0.8000,0,0,270.0*
21,1,0.8000,1.6000,0,0,270.0*
1,1,0.8000,-0.4000,-0.4000*
1,1,0.8000,-0.4000,0.4000*
1,1,0.8000,0.4000,0.4000*
1,1,0.8000,0.4000,-0.4000*
%
%ADD67ROUNDEDRECTD67*%
%ADD68R,1.3700X1.3700*%
%ADD69C,1.3700*%
%ADD70C,1.2280*%
%ADD71C,1.6002*%
%ADD72R,1.5300X1.5300*%
%ADD73C,1.3080*%
%ADD74R,1.3080X1.3080*%
%ADD76C,0.6500*%
G04:AMPARAMS|DCode=77|XSize=1.8mm|YSize=1mm|CornerRadius=0.25mm|HoleSize=0mm|Usage=FLASHONLY|Rotation=0.000|XOffset=0mm|YOffset=0mm|HoleType=Round|Shape=RoundedRectangle|*
%AMROUNDEDRECTD77*
21,1,1.8000,0.5000,0,0,0.0*
21,1,1.3000,1.0000,0,0,0.0*
1,1,0.5000,0.6500,-0.2500*
1,1,0.5000,-0.6500,-0.2500*
1,1,0.5000,-0.6500,0.2500*
1,1,0.5000,0.6500,0.2500*
%
%ADD77ROUNDEDRECTD77*%
%ADD78O,2.1000X1.0000*%
%ADD79C,0.5080*%
%ADD80C,0.2500*%
%ADD81C,0.2540*%
%ADD82C,1.0000*%
%ADD83C,0.3000*%
%ADD84C,0.3500*%
%ADD85C,0.7974*%
%ADD86C,0.3500*%
%ADD87C,1.1500*%
%ADD88C,0.5000*%
%ADD89C,0.6000*%
%ADD90C,1.8750*%
%ADD91C,0.6000*%
G36*
X696666Y3334D02*
X3334D01*
Y934166D01*
X696666D01*
Y3334D01*
D02*
G37*
%LPC*%
G36*
X675000Y922105D02*
X666270D01*
Y910770D01*
X682605D01*
Y914500D01*
X682346Y916468D01*
X681586Y918303D01*
X680378Y919878D01*
X678803Y921086D01*
X676968Y921846D01*
X675000Y922105D01*
D02*
G37*
G36*
X663730D02*
X655000D01*
X653032Y921846D01*
X651198Y921086D01*
X649622Y919878D01*
X648414Y918303D01*
X647654Y916468D01*
X647395Y914500D01*
Y910770D01*
X663730D01*
Y922105D01*
D02*
G37*
G36*
X170838Y918041D02*
X170720D01*
Y908770D01*
X179991D01*
Y908888D01*
X179273Y911569D01*
X177885Y913972D01*
X175922Y915935D01*
X173519Y917323D01*
X170838Y918041D01*
D02*
G37*
G36*
X468713D02*
X468595D01*
Y908770D01*
X477866D01*
Y908888D01*
X477148Y911569D01*
X475760Y913972D01*
X473797Y915935D01*
X471394Y917323D01*
X468713Y918041D01*
D02*
G37*
G36*
X319775D02*
X319657D01*
Y908770D01*
X328928D01*
Y908888D01*
X328210Y911569D01*
X326822Y913972D01*
X324860Y915935D01*
X322456Y917323D01*
X319775Y918041D01*
D02*
G37*
G36*
X466055D02*
X465937D01*
X463256Y917323D01*
X460853Y915935D01*
X458890Y913972D01*
X457502Y911569D01*
X456784Y908888D01*
Y908770D01*
X466055D01*
Y918041D01*
D02*
G37*
G36*
X168180D02*
X168062D01*
X165381Y917323D01*
X162978Y915935D01*
X161015Y913972D01*
X159627Y911569D01*
X158909Y908888D01*
Y908770D01*
X168180D01*
Y918041D01*
D02*
G37*
G36*
X317118D02*
X317000D01*
X314319Y917323D01*
X311915Y915935D01*
X309953Y913972D01*
X308565Y911569D01*
X307847Y908888D01*
Y908770D01*
X317118D01*
Y918041D01*
D02*
G37*
G36*
X370504Y917501D02*
X367871D01*
X365327Y916820D01*
X363047Y915503D01*
X361185Y913641D01*
X359868Y911360D01*
X359187Y908817D01*
Y906183D01*
X359638Y904497D01*
X357300Y902159D01*
X356488Y901978D01*
X355675Y902159D01*
X353337Y904497D01*
X353788Y906183D01*
Y908817D01*
X353107Y911360D01*
X351790Y913641D01*
X349928Y915503D01*
X347648Y916820D01*
X345104Y917501D01*
X342471D01*
X339927Y916820D01*
X337647Y915503D01*
X335785Y913641D01*
X334468Y911360D01*
X333787Y908817D01*
Y906183D01*
X334468Y903640D01*
X335785Y901359D01*
X337647Y899497D01*
X339927Y898180D01*
X342471Y897499D01*
X345104D01*
X346790Y897951D01*
X348069Y896673D01*
Y838157D01*
X348069Y838157D01*
X348421Y836385D01*
X349424Y834883D01*
X462081Y722227D01*
Y661346D01*
X452625D01*
X450723Y660967D01*
X449110Y659890D01*
X448056Y658311D01*
X447897Y658285D01*
X446753Y658352D01*
X446726Y658488D01*
X445529Y660279D01*
X443738Y661476D01*
X441625Y661896D01*
X436770D01*
Y653500D01*
Y645104D01*
X441625D01*
X443738Y645524D01*
X445529Y646721D01*
X446726Y648512D01*
X446753Y648648D01*
X447897Y648715D01*
X448056Y648689D01*
X449110Y647110D01*
X450723Y646033D01*
X452625Y645655D01*
X464875D01*
X466777Y646033D01*
X468390Y647110D01*
X469467Y648723D01*
X469846Y650625D01*
Y653169D01*
X470500Y653547D01*
X471155Y653169D01*
Y650625D01*
X471533Y648723D01*
X472610Y647110D01*
X474223Y646033D01*
X476125Y645655D01*
X488375D01*
X490277Y646033D01*
X491890Y647110D01*
X492944Y648689D01*
X493103Y648715D01*
X494247Y648649D01*
X494274Y648512D01*
X495471Y646721D01*
X497262Y645524D01*
X499375Y645104D01*
X504230D01*
Y653500D01*
Y661896D01*
X499375D01*
X497262Y661476D01*
X495471Y660279D01*
X494274Y658488D01*
X494247Y658352D01*
X493103Y658285D01*
X492944Y658311D01*
X491890Y659890D01*
X490277Y660967D01*
X488375Y661346D01*
X478919D01*
Y727284D01*
X478919Y727284D01*
X478567Y729055D01*
X477563Y730557D01*
X364906Y843214D01*
Y896673D01*
X366185Y897951D01*
X367871Y897499D01*
X370504D01*
X373048Y898180D01*
X375328Y899497D01*
X377190Y901359D01*
X378507Y903640D01*
X379188Y906183D01*
Y908817D01*
X378507Y911360D01*
X377190Y913641D01*
X375328Y915503D01*
X373048Y916820D01*
X370504Y917501D01*
D02*
G37*
G36*
X221567D02*
X218933D01*
X216390Y916820D01*
X214109Y915503D01*
X212247Y913641D01*
X210931Y911360D01*
X210249Y908817D01*
Y906183D01*
X210701Y904497D01*
X208363Y902159D01*
X207550Y901978D01*
X206737Y902159D01*
X204399Y904497D01*
X204851Y906183D01*
Y908817D01*
X204170Y911360D01*
X202853Y913641D01*
X200991Y915503D01*
X198710Y916820D01*
X196167Y917501D01*
X193533D01*
X190990Y916820D01*
X188709Y915503D01*
X186847Y913641D01*
X185530Y911360D01*
X184849Y908817D01*
Y906183D01*
X185530Y903640D01*
X186847Y901359D01*
X188709Y899497D01*
X190990Y898180D01*
X193533Y897499D01*
X196167D01*
X197853Y897951D01*
X199131Y896673D01*
Y877020D01*
X199131Y877020D01*
X199483Y875249D01*
X200487Y873747D01*
X368581Y705653D01*
Y661346D01*
X359125D01*
X357223Y660967D01*
X355610Y659890D01*
X354556Y658311D01*
X354397Y658285D01*
X353253Y658352D01*
X353226Y658488D01*
X352029Y660279D01*
X350522Y661286D01*
X350548Y662084D01*
X350690Y662571D01*
X350695Y662582D01*
X352440Y662929D01*
X354032Y663993D01*
X355096Y665585D01*
X355469Y667462D01*
Y679337D01*
X355096Y681215D01*
X354032Y682807D01*
X352440Y683871D01*
X352379Y683883D01*
Y688860D01*
X352750Y689755D01*
Y691745D01*
X351989Y693582D01*
X350582Y694989D01*
X348745Y695750D01*
X346755D01*
X344918Y694989D01*
X343511Y693582D01*
X342750Y691745D01*
Y689755D01*
X343121Y688860D01*
Y683883D01*
X343060Y683871D01*
X341468Y682807D01*
X340404Y681215D01*
X340031Y679337D01*
Y674462D01*
X337974D01*
X337974Y674462D01*
X336202Y674109D01*
X334701Y673106D01*
X327131Y665536D01*
X325961Y666162D01*
X326219Y667462D01*
Y679337D01*
X325846Y681215D01*
X324782Y682807D01*
X323190Y683871D01*
X321312Y684244D01*
X315688D01*
X313810Y683871D01*
X312218Y682807D01*
X311154Y681215D01*
X310781Y679337D01*
Y678079D01*
X308011D01*
X306995Y678500D01*
X305005D01*
X303168Y677739D01*
X301761Y676332D01*
X301000Y674495D01*
Y672505D01*
X301761Y670668D01*
X303168Y669261D01*
X305005Y668500D01*
X306995D01*
X307770Y668821D01*
X310781D01*
Y667462D01*
X311154Y665585D01*
X312218Y663993D01*
X313810Y662929D01*
X315688Y662556D01*
X321312D01*
X322081Y661414D01*
X321997Y661273D01*
X312375D01*
X310473Y660895D01*
X308860Y659817D01*
X307806Y658239D01*
X307647Y658213D01*
X306503Y658279D01*
X306476Y658415D01*
X305279Y660207D01*
X303488Y661403D01*
X301375Y661824D01*
X296520D01*
Y653428D01*
Y645032D01*
X301375D01*
X303488Y645452D01*
X305279Y646648D01*
X306476Y648440D01*
X306503Y648576D01*
X307647Y648642D01*
X307806Y648616D01*
X308860Y647038D01*
X310473Y645960D01*
X312375Y645582D01*
X324625D01*
X326527Y645960D01*
X328140Y647038D01*
X329217Y648650D01*
X329334Y649240D01*
X330629D01*
X330774Y648512D01*
X331971Y646721D01*
X333762Y645524D01*
X335875Y645104D01*
X340730D01*
Y653500D01*
X343270D01*
Y645104D01*
X348125D01*
X350238Y645524D01*
X352029Y646721D01*
X353226Y648512D01*
X353253Y648648D01*
X354397Y648715D01*
X354556Y648689D01*
X355610Y647110D01*
X357223Y646033D01*
X359125Y645655D01*
X371375D01*
X373277Y646033D01*
X374890Y647110D01*
X375967Y648723D01*
X376346Y650625D01*
Y653169D01*
X377000Y653547D01*
X377655Y653169D01*
Y650625D01*
X378033Y648723D01*
X379110Y647110D01*
X380723Y646033D01*
X382625Y645655D01*
X394875D01*
X396777Y646033D01*
X398390Y647110D01*
X399444Y648689D01*
X399603Y648715D01*
X400747Y648649D01*
X400774Y648512D01*
X401971Y646721D01*
X403762Y645524D01*
X405875Y645104D01*
X410730D01*
Y653500D01*
Y661896D01*
X405875D01*
X403762Y661476D01*
X401971Y660279D01*
X400774Y658488D01*
X400747Y658352D01*
X399603Y658285D01*
X399444Y658311D01*
X398390Y659890D01*
X396777Y660967D01*
X394875Y661346D01*
X385419D01*
Y710710D01*
X385067Y712481D01*
X384063Y713983D01*
X384063Y713983D01*
X215969Y882077D01*
Y896673D01*
X217247Y897951D01*
X218933Y897499D01*
X221567D01*
X224110Y898180D01*
X226391Y899497D01*
X228253Y901359D01*
X229569Y903640D01*
X230251Y906183D01*
Y908817D01*
X229569Y911360D01*
X228253Y913641D01*
X226391Y915503D01*
X224110Y916820D01*
X221567Y917501D01*
D02*
G37*
G36*
X80875Y910096D02*
X75125D01*
X73223Y909717D01*
X71610Y908640D01*
X70533Y907027D01*
X70155Y905125D01*
Y899129D01*
X56900D01*
Y904050D01*
X37600D01*
Y884750D01*
X56900D01*
Y889871D01*
X70155D01*
Y883875D01*
X70533Y881973D01*
X71610Y880360D01*
X73223Y879283D01*
X73434Y879241D01*
Y877720D01*
X71843Y876657D01*
X70779Y875065D01*
X70406Y873187D01*
Y861312D01*
X70779Y859435D01*
X71843Y857843D01*
X73435Y856779D01*
X75312Y856406D01*
X80938D01*
X82815Y856779D01*
X84407Y857843D01*
X85471Y859435D01*
X85844Y861312D01*
Y873187D01*
X85471Y875065D01*
X84407Y876657D01*
X82815Y877721D01*
X82691Y877745D01*
Y879266D01*
X82777Y879283D01*
X84390Y880360D01*
X85467Y881973D01*
X85845Y883875D01*
Y905125D01*
X85467Y907027D01*
X84390Y908640D01*
X82777Y909717D01*
X80875Y910096D01*
D02*
G37*
G36*
X519442Y917501D02*
X516808D01*
X514265Y916820D01*
X511984Y915503D01*
X510122Y913641D01*
X508806Y911360D01*
X508124Y908817D01*
Y906183D01*
X508806Y903640D01*
X510122Y901359D01*
X511984Y899497D01*
X514265Y898180D01*
X516808Y897499D01*
X519442D01*
X521985Y898180D01*
X524266Y899497D01*
X526128Y901359D01*
X527444Y903640D01*
X528126Y906183D01*
Y908817D01*
X527444Y911360D01*
X526128Y913641D01*
X524266Y915503D01*
X521985Y916820D01*
X519442Y917501D01*
D02*
G37*
G36*
X494042D02*
X491408D01*
X488865Y916820D01*
X486584Y915503D01*
X484722Y913641D01*
X483405Y911360D01*
X482724Y908817D01*
Y906183D01*
X483405Y903640D01*
X484722Y901359D01*
X486584Y899497D01*
X488865Y898180D01*
X491408Y897499D01*
X494042D01*
X496585Y898180D01*
X498866Y899497D01*
X500728Y901359D01*
X502044Y903640D01*
X502726Y906183D01*
Y908817D01*
X502044Y911360D01*
X500728Y913641D01*
X498866Y915503D01*
X496585Y916820D01*
X494042Y917501D01*
D02*
G37*
G36*
X477866Y906230D02*
X468595D01*
Y896959D01*
X468713D01*
X471394Y897677D01*
X473797Y899065D01*
X475760Y901028D01*
X477148Y903431D01*
X477866Y906112D01*
Y906230D01*
D02*
G37*
G36*
X466055D02*
X456784D01*
Y906112D01*
X457502Y903431D01*
X458890Y901028D01*
X460853Y899065D01*
X463256Y897677D01*
X465937Y896959D01*
X466055D01*
Y906230D01*
D02*
G37*
G36*
X328928D02*
X319657D01*
Y896959D01*
X319775D01*
X322456Y897677D01*
X324860Y899065D01*
X326822Y901028D01*
X328210Y903431D01*
X328928Y906112D01*
Y906230D01*
D02*
G37*
G36*
X317118D02*
X307847D01*
Y906112D01*
X308565Y903431D01*
X309953Y901028D01*
X311915Y899065D01*
X314319Y897677D01*
X317000Y896959D01*
X317118D01*
Y906230D01*
D02*
G37*
G36*
X179991D02*
X170720D01*
Y896959D01*
X170838D01*
X173519Y897677D01*
X175922Y899065D01*
X177885Y901028D01*
X179273Y903431D01*
X179991Y906112D01*
Y906230D01*
D02*
G37*
G36*
X168180D02*
X158909D01*
Y906112D01*
X159627Y903431D01*
X161015Y901028D01*
X162978Y899065D01*
X165381Y897677D01*
X168062Y896959D01*
X168180D01*
Y906230D01*
D02*
G37*
G36*
X682605Y908230D02*
X666270D01*
Y896895D01*
X675000D01*
X676968Y897154D01*
X678803Y897914D01*
X680378Y899122D01*
X681586Y900697D01*
X682346Y902532D01*
X682605Y904500D01*
Y908230D01*
D02*
G37*
G36*
X663730D02*
X647395D01*
Y904500D01*
X647654Y902532D01*
X648414Y900697D01*
X649622Y899122D01*
X651198Y897914D01*
X653032Y897154D01*
X655000Y896895D01*
X663730D01*
Y908230D01*
D02*
G37*
G36*
X615448Y918500D02*
X612552D01*
X609754Y917750D01*
X607246Y916302D01*
X605198Y914254D01*
X603750Y911746D01*
X603000Y908948D01*
Y906052D01*
X603750Y903254D01*
X605198Y900746D01*
X607246Y898698D01*
X609754Y897250D01*
X612552Y896500D01*
X615448D01*
X618246Y897250D01*
X620754Y898698D01*
X622802Y900746D01*
X624250Y903254D01*
X625000Y906052D01*
Y908948D01*
X624250Y911746D01*
X622802Y914254D01*
X620754Y916302D01*
X618246Y917750D01*
X615448Y918500D01*
D02*
G37*
G36*
X110375Y910646D02*
X108770D01*
Y895770D01*
X115896D01*
Y905125D01*
X115476Y907238D01*
X114279Y909029D01*
X112488Y910226D01*
X110375Y910646D01*
D02*
G37*
G36*
X106230D02*
X104625D01*
X102512Y910226D01*
X100721Y909029D01*
X99524Y907238D01*
X99104Y905125D01*
Y895770D01*
X106230D01*
Y910646D01*
D02*
G37*
G36*
X676250Y886113D02*
X653750D01*
X651507Y885666D01*
X649604Y884396D01*
X648334Y882494D01*
X648062Y881129D01*
X642500D01*
X640729Y880777D01*
X639227Y879773D01*
X639227Y879773D01*
X627237Y867783D01*
X626233Y866282D01*
X625881Y864510D01*
X625881Y864510D01*
Y850567D01*
X624611Y850400D01*
X624250Y851746D01*
X622802Y854254D01*
X620754Y856302D01*
X618246Y857750D01*
X615448Y858500D01*
X612552D01*
X609754Y857750D01*
X607246Y856302D01*
X605198Y854254D01*
X603750Y851746D01*
X603000Y848948D01*
Y846052D01*
X603750Y843254D01*
X605198Y840746D01*
X607246Y838698D01*
X609754Y837250D01*
X612552Y836500D01*
X615448D01*
X618246Y837250D01*
X620754Y838698D01*
X622802Y840746D01*
X624250Y843254D01*
X624611Y844600D01*
X625881Y844433D01*
Y801670D01*
X624585Y800922D01*
X622788Y799125D01*
X621518Y796925D01*
X620860Y794471D01*
Y791930D01*
X621518Y789475D01*
X622788Y787275D01*
X624585Y785478D01*
X626785Y784208D01*
X629240Y783550D01*
X631781D01*
X634235Y784208D01*
X636435Y785478D01*
X638232Y787275D01*
X639502Y789475D01*
X640160Y791930D01*
Y794471D01*
X639502Y796925D01*
X638232Y799125D01*
X636435Y800922D01*
X635139Y801670D01*
Y862593D01*
X644417Y871871D01*
X648062D01*
X648334Y870507D01*
X649604Y868605D01*
X651507Y867334D01*
X653750Y866887D01*
X676250D01*
X678493Y867334D01*
X680396Y868605D01*
X681666Y870507D01*
X682113Y872750D01*
Y880250D01*
X681666Y882494D01*
X680396Y884396D01*
X678493Y885666D01*
X676250Y886113D01*
D02*
G37*
G36*
X48520Y878650D02*
X45979D01*
X43525Y877992D01*
X41325Y876722D01*
X39528Y874925D01*
X38258Y872725D01*
X37600Y870270D01*
Y867729D01*
X38258Y865275D01*
X39528Y863075D01*
X41325Y861278D01*
X43525Y860008D01*
X45979Y859350D01*
X48520D01*
X50975Y860008D01*
X53175Y861278D01*
X54972Y863075D01*
X56242Y865275D01*
X56900Y867729D01*
Y870270D01*
X56242Y872725D01*
X54972Y874925D01*
X53175Y876722D01*
X50975Y877992D01*
X48520Y878650D01*
D02*
G37*
G36*
Y853250D02*
X45979D01*
X43525Y852592D01*
X41325Y851322D01*
X39528Y849525D01*
X38258Y847325D01*
X37600Y844870D01*
Y842329D01*
X38258Y839875D01*
X39528Y837675D01*
X41325Y835878D01*
X43525Y834608D01*
X45979Y833950D01*
X48520D01*
X50975Y834608D01*
X53175Y835878D01*
X54972Y837675D01*
X56242Y839875D01*
X56900Y842329D01*
Y844870D01*
X56242Y847325D01*
X54972Y849525D01*
X53175Y851322D01*
X50975Y852592D01*
X48520Y853250D01*
D02*
G37*
G36*
X46150Y814265D02*
X43670D01*
Y805671D01*
X50014D01*
Y810401D01*
X49720Y811879D01*
X48882Y813133D01*
X47629Y813971D01*
X46150Y814265D01*
D02*
G37*
G36*
X41130D02*
X38650D01*
X37171Y813971D01*
X35917Y813133D01*
X35080Y811879D01*
X34786Y810401D01*
Y805671D01*
X41130D01*
Y814265D01*
D02*
G37*
G36*
X578000Y856560D02*
X558000D01*
X556173Y856320D01*
X554470Y855614D01*
X553008Y854492D01*
X551885Y853030D01*
X551180Y851327D01*
X550940Y849500D01*
Y839500D01*
X551180Y837673D01*
X551885Y835970D01*
X553008Y834508D01*
X554470Y833385D01*
X556173Y832680D01*
X558000Y832440D01*
X563371D01*
Y802844D01*
X562062D01*
X560185Y802471D01*
X558593Y801407D01*
X557530Y799816D01*
X548791D01*
X547745Y800250D01*
X545755D01*
X543918Y799489D01*
X542511Y798082D01*
X541750Y796245D01*
Y794255D01*
X542511Y792418D01*
X543918Y791011D01*
X545755Y790250D01*
X547745D01*
X548489Y790558D01*
X557505D01*
X557529Y790435D01*
X558593Y788843D01*
X560185Y787779D01*
X562062Y787406D01*
X573937D01*
X575815Y787779D01*
X577407Y788843D01*
X578471Y790435D01*
X578844Y792312D01*
Y797937D01*
X578471Y799815D01*
X577407Y801407D01*
X575815Y802471D01*
X573937Y802844D01*
X572629D01*
Y832440D01*
X578000D01*
X579827Y832680D01*
X581530Y833385D01*
X582993Y834508D01*
X584114Y835970D01*
X584820Y837673D01*
X585060Y839500D01*
Y849500D01*
X584820Y851327D01*
X584114Y853030D01*
X582993Y854492D01*
X581530Y855614D01*
X579827Y856320D01*
X578000Y856560D01*
D02*
G37*
G36*
X50014Y803131D02*
X43670D01*
Y794536D01*
X46150D01*
X47629Y794830D01*
X48882Y795668D01*
X49720Y796922D01*
X50014Y798401D01*
Y803131D01*
D02*
G37*
G36*
X41130D02*
X34786D01*
Y798401D01*
X35080Y796922D01*
X35917Y795668D01*
X37171Y794830D01*
X38650Y794536D01*
X41130D01*
Y803131D01*
D02*
G37*
G36*
X676250Y857113D02*
X653750D01*
X651507Y856666D01*
X649604Y855396D01*
X648334Y853493D01*
X647887Y851250D01*
Y843750D01*
X648334Y841507D01*
X649604Y839604D01*
X651507Y838334D01*
X653750Y837887D01*
X660371D01*
Y802844D01*
X659062D01*
X657185Y802471D01*
X655593Y801407D01*
X654529Y799815D01*
X654156Y797937D01*
Y792312D01*
X654529Y790435D01*
X655593Y788843D01*
X657185Y787779D01*
X659062Y787406D01*
X670938D01*
X672815Y787779D01*
X674407Y788843D01*
X675471Y790435D01*
X675495Y790558D01*
X681761D01*
X682505Y790250D01*
X684495D01*
X686332Y791011D01*
X687739Y792418D01*
X688500Y794255D01*
Y796245D01*
X687739Y798082D01*
X686332Y799489D01*
X684495Y800250D01*
X682505D01*
X681459Y799816D01*
X675470D01*
X674407Y801407D01*
X672815Y802471D01*
X670938Y802844D01*
X669629D01*
Y837887D01*
X676250D01*
X678493Y838334D01*
X680396Y839604D01*
X681666Y841507D01*
X682113Y843750D01*
Y851250D01*
X681666Y853493D01*
X680396Y855396D01*
X678493Y856666D01*
X676250Y857113D01*
D02*
G37*
G36*
X579250Y898113D02*
X556750D01*
X554506Y897666D01*
X552604Y896395D01*
X551334Y894493D01*
X550887Y892250D01*
Y884750D01*
X551334Y882506D01*
X552604Y880604D01*
X554506Y879334D01*
X556750Y878887D01*
X579250D01*
X581493Y879334D01*
X583396Y880604D01*
X584666Y882506D01*
X584800Y883178D01*
X586158Y883496D01*
X590752Y878902D01*
Y830119D01*
X590752Y830119D01*
X591105Y828347D01*
X592108Y826846D01*
X597861Y821093D01*
Y801670D01*
X596565Y800922D01*
X594768Y799125D01*
X593498Y796925D01*
X592840Y794471D01*
Y791930D01*
X593498Y789475D01*
X594768Y787275D01*
X596565Y785478D01*
X598765Y784208D01*
X601219Y783550D01*
X603760D01*
X606215Y784208D01*
X608415Y785478D01*
X610212Y787275D01*
X611482Y789475D01*
X612140Y791930D01*
Y794471D01*
X611482Y796925D01*
X610212Y799125D01*
X608415Y800922D01*
X607119Y801670D01*
Y823010D01*
X607119Y823010D01*
X606767Y824781D01*
X605763Y826283D01*
X600010Y832036D01*
Y880819D01*
X600010Y880819D01*
X599658Y882590D01*
X598654Y884092D01*
X598654Y884092D01*
X590973Y891773D01*
X589472Y892777D01*
X587700Y893129D01*
X587700Y893129D01*
X584938D01*
X584666Y894493D01*
X583396Y896395D01*
X581493Y897666D01*
X579250Y898113D01*
D02*
G37*
G36*
X98650Y779530D02*
X97170D01*
Y774171D01*
X103279D01*
Y774901D01*
X102927Y776672D01*
X101923Y778174D01*
X100421Y779177D01*
X98650Y779530D01*
D02*
G37*
G36*
X94630D02*
X93150D01*
X91378Y779177D01*
X89877Y778174D01*
X88873Y776672D01*
X88521Y774901D01*
Y774171D01*
X94630D01*
Y779530D01*
D02*
G37*
G36*
X640160Y777450D02*
X620860D01*
Y772429D01*
X612140D01*
Y777450D01*
X592840D01*
Y758150D01*
X612140D01*
Y763171D01*
X620860D01*
Y758150D01*
X624371D01*
Y720977D01*
X624002Y720764D01*
X622486Y719248D01*
X621415Y717392D01*
X620860Y715322D01*
Y713178D01*
X621415Y711108D01*
X622486Y709252D01*
X624002Y707736D01*
X625858Y706665D01*
X627928Y706110D01*
X630072D01*
X632142Y706665D01*
X633998Y707736D01*
X635514Y709252D01*
X636585Y711108D01*
X637140Y713178D01*
Y715322D01*
X636585Y717392D01*
X635514Y719248D01*
X633998Y720764D01*
X633629Y720977D01*
Y758150D01*
X640160D01*
Y777450D01*
D02*
G37*
G36*
X103279Y771631D02*
X97170D01*
Y766272D01*
X98650D01*
X100421Y766624D01*
X101923Y767627D01*
X102927Y769129D01*
X103279Y770901D01*
Y771631D01*
D02*
G37*
G36*
X94630D02*
X88521D01*
Y770901D01*
X88873Y769129D01*
X89877Y767627D01*
X91378Y766624D01*
X93150Y766272D01*
X94630D01*
Y771631D01*
D02*
G37*
G36*
X27150Y813714D02*
X19650D01*
X18382Y813462D01*
X17307Y812744D01*
X16588Y811669D01*
X16336Y810401D01*
Y798401D01*
X16588Y797132D01*
X17307Y796058D01*
X18203Y795459D01*
X18173Y794723D01*
X17992Y794189D01*
X16900D01*
X15144Y793839D01*
X13656Y792845D01*
X12661Y791356D01*
X12312Y789601D01*
Y784601D01*
X12661Y782845D01*
X13656Y781356D01*
X15144Y780362D01*
X16900Y780013D01*
X18771D01*
Y707789D01*
X16900D01*
X15144Y707439D01*
X13656Y706445D01*
X12661Y704956D01*
X12312Y703201D01*
Y698201D01*
X12661Y696445D01*
X13656Y694956D01*
X15144Y693962D01*
X16900Y693613D01*
X29900D01*
X31656Y693962D01*
X33144Y694956D01*
X33889Y696072D01*
X38073D01*
X38922Y694802D01*
X38650Y694145D01*
Y692156D01*
X39350Y690466D01*
X39347Y690106D01*
X38995Y688939D01*
X38016Y688285D01*
X37132Y686961D01*
X36821Y685401D01*
Y681401D01*
X37132Y679840D01*
X38016Y678517D01*
X39339Y677633D01*
X40900Y677322D01*
X46400D01*
X47961Y677633D01*
X49284Y678517D01*
X50168Y679840D01*
X50478Y681401D01*
Y685401D01*
X50168Y686961D01*
X49284Y688285D01*
X48305Y688939D01*
X47953Y690106D01*
X47950Y690466D01*
X48650Y692156D01*
Y694145D01*
X48378Y694802D01*
X49227Y696072D01*
X54429D01*
X54707Y695708D01*
X56170Y694586D01*
X57826Y693900D01*
X57903Y693717D01*
X58118Y692568D01*
X57467Y692133D01*
X56630Y690879D01*
X56336Y689401D01*
Y684671D01*
X71564D01*
Y689401D01*
X71270Y690879D01*
X70432Y692133D01*
X70077Y692370D01*
X70463Y693640D01*
X70700D01*
X72527Y693881D01*
X74230Y694586D01*
X75692Y695708D01*
X76582Y696868D01*
X77852Y696509D01*
Y692409D01*
X76857Y691744D01*
X76139Y690669D01*
X75886Y689401D01*
Y677401D01*
X76139Y676133D01*
X76857Y675058D01*
X77852Y674393D01*
Y671714D01*
X77182Y670711D01*
X76872Y669151D01*
Y663651D01*
X77182Y662090D01*
X78066Y660767D01*
X79389Y659883D01*
X80950Y659572D01*
X84950D01*
X86511Y659883D01*
X87834Y660767D01*
X88718Y662090D01*
X89028Y663651D01*
Y669151D01*
X88718Y670711D01*
X88048Y671714D01*
Y674393D01*
X89043Y675058D01*
X89761Y676133D01*
X90014Y677401D01*
Y689401D01*
X89761Y690669D01*
X89043Y691744D01*
X88048Y692409D01*
Y699585D01*
X89318Y700111D01*
X89918Y699511D01*
X91755Y698750D01*
X93745D01*
X95582Y699511D01*
X96989Y700918D01*
X97063Y701096D01*
X98437D01*
X98511Y700918D01*
X99918Y699511D01*
X101755Y698750D01*
X103745D01*
X105582Y699511D01*
X106989Y700918D01*
X107750Y702755D01*
Y704745D01*
X106989Y706582D01*
X106219Y707353D01*
Y713001D01*
X106191Y713137D01*
Y716056D01*
X106027Y716883D01*
X105558Y717584D01*
X104857Y718053D01*
X104030Y718217D01*
X101270D01*
X101219Y718259D01*
Y718583D01*
X100947Y719948D01*
X100634Y720416D01*
X101120Y721309D01*
X101381Y721584D01*
X104030D01*
X104857Y721749D01*
X105558Y722217D01*
X106027Y722918D01*
X106191Y723746D01*
Y729856D01*
X106027Y730683D01*
X105984Y730747D01*
Y740600D01*
X105730Y741876D01*
X105007Y742958D01*
X101358Y746608D01*
X100276Y747330D01*
X99000Y747584D01*
X87759D01*
Y747626D01*
X87505Y748902D01*
X86782Y749983D01*
X84872Y751893D01*
X85358Y753067D01*
X89337D01*
X89382Y752840D01*
X90266Y751517D01*
X91589Y750633D01*
X93150Y750322D01*
X98650D01*
X100211Y750633D01*
X101534Y751517D01*
X102418Y752840D01*
X102728Y754401D01*
Y758401D01*
X102418Y759961D01*
X101534Y761284D01*
X100211Y762169D01*
X98650Y762479D01*
X93150D01*
X91589Y762169D01*
X90266Y761284D01*
X89382Y759961D01*
X89337Y759735D01*
X78700D01*
Y770361D01*
X79240D01*
Y774631D01*
X70950D01*
Y777171D01*
X79240D01*
Y781441D01*
X76781D01*
X76155Y782711D01*
X76814Y783570D01*
X77520Y785273D01*
X77760Y787101D01*
X77520Y788928D01*
X76814Y790631D01*
X75692Y792093D01*
X74230Y793215D01*
X72527Y793920D01*
X70700Y794161D01*
X59700D01*
X57873Y793920D01*
X56170Y793215D01*
X54707Y792093D01*
X54429Y791730D01*
X33889D01*
X33144Y792845D01*
X31656Y793839D01*
X29900Y794189D01*
X28808D01*
X28627Y794723D01*
X28597Y795459D01*
X29493Y796058D01*
X30211Y797132D01*
X30464Y798401D01*
Y810401D01*
X30211Y811669D01*
X29493Y812744D01*
X28418Y813462D01*
X27150Y813714D01*
D02*
G37*
G36*
X670938Y773594D02*
X659062D01*
X657185Y773221D01*
X655593Y772157D01*
X654529Y770565D01*
X654156Y768688D01*
Y763063D01*
X654529Y761185D01*
X655593Y759593D01*
X657185Y758529D01*
X659062Y758156D01*
X660371D01*
Y752390D01*
X660000Y751495D01*
Y749505D01*
X660761Y747668D01*
X662168Y746261D01*
X664005Y745500D01*
X665995D01*
X667832Y746261D01*
X669239Y747668D01*
X670000Y749505D01*
Y751495D01*
X669629Y752390D01*
Y758156D01*
X670938D01*
X672815Y758529D01*
X674407Y759593D01*
X675471Y761185D01*
X675844Y763063D01*
Y768688D01*
X675471Y770565D01*
X674407Y772157D01*
X672815Y773221D01*
X670938Y773594D01*
D02*
G37*
G36*
X412245Y860750D02*
X410255D01*
X408418Y859989D01*
X407011Y858582D01*
X406250Y856745D01*
Y854755D01*
X407011Y852918D01*
X408418Y851511D01*
X409314Y851140D01*
X497852Y762602D01*
X499354Y761598D01*
X501125Y761246D01*
X501125Y761246D01*
X557517D01*
X557529Y761185D01*
X558593Y759593D01*
X560185Y758529D01*
X562062Y758156D01*
X563371D01*
Y752390D01*
X563000Y751495D01*
Y749505D01*
X563761Y747668D01*
X565168Y746261D01*
X567005Y745500D01*
X568995D01*
X570832Y746261D01*
X572239Y747668D01*
X573000Y749505D01*
Y751495D01*
X572629Y752390D01*
Y758156D01*
X573937D01*
X575815Y758529D01*
X577407Y759593D01*
X578471Y761185D01*
X578844Y763063D01*
Y768688D01*
X578471Y770565D01*
X577407Y772157D01*
X575815Y773221D01*
X573937Y773594D01*
X562062D01*
X560185Y773221D01*
X558593Y772157D01*
X557529Y770565D01*
X557517Y770504D01*
X503042D01*
X415860Y857686D01*
X415489Y858582D01*
X414082Y859989D01*
X412245Y860750D01*
D02*
G37*
G36*
X605270Y722896D02*
Y715520D01*
X612646D01*
X612089Y717600D01*
X610946Y719580D01*
X609330Y721196D01*
X607350Y722338D01*
X605270Y722896D01*
D02*
G37*
G36*
X602730D02*
X600650Y722338D01*
X598670Y721196D01*
X597054Y719580D01*
X595911Y717600D01*
X595354Y715520D01*
X602730D01*
Y722896D01*
D02*
G37*
G36*
X612646Y712980D02*
X605270D01*
Y705604D01*
X607350Y706161D01*
X609330Y707304D01*
X610946Y708920D01*
X612089Y710900D01*
X612646Y712980D01*
D02*
G37*
G36*
X602730D02*
X595354D01*
X595911Y710900D01*
X597054Y708920D01*
X598670Y707304D01*
X600650Y706161D01*
X602730Y705604D01*
Y712980D01*
D02*
G37*
G36*
X249245Y695750D02*
X247255D01*
X245418Y694989D01*
X244011Y693582D01*
X243250Y691745D01*
Y689755D01*
X243621Y688860D01*
Y683883D01*
X243560Y683871D01*
X241968Y682807D01*
X240904Y681215D01*
X240531Y679337D01*
Y667462D01*
X240904Y665585D01*
X241968Y663993D01*
X243560Y662929D01*
X243621Y662917D01*
Y661346D01*
X242125D01*
X240223Y660967D01*
X238610Y659890D01*
X237556Y658311D01*
X237397Y658285D01*
X236253Y658352D01*
X236226Y658488D01*
X235029Y660279D01*
X233238Y661476D01*
X231125Y661896D01*
X226270D01*
Y653500D01*
Y645104D01*
X231125D01*
X233238Y645524D01*
X235029Y646721D01*
X236226Y648512D01*
X236253Y648648D01*
X237397Y648715D01*
X237556Y648689D01*
X238610Y647110D01*
X240223Y646033D01*
X242125Y645655D01*
X254375D01*
X256277Y646033D01*
X257890Y647110D01*
X258967Y648723D01*
X259067Y649227D01*
X260362D01*
X260524Y648412D01*
X261721Y646621D01*
X263512Y645424D01*
X265625Y645004D01*
X269257D01*
X269510Y643734D01*
X268918Y643489D01*
X267511Y642082D01*
X266750Y640245D01*
Y638255D01*
X267121Y637360D01*
Y631745D01*
X265625D01*
X263723Y631367D01*
X262110Y630290D01*
X261033Y628677D01*
X260655Y626775D01*
Y621025D01*
X261033Y619123D01*
X262110Y617510D01*
X263723Y616433D01*
X265625Y616054D01*
X267121D01*
Y604120D01*
X265825Y603372D01*
X264028Y601575D01*
X262758Y599375D01*
X262100Y596920D01*
Y594380D01*
X262758Y591925D01*
X264028Y589725D01*
X265825Y587928D01*
X268025Y586658D01*
X270480Y586000D01*
X273020D01*
X274466Y586387D01*
X343205Y517649D01*
X342679Y516379D01*
X329167D01*
X255379Y590167D01*
Y616354D01*
X256277Y616533D01*
X257890Y617610D01*
X258967Y619223D01*
X259345Y621125D01*
Y626875D01*
X258967Y628777D01*
X257890Y630390D01*
X256277Y631467D01*
X254375Y631846D01*
X248412D01*
X248250Y631867D01*
X225000D01*
X224838Y631846D01*
X218875D01*
X216973Y631467D01*
X215360Y630390D01*
X214283Y628777D01*
X213905Y626875D01*
Y621125D01*
X214283Y619223D01*
X215360Y617610D01*
X216973Y616533D01*
X218875Y616155D01*
X231125D01*
X231871Y615057D01*
Y604270D01*
X230575Y603522D01*
X228778Y601725D01*
X227508Y599525D01*
X226850Y597070D01*
Y594529D01*
X227508Y592075D01*
X228778Y589875D01*
X230575Y588078D01*
X232775Y586808D01*
X235230Y586150D01*
X237771D01*
X240225Y586808D01*
X242425Y588078D01*
X244222Y589875D01*
X244851Y590964D01*
X246121Y590624D01*
Y588250D01*
X246121Y588250D01*
X246473Y586479D01*
X247477Y584977D01*
X323977Y508477D01*
X325479Y507473D01*
X327250Y507121D01*
X327250Y507121D01*
X333756D01*
X334605Y505851D01*
X334250Y504995D01*
Y503005D01*
X333664Y502129D01*
X313390D01*
X312495Y502500D01*
X310505D01*
X308668Y501739D01*
X307261Y500332D01*
X306500Y498495D01*
Y496505D01*
X307261Y494668D01*
X308668Y493261D01*
X310178Y492635D01*
X310324Y491431D01*
X310305Y491313D01*
X308918Y490739D01*
X307511Y489332D01*
X306750Y487495D01*
Y485505D01*
X307511Y483668D01*
X308918Y482261D01*
X310755Y481500D01*
X312745D01*
X313640Y481871D01*
X322419D01*
X323268Y480601D01*
X323000Y479955D01*
Y477965D01*
X323761Y476128D01*
X325168Y474721D01*
X326671Y474098D01*
X326419Y472828D01*
X325750D01*
X324189Y472518D01*
X322866Y471634D01*
X321982Y470311D01*
X321672Y468750D01*
Y463250D01*
X321982Y461689D01*
X322866Y460366D01*
X323121Y460196D01*
Y457667D01*
X321833Y456379D01*
X304445D01*
Y459983D01*
X305716Y460368D01*
X305977Y459977D01*
X307479Y458973D01*
X309250Y458621D01*
X309980D01*
Y466000D01*
Y473379D01*
X309250D01*
X307479Y473027D01*
X305977Y472023D01*
X304973Y470521D01*
X303638Y470319D01*
X302990Y471290D01*
X301377Y472367D01*
X299475Y472746D01*
X293725D01*
X291823Y472367D01*
X290210Y471290D01*
X289133Y469677D01*
X288755Y467775D01*
Y446525D01*
X289133Y444623D01*
X290210Y443010D01*
X291823Y441933D01*
X291971Y441903D01*
Y440267D01*
X288883Y437179D01*
X253050D01*
Y442200D01*
X233750D01*
Y422900D01*
X253050D01*
Y427921D01*
X290800D01*
X290800Y427921D01*
X292571Y428273D01*
X294073Y429277D01*
X299873Y435077D01*
X300877Y436579D01*
X301229Y438350D01*
X301229Y438350D01*
Y441903D01*
X301377Y441933D01*
X302990Y443010D01*
X304067Y444623D01*
X304445Y446525D01*
Y447121D01*
X323750D01*
X323750Y447121D01*
X325521Y447473D01*
X327023Y448477D01*
X331023Y452477D01*
X331023Y452477D01*
X332027Y453979D01*
X332379Y455750D01*
X332379Y455750D01*
Y460196D01*
X332634Y460366D01*
X333362Y461455D01*
X334303Y461632D01*
X334794Y461597D01*
X335057Y461204D01*
X336078Y460183D01*
X336000Y459995D01*
Y458005D01*
X336761Y456168D01*
X338168Y454761D01*
X340005Y454000D01*
X341995D01*
X343832Y454761D01*
X345239Y456168D01*
X346000Y458005D01*
Y459995D01*
X345239Y461832D01*
X343832Y463239D01*
X341995Y464000D01*
X341882D01*
X341160Y465074D01*
X342272Y466186D01*
X349500D01*
X349950Y466276D01*
X351026Y465200D01*
X350936Y464750D01*
Y457523D01*
X348407Y454993D01*
X347689Y453918D01*
X347436Y452650D01*
Y448966D01*
X346439Y448768D01*
X345116Y447884D01*
X344946Y447629D01*
X340500D01*
X340500Y447629D01*
X338729Y447277D01*
X337227Y446273D01*
X337227Y446273D01*
X333227Y442273D01*
X332223Y440771D01*
X331871Y439000D01*
X331871Y439000D01*
Y419696D01*
X331300D01*
X329398Y419317D01*
X327785Y418240D01*
X326708Y416627D01*
X326678Y416479D01*
X323100D01*
X323100Y416479D01*
X321329Y416127D01*
X319827Y415123D01*
X314027Y409323D01*
X313023Y407821D01*
X312671Y406050D01*
X312671Y406050D01*
Y368375D01*
X307675D01*
Y349075D01*
X326975D01*
Y368375D01*
X321929D01*
Y404133D01*
X325017Y407221D01*
X326678D01*
X326708Y407073D01*
X327785Y405460D01*
X329398Y404383D01*
X331300Y404005D01*
X352550D01*
X354452Y404383D01*
X356065Y405460D01*
X357142Y407073D01*
X357520Y408975D01*
Y414725D01*
X357142Y416627D01*
X356065Y418240D01*
X355088Y418892D01*
X355271Y420223D01*
X356773Y421227D01*
X357777Y422729D01*
X358129Y424500D01*
Y425230D01*
X350750D01*
X343371D01*
Y424500D01*
X343723Y422729D01*
X344727Y421227D01*
X345118Y420965D01*
X344733Y419696D01*
X341129D01*
Y437083D01*
X342417Y438371D01*
X344946D01*
X345116Y438116D01*
X346439Y437232D01*
X348000Y436922D01*
X353500D01*
X355061Y437232D01*
X356384Y438116D01*
X357268Y439439D01*
X357578Y441000D01*
Y445000D01*
X357268Y446561D01*
X356384Y447884D01*
X355061Y448768D01*
X354064Y448966D01*
Y451277D01*
X356593Y453807D01*
X357311Y454882D01*
X357564Y456150D01*
Y456426D01*
X357980Y456768D01*
Y463000D01*
X360520D01*
Y456768D01*
X360937Y456426D01*
Y363068D01*
X359687Y362233D01*
X353244Y355790D01*
X352105Y356447D01*
X352375Y357454D01*
Y359995D01*
X351717Y362450D01*
X350447Y364650D01*
X348650Y366447D01*
X346450Y367717D01*
X343996Y368375D01*
X341455D01*
X339000Y367717D01*
X336800Y366447D01*
X335003Y364650D01*
X333733Y362450D01*
X333075Y359995D01*
Y357454D01*
X333733Y355000D01*
X335003Y352800D01*
X336800Y351003D01*
X339000Y349733D01*
X341455Y349075D01*
X343996D01*
X345002Y349345D01*
X345660Y348206D01*
X337083Y339629D01*
X270917D01*
X143298Y467248D01*
X141796Y468252D01*
X140025Y468604D01*
X140025Y468604D01*
X133203D01*
Y471495D01*
X132893Y473056D01*
X132009Y474379D01*
X130837Y475162D01*
X130802Y475817D01*
X130945Y476501D01*
X132398Y477472D01*
X133401Y478974D01*
X133754Y480745D01*
Y482225D01*
X120496D01*
Y480745D01*
X120848Y478974D01*
X121852Y477472D01*
X123305Y476501D01*
X123448Y475817D01*
X123413Y475162D01*
X122241Y474379D01*
X121357Y473056D01*
X121047Y471495D01*
Y465995D01*
X121357Y464434D01*
X122241Y463111D01*
X123564Y462227D01*
X125125Y461917D01*
X126657D01*
X127576Y460998D01*
X127705Y460419D01*
Y459951D01*
X127576Y459372D01*
X126657Y458453D01*
X125125D01*
X123564Y458143D01*
X122241Y457259D01*
X121357Y455936D01*
X121047Y454375D01*
Y448875D01*
X121357Y447314D01*
X122241Y445991D01*
X123413Y445208D01*
X123448Y444553D01*
X123305Y443869D01*
X121852Y442898D01*
X120848Y441396D01*
X120496Y439625D01*
Y438145D01*
X133754D01*
Y439625D01*
X133401Y441396D01*
X132398Y442898D01*
X130945Y443869D01*
X130802Y444553D01*
X130837Y445208D01*
X132009Y445991D01*
X132893Y447314D01*
X133203Y448875D01*
Y451766D01*
X134968D01*
X262587Y324147D01*
X262587Y324147D01*
X264089Y323143D01*
X265860Y322791D01*
X265860Y322791D01*
X342140D01*
X342140Y322791D01*
X343911Y323143D01*
X345413Y324147D01*
X369763Y348497D01*
X370937Y348011D01*
Y345848D01*
X370455Y345752D01*
X368953Y344749D01*
X368953Y344749D01*
X344083Y319879D01*
X245517D01*
X217873Y347523D01*
X216371Y348527D01*
X214600Y348879D01*
X214600Y348879D01*
X133328D01*
Y351770D01*
X133018Y353331D01*
X132134Y354654D01*
X130962Y355437D01*
X130927Y356092D01*
X131070Y356776D01*
X132523Y357747D01*
X133527Y359249D01*
X133879Y361020D01*
Y362500D01*
X120621D01*
Y361020D01*
X120973Y359249D01*
X121977Y357747D01*
X123430Y356776D01*
X123573Y356092D01*
X123538Y355437D01*
X122366Y354654D01*
X121482Y353331D01*
X121172Y351770D01*
Y346270D01*
X121482Y344709D01*
X122366Y343386D01*
X123689Y342502D01*
X125250Y342192D01*
X126782D01*
X127701Y341273D01*
X127882Y340460D01*
X127701Y339647D01*
X126782Y338728D01*
X125250D01*
X123689Y338418D01*
X122366Y337534D01*
X121482Y336211D01*
X121172Y334650D01*
Y329150D01*
X121482Y327589D01*
X122366Y326266D01*
X123538Y325483D01*
X123573Y324828D01*
X123430Y324144D01*
X121977Y323173D01*
X120973Y321671D01*
X120621Y319900D01*
Y318420D01*
X133879D01*
Y319900D01*
X133527Y321671D01*
X132523Y323173D01*
X131070Y324144D01*
X130927Y324828D01*
X130962Y325483D01*
X132134Y326266D01*
X133018Y327589D01*
X133328Y329150D01*
Y332041D01*
X209543D01*
X237187Y304397D01*
X237187Y304397D01*
X238689Y303393D01*
X240460Y303041D01*
X240460Y303041D01*
X349140D01*
X349140Y303041D01*
X350911Y303393D01*
X352413Y304397D01*
X382523Y334507D01*
X382523Y334507D01*
X383526Y336009D01*
X383879Y337780D01*
X383879Y337780D01*
Y339605D01*
X383526Y341376D01*
X382564Y342817D01*
Y445430D01*
X383834Y446278D01*
X384505Y446000D01*
X385120D01*
X385925Y445018D01*
X385922Y445000D01*
Y441000D01*
X386232Y439439D01*
X387116Y438116D01*
X388439Y437232D01*
X390000Y436922D01*
X395500D01*
X397061Y437232D01*
X398384Y438116D01*
X398554Y438371D01*
X401083D01*
X402371Y437083D01*
Y419696D01*
X398767D01*
X398382Y420965D01*
X398773Y421227D01*
X399777Y422729D01*
X400129Y424500D01*
Y425230D01*
X392750D01*
X385371D01*
Y424500D01*
X385723Y422729D01*
X386727Y421227D01*
X388229Y420223D01*
X388431Y418888D01*
X387460Y418240D01*
X386383Y416627D01*
X386004Y414725D01*
Y408975D01*
X386383Y407073D01*
X387460Y405460D01*
X389073Y404383D01*
X390975Y404005D01*
X412225D01*
X414127Y404383D01*
X415740Y405460D01*
X416817Y407073D01*
X416847Y407221D01*
X418483D01*
X421571Y404133D01*
Y368375D01*
X416550D01*
Y349075D01*
X435850D01*
Y368375D01*
X430829D01*
Y406050D01*
X430829Y406050D01*
X430477Y407821D01*
X429473Y409323D01*
X423673Y415123D01*
X422171Y416127D01*
X420400Y416479D01*
X420400Y416479D01*
X416847D01*
X416817Y416627D01*
X415740Y418240D01*
X414127Y419317D01*
X412225Y419696D01*
X411629D01*
Y434295D01*
X412899Y434667D01*
X413407Y433907D01*
X471436Y375877D01*
Y270958D01*
X471689Y269690D01*
X472407Y268615D01*
X557464Y183558D01*
X557411Y183466D01*
X556808Y181215D01*
Y178885D01*
X557411Y176634D01*
X558576Y174616D01*
X560224Y172968D01*
X562242Y171803D01*
X564493Y171200D01*
X566823D01*
X569074Y171803D01*
X571092Y172968D01*
X572740Y174616D01*
X573905Y176634D01*
X574508Y178885D01*
Y181215D01*
X573905Y183466D01*
X572740Y185484D01*
X571092Y187132D01*
X569074Y188297D01*
X566823Y188900D01*
X564493D01*
X562242Y188297D01*
X562150Y188244D01*
X478064Y272330D01*
Y377250D01*
X477811Y378518D01*
X477093Y379593D01*
X419064Y437623D01*
Y441683D01*
X419311Y441732D01*
X420634Y442616D01*
X421518Y443939D01*
X421828Y445500D01*
Y451000D01*
X421518Y452561D01*
X420634Y453884D01*
X419311Y454768D01*
X419064Y454817D01*
Y456433D01*
X419311Y456482D01*
X420634Y457366D01*
X421518Y458689D01*
X421828Y460250D01*
Y465750D01*
X421518Y467311D01*
X420634Y468634D01*
X419311Y469518D01*
X417750Y469828D01*
X417737D01*
X417059Y471098D01*
X417246Y471376D01*
X428755D01*
X428880Y470106D01*
X428479Y470027D01*
X426977Y469023D01*
X425973Y467521D01*
X425621Y465750D01*
Y464270D01*
X432250D01*
X438879D01*
Y465750D01*
X438527Y467521D01*
X437523Y469023D01*
X436021Y470027D01*
X435620Y470106D01*
X435745Y471376D01*
X557384D01*
X557411Y471274D01*
X558576Y469256D01*
X560224Y467608D01*
X562242Y466443D01*
X564493Y465840D01*
X566823D01*
X569074Y466443D01*
X571092Y467608D01*
X571271Y467787D01*
X572444Y467301D01*
Y460762D01*
X569166Y457484D01*
X569074Y457537D01*
X566823Y458140D01*
X564493D01*
X562242Y457537D01*
X560224Y456372D01*
X558576Y454724D01*
X557411Y452706D01*
X556808Y450455D01*
Y448125D01*
X557411Y445874D01*
X558576Y443856D01*
X560224Y442208D01*
X562242Y441043D01*
X564493Y440440D01*
X566823D01*
X569074Y441043D01*
X571092Y442208D01*
X572740Y443856D01*
X573905Y445874D01*
X574508Y448125D01*
Y450455D01*
X573905Y452706D01*
X573852Y452798D01*
X576013Y454959D01*
X577186Y454473D01*
Y389305D01*
X569166Y381284D01*
X569074Y381337D01*
X566823Y381940D01*
X564493D01*
X562242Y381337D01*
X560224Y380172D01*
X558576Y378524D01*
X557411Y376506D01*
X556808Y374255D01*
Y371925D01*
X557411Y369674D01*
X558576Y367656D01*
X560224Y366008D01*
X562242Y364843D01*
X564493Y364240D01*
X566823D01*
X569074Y364843D01*
X571092Y366008D01*
X572740Y367656D01*
X573905Y369674D01*
X574508Y371925D01*
Y374255D01*
X573905Y376506D01*
X573852Y376598D01*
X582843Y385589D01*
X583561Y386664D01*
X583814Y387932D01*
Y391423D01*
X585084Y391949D01*
X585624Y391408D01*
X587642Y390243D01*
X589893Y389640D01*
X592223D01*
X594474Y390243D01*
X596492Y391408D01*
X598140Y393056D01*
X599305Y395074D01*
X599908Y397325D01*
Y399655D01*
X599305Y401906D01*
X598140Y403924D01*
X596492Y405572D01*
X594474Y406737D01*
X592223Y407340D01*
X589893D01*
X587642Y406737D01*
X585624Y405572D01*
X585084Y405031D01*
X583814Y405558D01*
Y416823D01*
X585084Y417349D01*
X585624Y416808D01*
X587642Y415643D01*
X589893Y415040D01*
X592223D01*
X594474Y415643D01*
X596492Y416808D01*
X598140Y418456D01*
X599305Y420474D01*
X599908Y422725D01*
Y425055D01*
X599305Y427306D01*
X598140Y429324D01*
X596492Y430972D01*
X594474Y432137D01*
X592223Y432740D01*
X589893D01*
X587642Y432137D01*
X585624Y430972D01*
X585084Y430431D01*
X583814Y430957D01*
Y442223D01*
X585084Y442749D01*
X585624Y442208D01*
X587642Y441043D01*
X589893Y440440D01*
X592223D01*
X594474Y441043D01*
X596492Y442208D01*
X598140Y443856D01*
X599305Y445874D01*
X599908Y448125D01*
Y450455D01*
X599305Y452706D01*
X598140Y454724D01*
X596492Y456372D01*
X594474Y457537D01*
X592223Y458140D01*
X589893D01*
X587642Y457537D01*
X585624Y456372D01*
X585084Y455831D01*
X583814Y456357D01*
Y467622D01*
X585084Y468149D01*
X585624Y467608D01*
X587642Y466443D01*
X589893Y465840D01*
X592223D01*
X594474Y466443D01*
X596492Y467608D01*
X598140Y469256D01*
X599305Y471274D01*
X599908Y473525D01*
Y475855D01*
X599305Y478106D01*
X598140Y480124D01*
X596492Y481772D01*
X594474Y482937D01*
X592223Y483540D01*
X589893D01*
X587642Y482937D01*
X585624Y481772D01*
X585084Y481231D01*
X583814Y481758D01*
Y493022D01*
X585084Y493549D01*
X585624Y493008D01*
X587642Y491843D01*
X589893Y491240D01*
X592223D01*
X594474Y491843D01*
X596492Y493008D01*
X598140Y494656D01*
X599305Y496674D01*
X599908Y498925D01*
Y501255D01*
X599305Y503506D01*
X598140Y505524D01*
X596492Y507172D01*
X594474Y508337D01*
X592223Y508940D01*
X589893D01*
X587642Y508337D01*
X585624Y507172D01*
X584982Y506530D01*
X583604Y506948D01*
X583561Y507163D01*
X582843Y508238D01*
X574049Y517033D01*
X572974Y517751D01*
X572354Y517874D01*
X571928Y519244D01*
X572740Y520056D01*
X573905Y522074D01*
X574508Y524325D01*
Y526655D01*
X573905Y528906D01*
X572740Y530924D01*
X571092Y532572D01*
X569074Y533737D01*
X566823Y534340D01*
X564493D01*
X562242Y533737D01*
X560224Y532572D01*
X558576Y530924D01*
X557411Y528906D01*
X556808Y526655D01*
Y524325D01*
X557411Y522074D01*
X558576Y520056D01*
X559359Y519273D01*
X558833Y518003D01*
X556076D01*
X554808Y517751D01*
X553733Y517033D01*
X531014Y494314D01*
X402430D01*
X402101Y495009D01*
X402262Y495388D01*
X402855Y496237D01*
X403868Y496439D01*
X404209Y496666D01*
X411914D01*
X412189Y496482D01*
X413750Y496172D01*
X417750D01*
X419311Y496482D01*
X420634Y497366D01*
X421518Y498689D01*
X421828Y500250D01*
Y503282D01*
X424390Y505843D01*
X425621Y505279D01*
Y504270D01*
X432250D01*
Y503000D01*
X433520D01*
Y495621D01*
X434250D01*
X436021Y495973D01*
X437523Y496977D01*
X438527Y498479D01*
X439868Y498710D01*
X440535Y497710D01*
X442148Y496633D01*
X444050Y496255D01*
X449800D01*
X451702Y496633D01*
X453315Y497710D01*
X454392Y499323D01*
X454564Y500186D01*
X456743D01*
X457668Y499261D01*
X459505Y498500D01*
X461495D01*
X463332Y499261D01*
X464739Y500668D01*
X465500Y502505D01*
Y504495D01*
X464739Y506332D01*
X463332Y507739D01*
X461495Y508500D01*
X459505D01*
X457668Y507739D01*
X456743Y506814D01*
X454771D01*
Y522475D01*
X454392Y524377D01*
X453315Y525990D01*
X451702Y527067D01*
X451554Y527097D01*
Y528583D01*
X454792Y531821D01*
X490450D01*
Y526800D01*
X509750D01*
Y533116D01*
X518579D01*
X518624Y532889D01*
X519508Y531566D01*
X520831Y530682D01*
X522392Y530372D01*
X527892D01*
X529453Y530682D01*
X530776Y531566D01*
X531660Y532889D01*
X531705Y533116D01*
X533337D01*
X533382Y532889D01*
X534266Y531566D01*
X535589Y530682D01*
X537150Y530372D01*
X542650D01*
X544211Y530682D01*
X545534Y531566D01*
X546418Y532889D01*
X546728Y534450D01*
Y538450D01*
X546418Y540011D01*
X545534Y541334D01*
X544211Y542218D01*
X542650Y542528D01*
X537150D01*
X535589Y542218D01*
X534266Y541334D01*
X533382Y540011D01*
X533337Y539784D01*
X531705D01*
X531660Y540011D01*
X530776Y541334D01*
X529453Y542218D01*
X527892Y542528D01*
X522392D01*
X520831Y542218D01*
X519508Y541334D01*
X518624Y540011D01*
X518579Y539784D01*
X509750D01*
Y546100D01*
X490450D01*
Y541079D01*
X455662D01*
X455176Y542252D01*
X462539Y549616D01*
X518579D01*
X518624Y549389D01*
X519508Y548066D01*
X520831Y547182D01*
X522392Y546872D01*
X527892D01*
X529453Y547182D01*
X530776Y548066D01*
X531660Y549389D01*
X531874Y550463D01*
X533168D01*
X533382Y549389D01*
X534266Y548066D01*
X535589Y547182D01*
X537150Y546872D01*
X542650D01*
X544211Y547182D01*
X545534Y548066D01*
X546418Y549389D01*
X546467Y549636D01*
X547200D01*
X548468Y549889D01*
X549543Y550607D01*
X559171Y560235D01*
X561604D01*
X561944Y558965D01*
X560224Y557972D01*
X558576Y556324D01*
X557411Y554306D01*
X556808Y552055D01*
Y549725D01*
X557411Y547474D01*
X558576Y545456D01*
X560224Y543808D01*
X562242Y542643D01*
X564493Y542040D01*
X566823D01*
X569074Y542643D01*
X571092Y543808D01*
X572740Y545456D01*
X573905Y547474D01*
X574508Y549725D01*
Y552055D01*
X573905Y554306D01*
X572740Y556324D01*
X571092Y557972D01*
X569372Y558965D01*
X569712Y560235D01*
X578316D01*
X579585Y560487D01*
X580660Y561205D01*
X587550Y568096D01*
X587642Y568043D01*
X589893Y567440D01*
X592223D01*
X594474Y568043D01*
X596492Y569208D01*
X598140Y570856D01*
X599305Y572874D01*
X599908Y575125D01*
Y577455D01*
X599305Y579706D01*
X598140Y581724D01*
X596492Y583372D01*
X594474Y584537D01*
X592223Y585140D01*
X589893D01*
X587642Y584537D01*
X585624Y583372D01*
X583976Y581724D01*
X582811Y579706D01*
X582208Y577455D01*
Y575125D01*
X582811Y572874D01*
X582864Y572782D01*
X576944Y566862D01*
X570057D01*
X569914Y567061D01*
X570274Y568736D01*
X571092Y569208D01*
X572740Y570856D01*
X573905Y572874D01*
X574508Y575125D01*
Y577455D01*
X573905Y579706D01*
X572740Y581724D01*
X571092Y583372D01*
X569074Y584537D01*
X568667Y584646D01*
X568834Y585916D01*
X578618D01*
X579894Y586170D01*
X580975Y586893D01*
X586923Y592840D01*
X599908D01*
Y610540D01*
X582208D01*
Y597555D01*
X577237Y592584D01*
X570126D01*
X569786Y593854D01*
X571092Y594608D01*
X572740Y596256D01*
X573905Y598274D01*
X574508Y600525D01*
Y602855D01*
X573905Y605106D01*
X572740Y607124D01*
X571092Y608772D01*
X569074Y609937D01*
X566823Y610540D01*
X564493D01*
X562242Y609937D01*
X560224Y608772D01*
X558576Y607124D01*
X557411Y605106D01*
X556808Y602855D01*
Y600525D01*
X557411Y598274D01*
X558576Y596256D01*
X560224Y594608D01*
X561530Y593854D01*
X561190Y592584D01*
X543750D01*
X542474Y592330D01*
X541393Y591608D01*
X522785Y572999D01*
X522062Y571918D01*
X521808Y570642D01*
Y558912D01*
X520831Y558718D01*
X519508Y557834D01*
X518624Y556511D01*
X518579Y556284D01*
X462016D01*
X461490Y557554D01*
X474123Y570186D01*
X507743D01*
X508668Y569261D01*
X510505Y568500D01*
X512495D01*
X514332Y569261D01*
X515739Y570668D01*
X516500Y572505D01*
Y574495D01*
X515739Y576332D01*
X514332Y577739D01*
X512495Y578500D01*
X510505D01*
X508668Y577739D01*
X507743Y576814D01*
X472750D01*
X471482Y576561D01*
X470407Y575843D01*
X427627Y533064D01*
X413250D01*
X411982Y532811D01*
X410907Y532093D01*
X393902Y515088D01*
X392378Y515149D01*
X392555Y516477D01*
X412949Y536871D01*
X426970D01*
X426970Y536871D01*
X428741Y537223D01*
X430243Y538227D01*
X477563Y585547D01*
X478567Y587049D01*
X478919Y588820D01*
X478919Y588820D01*
Y616155D01*
X488375D01*
X489121Y615174D01*
Y604220D01*
X487825Y603472D01*
X486028Y601675D01*
X484758Y599475D01*
X484100Y597020D01*
Y594480D01*
X484758Y592025D01*
X486028Y589825D01*
X487825Y588028D01*
X490025Y586758D01*
X492480Y586100D01*
X495020D01*
X497475Y586758D01*
X499675Y588028D01*
X501472Y589825D01*
X502742Y592025D01*
X503400Y594480D01*
Y597020D01*
X502742Y599475D01*
X501472Y601675D01*
X499675Y603472D01*
X498379Y604220D01*
Y615342D01*
X499375Y616155D01*
X511625D01*
X513527Y616533D01*
X515140Y617610D01*
X516217Y619223D01*
X516596Y621125D01*
Y626875D01*
X516217Y628777D01*
X515140Y630390D01*
X513527Y631467D01*
X511625Y631846D01*
X499375D01*
X499231Y631817D01*
X488519D01*
X488375Y631846D01*
X476125D01*
X474223Y631467D01*
X472610Y630390D01*
X471533Y628777D01*
X471155Y626875D01*
Y624331D01*
X470500Y623953D01*
X469846Y624331D01*
Y626875D01*
X469467Y628777D01*
X468390Y630390D01*
X466777Y631467D01*
X464875Y631846D01*
X452625D01*
X452481Y631817D01*
X441769D01*
X441625Y631846D01*
X429375D01*
X427473Y631467D01*
X425860Y630390D01*
X424783Y628777D01*
X424404Y626875D01*
Y621125D01*
X424783Y619223D01*
X425860Y617610D01*
X427473Y616533D01*
X429375Y616155D01*
X441625D01*
X442371Y615174D01*
Y604220D01*
X441075Y603472D01*
X439278Y601675D01*
X438008Y599475D01*
X437350Y597020D01*
Y594479D01*
X438008Y592025D01*
X439278Y589825D01*
X441075Y588028D01*
X443275Y586758D01*
X445729Y586100D01*
X448270D01*
X450725Y586758D01*
X452925Y588028D01*
X454722Y589825D01*
X455992Y592025D01*
X456650Y594479D01*
Y597020D01*
X455992Y599475D01*
X454722Y601675D01*
X452925Y603472D01*
X451629Y604220D01*
Y615341D01*
X452625Y616155D01*
X462081D01*
Y593877D01*
X421913Y553709D01*
X407892D01*
X407892Y553709D01*
X406120Y553357D01*
X404619Y552353D01*
X386592Y534327D01*
X385419Y534813D01*
Y616155D01*
X394875D01*
X395621Y615174D01*
Y604220D01*
X394325Y603472D01*
X392528Y601675D01*
X391258Y599475D01*
X390600Y597020D01*
Y594480D01*
X391258Y592025D01*
X392528Y589825D01*
X394325Y588028D01*
X396525Y586758D01*
X398980Y586100D01*
X401521D01*
X403975Y586758D01*
X406175Y588028D01*
X407972Y589825D01*
X409242Y592025D01*
X409900Y594480D01*
Y597020D01*
X409242Y599475D01*
X407972Y601675D01*
X406175Y603472D01*
X404879Y604220D01*
Y615342D01*
X405875Y616155D01*
X418125D01*
X420027Y616533D01*
X421640Y617610D01*
X422717Y619223D01*
X423096Y621125D01*
Y626875D01*
X422717Y628777D01*
X421640Y630390D01*
X420027Y631467D01*
X418125Y631846D01*
X405875D01*
X405732Y631817D01*
X395019D01*
X394875Y631846D01*
X382625D01*
X380723Y631467D01*
X379110Y630390D01*
X378033Y628777D01*
X377655Y626875D01*
Y624331D01*
X377000Y623953D01*
X376346Y624331D01*
Y626875D01*
X375967Y628777D01*
X374890Y630390D01*
X373277Y631467D01*
X371375Y631846D01*
X359125D01*
X358981Y631817D01*
X348269D01*
X348125Y631846D01*
X335875D01*
X333973Y631467D01*
X332360Y630390D01*
X331283Y628777D01*
X330905Y626875D01*
Y621125D01*
X331283Y619223D01*
X332360Y617610D01*
X333973Y616533D01*
X335875Y616155D01*
X348125D01*
X348871Y615174D01*
Y604220D01*
X347575Y603472D01*
X345778Y601675D01*
X344508Y599475D01*
X343850Y597020D01*
Y594480D01*
X344508Y592025D01*
X345778Y589825D01*
X347575Y588028D01*
X349775Y586758D01*
X352230Y586100D01*
X354771D01*
X357225Y586758D01*
X359425Y588028D01*
X361222Y589825D01*
X362492Y592025D01*
X363150Y594480D01*
Y597020D01*
X362492Y599475D01*
X361222Y601675D01*
X359425Y603472D01*
X358129Y604220D01*
Y615341D01*
X359125Y616155D01*
X368581D01*
Y537048D01*
X365754Y534221D01*
X364751Y532719D01*
X364398Y530947D01*
X364398Y530947D01*
Y530240D01*
X364751Y528469D01*
X365714Y527028D01*
Y524473D01*
X365900Y523536D01*
X365621Y523204D01*
X364666Y522756D01*
X364401Y522898D01*
X364277Y523521D01*
X363273Y525023D01*
X323569Y564727D01*
Y616082D01*
X324625D01*
X326527Y616460D01*
X328140Y617538D01*
X329217Y619150D01*
X329595Y621053D01*
Y626802D01*
X329217Y628705D01*
X328140Y630317D01*
X326527Y631395D01*
X324625Y631773D01*
X318662D01*
X318500Y631794D01*
X295250D01*
X295088Y631773D01*
X289125D01*
X287223Y631395D01*
X285610Y630317D01*
X284533Y628705D01*
X284154Y626802D01*
Y621053D01*
X284533Y619150D01*
X285610Y617538D01*
X287223Y616460D01*
X289125Y616082D01*
X301375D01*
X302121Y614984D01*
Y604198D01*
X300825Y603449D01*
X299028Y601653D01*
X297758Y599452D01*
X297100Y596998D01*
Y594457D01*
X297758Y592003D01*
X299028Y589802D01*
X300825Y588005D01*
X303025Y586735D01*
X305480Y586077D01*
X308020D01*
X310475Y586735D01*
X312675Y588005D01*
X313138Y588468D01*
X314311Y587982D01*
Y562810D01*
X314311Y562810D01*
X314653Y561089D01*
X314589Y560989D01*
X313606Y560340D01*
X281013Y592934D01*
X281400Y594380D01*
Y596920D01*
X280742Y599375D01*
X279472Y601575D01*
X277675Y603372D01*
X276379Y604120D01*
Y616054D01*
X277875D01*
X279777Y616433D01*
X281390Y617510D01*
X282467Y619123D01*
X282845Y621025D01*
Y626775D01*
X282467Y628677D01*
X281390Y630290D01*
X279777Y631367D01*
X277875Y631745D01*
X276379D01*
Y637360D01*
X276750Y638255D01*
Y640245D01*
X275989Y642082D01*
X274582Y643489D01*
X273990Y643734D01*
X274243Y645004D01*
X277875D01*
X279988Y645424D01*
X281779Y646621D01*
X282804Y648155D01*
X283221Y648252D01*
X283718Y648258D01*
X284215Y648155D01*
X285221Y646648D01*
X287012Y645452D01*
X289125Y645032D01*
X293980D01*
Y653428D01*
Y661824D01*
X289125D01*
X287012Y661403D01*
X285221Y660207D01*
X284196Y658673D01*
X283779Y658576D01*
X283282Y658570D01*
X282785Y658673D01*
X281779Y660179D01*
X280123Y661286D01*
X280102Y661791D01*
X280312Y662556D01*
X282190Y662929D01*
X283782Y663993D01*
X284846Y665585D01*
X285219Y667462D01*
Y668821D01*
X288480D01*
X289255Y668500D01*
X291245D01*
X293082Y669261D01*
X294489Y670668D01*
X295250Y672505D01*
Y674495D01*
X294489Y676332D01*
X293082Y677739D01*
X291245Y678500D01*
X289255D01*
X288239Y678079D01*
X285219D01*
Y679337D01*
X284846Y681215D01*
X283782Y682807D01*
X282190Y683871D01*
X280312Y684244D01*
X274688D01*
X272810Y683871D01*
X271218Y682807D01*
X270154Y681215D01*
X269781Y679337D01*
Y667462D01*
X270154Y665585D01*
X271218Y663993D01*
X272605Y663066D01*
X272523Y662149D01*
X272394Y661796D01*
X265625D01*
X263512Y661376D01*
X261721Y660179D01*
X260524Y658388D01*
X260382Y657673D01*
X259087D01*
X258967Y658277D01*
X257890Y659890D01*
X256277Y660967D01*
X254375Y661346D01*
X252879D01*
Y662917D01*
X252940Y662929D01*
X254532Y663993D01*
X255596Y665585D01*
X255969Y667462D01*
Y679337D01*
X255596Y681215D01*
X254532Y682807D01*
X252940Y683871D01*
X252879Y683883D01*
Y688860D01*
X253250Y689755D01*
Y691745D01*
X252489Y693582D01*
X251082Y694989D01*
X249245Y695750D01*
D02*
G37*
G36*
X46400Y673530D02*
X44920D01*
Y668171D01*
X51029D01*
Y668901D01*
X50676Y670672D01*
X49673Y672174D01*
X48171Y673177D01*
X46400Y673530D01*
D02*
G37*
G36*
X42380D02*
X40900D01*
X39128Y673177D01*
X37627Y672174D01*
X36623Y670672D01*
X36271Y668901D01*
Y668171D01*
X42380D01*
Y673530D01*
D02*
G37*
G36*
X51029Y665631D02*
X44920D01*
Y660272D01*
X46400D01*
X48171Y660624D01*
X49673Y661628D01*
X50676Y663129D01*
X51029Y664901D01*
Y665631D01*
D02*
G37*
G36*
X42380D02*
X36271D01*
Y664901D01*
X36623Y663129D01*
X37627Y661628D01*
X39128Y660624D01*
X40900Y660272D01*
X42380D01*
Y665631D01*
D02*
G37*
G36*
X223730Y661896D02*
X218875D01*
X216762Y661476D01*
X214971Y660279D01*
X213774Y658488D01*
X213354Y656375D01*
Y654770D01*
X223730D01*
Y661896D01*
D02*
G37*
G36*
X511625D02*
X506770D01*
Y654770D01*
X517146D01*
Y656375D01*
X516726Y658488D01*
X515529Y660279D01*
X513738Y661476D01*
X511625Y661896D01*
D02*
G37*
G36*
X517146Y652230D02*
X506770D01*
Y645104D01*
X511625D01*
X513738Y645524D01*
X515529Y646721D01*
X516726Y648512D01*
X517146Y650625D01*
Y652230D01*
D02*
G37*
G36*
X223730Y652230D02*
X213354D01*
Y650625D01*
X213774Y648512D01*
X214971Y646721D01*
X216762Y645524D01*
X218875Y645104D01*
X223730D01*
Y652230D01*
D02*
G37*
G36*
X418125Y661896D02*
X413270D01*
Y653500D01*
Y645104D01*
X418125D01*
X420238Y645524D01*
X422029Y646721D01*
X423045Y648241D01*
X423501Y648341D01*
X423999D01*
X424456Y648241D01*
X425471Y646721D01*
X427262Y645524D01*
X429375Y645104D01*
X434230D01*
Y653500D01*
Y661896D01*
X429375D01*
X427262Y661476D01*
X425471Y660279D01*
X424456Y658760D01*
X423999Y658659D01*
X423501D01*
X423045Y658760D01*
X422029Y660279D01*
X420238Y661476D01*
X418125Y661896D01*
D02*
G37*
G36*
X71564Y682131D02*
X56336D01*
Y677401D01*
X56630Y675922D01*
X57467Y674668D01*
X58721Y673830D01*
X60200Y673536D01*
X61528D01*
X61913Y672266D01*
X61566Y672035D01*
X60682Y670711D01*
X60371Y669151D01*
Y663651D01*
X60682Y662090D01*
X61352Y661087D01*
Y647401D01*
X61450Y646908D01*
Y639151D01*
X71450D01*
Y646908D01*
X71548Y647401D01*
Y661087D01*
X72218Y662090D01*
X72528Y663651D01*
Y669151D01*
X72218Y670711D01*
X71334Y672035D01*
X70011Y672918D01*
X69811Y674253D01*
X70432Y674668D01*
X71270Y675922D01*
X71564Y677401D01*
Y682131D01*
D02*
G37*
G36*
X115896Y893230D02*
X107500D01*
X99104D01*
Y883875D01*
X99524Y881762D01*
X100721Y879971D01*
X102331Y878895D01*
X102401Y878661D01*
X102439Y878142D01*
X102367Y877508D01*
X101093Y876657D01*
X100029Y875065D01*
X99656Y873187D01*
Y861312D01*
X100029Y859435D01*
X101093Y857843D01*
X102685Y856779D01*
X102746Y856767D01*
Y825375D01*
X102746Y825375D01*
X103098Y823604D01*
X104102Y822102D01*
X172171Y754033D01*
Y633214D01*
X170800D01*
X170677Y633190D01*
X152651D01*
X152651Y633190D01*
X152650Y633190D01*
X152311Y633122D01*
X151870Y633035D01*
X151870Y633035D01*
X151594Y632920D01*
X150933Y632478D01*
X150933Y632478D01*
X150722Y632267D01*
X150280Y631606D01*
X150166Y631330D01*
X150011Y630550D01*
Y626637D01*
X149946Y626313D01*
Y621888D01*
X150159Y620820D01*
X150764Y619915D01*
X151669Y619310D01*
X151857Y619272D01*
X151870Y619267D01*
X152651Y619111D01*
X152665D01*
X152737Y619097D01*
X163762D01*
X163835Y619111D01*
X170677Y619111D01*
X170800Y619087D01*
X182800D01*
X182816Y619090D01*
X188425D01*
X195611Y611905D01*
Y554608D01*
X195851Y552780D01*
X196556Y551078D01*
X197679Y549615D01*
X236340Y510954D01*
Y464537D01*
X235678Y463875D01*
X234408Y461675D01*
X233750Y459221D01*
Y456680D01*
X234408Y454225D01*
X235678Y452025D01*
X237475Y450228D01*
X239675Y448958D01*
X242129Y448300D01*
X244671D01*
X247125Y448958D01*
X249325Y450228D01*
X251122Y452025D01*
X252392Y454225D01*
X253050Y456680D01*
Y459221D01*
X252392Y461675D01*
X251122Y463875D01*
X250460Y464537D01*
Y513879D01*
X250220Y515706D01*
X249515Y517409D01*
X248392Y518871D01*
X209731Y557532D01*
Y614829D01*
X209491Y616656D01*
X208785Y618359D01*
X207663Y619822D01*
X196342Y631143D01*
X194880Y632265D01*
X193177Y632970D01*
X191349Y633211D01*
X182816D01*
X182800Y633214D01*
X181429D01*
Y755950D01*
X181429Y755950D01*
X181077Y757722D01*
X180073Y759223D01*
X180073Y759223D01*
X112004Y827292D01*
Y856767D01*
X112065Y856779D01*
X113657Y857843D01*
X114721Y859435D01*
X115094Y861312D01*
Y873187D01*
X114721Y875065D01*
X113657Y876657D01*
X112441Y877470D01*
X112473Y878358D01*
X112556Y878820D01*
X114279Y879971D01*
X115476Y881762D01*
X115896Y883875D01*
Y893230D01*
D02*
G37*
G36*
X71200Y636015D02*
X68720D01*
Y627421D01*
X75064D01*
Y632151D01*
X74770Y633629D01*
X73932Y634883D01*
X72679Y635721D01*
X71200Y636015D01*
D02*
G37*
G36*
X66180D02*
X63700D01*
X62221Y635721D01*
X60967Y634883D01*
X60130Y633629D01*
X59836Y632151D01*
Y627421D01*
X66180D01*
Y636015D01*
D02*
G37*
G36*
X75064Y624881D02*
X68720D01*
Y616286D01*
X71200D01*
X72679Y616581D01*
X73932Y617418D01*
X74770Y618672D01*
X75064Y620151D01*
Y624881D01*
D02*
G37*
G36*
X87450Y655690D02*
X81450D01*
X81253Y655651D01*
X79450D01*
Y653848D01*
X79411Y653651D01*
Y632274D01*
X79386Y632151D01*
Y620151D01*
X79411Y620028D01*
Y611309D01*
X79354Y611026D01*
Y598776D01*
X79411Y598493D01*
Y595151D01*
X79412Y595143D01*
X79411Y595135D01*
X79460Y588792D01*
X79374Y587040D01*
X78678Y583539D01*
X77331Y580288D01*
X75376Y577362D01*
X72888Y574874D01*
X69962Y572919D01*
X66711Y571572D01*
X63210Y570876D01*
X61449Y570789D01*
X56987D01*
X56790Y570750D01*
X56589D01*
X55092Y570452D01*
X54906Y570375D01*
X54709Y570336D01*
X54125Y570094D01*
X53931Y570042D01*
X53757Y569942D01*
X53299Y569752D01*
X53132Y569640D01*
X52946Y569563D01*
X51956Y568902D01*
X51731Y568772D01*
X51527Y568568D01*
X51368Y568462D01*
X50288Y567382D01*
X50182Y567223D01*
X49934Y566975D01*
X49711Y566589D01*
X49187Y565804D01*
X49110Y565618D01*
X48998Y565451D01*
X48855Y565107D01*
X48664Y564775D01*
X48564Y564404D01*
X48414Y564041D01*
X48375Y563844D01*
X48298Y563658D01*
X48106Y562692D01*
X48006Y562321D01*
Y562191D01*
X48000Y562161D01*
Y561960D01*
X47961Y561763D01*
Y561000D01*
X47961Y560261D01*
X48000Y560064D01*
Y559864D01*
X48006Y559833D01*
Y559780D01*
X48047Y559625D01*
X48288Y558414D01*
X48365Y558229D01*
X48404Y558032D01*
X48602Y557553D01*
X48664Y557325D01*
X48782Y557121D01*
X48970Y556667D01*
X49081Y556500D01*
X49158Y556315D01*
X49814Y555333D01*
X49934Y555125D01*
X50133Y554926D01*
X50232Y554777D01*
X51277Y553732D01*
X51426Y553633D01*
X51731Y553328D01*
X52326Y552984D01*
X52814Y552658D01*
X53000Y552581D01*
X53167Y552470D01*
X53346Y552395D01*
X53931Y552058D01*
X54874Y551805D01*
X54914Y551788D01*
X55001Y551771D01*
X56385Y551400D01*
X58927D01*
X59132Y551455D01*
X81491Y551362D01*
X81496Y551362D01*
X81500Y551362D01*
X108150D01*
X108650Y551262D01*
X120650D01*
X120773Y551286D01*
X123820D01*
X124500Y550016D01*
X124296Y548988D01*
Y546609D01*
X124179Y546507D01*
X123026Y546046D01*
X122129Y546646D01*
X120650Y546940D01*
X115920D01*
Y539326D01*
Y531711D01*
X120650D01*
X122129Y532006D01*
X123382Y532843D01*
X123900Y533618D01*
X124022Y533657D01*
X125319Y533606D01*
X125664Y533089D01*
X126569Y532485D01*
X127637Y532272D01*
X128562D01*
Y527889D01*
X128150Y526895D01*
Y524906D01*
X128911Y523068D01*
X130318Y521662D01*
X132155Y520901D01*
X134144D01*
X135982Y521662D01*
X137389Y523068D01*
X138150Y524906D01*
Y526895D01*
X137738Y527889D01*
Y532272D01*
X138662D01*
X139731Y532485D01*
X140636Y533089D01*
X141241Y533995D01*
X141454Y535063D01*
Y539488D01*
X141241Y540556D01*
X141121Y540736D01*
X141025Y542200D01*
X141750Y543284D01*
X142004Y544563D01*
Y545506D01*
X133150D01*
Y548046D01*
X142004D01*
Y548988D01*
X141750Y550267D01*
X141025Y551351D01*
X140728Y552209D01*
X141170Y552870D01*
X141189Y552917D01*
X141241Y552995D01*
X141259Y553087D01*
X141284Y553146D01*
X141284Y553146D01*
X141284Y553146D01*
X141358Y553520D01*
X141439Y553927D01*
X141439Y553927D01*
X141439Y553927D01*
Y553990D01*
X141454Y554063D01*
Y558488D01*
X141439Y558561D01*
X141439Y562575D01*
X141439Y562724D01*
X141439Y562724D01*
X141439Y562724D01*
X141351Y563167D01*
X141284Y563504D01*
X141284Y563505D01*
X141284Y563505D01*
X141170Y563781D01*
X141170Y563781D01*
X141170Y563781D01*
X140972Y564076D01*
X140728Y564442D01*
X140728Y564442D01*
X140728Y564442D01*
X140517Y564653D01*
X140517Y564653D01*
X140165Y564888D01*
X139855Y565095D01*
X139855Y565095D01*
X139855Y565095D01*
X139579Y565210D01*
X139579Y565210D01*
X139579Y565210D01*
X139195Y565286D01*
X138799Y565365D01*
X138796Y565367D01*
X137738Y566229D01*
Y567912D01*
X138150Y568906D01*
Y570895D01*
X137389Y572733D01*
X135982Y574139D01*
X134144Y574901D01*
X132155D01*
X130318Y574139D01*
X128911Y572733D01*
X128150Y570895D01*
Y568906D01*
X128562Y567912D01*
Y565365D01*
X120773D01*
X120650Y565389D01*
X117901D01*
X116110Y565477D01*
X111572Y566380D01*
X107342Y568132D01*
X103536Y570675D01*
X100299Y573912D01*
X97756Y577718D01*
X96004Y581947D01*
X95101Y586486D01*
X94989Y588775D01*
Y598492D01*
X95045Y598776D01*
Y604298D01*
X95066Y604710D01*
X95684Y607816D01*
X96876Y610696D01*
X98608Y613288D01*
X100812Y615492D01*
X103404Y617224D01*
X106284Y618417D01*
X109391Y619035D01*
X110453Y619087D01*
X120650D01*
X120773Y619111D01*
X123820D01*
X124500Y617841D01*
X124296Y616813D01*
Y614434D01*
X124179Y614332D01*
X123026Y613871D01*
X122129Y614471D01*
X120650Y614765D01*
X115920D01*
Y607151D01*
Y599536D01*
X120650D01*
X122129Y599831D01*
X123382Y600668D01*
X123900Y601443D01*
X124022Y601482D01*
X125319Y601431D01*
X125664Y600914D01*
X126569Y600309D01*
X127637Y600097D01*
X128562D01*
Y595714D01*
X128150Y594720D01*
Y592731D01*
X128911Y590893D01*
X130318Y589487D01*
X132155Y588726D01*
X134144D01*
X135982Y589487D01*
X137389Y590893D01*
X138150Y592731D01*
Y594720D01*
X137738Y595714D01*
Y600097D01*
X138662D01*
X139731Y600309D01*
X140636Y600914D01*
X141241Y601820D01*
X141454Y602888D01*
Y607313D01*
X141241Y608381D01*
X141121Y608561D01*
X141025Y610025D01*
X141750Y611109D01*
X142004Y612388D01*
Y613331D01*
X133150D01*
Y615871D01*
X142004D01*
Y616813D01*
X141750Y618092D01*
X141025Y619176D01*
X140728Y620034D01*
X141170Y620695D01*
X141189Y620742D01*
X141241Y620820D01*
X141259Y620912D01*
X141284Y620971D01*
X141284Y620971D01*
X141284Y620971D01*
X141358Y621345D01*
X141439Y621751D01*
X141439Y621752D01*
X141439Y621752D01*
Y621815D01*
X141454Y621888D01*
Y626313D01*
X141439Y626386D01*
X141439Y630400D01*
X141439Y630549D01*
X141439Y630549D01*
X141439Y630549D01*
X141351Y630992D01*
X141284Y631329D01*
X141284Y631330D01*
X141284Y631330D01*
X141170Y631605D01*
X141170Y631605D01*
X141170Y631606D01*
X140972Y631901D01*
X140728Y632267D01*
X140728Y632267D01*
X140728Y632267D01*
X140517Y632478D01*
X140517Y632478D01*
X140165Y632713D01*
X139855Y632920D01*
X139855Y632920D01*
X139855Y632920D01*
X139579Y633035D01*
X139579Y633035D01*
X139579Y633035D01*
X139195Y633111D01*
X138799Y633190D01*
X138796Y633192D01*
X137738Y634054D01*
Y635737D01*
X138150Y636731D01*
Y638720D01*
X137389Y640558D01*
X135982Y641964D01*
X134144Y642726D01*
X132155D01*
X130318Y641964D01*
X128911Y640558D01*
X128150Y638720D01*
Y636731D01*
X128562Y635737D01*
Y633190D01*
X120773D01*
X120650Y633214D01*
X109501D01*
X107995Y633288D01*
X104013Y634080D01*
X100309Y635615D01*
X96976Y637842D01*
X94141Y640677D01*
X91914Y644010D01*
X90380Y647714D01*
X89588Y651695D01*
X89487Y653751D01*
X89450Y653897D01*
Y655651D01*
X87647D01*
X87450Y655690D01*
D02*
G37*
G36*
X175530Y614765D02*
X170800D01*
X169321Y614471D01*
X168067Y613633D01*
X167230Y612379D01*
X166936Y610901D01*
Y610575D01*
X165666Y609983D01*
X165041Y610400D01*
X163762Y610655D01*
X159520D01*
Y605101D01*
Y599546D01*
X163762D01*
X165041Y599801D01*
X166125Y600525D01*
X166380Y600907D01*
X167907Y600909D01*
X168067Y600668D01*
X169321Y599831D01*
X170800Y599536D01*
X175530D01*
Y607151D01*
Y614765D01*
D02*
G37*
G36*
X182800D02*
X178070D01*
Y608421D01*
X186664D01*
Y610901D01*
X186370Y612379D01*
X185532Y613633D01*
X184279Y614471D01*
X182800Y614765D01*
D02*
G37*
G36*
X113380D02*
X108650D01*
X107171Y614471D01*
X105917Y613633D01*
X105080Y612379D01*
X104786Y610901D01*
Y608421D01*
X113380D01*
Y614765D01*
D02*
G37*
G36*
X156980Y610655D02*
X152737D01*
X151459Y610400D01*
X150374Y609676D01*
X149650Y608592D01*
X149396Y607313D01*
Y606371D01*
X156980D01*
Y610655D01*
D02*
G37*
G36*
X66180Y624881D02*
X59836D01*
Y620151D01*
X60130Y618672D01*
X60730Y617774D01*
X60718Y617681D01*
X60182Y616593D01*
X60139Y616547D01*
X58970D01*
Y606171D01*
X66096D01*
Y611026D01*
X65676Y613138D01*
X64479Y614930D01*
X64349Y615016D01*
X64734Y616286D01*
X66180D01*
Y624881D01*
D02*
G37*
G36*
X56430Y616547D02*
X54825D01*
X52712Y616126D01*
X50921Y614930D01*
X49724Y613138D01*
X49304Y611026D01*
Y606171D01*
X56430D01*
Y616547D01*
D02*
G37*
G36*
X156980Y603831D02*
X149396D01*
Y602888D01*
X149650Y601609D01*
X150374Y600525D01*
X151459Y599801D01*
X152737Y599546D01*
X156980D01*
Y603831D01*
D02*
G37*
G36*
X186664Y605881D02*
X178070D01*
Y599536D01*
X182800D01*
X184279Y599831D01*
X185532Y600668D01*
X186370Y601922D01*
X186664Y603401D01*
Y605881D01*
D02*
G37*
G36*
X113380Y605881D02*
X104786D01*
Y603401D01*
X105080Y601922D01*
X105917Y600668D01*
X107171Y599831D01*
X108650Y599536D01*
X113380D01*
Y605881D01*
D02*
G37*
G36*
X66096Y603631D02*
X58970D01*
Y593255D01*
X60575D01*
X62688Y593675D01*
X64479Y594872D01*
X65676Y596663D01*
X66096Y598776D01*
Y603631D01*
D02*
G37*
G36*
X56430D02*
X49304D01*
Y598776D01*
X49724Y596663D01*
X50921Y594872D01*
X52712Y593675D01*
X54825Y593255D01*
X56430D01*
Y603631D01*
D02*
G37*
G36*
X178750Y578560D02*
X176923Y578320D01*
X175220Y577615D01*
X173758Y576492D01*
X172635Y575030D01*
X171930Y573327D01*
X171690Y571500D01*
Y565389D01*
X170800D01*
X170677Y565365D01*
X152651D01*
X152651Y565365D01*
X152650Y565365D01*
X152311Y565297D01*
X151870Y565210D01*
X151870Y565210D01*
X151594Y565095D01*
X150933Y564653D01*
X150933Y564653D01*
X150722Y564442D01*
X150280Y563781D01*
X150166Y563505D01*
X150011Y562725D01*
Y558812D01*
X149946Y558488D01*
Y554063D01*
X150159Y552995D01*
X150764Y552090D01*
X151669Y551484D01*
X151857Y551447D01*
X151870Y551442D01*
X152651Y551286D01*
X152665D01*
X152737Y551272D01*
X163762D01*
X163835Y551286D01*
X170677Y551286D01*
X170800Y551262D01*
X182800D01*
X182923Y551286D01*
X183048D01*
X183829Y551442D01*
X183945Y551490D01*
X184068Y551514D01*
X184172Y551584D01*
X184288Y551632D01*
X184950Y552074D01*
X185039Y552163D01*
X185143Y552233D01*
X185213Y552337D01*
X185301Y552426D01*
X185744Y553087D01*
X185792Y553203D01*
X185861Y553307D01*
X185886Y553431D01*
X185934Y553547D01*
X186089Y554327D01*
Y554452D01*
X186113Y554576D01*
Y562076D01*
X186089Y562199D01*
Y562324D01*
X185934Y563105D01*
X185886Y563220D01*
X185861Y563344D01*
X185810Y563420D01*
Y571500D01*
X185570Y573327D01*
X184865Y575030D01*
X183743Y576492D01*
X182280Y577615D01*
X180577Y578320D01*
X178750Y578560D01*
D02*
G37*
G36*
X175530Y546940D02*
X170800D01*
X169321Y546646D01*
X168067Y545808D01*
X167230Y544554D01*
X166936Y543076D01*
Y542750D01*
X165666Y542158D01*
X165041Y542575D01*
X163762Y542830D01*
X159520D01*
Y537276D01*
Y531721D01*
X163762D01*
X165041Y531976D01*
X166125Y532700D01*
X166380Y533082D01*
X167907Y533084D01*
X168067Y532843D01*
X169321Y532006D01*
X170800Y531711D01*
X175530D01*
Y539326D01*
Y546940D01*
D02*
G37*
G36*
X592223Y559740D02*
X589893D01*
X587642Y559137D01*
X585624Y557972D01*
X583976Y556324D01*
X582811Y554306D01*
X582208Y552055D01*
Y549725D01*
X582811Y547474D01*
X583976Y545456D01*
X585624Y543808D01*
X587642Y542643D01*
X589893Y542040D01*
X592223D01*
X594474Y542643D01*
X596492Y543808D01*
X598140Y545456D01*
X599305Y547474D01*
X599908Y549725D01*
Y552055D01*
X599305Y554306D01*
X598140Y556324D01*
X596492Y557972D01*
X594474Y559137D01*
X592223Y559740D01*
D02*
G37*
G36*
X182800Y546940D02*
X178070D01*
Y540596D01*
X186664D01*
Y543076D01*
X186370Y544554D01*
X185532Y545808D01*
X184279Y546646D01*
X182800Y546940D01*
D02*
G37*
G36*
X113380Y546940D02*
X108650D01*
X107171Y546646D01*
X105917Y545808D01*
X105080Y544554D01*
X104786Y543076D01*
Y540596D01*
X113380D01*
Y546940D01*
D02*
G37*
G36*
X156980Y542830D02*
X152737D01*
X151459Y542575D01*
X150374Y541851D01*
X149650Y540767D01*
X149396Y539488D01*
Y538546D01*
X156980D01*
Y542830D01*
D02*
G37*
G36*
X67846Y545840D02*
X58926D01*
Y536920D01*
X67846D01*
Y545840D01*
D02*
G37*
G36*
X56386D02*
X47466D01*
Y536920D01*
X56386D01*
Y545840D01*
D02*
G37*
G36*
X156980Y536006D02*
X149396D01*
Y535063D01*
X149650Y533784D01*
X150374Y532700D01*
X151459Y531976D01*
X152737Y531721D01*
X156980D01*
Y536006D01*
D02*
G37*
G36*
X113380Y538056D02*
X104786D01*
Y535576D01*
X105080Y534097D01*
X105917Y532843D01*
X107171Y532006D01*
X108650Y531711D01*
X113380D01*
Y538056D01*
D02*
G37*
G36*
X186664Y538056D02*
X178070D01*
Y531711D01*
X182800D01*
X184279Y532006D01*
X185532Y532843D01*
X186370Y534097D01*
X186664Y535576D01*
Y538056D01*
D02*
G37*
G36*
X592328Y534871D02*
Y526760D01*
X600439D01*
X599808Y529114D01*
X598572Y531256D01*
X596824Y533004D01*
X594682Y534240D01*
X592328Y534871D01*
D02*
G37*
G36*
X589788Y534871D02*
X587434Y534240D01*
X585292Y533004D01*
X583544Y531256D01*
X582308Y529114D01*
X581677Y526760D01*
X589788D01*
Y534871D01*
D02*
G37*
G36*
X67846Y534380D02*
X58926D01*
Y525460D01*
X67846D01*
Y534380D01*
D02*
G37*
G36*
X56386D02*
X47466D01*
Y525460D01*
X56386D01*
Y534380D01*
D02*
G37*
G36*
X589788Y524220D02*
X581677D01*
X582308Y521866D01*
X583544Y519724D01*
X585292Y517976D01*
X587434Y516740D01*
X589788Y516109D01*
Y524220D01*
D02*
G37*
G36*
X600439D02*
X592328D01*
Y516109D01*
X594682Y516740D01*
X596824Y517976D01*
X598572Y519724D01*
X599808Y521866D01*
X600439Y524220D01*
D02*
G37*
G36*
X479300Y527996D02*
X477695D01*
Y513120D01*
X484821D01*
Y522475D01*
X484401Y524588D01*
X483204Y526379D01*
X481413Y527576D01*
X479300Y527996D01*
D02*
G37*
G36*
X475155D02*
X473550D01*
X471437Y527576D01*
X469646Y526379D01*
X468449Y524588D01*
X468029Y522475D01*
Y513120D01*
X475155D01*
Y527996D01*
D02*
G37*
G36*
X501371Y520700D02*
X498830D01*
X496375Y520042D01*
X494175Y518772D01*
X492378Y516975D01*
X491108Y514775D01*
X490450Y512321D01*
Y509780D01*
X491108Y507325D01*
X492378Y505125D01*
X494175Y503328D01*
X496375Y502058D01*
X498830Y501400D01*
X501371D01*
X503825Y502058D01*
X506025Y503328D01*
X507822Y505125D01*
X509092Y507325D01*
X509750Y509780D01*
Y512321D01*
X509092Y514775D01*
X507822Y516975D01*
X506025Y518772D01*
X503825Y520042D01*
X501371Y520700D01*
D02*
G37*
G36*
X484821Y510580D02*
X477695D01*
Y495704D01*
X479300D01*
X481413Y496124D01*
X483204Y497321D01*
X484401Y499112D01*
X484821Y501225D01*
Y510580D01*
D02*
G37*
G36*
X475155D02*
X468029D01*
Y501225D01*
X468449Y499112D01*
X469646Y497321D01*
X471437Y496124D01*
X473550Y495704D01*
X475155D01*
Y510580D01*
D02*
G37*
G36*
X430980Y501730D02*
X425621D01*
Y500250D01*
X425973Y498479D01*
X426977Y496977D01*
X428479Y495973D01*
X430250Y495621D01*
X430980D01*
Y501730D01*
D02*
G37*
G36*
X129125Y490874D02*
X128395D01*
Y484765D01*
X133754D01*
Y486245D01*
X133401Y488017D01*
X132398Y489518D01*
X130896Y490522D01*
X129125Y490874D01*
D02*
G37*
G36*
X125855D02*
X125125D01*
X123354Y490522D01*
X121852Y489518D01*
X120848Y488017D01*
X120496Y486245D01*
Y484765D01*
X125855D01*
Y490874D01*
D02*
G37*
G36*
X112625Y490323D02*
X108625D01*
X107064Y490013D01*
X105741Y489129D01*
X104857Y487806D01*
X104547Y486245D01*
Y483626D01*
X104521Y483495D01*
Y480754D01*
X93345D01*
X92597Y482050D01*
X90800Y483847D01*
X88600Y485117D01*
X86145Y485775D01*
X83604D01*
X81150Y485117D01*
X78950Y483847D01*
X77153Y482050D01*
X75883Y479850D01*
X75689Y479129D01*
X37765D01*
X36016Y480878D01*
X33735Y482194D01*
X31192Y482876D01*
X28558D01*
X26015Y482194D01*
X23734Y480878D01*
X21872Y479016D01*
X20556Y476735D01*
X19874Y474192D01*
Y471558D01*
X20556Y469015D01*
X21872Y466734D01*
X23734Y464872D01*
X26015Y463555D01*
X28558Y462874D01*
X31192D01*
X33735Y463555D01*
X36016Y464872D01*
X37878Y466734D01*
X39194Y469015D01*
X39424Y469871D01*
X77482D01*
X78950Y468403D01*
X81150Y467133D01*
X83604Y466475D01*
X86145D01*
X88600Y467133D01*
X90800Y468403D01*
X92597Y470200D01*
X93345Y471496D01*
X104521D01*
Y468745D01*
X104547Y468614D01*
Y465995D01*
X104857Y464434D01*
X105741Y463111D01*
X107064Y462227D01*
X108625Y461917D01*
X112625D01*
X114186Y462227D01*
X115509Y463111D01*
X116393Y464434D01*
X116703Y465995D01*
Y468614D01*
X116729Y468745D01*
Y476125D01*
Y483495D01*
X116703Y483626D01*
Y486245D01*
X116393Y487806D01*
X115509Y489129D01*
X114186Y490013D01*
X112625Y490323D01*
D02*
G37*
G36*
X668526Y494500D02*
X665985D01*
X663531Y493842D01*
X661331Y492572D01*
X659534Y490775D01*
X658264Y488575D01*
X657606Y486120D01*
Y483580D01*
X658264Y481125D01*
X659534Y478925D01*
X661331Y477128D01*
X663531Y475858D01*
X665985Y475200D01*
X668526D01*
X670981Y475858D01*
X673181Y477128D01*
X674978Y478925D01*
X676248Y481125D01*
X676906Y483580D01*
Y486120D01*
X676248Y488575D01*
X674978Y490775D01*
X673181Y492572D01*
X670981Y493842D01*
X668526Y494500D01*
D02*
G37*
G36*
X313250Y473379D02*
X312520D01*
Y467270D01*
X317879D01*
Y468750D01*
X317527Y470521D01*
X316523Y472023D01*
X315021Y473027D01*
X313250Y473379D01*
D02*
G37*
G36*
X317879Y464730D02*
X312520D01*
Y458621D01*
X313250D01*
X315021Y458973D01*
X316523Y459977D01*
X317527Y461479D01*
X317879Y463250D01*
Y464730D01*
D02*
G37*
G36*
X269975Y473296D02*
X268370D01*
Y458420D01*
X275496D01*
Y467775D01*
X275076Y469888D01*
X273879Y471679D01*
X272088Y472876D01*
X269975Y473296D01*
D02*
G37*
G36*
X265830D02*
X264225D01*
X262112Y472876D01*
X260321Y471679D01*
X259124Y469888D01*
X258704Y467775D01*
Y458420D01*
X265830D01*
Y473296D01*
D02*
G37*
G36*
X676906Y469100D02*
X657606D01*
Y449800D01*
X676906D01*
Y469100D01*
D02*
G37*
G36*
X112625Y458453D02*
X108625D01*
X107064Y458143D01*
X105741Y457259D01*
X104857Y455936D01*
X104547Y454375D01*
Y451756D01*
X104521Y451625D01*
Y448884D01*
X93345D01*
X92597Y450180D01*
X90800Y451977D01*
X88600Y453247D01*
X86145Y453905D01*
X83604D01*
X81150Y453247D01*
X78950Y451977D01*
X77467Y450494D01*
X39420D01*
X39194Y451335D01*
X37878Y453616D01*
X36016Y455478D01*
X33735Y456794D01*
X31192Y457476D01*
X28558D01*
X26015Y456794D01*
X23734Y455478D01*
X21872Y453616D01*
X20556Y451335D01*
X19874Y448792D01*
Y446158D01*
X20556Y443615D01*
X21872Y441334D01*
X23734Y439472D01*
X26015Y438156D01*
X28558Y437474D01*
X31192D01*
X33735Y438156D01*
X36016Y439472D01*
X37780Y441236D01*
X75693D01*
X75883Y440530D01*
X77153Y438330D01*
X78950Y436533D01*
X81150Y435263D01*
X83604Y434605D01*
X86145D01*
X88600Y435263D01*
X90800Y436533D01*
X92597Y438330D01*
X93345Y439626D01*
X104521D01*
Y436875D01*
X104547Y436744D01*
Y434125D01*
X104857Y432564D01*
X105741Y431241D01*
X107064Y430357D01*
X108625Y430047D01*
X112625D01*
X114186Y430357D01*
X115509Y431241D01*
X116393Y432564D01*
X116703Y434125D01*
Y436744D01*
X116729Y436875D01*
Y451625D01*
X116703Y451756D01*
Y454375D01*
X116393Y455936D01*
X115509Y457259D01*
X114186Y458143D01*
X112625Y458453D01*
D02*
G37*
G36*
X438879Y461730D02*
X432250D01*
X425621D01*
Y460250D01*
X425973Y458479D01*
X426977Y456977D01*
X428430Y456006D01*
X428573Y455322D01*
X428538Y454667D01*
X427366Y453884D01*
X426482Y452561D01*
X426172Y451000D01*
Y445500D01*
X426482Y443939D01*
X427366Y442616D01*
X428689Y441732D01*
X430250Y441422D01*
X434250D01*
X435811Y441732D01*
X437134Y442616D01*
X438018Y443939D01*
X438056Y444131D01*
X439425Y444504D01*
X439918Y444011D01*
X441755Y443250D01*
X443745D01*
X445582Y444011D01*
X446989Y445418D01*
X447750Y447255D01*
Y449245D01*
X446989Y451082D01*
X445582Y452489D01*
X443745Y453250D01*
X441755D01*
X439918Y452489D01*
X439425Y451996D01*
X438056Y452369D01*
X438018Y452561D01*
X437134Y453884D01*
X435962Y454667D01*
X435927Y455322D01*
X436070Y456006D01*
X437523Y456977D01*
X438527Y458479D01*
X438879Y460250D01*
Y461730D01*
D02*
G37*
G36*
X275496Y455880D02*
X268370D01*
Y441004D01*
X269975D01*
X272088Y441424D01*
X273879Y442621D01*
X275076Y444412D01*
X275496Y446525D01*
Y455880D01*
D02*
G37*
G36*
X265830D02*
X258704D01*
Y446525D01*
X259124Y444412D01*
X260321Y442621D01*
X262112Y441424D01*
X264225Y441004D01*
X265830D01*
Y455880D01*
D02*
G37*
G36*
X133754Y435605D02*
X128395D01*
Y429496D01*
X129125D01*
X130896Y429848D01*
X132398Y430852D01*
X133401Y432354D01*
X133754Y434125D01*
Y435605D01*
D02*
G37*
G36*
X125855D02*
X120496D01*
Y434125D01*
X120848Y432354D01*
X121852Y430852D01*
X123354Y429848D01*
X125125Y429496D01*
X125855D01*
Y435605D01*
D02*
G37*
G36*
X395500Y433129D02*
X394020D01*
Y427770D01*
X400129D01*
Y428500D01*
X399777Y430271D01*
X398773Y431773D01*
X397271Y432777D01*
X395500Y433129D01*
D02*
G37*
G36*
X353500D02*
X352020D01*
Y427770D01*
X358129D01*
Y428500D01*
X357777Y430271D01*
X356773Y431773D01*
X355271Y432777D01*
X353500Y433129D01*
D02*
G37*
G36*
X391480D02*
X390000D01*
X388229Y432777D01*
X386727Y431773D01*
X385723Y430271D01*
X385371Y428500D01*
Y427770D01*
X391480D01*
Y433129D01*
D02*
G37*
G36*
X349480D02*
X348000D01*
X346229Y432777D01*
X344727Y431773D01*
X343723Y430271D01*
X343371Y428500D01*
Y427770D01*
X349480D01*
Y433129D01*
D02*
G37*
G36*
X455245Y469750D02*
X453255D01*
X451418Y468989D01*
X450011Y467582D01*
X449250Y465745D01*
Y463755D01*
X450011Y461918D01*
X451418Y460511D01*
X453255Y459750D01*
X454564D01*
X492767Y421547D01*
X493842Y420829D01*
X495110Y420576D01*
X557384D01*
X557411Y420474D01*
X558576Y418456D01*
X560224Y416808D01*
X562242Y415643D01*
X564493Y415040D01*
X566823D01*
X569074Y415643D01*
X571092Y416808D01*
X572740Y418456D01*
X573905Y420474D01*
X574508Y422725D01*
Y425055D01*
X573905Y427306D01*
X572740Y429324D01*
X571092Y430972D01*
X569074Y432137D01*
X566823Y432740D01*
X564493D01*
X562242Y432137D01*
X560224Y430972D01*
X558576Y429324D01*
X557411Y427306D01*
X557384Y427204D01*
X496483D01*
X459250Y464436D01*
Y465745D01*
X458489Y467582D01*
X457082Y468989D01*
X455245Y469750D01*
D02*
G37*
G36*
X566823Y407340D02*
X564493D01*
X562242Y406737D01*
X560224Y405572D01*
X558576Y403924D01*
X557411Y401906D01*
X556808Y399655D01*
Y397325D01*
X557411Y395074D01*
X558576Y393056D01*
X560224Y391408D01*
X562242Y390243D01*
X564493Y389640D01*
X566823D01*
X569074Y390243D01*
X571092Y391408D01*
X572740Y393056D01*
X573905Y395074D01*
X574508Y397325D01*
Y399655D01*
X573905Y401906D01*
X572740Y403924D01*
X571092Y405572D01*
X569074Y406737D01*
X566823Y407340D01*
D02*
G37*
G36*
X412225Y390746D02*
X402870D01*
Y383620D01*
X417746D01*
Y385225D01*
X417326Y387338D01*
X416129Y389129D01*
X414338Y390326D01*
X412225Y390746D01*
D02*
G37*
G36*
X352550D02*
X343195D01*
Y383620D01*
X358071D01*
Y385225D01*
X357651Y387338D01*
X356454Y389129D01*
X354663Y390326D01*
X352550Y390746D01*
D02*
G37*
G36*
X400330D02*
X390975D01*
X388862Y390326D01*
X387071Y389129D01*
X385874Y387338D01*
X385454Y385225D01*
Y383620D01*
X400330D01*
Y390746D01*
D02*
G37*
G36*
X340655D02*
X331300D01*
X329187Y390326D01*
X327396Y389129D01*
X326199Y387338D01*
X325779Y385225D01*
Y383620D01*
X340655D01*
Y390746D01*
D02*
G37*
G36*
X417746Y381080D02*
X402870D01*
Y373954D01*
X412225D01*
X414338Y374374D01*
X416129Y375571D01*
X417326Y377362D01*
X417746Y379475D01*
Y381080D01*
D02*
G37*
G36*
X400330D02*
X385454D01*
Y379475D01*
X385874Y377362D01*
X387071Y375571D01*
X388862Y374374D01*
X390975Y373954D01*
X400330D01*
Y381080D01*
D02*
G37*
G36*
X358071D02*
X343195D01*
Y373954D01*
X352550D01*
X354663Y374374D01*
X356454Y375571D01*
X357651Y377362D01*
X358071Y379475D01*
Y381080D01*
D02*
G37*
G36*
X340655D02*
X325779D01*
Y379475D01*
X326199Y377362D01*
X327396Y375571D01*
X329187Y374374D01*
X331300Y373954D01*
X340655D01*
Y381080D01*
D02*
G37*
G36*
X129250Y371149D02*
X128520D01*
Y365040D01*
X133879D01*
Y366520D01*
X133527Y368292D01*
X132523Y369793D01*
X131021Y370797D01*
X129250Y371149D01*
D02*
G37*
G36*
X125980D02*
X125250D01*
X123478Y370797D01*
X121977Y369793D01*
X120973Y368292D01*
X120621Y366520D01*
Y365040D01*
X125980D01*
Y371149D01*
D02*
G37*
G36*
X592223Y381940D02*
X589893D01*
X587642Y381337D01*
X585624Y380172D01*
X583976Y378524D01*
X582811Y376506D01*
X582208Y374255D01*
Y371925D01*
X582811Y369674D01*
X583976Y367656D01*
X585624Y366008D01*
X587642Y364843D01*
X589893Y364240D01*
X592223D01*
X594474Y364843D01*
X596492Y366008D01*
X598140Y367656D01*
X599305Y369674D01*
X599908Y371925D01*
Y374255D01*
X599305Y376506D01*
X598140Y378524D01*
X596492Y380172D01*
X594474Y381337D01*
X592223Y381940D01*
D02*
G37*
G36*
X112750Y370598D02*
X108750D01*
X107189Y370288D01*
X105866Y369404D01*
X104982Y368081D01*
X104672Y366520D01*
Y363901D01*
X104646Y363770D01*
Y361029D01*
X93470D01*
X92722Y362325D01*
X90925Y364122D01*
X88725Y365392D01*
X86270Y366050D01*
X83729D01*
X81275Y365392D01*
X79075Y364122D01*
X77278Y362325D01*
X76008Y360125D01*
X75814Y359404D01*
X37890D01*
X36141Y361153D01*
X33860Y362469D01*
X31317Y363151D01*
X28683D01*
X26140Y362469D01*
X23859Y361153D01*
X21997Y359291D01*
X20680Y357010D01*
X19999Y354467D01*
Y351833D01*
X20680Y349290D01*
X21997Y347009D01*
X23859Y345147D01*
X26140Y343830D01*
X28683Y343149D01*
X31317D01*
X33860Y343830D01*
X36141Y345147D01*
X38003Y347009D01*
X39320Y349290D01*
X39549Y350146D01*
X77607D01*
X79075Y348678D01*
X81275Y347408D01*
X83729Y346750D01*
X86270D01*
X88725Y347408D01*
X90925Y348678D01*
X92722Y350475D01*
X93470Y351771D01*
X104646D01*
Y349020D01*
X104672Y348889D01*
Y346270D01*
X104982Y344709D01*
X105866Y343386D01*
X107189Y342502D01*
X108750Y342192D01*
X112750D01*
X114311Y342502D01*
X115634Y343386D01*
X116518Y344709D01*
X116828Y346270D01*
Y348889D01*
X116854Y349020D01*
Y356395D01*
Y363770D01*
X116828Y363901D01*
Y366520D01*
X116518Y368081D01*
X115634Y369404D01*
X114311Y370288D01*
X112750Y370598D01*
D02*
G37*
G36*
X402070Y368375D02*
X399529D01*
X397075Y367717D01*
X394875Y366447D01*
X393078Y364650D01*
X391808Y362450D01*
X391150Y359995D01*
Y357454D01*
X391808Y355000D01*
X393078Y352800D01*
X394875Y351003D01*
X397075Y349733D01*
X399529Y349075D01*
X402070D01*
X404525Y349733D01*
X406725Y351003D01*
X408522Y352800D01*
X409792Y355000D01*
X410450Y357454D01*
Y359995D01*
X409792Y362450D01*
X408522Y364650D01*
X406725Y366447D01*
X404525Y367717D01*
X402070Y368375D01*
D02*
G37*
G36*
X112750Y338728D02*
X108750D01*
X107189Y338418D01*
X105866Y337534D01*
X104982Y336211D01*
X104672Y334650D01*
Y332031D01*
X104646Y331900D01*
Y329159D01*
X93470D01*
X92722Y330455D01*
X90925Y332252D01*
X88725Y333522D01*
X86270Y334180D01*
X83729D01*
X81275Y333522D01*
X79075Y332252D01*
X77592Y330769D01*
X39545D01*
X39320Y331610D01*
X38003Y333891D01*
X36141Y335753D01*
X33860Y337070D01*
X31317Y337751D01*
X28683D01*
X26140Y337070D01*
X23859Y335753D01*
X21997Y333891D01*
X20680Y331610D01*
X19999Y329067D01*
Y326433D01*
X20680Y323890D01*
X21997Y321609D01*
X23859Y319747D01*
X26140Y318431D01*
X28683Y317749D01*
X31317D01*
X33860Y318431D01*
X36141Y319747D01*
X37905Y321511D01*
X75819D01*
X76008Y320805D01*
X77278Y318605D01*
X79075Y316808D01*
X81275Y315538D01*
X83729Y314880D01*
X86270D01*
X88725Y315538D01*
X90925Y316808D01*
X92722Y318605D01*
X93470Y319901D01*
X104646D01*
Y317150D01*
X104672Y317019D01*
Y314400D01*
X104982Y312839D01*
X105866Y311516D01*
X107189Y310632D01*
X108750Y310322D01*
X112750D01*
X114311Y310632D01*
X115634Y311516D01*
X116518Y312839D01*
X116828Y314400D01*
Y317019D01*
X116854Y317150D01*
Y324525D01*
Y331900D01*
X116828Y332031D01*
Y334650D01*
X116518Y336211D01*
X115634Y337534D01*
X114311Y338418D01*
X112750Y338728D01*
D02*
G37*
G36*
X599908Y341300D02*
X582208D01*
Y323600D01*
X599908D01*
Y341300D01*
D02*
G37*
G36*
X566823D02*
X564493D01*
X562242Y340697D01*
X560224Y339532D01*
X558576Y337884D01*
X557411Y335866D01*
X556808Y333615D01*
Y331285D01*
X557411Y329034D01*
X558576Y327016D01*
X560224Y325368D01*
X562242Y324203D01*
X564493Y323600D01*
X566823D01*
X569074Y324203D01*
X571092Y325368D01*
X572740Y327016D01*
X573905Y329034D01*
X574508Y331285D01*
Y333615D01*
X573905Y335866D01*
X572740Y337884D01*
X571092Y339532D01*
X569074Y340697D01*
X566823Y341300D01*
D02*
G37*
G36*
X133879Y315880D02*
X128520D01*
Y309771D01*
X129250D01*
X131021Y310123D01*
X132523Y311127D01*
X133527Y312629D01*
X133879Y314400D01*
Y315880D01*
D02*
G37*
G36*
X125980D02*
X120621D01*
Y314400D01*
X120973Y312629D01*
X121977Y311127D01*
X123478Y310123D01*
X125250Y309771D01*
X125980D01*
Y315880D01*
D02*
G37*
G36*
X592223Y315900D02*
X589893D01*
X587642Y315297D01*
X585624Y314132D01*
X583976Y312484D01*
X582811Y310466D01*
X582208Y308215D01*
Y305885D01*
X582811Y303634D01*
X583976Y301616D01*
X585624Y299968D01*
X587642Y298803D01*
X589893Y298200D01*
X592223D01*
X594474Y298803D01*
X596492Y299968D01*
X598140Y301616D01*
X599305Y303634D01*
X599908Y305885D01*
Y308215D01*
X599305Y310466D01*
X598140Y312484D01*
X596492Y314132D01*
X594474Y315297D01*
X592223Y315900D01*
D02*
G37*
G36*
X566823D02*
X564493D01*
X562242Y315297D01*
X560224Y314132D01*
X558576Y312484D01*
X557411Y310466D01*
X556808Y308215D01*
Y305885D01*
X557411Y303634D01*
X558576Y301616D01*
X560224Y299968D01*
X562242Y298803D01*
X564493Y298200D01*
X566823D01*
X569074Y298803D01*
X571092Y299968D01*
X572740Y301616D01*
X573905Y303634D01*
X574508Y305885D01*
Y308215D01*
X573905Y310466D01*
X572740Y312484D01*
X571092Y314132D01*
X569074Y315297D01*
X566823Y315900D01*
D02*
G37*
G36*
X273423Y292118D02*
X265423D01*
X263082Y291652D01*
X261097Y290326D01*
X259771Y288341D01*
X259431Y286629D01*
X247040D01*
X247040Y286629D01*
X245268Y286277D01*
X243767Y285273D01*
X234278Y275784D01*
X217250D01*
Y280805D01*
X197950D01*
Y275784D01*
X193905D01*
X192134Y275432D01*
X190632Y274428D01*
X190632Y274428D01*
X182227Y266023D01*
X181223Y264521D01*
X180871Y262750D01*
X180871Y262750D01*
Y225000D01*
X180871Y225000D01*
X181223Y223229D01*
X182227Y221727D01*
X192527Y211427D01*
X192527Y211427D01*
X194029Y210423D01*
X195800Y210071D01*
X195800Y210071D01*
X199130D01*
X199878Y208775D01*
X201675Y206978D01*
X203875Y205708D01*
X206329Y205050D01*
X208870D01*
X211325Y205708D01*
X213525Y206978D01*
X215322Y208775D01*
X216592Y210975D01*
X217250Y213430D01*
Y215970D01*
X216592Y218425D01*
X215322Y220625D01*
X213525Y222422D01*
X211325Y223692D01*
X208870Y224350D01*
X206329D01*
X203875Y223692D01*
X201675Y222422D01*
X199878Y220625D01*
X199130Y219329D01*
X197717D01*
X190129Y226917D01*
Y260833D01*
X195822Y266526D01*
X197950D01*
Y261505D01*
X217250D01*
Y266526D01*
X236195D01*
X236195Y266526D01*
X237966Y266878D01*
X239468Y267882D01*
X248957Y277371D01*
X259431D01*
X259771Y275659D01*
X261097Y273674D01*
X263082Y272348D01*
X265423Y271882D01*
X273423D01*
X275764Y272348D01*
X277749Y273674D01*
X279075Y275659D01*
X279541Y278000D01*
Y286000D01*
X279075Y288341D01*
X277749Y290326D01*
X275764Y291652D01*
X273423Y292118D01*
D02*
G37*
G36*
X150883Y290618D02*
X142883D01*
X140542Y290152D01*
X138557Y288826D01*
X137231Y286841D01*
X136891Y285129D01*
X124500D01*
X124500Y285129D01*
X122729Y284777D01*
X121227Y283773D01*
X111738Y274284D01*
X94710D01*
Y279305D01*
X75410D01*
Y260005D01*
X94710D01*
Y265026D01*
X113655D01*
X113655Y265026D01*
X115426Y265378D01*
X116928Y266382D01*
X126417Y275871D01*
X136891D01*
X137231Y274159D01*
X138557Y272174D01*
X140542Y270848D01*
X142883Y270382D01*
X150883D01*
X153224Y270848D01*
X155209Y272174D01*
X156535Y274159D01*
X157001Y276500D01*
Y284500D01*
X156535Y286841D01*
X155209Y288826D01*
X153224Y290152D01*
X150883Y290618D01*
D02*
G37*
G36*
X566928Y291031D02*
Y282920D01*
X575039D01*
X574408Y285274D01*
X573172Y287416D01*
X571424Y289164D01*
X569282Y290400D01*
X566928Y291031D01*
D02*
G37*
G36*
X564388Y291031D02*
X562034Y290400D01*
X559892Y289164D01*
X558144Y287416D01*
X556908Y285274D01*
X556277Y282920D01*
X564388D01*
Y291031D01*
D02*
G37*
G36*
X592223Y290500D02*
X589893D01*
X587642Y289897D01*
X585624Y288732D01*
X583976Y287084D01*
X582811Y285066D01*
X582208Y282815D01*
Y280485D01*
X582811Y278234D01*
X583976Y276216D01*
X585624Y274568D01*
X587642Y273403D01*
X589893Y272800D01*
X592223D01*
X594474Y273403D01*
X596492Y274568D01*
X598140Y276216D01*
X599305Y278234D01*
X599908Y280485D01*
Y282815D01*
X599305Y285066D01*
X598140Y287084D01*
X596492Y288732D01*
X594474Y289897D01*
X592223Y290500D01*
D02*
G37*
G36*
X564388Y280380D02*
X556277D01*
X556908Y278026D01*
X558144Y275884D01*
X559892Y274136D01*
X562034Y272900D01*
X564388Y272269D01*
Y280380D01*
D02*
G37*
G36*
X575039D02*
X566928D01*
Y272269D01*
X569282Y272900D01*
X571424Y274136D01*
X573172Y275884D01*
X574408Y278026D01*
X575039Y280380D01*
D02*
G37*
G36*
X592223Y265100D02*
X589893D01*
X587642Y264497D01*
X585624Y263332D01*
X583976Y261684D01*
X582811Y259666D01*
X582208Y257415D01*
Y255085D01*
X582811Y252834D01*
X583976Y250816D01*
X585624Y249168D01*
X587642Y248003D01*
X589893Y247400D01*
X592223D01*
X594474Y248003D01*
X596492Y249168D01*
X598140Y250816D01*
X599305Y252834D01*
X599908Y255085D01*
Y257415D01*
X599305Y259666D01*
X598140Y261684D01*
X596492Y263332D01*
X594474Y264497D01*
X592223Y265100D01*
D02*
G37*
G36*
X566823D02*
X564493D01*
X562242Y264497D01*
X560224Y263332D01*
X558576Y261684D01*
X557411Y259666D01*
X556808Y257415D01*
Y255085D01*
X557411Y252834D01*
X558576Y250816D01*
X560224Y249168D01*
X562242Y248003D01*
X564493Y247400D01*
X566823D01*
X569074Y248003D01*
X571092Y249168D01*
X572740Y250816D01*
X573905Y252834D01*
X574508Y255085D01*
Y257415D01*
X573905Y259666D01*
X572740Y261684D01*
X571092Y263332D01*
X569074Y264497D01*
X566823Y265100D01*
D02*
G37*
G36*
X31388Y242691D02*
X31270D01*
Y233420D01*
X40541D01*
Y233538D01*
X39823Y236219D01*
X38435Y238622D01*
X36472Y240585D01*
X34069Y241973D01*
X31388Y242691D01*
D02*
G37*
G36*
X28730D02*
X28612D01*
X25931Y241973D01*
X23528Y240585D01*
X21565Y238622D01*
X20177Y236219D01*
X19459Y233538D01*
Y233420D01*
X28730D01*
Y242691D01*
D02*
G37*
G36*
X592223Y239700D02*
X589893D01*
X587642Y239097D01*
X585624Y237932D01*
X583976Y236284D01*
X582811Y234266D01*
X582208Y232015D01*
Y229685D01*
X582811Y227434D01*
X583976Y225416D01*
X585624Y223768D01*
X587642Y222603D01*
X589893Y222000D01*
X592223D01*
X594474Y222603D01*
X596492Y223768D01*
X598140Y225416D01*
X599305Y227434D01*
X599908Y229685D01*
Y232015D01*
X599305Y234266D01*
X598140Y236284D01*
X596492Y237932D01*
X594474Y239097D01*
X592223Y239700D01*
D02*
G37*
G36*
X566823D02*
X564493D01*
X562242Y239097D01*
X560224Y237932D01*
X558576Y236284D01*
X557411Y234266D01*
X556808Y232015D01*
Y229685D01*
X557411Y227434D01*
X558576Y225416D01*
X560224Y223768D01*
X562242Y222603D01*
X564493Y222000D01*
X566823D01*
X569074Y222603D01*
X571092Y223768D01*
X572740Y225416D01*
X573905Y227434D01*
X574508Y229685D01*
Y232015D01*
X573905Y234266D01*
X572740Y236284D01*
X571092Y237932D01*
X569074Y239097D01*
X566823Y239700D01*
D02*
G37*
G36*
X40541Y230880D02*
X31270D01*
Y221609D01*
X31388D01*
X34069Y222327D01*
X36472Y223715D01*
X38435Y225678D01*
X39823Y228081D01*
X40541Y230762D01*
Y230880D01*
D02*
G37*
G36*
X28730D02*
X19459D01*
Y230762D01*
X20177Y228081D01*
X21565Y225678D01*
X23528Y223715D01*
X25931Y222327D01*
X28612Y221609D01*
X28730D01*
Y230880D01*
D02*
G37*
G36*
X242798Y208146D02*
X241193D01*
Y197770D01*
X248319D01*
Y202625D01*
X247899Y204738D01*
X246702Y206529D01*
X244911Y207726D01*
X242798Y208146D01*
D02*
G37*
G36*
X238653D02*
X237048D01*
X234935Y207726D01*
X233144Y206529D01*
X231947Y204738D01*
X231527Y202625D01*
Y197770D01*
X238653D01*
Y208146D01*
D02*
G37*
G36*
X120258D02*
X118653D01*
Y197770D01*
X125779D01*
Y202625D01*
X125359Y204738D01*
X124162Y206529D01*
X122371Y207726D01*
X120258Y208146D01*
D02*
G37*
G36*
X116113D02*
X114508D01*
X112395Y207726D01*
X110604Y206529D01*
X109407Y204738D01*
X108987Y202625D01*
Y197770D01*
X116113D01*
Y208146D01*
D02*
G37*
G36*
X31317Y216751D02*
X28683D01*
X26140Y216069D01*
X23859Y214753D01*
X21997Y212891D01*
X20680Y210610D01*
X19999Y208067D01*
Y205433D01*
X20680Y202890D01*
X21997Y200609D01*
X23859Y198747D01*
X26140Y197430D01*
X28683Y196749D01*
X31317D01*
X33860Y197430D01*
X36141Y198747D01*
X38003Y200609D01*
X39320Y202890D01*
X40001Y205433D01*
Y208067D01*
X39320Y210610D01*
X38003Y212891D01*
X36141Y214753D01*
X33860Y216069D01*
X31317Y216751D01*
D02*
G37*
G36*
X592223Y214300D02*
X589893D01*
X587642Y213697D01*
X585624Y212532D01*
X583976Y210884D01*
X582811Y208866D01*
X582208Y206615D01*
Y204285D01*
X582811Y202034D01*
X583976Y200016D01*
X585624Y198368D01*
X587642Y197203D01*
X589893Y196600D01*
X592223D01*
X594474Y197203D01*
X596492Y198368D01*
X598140Y200016D01*
X599305Y202034D01*
X599908Y204285D01*
Y206615D01*
X599305Y208866D01*
X598140Y210884D01*
X596492Y212532D01*
X594474Y213697D01*
X592223Y214300D01*
D02*
G37*
G36*
X566823D02*
X564493D01*
X562242Y213697D01*
X560224Y212532D01*
X558576Y210884D01*
X557411Y208866D01*
X556808Y206615D01*
Y204285D01*
X557411Y202034D01*
X558576Y200016D01*
X560224Y198368D01*
X562242Y197203D01*
X564493Y196600D01*
X566823D01*
X569074Y197203D01*
X571092Y198368D01*
X572740Y200016D01*
X573905Y202034D01*
X574508Y204285D01*
Y206615D01*
X573905Y208866D01*
X572740Y210884D01*
X571092Y212532D01*
X569074Y213697D01*
X566823Y214300D01*
D02*
G37*
G36*
X208870Y255405D02*
X206329D01*
X203875Y254747D01*
X201675Y253477D01*
X199878Y251680D01*
X198608Y249480D01*
X197950Y247025D01*
Y244485D01*
X198608Y242030D01*
X199878Y239830D01*
X201675Y238033D01*
X203875Y236763D01*
X206329Y236105D01*
X208870D01*
X211325Y236763D01*
X213525Y238033D01*
X215322Y239830D01*
X216070Y241126D01*
X233618D01*
X246017Y228727D01*
X246017Y228727D01*
X247519Y227723D01*
X249290Y227371D01*
X249290Y227371D01*
X260549D01*
X261421Y225860D01*
X263283Y223998D01*
X264794Y223125D01*
Y207247D01*
X264646Y207217D01*
X263033Y206140D01*
X261956Y204527D01*
X261577Y202625D01*
Y190375D01*
X261956Y188473D01*
X263033Y186860D01*
X264646Y185783D01*
X264732Y185766D01*
Y183745D01*
X264608Y183721D01*
X263016Y182657D01*
X261952Y181065D01*
X261579Y179188D01*
Y167313D01*
X261952Y165435D01*
X263016Y163843D01*
X264608Y162779D01*
X266486Y162406D01*
X272111D01*
X273988Y162779D01*
X275580Y163843D01*
X276644Y165435D01*
X277017Y167313D01*
Y179188D01*
X276644Y181065D01*
X275580Y182657D01*
X273989Y183720D01*
Y185741D01*
X274200Y185783D01*
X275813Y186860D01*
X276890Y188473D01*
X277269Y190375D01*
Y191871D01*
X289453D01*
X290201Y190575D01*
X291998Y188778D01*
X294198Y187508D01*
X296653Y186850D01*
X299193D01*
X301648Y187508D01*
X303848Y188778D01*
X305645Y190575D01*
X306915Y192775D01*
X307573Y195229D01*
Y197770D01*
X306915Y200225D01*
X305645Y202425D01*
X303848Y204222D01*
X301648Y205492D01*
X299193Y206150D01*
X296653D01*
X294198Y205492D01*
X291998Y204222D01*
X290201Y202425D01*
X289453Y201129D01*
X277269D01*
Y202625D01*
X276890Y204527D01*
X275813Y206140D01*
X274200Y207217D01*
X274052Y207247D01*
Y223125D01*
X275563Y223998D01*
X277425Y225860D01*
X278741Y228140D01*
X279423Y230683D01*
Y233316D01*
X278741Y235860D01*
X277425Y238140D01*
X275563Y240002D01*
X273283Y241318D01*
X270739Y242000D01*
X268106D01*
X265563Y241318D01*
X263283Y240002D01*
X261421Y238140D01*
X260549Y236629D01*
X251207D01*
X238808Y249028D01*
X237306Y250032D01*
X235535Y250384D01*
X235535Y250384D01*
X216070D01*
X215322Y251680D01*
X213525Y253477D01*
X211325Y254747D01*
X208870Y255405D01*
D02*
G37*
G36*
X86330Y253905D02*
X83790D01*
X81335Y253247D01*
X79135Y251977D01*
X77338Y250180D01*
X76068Y247980D01*
X75410Y245525D01*
Y242985D01*
X76068Y240530D01*
X77338Y238330D01*
X79135Y236533D01*
X81335Y235263D01*
X83790Y234605D01*
X86330D01*
X88785Y235263D01*
X90985Y236533D01*
X92782Y238330D01*
X93530Y239626D01*
X111078D01*
X123477Y227227D01*
X123477Y227227D01*
X124979Y226223D01*
X126750Y225871D01*
X126750Y225871D01*
X138008D01*
X138881Y224360D01*
X140743Y222498D01*
X142254Y221625D01*
Y207247D01*
X142106Y207217D01*
X140493Y206140D01*
X139416Y204527D01*
X139038Y202625D01*
Y190375D01*
X139416Y188473D01*
X140493Y186860D01*
X142106Y185783D01*
X142191Y185766D01*
Y183745D01*
X142068Y183721D01*
X140476Y182657D01*
X139412Y181065D01*
X139039Y179188D01*
Y167313D01*
X139412Y165435D01*
X140476Y163843D01*
X142068Y162779D01*
X143946Y162406D01*
X149571D01*
X151448Y162779D01*
X153040Y163843D01*
X154104Y165435D01*
X154477Y167313D01*
Y179188D01*
X154104Y181065D01*
X153040Y182657D01*
X151449Y183720D01*
Y185741D01*
X151660Y185783D01*
X153273Y186860D01*
X154350Y188473D01*
X154728Y190375D01*
Y191871D01*
X166913D01*
X167661Y190575D01*
X169458Y188778D01*
X171658Y187508D01*
X174112Y186850D01*
X176653D01*
X179108Y187508D01*
X181308Y188778D01*
X183105Y190575D01*
X184375Y192775D01*
X185033Y195229D01*
Y197770D01*
X184375Y200225D01*
X183105Y202425D01*
X181308Y204222D01*
X179108Y205492D01*
X176653Y206150D01*
X174112D01*
X171658Y205492D01*
X169458Y204222D01*
X167661Y202425D01*
X166913Y201129D01*
X154728D01*
Y202625D01*
X154350Y204527D01*
X153273Y206140D01*
X151660Y207217D01*
X151512Y207247D01*
Y221625D01*
X153023Y222498D01*
X154885Y224360D01*
X156201Y226640D01*
X156883Y229183D01*
Y231817D01*
X156201Y234360D01*
X154885Y236640D01*
X153023Y238502D01*
X150743Y239818D01*
X148200Y240500D01*
X145567D01*
X143023Y239818D01*
X140743Y238502D01*
X138881Y236640D01*
X138008Y235129D01*
X128667D01*
X116268Y247528D01*
X114766Y248532D01*
X112995Y248884D01*
X112995Y248884D01*
X93530D01*
X92782Y250180D01*
X90985Y251977D01*
X88785Y253247D01*
X86330Y253905D01*
D02*
G37*
G36*
X248319Y195230D02*
X231527D01*
Y190375D01*
X231947Y188262D01*
X233144Y186471D01*
X234935Y185274D01*
X235796Y185103D01*
Y183808D01*
X235358Y183721D01*
X233766Y182657D01*
X232702Y181065D01*
X232329Y179188D01*
Y177879D01*
X227890D01*
X226994Y178250D01*
X225005D01*
X223168Y177489D01*
X221761Y176082D01*
X221000Y174244D01*
Y172255D01*
X221761Y170418D01*
X223168Y169011D01*
X225005Y168250D01*
X226994D01*
X227890Y168621D01*
X232329D01*
Y167313D01*
X232702Y165435D01*
X233766Y163843D01*
X235358Y162779D01*
X237236Y162406D01*
X242861D01*
X244738Y162779D01*
X246330Y163843D01*
X247394Y165435D01*
X247767Y167313D01*
Y179188D01*
X247394Y181065D01*
X246330Y182657D01*
X244738Y183721D01*
X244175Y183833D01*
Y185128D01*
X244911Y185274D01*
X246702Y186471D01*
X247899Y188262D01*
X248319Y190375D01*
Y195230D01*
D02*
G37*
G36*
X125779D02*
X108987D01*
Y190375D01*
X109407Y188262D01*
X110604Y186471D01*
X112395Y185274D01*
X113256Y185103D01*
Y183808D01*
X112818Y183721D01*
X111226Y182657D01*
X110162Y181065D01*
X109789Y179188D01*
Y177879D01*
X79667D01*
X72923Y184623D01*
X71421Y185627D01*
X69650Y185979D01*
X69650Y185979D01*
X38876D01*
X38003Y187491D01*
X36141Y189353D01*
X33860Y190669D01*
X31317Y191351D01*
X28683D01*
X26140Y190669D01*
X23859Y189353D01*
X21997Y187491D01*
X20680Y185210D01*
X19999Y182667D01*
Y180033D01*
X20680Y177490D01*
X21997Y175209D01*
X23859Y173347D01*
X26140Y172031D01*
X28683Y171349D01*
X31317D01*
X33860Y172031D01*
X36141Y173347D01*
X38003Y175209D01*
X38876Y176721D01*
X67733D01*
X74477Y169977D01*
X74477Y169977D01*
X75979Y168973D01*
X77750Y168621D01*
X77750Y168621D01*
X109789D01*
Y167313D01*
X110162Y165435D01*
X111226Y163843D01*
X112818Y162779D01*
X114696Y162406D01*
X120321D01*
X122198Y162779D01*
X123790Y163843D01*
X124854Y165435D01*
X125227Y167313D01*
Y179188D01*
X124854Y181065D01*
X123790Y182657D01*
X122198Y183721D01*
X121635Y183833D01*
Y185128D01*
X122371Y185274D01*
X124162Y186471D01*
X125359Y188262D01*
X125779Y190375D01*
Y195230D01*
D02*
G37*
G36*
X592223Y188900D02*
X589893D01*
X587642Y188297D01*
X585624Y187132D01*
X583976Y185484D01*
X582811Y183466D01*
X582208Y181215D01*
Y178885D01*
X582811Y176634D01*
X583976Y174616D01*
X585624Y172968D01*
X587642Y171803D01*
X589893Y171200D01*
X592223D01*
X594474Y171803D01*
X596492Y172968D01*
X598140Y174616D01*
X599305Y176634D01*
X599908Y178885D01*
Y181215D01*
X599305Y183466D01*
X598140Y185484D01*
X596492Y187132D01*
X594474Y188297D01*
X592223Y188900D01*
D02*
G37*
G36*
Y163500D02*
X589893D01*
X587642Y162897D01*
X585624Y161732D01*
X583976Y160084D01*
X582811Y158066D01*
X582208Y155815D01*
Y153485D01*
X582811Y151234D01*
X583976Y149216D01*
X585624Y147568D01*
X587642Y146403D01*
X589893Y145800D01*
X592223D01*
X594474Y146403D01*
X596492Y147568D01*
X598140Y149216D01*
X599305Y151234D01*
X599908Y153485D01*
Y155815D01*
X599305Y158066D01*
X598140Y160084D01*
X596492Y161732D01*
X594474Y162897D01*
X592223Y163500D01*
D02*
G37*
G36*
X566823D02*
X564493D01*
X562242Y162897D01*
X560224Y161732D01*
X558576Y160084D01*
X557411Y158066D01*
X556808Y155815D01*
Y153485D01*
X557411Y151234D01*
X558576Y149216D01*
X560224Y147568D01*
X562242Y146403D01*
X564493Y145800D01*
X566823D01*
X569074Y146403D01*
X571092Y147568D01*
X572740Y149216D01*
X573905Y151234D01*
X574508Y153485D01*
Y155815D01*
X573905Y158066D01*
X572740Y160084D01*
X571092Y161732D01*
X569074Y162897D01*
X566823Y163500D01*
D02*
G37*
G36*
X476620Y150918D02*
X468620D01*
X466279Y150452D01*
X464294Y149126D01*
X462968Y147141D01*
X462627Y145429D01*
X447465D01*
X446572Y146975D01*
X444775Y148772D01*
X442575Y150042D01*
X440120Y150700D01*
X437579D01*
X435125Y150042D01*
X432925Y148772D01*
X431128Y146975D01*
X429858Y144775D01*
X429200Y142320D01*
Y139780D01*
X429858Y137325D01*
X431128Y135125D01*
X432925Y133328D01*
X435125Y132058D01*
X437579Y131400D01*
X440120D01*
X442575Y132058D01*
X444775Y133328D01*
X446572Y135125D01*
X447176Y136171D01*
X462627D01*
X462968Y134459D01*
X464294Y132474D01*
X466279Y131148D01*
X467991Y130808D01*
Y125030D01*
X467991Y125030D01*
X468343Y123259D01*
X469347Y121757D01*
X504521Y86583D01*
Y64717D01*
X495233Y55429D01*
X491991D01*
X491632Y56547D01*
X491626Y56699D01*
X493184Y58256D01*
X494308Y60204D01*
X494890Y62376D01*
Y64624D01*
X494308Y66796D01*
X493184Y68744D01*
X491594Y70334D01*
X489646Y71458D01*
X487474Y72040D01*
X485226D01*
X483054Y71458D01*
X481106Y70334D01*
X479516Y68744D01*
X478392Y66796D01*
X477810Y64624D01*
Y62376D01*
X478392Y60204D01*
X479516Y58256D01*
X481074Y56699D01*
X481068Y56547D01*
X480709Y55429D01*
X471991D01*
X471632Y56547D01*
X471626Y56699D01*
X473184Y58256D01*
X474308Y60204D01*
X474890Y62376D01*
Y64624D01*
X474308Y66796D01*
X473184Y68744D01*
X471594Y70334D01*
X469646Y71458D01*
X467474Y72040D01*
X465226D01*
X463054Y71458D01*
X461106Y70334D01*
X459516Y68744D01*
X458392Y66796D01*
X457810Y64624D01*
Y62376D01*
X458392Y60204D01*
X459516Y58256D01*
X461074Y56699D01*
X461068Y56547D01*
X460709Y55429D01*
X458650D01*
X458650Y55429D01*
X456879Y55077D01*
X455377Y54073D01*
X455377Y54073D01*
X448160Y46856D01*
X447474Y47040D01*
X445226D01*
X443054Y46458D01*
X441106Y45334D01*
X439516Y43744D01*
X438392Y41796D01*
X437810Y39624D01*
Y37376D01*
X438392Y35204D01*
X439516Y33256D01*
X441106Y31666D01*
X443054Y30542D01*
X445226Y29960D01*
X447474D01*
X449646Y30542D01*
X451594Y31666D01*
X453184Y33256D01*
X454308Y35204D01*
X454890Y37376D01*
Y39624D01*
X454706Y40310D01*
X457927Y43530D01*
X458943Y42751D01*
X458392Y41796D01*
X457810Y39624D01*
Y37376D01*
X458392Y35204D01*
X459516Y33256D01*
X461106Y31666D01*
X463054Y30542D01*
X465226Y29960D01*
X467474D01*
X469646Y30542D01*
X471594Y31666D01*
X473184Y33256D01*
X474308Y35204D01*
X474890Y37376D01*
Y39624D01*
X474308Y41796D01*
X473184Y43744D01*
X472026Y44901D01*
X472552Y46171D01*
X480148D01*
X480674Y44901D01*
X479516Y43744D01*
X478392Y41796D01*
X477810Y39624D01*
Y37376D01*
X478392Y35204D01*
X479516Y33256D01*
X481106Y31666D01*
X483054Y30542D01*
X485226Y29960D01*
X487474D01*
X489646Y30542D01*
X491594Y31666D01*
X493184Y33256D01*
X493539Y33871D01*
X495889D01*
X496230Y32601D01*
X495366Y32102D01*
X493248Y29984D01*
X491750Y27391D01*
X490975Y24498D01*
Y21502D01*
X491750Y18609D01*
X493248Y16016D01*
X495366Y13898D01*
X497959Y12400D01*
X500852Y11625D01*
X503848D01*
X506740Y12400D01*
X509334Y13898D01*
X511452Y16016D01*
X512950Y18609D01*
X513725Y21502D01*
Y24498D01*
X512950Y27391D01*
X511452Y29984D01*
X509334Y32102D01*
X507525Y33147D01*
X507514Y34620D01*
X508423Y35227D01*
X525893Y52697D01*
X525893Y52697D01*
X526897Y54198D01*
X527249Y55970D01*
Y131926D01*
X528760Y132798D01*
X530622Y134660D01*
X531938Y136940D01*
X532620Y139483D01*
Y142117D01*
X531938Y144660D01*
X530622Y146940D01*
X528760Y148802D01*
X526480Y150119D01*
X523936Y150800D01*
X521303D01*
X518760Y150119D01*
X516480Y148802D01*
X514618Y146940D01*
X513301Y144660D01*
X512620Y142117D01*
Y139483D01*
X513301Y136940D01*
X514618Y134660D01*
X516480Y132798D01*
X517991Y131926D01*
Y57887D01*
X503233Y43129D01*
X493539D01*
X493184Y43744D01*
X492026Y44901D01*
X492552Y46171D01*
X496950D01*
X496950Y46171D01*
X498721Y46523D01*
X498937Y46668D01*
X499097Y46699D01*
X500599Y47703D01*
X512423Y59527D01*
X512423Y59527D01*
X513427Y61029D01*
X513779Y62800D01*
Y88500D01*
X513779Y88500D01*
X513427Y90272D01*
X512423Y91773D01*
X512423Y91773D01*
X477249Y126947D01*
Y130808D01*
X478961Y131148D01*
X480946Y132474D01*
X482272Y134459D01*
X482737Y136800D01*
Y144800D01*
X482272Y147141D01*
X480946Y149126D01*
X478961Y150452D01*
X476620Y150918D01*
D02*
G37*
G36*
X327245Y286500D02*
X325255D01*
X323418Y285739D01*
X322011Y284332D01*
X321250Y282495D01*
Y280505D01*
X321621Y279610D01*
Y171167D01*
X293583Y143129D01*
X279415D01*
X279075Y144841D01*
X277749Y146826D01*
X275764Y148152D01*
X273423Y148617D01*
X265423D01*
X263082Y148152D01*
X261097Y146826D01*
X259771Y144841D01*
X259431Y143129D01*
X247040D01*
X247040Y143129D01*
X245268Y142777D01*
X243767Y141773D01*
X234278Y132284D01*
X217250D01*
Y137305D01*
X212229D01*
Y179650D01*
X217250D01*
Y198950D01*
X197950D01*
Y179650D01*
X202971D01*
Y137305D01*
X197950D01*
Y118005D01*
X217250D01*
Y123026D01*
X236195D01*
X236195Y123026D01*
X237966Y123378D01*
X239468Y124382D01*
X248957Y133871D01*
X259431D01*
X259771Y132159D01*
X261097Y130174D01*
X263082Y128848D01*
X265423Y128382D01*
X273423D01*
X275764Y128848D01*
X277749Y130174D01*
X279075Y132159D01*
X279415Y133871D01*
X295500D01*
X295500Y133871D01*
X297271Y134223D01*
X298773Y135227D01*
X329523Y165977D01*
X329523Y165977D01*
X330527Y167479D01*
X330879Y169250D01*
Y279610D01*
X331250Y280505D01*
Y282495D01*
X330489Y284332D01*
X329082Y285739D01*
X327245Y286500D01*
D02*
G37*
G36*
X150883Y147118D02*
X142883D01*
X140542Y146652D01*
X138557Y145326D01*
X137231Y143341D01*
X136891Y141629D01*
X124500D01*
X124500Y141629D01*
X122729Y141277D01*
X121227Y140273D01*
X111738Y130784D01*
X94710D01*
Y135805D01*
X75410D01*
Y116505D01*
X94710D01*
Y121526D01*
X113655D01*
X113655Y121526D01*
X115426Y121878D01*
X116928Y122882D01*
X126417Y132371D01*
X136891D01*
X137231Y130659D01*
X138557Y128674D01*
X140542Y127348D01*
X142883Y126882D01*
X150883D01*
X153224Y127348D01*
X155209Y128674D01*
X156535Y130659D01*
X157001Y133000D01*
Y141000D01*
X156535Y143341D01*
X155209Y145326D01*
X153224Y146652D01*
X150883Y147118D01*
D02*
G37*
G36*
X351245Y287750D02*
X349255D01*
X347418Y286989D01*
X346011Y285582D01*
X345250Y283745D01*
Y281755D01*
X345536Y281065D01*
Y150809D01*
X343739Y150452D01*
X341754Y149126D01*
X340428Y147141D01*
X339962Y144800D01*
Y137229D01*
X335277Y132543D01*
X334273Y131041D01*
X333921Y129270D01*
X333921Y129270D01*
Y59808D01*
X333088Y58975D01*
X331818Y56775D01*
X331160Y54321D01*
Y51780D01*
X331818Y49325D01*
X333088Y47125D01*
X334885Y45328D01*
X337085Y44058D01*
X339539Y43400D01*
X342080D01*
X344535Y44058D01*
X344732Y44172D01*
X353677Y35227D01*
X353677Y35227D01*
X355178Y34223D01*
X356950Y33871D01*
X377810D01*
Y29960D01*
X394890D01*
Y46771D01*
X401056D01*
X401396Y45501D01*
X401106Y45334D01*
X399516Y43744D01*
X398392Y41796D01*
X397810Y39624D01*
Y37376D01*
X398392Y35204D01*
X399516Y33256D01*
X401106Y31666D01*
X403054Y30542D01*
X405226Y29960D01*
X407474D01*
X409646Y30542D01*
X411594Y31666D01*
X413184Y33256D01*
X414308Y35204D01*
X414890Y37376D01*
Y39624D01*
X414308Y41796D01*
X413757Y42751D01*
X414773Y43530D01*
X417994Y40310D01*
X417810Y39624D01*
Y37376D01*
X418392Y35204D01*
X419516Y33256D01*
X421106Y31666D01*
X423054Y30542D01*
X425226Y29960D01*
X427474D01*
X429646Y30542D01*
X431594Y31666D01*
X433184Y33256D01*
X434308Y35204D01*
X434890Y37376D01*
Y39624D01*
X434308Y41796D01*
X433184Y43744D01*
X431594Y45334D01*
X429646Y46458D01*
X427474Y47040D01*
X425226D01*
X424540Y46856D01*
X416723Y54673D01*
X415221Y55677D01*
X413450Y56029D01*
X413450Y56029D01*
X412752D01*
X412226Y57299D01*
X413184Y58256D01*
X414308Y60204D01*
X414890Y62376D01*
Y64624D01*
X414308Y66796D01*
X413184Y68744D01*
X411594Y70334D01*
X410979Y70689D01*
Y72583D01*
X422167Y83771D01*
X476660D01*
X477555Y83400D01*
X479545D01*
X481382Y84161D01*
X482789Y85568D01*
X483550Y87406D01*
Y89395D01*
X482789Y91232D01*
X481382Y92639D01*
X479545Y93400D01*
X477555D01*
X476660Y93029D01*
X420250D01*
X420250Y93029D01*
X418479Y92677D01*
X416977Y91673D01*
X416977Y91673D01*
X403077Y77773D01*
X402073Y76272D01*
X401721Y74500D01*
X401721Y74500D01*
Y70689D01*
X401106Y70334D01*
X399516Y68744D01*
X398392Y66796D01*
X397810Y64624D01*
Y62376D01*
X398392Y60204D01*
X399516Y58256D01*
X400474Y57299D01*
X399948Y56029D01*
X392752D01*
X392226Y57299D01*
X393184Y58256D01*
X394308Y60204D01*
X394890Y62376D01*
Y64624D01*
X394308Y66796D01*
X393184Y68744D01*
X391594Y70334D01*
X389646Y71458D01*
X387474Y72040D01*
X385226D01*
X383054Y71458D01*
X381106Y70334D01*
X379516Y68744D01*
X378392Y66796D01*
X377810Y64624D01*
Y62376D01*
X378392Y60204D01*
X379516Y58256D01*
X380474Y57299D01*
X379948Y56029D01*
X371167D01*
X357979Y69217D01*
Y76313D01*
X359249Y76480D01*
X359750Y74609D01*
X361248Y72016D01*
X363366Y69898D01*
X365959Y68400D01*
X368852Y67625D01*
X371847D01*
X374741Y68400D01*
X377334Y69898D01*
X379452Y72016D01*
X380950Y74609D01*
X381725Y77502D01*
Y80498D01*
X380950Y83391D01*
X379452Y85984D01*
X377334Y88102D01*
X374741Y89600D01*
X371847Y90375D01*
X368852D01*
X365959Y89600D01*
X363366Y88102D01*
X361248Y85984D01*
X359750Y83391D01*
X359249Y81520D01*
X357979Y81687D01*
Y105783D01*
X388367Y136171D01*
X391205D01*
X392078Y134660D01*
X393940Y132798D01*
X396220Y131482D01*
X398763Y130800D01*
X401396D01*
X403940Y131482D01*
X406220Y132798D01*
X408082Y134660D01*
X409398Y136940D01*
X410080Y139483D01*
Y142117D01*
X409398Y144660D01*
X408082Y146940D01*
X406220Y148802D01*
X403940Y150119D01*
X401396Y150800D01*
X398763D01*
X396220Y150119D01*
X393940Y148802D01*
X392078Y146940D01*
X391205Y145429D01*
X386450D01*
X386450Y145429D01*
X384678Y145077D01*
X383177Y144073D01*
X350077Y110973D01*
X349073Y109472D01*
X348721Y107700D01*
X348721Y107700D01*
Y67300D01*
X348721Y67300D01*
X349073Y65529D01*
X350077Y64027D01*
X365977Y48127D01*
X367478Y47123D01*
X369250Y46771D01*
X369250Y46771D01*
X377810D01*
Y43129D01*
X358867D01*
X350409Y51588D01*
X350460Y51780D01*
Y54321D01*
X349802Y56775D01*
X348532Y58975D01*
X346735Y60772D01*
X344535Y62042D01*
X343179Y62406D01*
Y127353D01*
X346509Y130682D01*
X354080D01*
X356421Y131148D01*
X358406Y132474D01*
X359732Y134459D01*
X360197Y136800D01*
Y144800D01*
X359732Y147141D01*
X358406Y149126D01*
X356421Y150452D01*
X354794Y150775D01*
Y280654D01*
X355250Y281755D01*
Y283745D01*
X354489Y285582D01*
X353082Y286989D01*
X351245Y287750D01*
D02*
G37*
G36*
X31388Y99191D02*
X31270D01*
Y89920D01*
X40541D01*
Y90038D01*
X39823Y92719D01*
X38435Y95122D01*
X36472Y97085D01*
X34069Y98473D01*
X31388Y99191D01*
D02*
G37*
G36*
X28730D02*
X28612D01*
X25931Y98473D01*
X23528Y97085D01*
X21565Y95122D01*
X20177Y92719D01*
X19459Y90038D01*
Y89920D01*
X28730D01*
Y99191D01*
D02*
G37*
G36*
X614698Y101000D02*
X611802D01*
X609004Y100250D01*
X606496Y98802D01*
X604448Y96754D01*
X603000Y94246D01*
X602250Y91448D01*
Y88552D01*
X603000Y85754D01*
X604448Y83246D01*
X606496Y81198D01*
X609004Y79750D01*
X611802Y79000D01*
X614698D01*
X617496Y79750D01*
X620004Y81198D01*
X622052Y83246D01*
X623500Y85754D01*
X624250Y88552D01*
Y91448D01*
X623500Y94246D01*
X622052Y96754D01*
X620004Y98802D01*
X617496Y100250D01*
X614698Y101000D01*
D02*
G37*
G36*
X40541Y87380D02*
X31270D01*
Y78109D01*
X31388D01*
X34069Y78827D01*
X36472Y80215D01*
X38435Y82178D01*
X39823Y84581D01*
X40541Y87262D01*
Y87380D01*
D02*
G37*
G36*
X28730D02*
X19459D01*
Y87262D01*
X20177Y84581D01*
X21565Y82178D01*
X23528Y80215D01*
X25931Y78827D01*
X28612Y78109D01*
X28730D01*
Y87380D01*
D02*
G37*
G36*
X669250Y105060D02*
X649250D01*
X647423Y104820D01*
X645720Y104115D01*
X644258Y102992D01*
X643136Y101530D01*
X642430Y99827D01*
X642190Y98000D01*
Y88000D01*
X642430Y86173D01*
X643136Y84470D01*
X644258Y83008D01*
X645720Y81885D01*
X647423Y81180D01*
X649250Y80940D01*
X654621D01*
Y72890D01*
X654250Y71995D01*
Y70005D01*
X655011Y68168D01*
X656418Y66761D01*
X658255Y66000D01*
X660245D01*
X662082Y66761D01*
X663489Y68168D01*
X664250Y70005D01*
Y71995D01*
X663879Y72890D01*
Y80940D01*
X669250D01*
X671077Y81180D01*
X672780Y81885D01*
X674242Y83008D01*
X675365Y84470D01*
X676070Y86173D01*
X676310Y88000D01*
Y98000D01*
X676070Y99827D01*
X675365Y101530D01*
X674242Y102992D01*
X672780Y104115D01*
X671077Y104820D01*
X669250Y105060D01*
D02*
G37*
G36*
X427620Y72560D02*
Y64770D01*
X435410D01*
X434811Y67005D01*
X433616Y69075D01*
X431925Y70766D01*
X429855Y71961D01*
X427620Y72560D01*
D02*
G37*
G36*
X425080D02*
X422845Y71961D01*
X420775Y70766D01*
X419084Y69075D01*
X417889Y67005D01*
X417290Y64770D01*
X425080D01*
Y72560D01*
D02*
G37*
G36*
X447474Y72040D02*
X445226D01*
X443054Y71458D01*
X441106Y70334D01*
X439516Y68744D01*
X438392Y66796D01*
X437810Y64624D01*
Y62376D01*
X438392Y60204D01*
X439516Y58256D01*
X441106Y56666D01*
X443054Y55542D01*
X445226Y54960D01*
X447474D01*
X449646Y55542D01*
X451594Y56666D01*
X453184Y58256D01*
X454308Y60204D01*
X454890Y62376D01*
Y64624D01*
X454308Y66796D01*
X453184Y68744D01*
X451594Y70334D01*
X449646Y71458D01*
X447474Y72040D01*
D02*
G37*
G36*
X435410Y62230D02*
X427620D01*
Y54440D01*
X429855Y55039D01*
X431925Y56234D01*
X433616Y57925D01*
X434811Y59995D01*
X435410Y62230D01*
D02*
G37*
G36*
X425080D02*
X417290D01*
X417889Y59995D01*
X419084Y57925D01*
X420775Y56234D01*
X422845Y55039D01*
X425080Y54440D01*
Y62230D01*
D02*
G37*
G36*
X242798Y64646D02*
X241193D01*
Y54270D01*
X248319D01*
Y59125D01*
X247899Y61238D01*
X246702Y63029D01*
X244911Y64226D01*
X242798Y64646D01*
D02*
G37*
G36*
X238653D02*
X237048D01*
X234935Y64226D01*
X233144Y63029D01*
X231947Y61238D01*
X231527Y59125D01*
Y54270D01*
X238653D01*
Y64646D01*
D02*
G37*
G36*
X120258D02*
X118653D01*
Y54270D01*
X125779D01*
Y59125D01*
X125359Y61238D01*
X124162Y63029D01*
X122371Y64226D01*
X120258Y64646D01*
D02*
G37*
G36*
X116113D02*
X114508D01*
X112395Y64226D01*
X110604Y63029D01*
X109407Y61238D01*
X108987Y59125D01*
Y54270D01*
X116113D01*
Y64646D01*
D02*
G37*
G36*
X31317Y73251D02*
X28683D01*
X26140Y72569D01*
X23859Y71253D01*
X21997Y69391D01*
X20680Y67110D01*
X19999Y64567D01*
Y61933D01*
X20680Y59390D01*
X21997Y57109D01*
X23859Y55247D01*
X26140Y53931D01*
X28683Y53249D01*
X31317D01*
X33860Y53931D01*
X36141Y55247D01*
X38003Y57109D01*
X39320Y59390D01*
X40001Y61933D01*
Y64567D01*
X39320Y67110D01*
X38003Y69391D01*
X36141Y71253D01*
X33860Y72569D01*
X31317Y73251D01*
D02*
G37*
G36*
X573500Y99613D02*
X551000D01*
X548756Y99166D01*
X546855Y97895D01*
X545584Y95993D01*
X545137Y93750D01*
Y86250D01*
X545584Y84007D01*
X546855Y82105D01*
X548756Y80834D01*
X551000Y80387D01*
X557621D01*
Y77390D01*
X557250Y76495D01*
Y74506D01*
X558011Y72668D01*
X558796Y71883D01*
X558270Y70613D01*
X551000D01*
X548756Y70166D01*
X546855Y68896D01*
X545584Y66993D01*
X545137Y64750D01*
Y57250D01*
X545584Y55006D01*
X546855Y53105D01*
X548756Y51834D01*
X551000Y51387D01*
X573500D01*
X575743Y51834D01*
X577645Y53105D01*
X578916Y55006D01*
X579363Y57250D01*
Y64750D01*
X578916Y66993D01*
X577645Y68896D01*
X575743Y70166D01*
X573500Y70613D01*
X566230D01*
X565704Y71883D01*
X566489Y72668D01*
X567250Y74506D01*
Y76495D01*
X566879Y77390D01*
Y80387D01*
X573500D01*
X575743Y80834D01*
X577645Y82105D01*
X578916Y84007D01*
X579363Y86250D01*
Y93750D01*
X578916Y95993D01*
X577645Y97895D01*
X575743Y99166D01*
X573500Y99613D01*
D02*
G37*
G36*
X208870Y111905D02*
X206329D01*
X203875Y111247D01*
X201675Y109977D01*
X199878Y108180D01*
X198608Y105980D01*
X197950Y103525D01*
Y100984D01*
X198608Y98530D01*
X199878Y96330D01*
X201675Y94533D01*
X203875Y93263D01*
X206329Y92605D01*
X208870D01*
X211325Y93263D01*
X213525Y94533D01*
X215322Y96330D01*
X216070Y97626D01*
X233618D01*
X246017Y85227D01*
X246017Y85227D01*
X247519Y84223D01*
X249290Y83871D01*
X249290Y83871D01*
X260549D01*
X261421Y82360D01*
X263283Y80498D01*
X264794Y79626D01*
Y63747D01*
X264646Y63717D01*
X263033Y62640D01*
X261956Y61027D01*
X261577Y59125D01*
Y46875D01*
X261956Y44973D01*
X263033Y43360D01*
X264646Y42283D01*
X264732Y42266D01*
Y40245D01*
X264608Y40221D01*
X263016Y39157D01*
X261952Y37565D01*
X261579Y35687D01*
Y23812D01*
X261952Y21935D01*
X263016Y20343D01*
X264608Y19279D01*
X266486Y18906D01*
X272111D01*
X273988Y19279D01*
X275580Y20343D01*
X276644Y21935D01*
X277017Y23812D01*
Y35687D01*
X276644Y37565D01*
X275580Y39157D01*
X273989Y40220D01*
Y42241D01*
X274200Y42283D01*
X275813Y43360D01*
X276890Y44973D01*
X277269Y46875D01*
Y48371D01*
X289453D01*
X290201Y47075D01*
X291998Y45278D01*
X294198Y44008D01*
X296653Y43350D01*
X299193D01*
X301648Y44008D01*
X303848Y45278D01*
X305645Y47075D01*
X306915Y49275D01*
X307573Y51729D01*
Y54271D01*
X306915Y56725D01*
X305645Y58925D01*
X303848Y60722D01*
X301648Y61992D01*
X299193Y62650D01*
X296653D01*
X294198Y61992D01*
X291998Y60722D01*
X290201Y58925D01*
X289453Y57629D01*
X277269D01*
Y59125D01*
X276890Y61027D01*
X275813Y62640D01*
X274200Y63717D01*
X274052Y63747D01*
Y79626D01*
X275563Y80498D01*
X277425Y82360D01*
X278741Y84640D01*
X279423Y87183D01*
Y89817D01*
X278741Y92360D01*
X277425Y94640D01*
X275563Y96502D01*
X273283Y97818D01*
X270739Y98500D01*
X268106D01*
X265563Y97818D01*
X263283Y96502D01*
X261421Y94640D01*
X260549Y93129D01*
X251207D01*
X238808Y105528D01*
X237306Y106532D01*
X235535Y106884D01*
X235535Y106884D01*
X216070D01*
X215322Y108180D01*
X213525Y109977D01*
X211325Y111247D01*
X208870Y111905D01*
D02*
G37*
G36*
X86330Y110405D02*
X83790D01*
X81335Y109747D01*
X79135Y108477D01*
X77338Y106680D01*
X76068Y104480D01*
X75410Y102025D01*
Y99485D01*
X76068Y97030D01*
X77338Y94830D01*
X79135Y93033D01*
X81335Y91763D01*
X83790Y91105D01*
X86330D01*
X88785Y91763D01*
X90985Y93033D01*
X92782Y94830D01*
X93530Y96126D01*
X111078D01*
X123477Y83727D01*
X123477Y83727D01*
X124979Y82723D01*
X126750Y82371D01*
X126750Y82371D01*
X138008D01*
X138881Y80860D01*
X140743Y78998D01*
X142254Y78126D01*
Y63747D01*
X142106Y63717D01*
X140493Y62640D01*
X139416Y61027D01*
X139038Y59125D01*
Y46875D01*
X139416Y44973D01*
X140493Y43360D01*
X142106Y42283D01*
X142191Y42266D01*
Y40245D01*
X142068Y40221D01*
X140476Y39157D01*
X139412Y37565D01*
X139039Y35687D01*
Y23812D01*
X139412Y21935D01*
X140476Y20343D01*
X142068Y19279D01*
X143946Y18906D01*
X149571D01*
X151448Y19279D01*
X153040Y20343D01*
X154104Y21935D01*
X154477Y23812D01*
Y35687D01*
X154104Y37565D01*
X153040Y39157D01*
X151449Y40220D01*
Y42241D01*
X151660Y42283D01*
X153273Y43360D01*
X154350Y44973D01*
X154728Y46875D01*
Y48371D01*
X166913D01*
X167661Y47075D01*
X169458Y45278D01*
X171658Y44008D01*
X174112Y43350D01*
X176653D01*
X179108Y44008D01*
X181308Y45278D01*
X183105Y47075D01*
X184375Y49275D01*
X185033Y51729D01*
Y54271D01*
X184375Y56725D01*
X183105Y58925D01*
X181308Y60722D01*
X179108Y61992D01*
X176653Y62650D01*
X174112D01*
X171658Y61992D01*
X169458Y60722D01*
X167661Y58925D01*
X166913Y57629D01*
X154728D01*
Y59125D01*
X154350Y61027D01*
X153273Y62640D01*
X151660Y63717D01*
X151512Y63747D01*
Y78126D01*
X153023Y78998D01*
X154885Y80860D01*
X156201Y83140D01*
X156883Y85683D01*
Y88316D01*
X156201Y90860D01*
X154885Y93140D01*
X153023Y95002D01*
X150743Y96319D01*
X148200Y97000D01*
X145567D01*
X143023Y96319D01*
X140743Y95002D01*
X138881Y93140D01*
X138008Y91629D01*
X128667D01*
X116268Y104028D01*
X114766Y105032D01*
X112995Y105384D01*
X112995Y105384D01*
X93530D01*
X92782Y106680D01*
X90985Y108477D01*
X88785Y109747D01*
X86330Y110405D01*
D02*
G37*
G36*
X670500Y58613D02*
X648000D01*
X645757Y58166D01*
X643855Y56895D01*
X642584Y54994D01*
X642137Y52750D01*
Y45250D01*
X642584Y43007D01*
X643855Y41104D01*
X645757Y39834D01*
X648000Y39387D01*
X670500D01*
X672744Y39834D01*
X674645Y41104D01*
X675916Y43007D01*
X676363Y45250D01*
Y52750D01*
X675916Y54994D01*
X674645Y56895D01*
X672744Y58166D01*
X670500Y58613D01*
D02*
G37*
G36*
X248319Y51730D02*
X231527D01*
Y46875D01*
X231947Y44762D01*
X233144Y42971D01*
X234935Y41774D01*
X235796Y41603D01*
Y40308D01*
X235358Y40221D01*
X233766Y39157D01*
X232702Y37565D01*
X232329Y35687D01*
Y34379D01*
X227890D01*
X226994Y34750D01*
X225005D01*
X223168Y33989D01*
X221761Y32582D01*
X221000Y30745D01*
Y28755D01*
X221761Y26918D01*
X223168Y25511D01*
X225005Y24750D01*
X226994D01*
X227890Y25121D01*
X232329D01*
Y23812D01*
X232702Y21935D01*
X233766Y20343D01*
X235358Y19279D01*
X237236Y18906D01*
X242861D01*
X244738Y19279D01*
X246330Y20343D01*
X247394Y21935D01*
X247767Y23812D01*
Y35687D01*
X247394Y37565D01*
X246330Y39157D01*
X244738Y40221D01*
X244175Y40333D01*
Y41628D01*
X244911Y41774D01*
X246702Y42971D01*
X247899Y44762D01*
X248319Y46875D01*
Y51730D01*
D02*
G37*
G36*
X125779D02*
X108987D01*
Y46875D01*
X109407Y44762D01*
X110604Y42971D01*
X112395Y41774D01*
X113256Y41603D01*
Y40308D01*
X112818Y40221D01*
X111226Y39157D01*
X110162Y37565D01*
X109789Y35687D01*
Y34379D01*
X79667D01*
X72923Y41123D01*
X71421Y42127D01*
X69650Y42479D01*
X69650Y42479D01*
X38876D01*
X38003Y43991D01*
X36141Y45853D01*
X33860Y47169D01*
X31317Y47851D01*
X28683D01*
X26140Y47169D01*
X23859Y45853D01*
X21997Y43991D01*
X20680Y41710D01*
X19999Y39167D01*
Y36533D01*
X20680Y33990D01*
X21997Y31709D01*
X23859Y29847D01*
X26140Y28530D01*
X28683Y27849D01*
X31317D01*
X33860Y28530D01*
X36141Y29847D01*
X38003Y31709D01*
X38876Y33221D01*
X67733D01*
X74477Y26477D01*
X74477Y26477D01*
X75979Y25473D01*
X77750Y25121D01*
X77750Y25121D01*
X109789D01*
Y23812D01*
X110162Y21935D01*
X111226Y20343D01*
X112818Y19279D01*
X114696Y18906D01*
X120321D01*
X122198Y19279D01*
X123790Y20343D01*
X124854Y21935D01*
X125227Y23812D01*
Y35687D01*
X124854Y37565D01*
X123790Y39157D01*
X122198Y40221D01*
X121635Y40333D01*
Y41628D01*
X122371Y41774D01*
X124162Y42971D01*
X125359Y44762D01*
X125779Y46875D01*
Y51730D01*
D02*
G37*
G36*
X614698Y41000D02*
X611802D01*
X609004Y40250D01*
X606496Y38802D01*
X604448Y36754D01*
X603000Y34246D01*
X602250Y31448D01*
Y28552D01*
X603000Y25754D01*
X604448Y23246D01*
X606496Y21198D01*
X609004Y19750D01*
X611802Y19000D01*
X614698D01*
X617496Y19750D01*
X620004Y21198D01*
X622052Y23246D01*
X623500Y25754D01*
X624250Y28552D01*
Y31448D01*
X623500Y34246D01*
X622052Y36754D01*
X620004Y38802D01*
X617496Y40250D01*
X614698Y41000D01*
D02*
G37*
G36*
X536144Y74350D02*
X534155D01*
X532318Y73589D01*
X530911Y72182D01*
X530150Y70345D01*
Y68356D01*
X530521Y67460D01*
Y38100D01*
X530521Y38100D01*
X530873Y36329D01*
X531877Y34827D01*
X539333Y27371D01*
X540834Y26368D01*
X542606Y26015D01*
X542606Y26015D01*
X545190D01*
Y23000D01*
X545430Y21173D01*
X546135Y19470D01*
X547258Y18008D01*
X548720Y16885D01*
X550423Y16180D01*
X552250Y15940D01*
X572250D01*
X574077Y16180D01*
X575780Y16885D01*
X577243Y18008D01*
X578364Y19470D01*
X579070Y21173D01*
X579310Y23000D01*
Y33000D01*
X579070Y34827D01*
X578364Y36530D01*
X577243Y37992D01*
X575780Y39114D01*
X574077Y39820D01*
X572250Y40060D01*
X552250D01*
X550423Y39820D01*
X548720Y39114D01*
X547258Y37992D01*
X546135Y36530D01*
X545704Y35489D01*
X544441Y35355D01*
X539779Y40017D01*
Y67460D01*
X540150Y68356D01*
Y70345D01*
X539389Y72182D01*
X537982Y73589D01*
X536144Y74350D01*
D02*
G37*
G36*
X342020Y30150D02*
X339479D01*
X337025Y29492D01*
X334825Y28222D01*
X333028Y26425D01*
X331758Y24225D01*
X331100Y21771D01*
Y19230D01*
X331758Y16775D01*
X333028Y14575D01*
X334825Y12778D01*
X337025Y11508D01*
X339479Y10850D01*
X342020D01*
X344475Y11508D01*
X346675Y12778D01*
X348472Y14575D01*
X349742Y16775D01*
X350400Y19230D01*
Y21771D01*
X349742Y24225D01*
X348472Y26425D01*
X346675Y28222D01*
X344475Y29492D01*
X342020Y30150D01*
D02*
G37*
%LPD*%
G36*
X54707Y782108D02*
X56170Y780986D01*
X57873Y780281D01*
X59700Y780040D01*
X62660D01*
Y778607D01*
X61604Y777902D01*
X61244Y778051D01*
X59156D01*
X57226Y777251D01*
X55749Y775775D01*
X54950Y773845D01*
Y771756D01*
X55373Y770734D01*
X54525Y769464D01*
X53250D01*
X51982Y769212D01*
X50907Y768494D01*
X44657Y762244D01*
X43938Y761169D01*
X43686Y759901D01*
Y727401D01*
X43938Y726133D01*
X44657Y725058D01*
X50407Y719307D01*
X51482Y718589D01*
X52750Y718337D01*
X54525D01*
X55373Y717067D01*
X54950Y716045D01*
Y713956D01*
X55749Y712027D01*
X57226Y710550D01*
X59156Y709751D01*
X61244D01*
X61604Y709900D01*
X62660Y709194D01*
Y707761D01*
X59700D01*
X57873Y707520D01*
X56170Y706815D01*
X54707Y705693D01*
X54429Y705330D01*
X33889D01*
X33144Y706445D01*
X31656Y707439D01*
X29900Y707789D01*
X28029D01*
Y780013D01*
X29900D01*
X31656Y780362D01*
X33144Y781356D01*
X33889Y782472D01*
X54429D01*
X54707Y782108D01*
D02*
G37*
G36*
X63200Y757901D02*
Y752901D01*
Y749735D01*
X59150D01*
X57874Y749481D01*
X56792Y748758D01*
X54792Y746758D01*
X54070Y745676D01*
X53816Y744401D01*
Y738401D01*
X54070Y737125D01*
X54792Y736043D01*
X56792Y734043D01*
X57874Y733320D01*
X59150Y733067D01*
X63200D01*
Y732901D01*
Y727901D01*
Y724964D01*
X54122D01*
X50314Y728773D01*
Y758528D01*
X54622Y762837D01*
X63200D01*
Y757901D01*
D02*
G37*
G36*
X562649Y584646D02*
X562242Y584537D01*
X560224Y583372D01*
X558576Y581724D01*
X557411Y579706D01*
X556808Y577455D01*
Y575125D01*
X557411Y572874D01*
X558576Y570856D01*
X560224Y569208D01*
X561042Y568736D01*
X561402Y567061D01*
X561259Y566862D01*
X557799D01*
X556530Y566610D01*
X555455Y565892D01*
X546988Y557424D01*
X545724Y557549D01*
X545534Y557834D01*
X544211Y558718D01*
X543264Y558906D01*
Y562853D01*
X543011Y564121D01*
X542293Y565196D01*
X540922Y566567D01*
X541000Y566755D01*
Y568745D01*
X540239Y570582D01*
X538832Y571989D01*
X536995Y572750D01*
X535005D01*
X533168Y571989D01*
X531761Y570582D01*
X531000Y568745D01*
Y566755D01*
X531761Y564918D01*
X533168Y563511D01*
X535005Y562750D01*
X535367D01*
X536636Y561480D01*
Y558926D01*
X535589Y558718D01*
X534266Y557834D01*
X533382Y556511D01*
X533168Y555437D01*
X531874D01*
X531660Y556511D01*
X530776Y557834D01*
X529453Y558718D01*
X528476Y558912D01*
Y569261D01*
X545131Y585916D01*
X562482D01*
X562649Y584646D01*
D02*
G37*
G36*
X572444Y492701D02*
Y482079D01*
X571271Y481593D01*
X571092Y481772D01*
X569074Y482937D01*
X566823Y483540D01*
X564493D01*
X562242Y482937D01*
X560224Y481772D01*
X558576Y480124D01*
X557411Y478106D01*
X557384Y478004D01*
X549723D01*
X549337Y479274D01*
X549911Y479657D01*
X562150Y491896D01*
X562242Y491843D01*
X564493Y491240D01*
X566823D01*
X569074Y491843D01*
X571092Y493008D01*
X571271Y493187D01*
X572444Y492701D01*
D02*
G37*
G36*
X394000Y466186D02*
X397500D01*
X397500Y466186D01*
X406204D01*
X406730Y464916D01*
X403564Y461750D01*
X402505D01*
X400668Y460989D01*
X399261Y459582D01*
X398500Y457745D01*
Y455755D01*
X399261Y453918D01*
X400668Y452511D01*
X402505Y451750D01*
X404495D01*
X406332Y452511D01*
X407739Y453918D01*
X408500Y455755D01*
Y456787D01*
X409462Y457678D01*
X410753Y457535D01*
X410866Y457366D01*
X412189Y456482D01*
X412436Y456433D01*
Y454817D01*
X412189Y454768D01*
X410866Y453884D01*
X409982Y452561D01*
X409672Y451000D01*
Y445500D01*
X409878Y444465D01*
X408707Y443839D01*
X406273Y446273D01*
X404771Y447277D01*
X403000Y447629D01*
X403000Y447629D01*
X398554D01*
X398384Y447884D01*
X397061Y448768D01*
X396064Y448966D01*
Y452650D01*
X395811Y453918D01*
X395093Y454993D01*
X392564Y457523D01*
Y464750D01*
X392474Y465200D01*
X393550Y466276D01*
X394000Y466186D01*
D02*
G37*
G36*
X182800Y631151D02*
X183048D01*
X183508Y630960D01*
X183860Y630609D01*
X184050Y630149D01*
Y629901D01*
X184050Y622401D01*
X184050D01*
Y622152D01*
X183860Y621693D01*
X183508Y621341D01*
X183048Y621151D01*
X182800D01*
X152800Y621151D01*
X152651D01*
X152375Y621265D01*
X152164Y621476D01*
X152050Y621751D01*
Y621901D01*
Y630401D01*
Y630550D01*
X152164Y630825D01*
X152375Y631036D01*
X152651Y631151D01*
X182800D01*
Y631151D01*
D02*
G37*
G36*
X87450Y653651D02*
X87558Y651445D01*
X88419Y647119D01*
X90107Y643044D01*
X92557Y639377D01*
X95676Y636258D01*
X99343Y633807D01*
X103418Y632119D01*
X107744Y631259D01*
X109950Y631151D01*
X138650D01*
X138650Y631151D01*
X138799Y631151D01*
X139075Y631036D01*
X139286Y630825D01*
X139400Y630550D01*
X139400Y630401D01*
X139400Y621901D01*
X139400Y621901D01*
X139400Y621751D01*
X139286Y621476D01*
X139075Y621265D01*
X138799Y621151D01*
X138650Y621151D01*
X110900D01*
X110900Y621151D01*
X109140Y621064D01*
X105689Y620378D01*
X102438Y619031D01*
X99513Y617076D01*
X97024Y614588D01*
X95069Y611662D01*
X93723Y608411D01*
X93036Y604960D01*
X92950Y603201D01*
Y588726D01*
Y588726D01*
X93072Y586236D01*
X94044Y581352D01*
X95949Y576752D01*
X98715Y572612D01*
X102236Y569091D01*
X106376Y566325D01*
X110977Y564419D01*
X115860Y563448D01*
X118350Y563326D01*
X138650D01*
X138650Y563326D01*
X138799Y563326D01*
X139075Y563211D01*
X139286Y563000D01*
X139400Y562725D01*
X139400Y562576D01*
X139400Y554076D01*
X139400Y554076D01*
X139400Y553926D01*
X139286Y553651D01*
X139075Y553440D01*
X138799Y553326D01*
X138650Y553326D01*
X117625D01*
X117550Y553401D01*
X81500D01*
X57750Y553500D01*
X56761D01*
X55312Y553788D01*
X53947Y554354D01*
X52719Y555174D01*
X51674Y556219D01*
X50854Y557447D01*
X50288Y558812D01*
X50000Y560261D01*
X50000Y561000D01*
Y561763D01*
X50298Y563261D01*
X50882Y564671D01*
X51730Y565940D01*
X52810Y567020D01*
X54079Y567868D01*
X55489Y568452D01*
X56987Y568750D01*
X61500D01*
X61500Y568750D01*
X63460Y568846D01*
X67305Y569611D01*
X70928Y571112D01*
X74188Y573290D01*
X76960Y576062D01*
X79138Y579322D01*
X80639Y582944D01*
X81404Y586790D01*
X81500Y588750D01*
X81450Y595151D01*
Y653651D01*
X87450D01*
Y653651D01*
D02*
G37*
G36*
X182800Y563326D02*
X183048D01*
X183508Y563135D01*
X183860Y562784D01*
X184050Y562324D01*
Y562076D01*
X184050Y554576D01*
X184050D01*
Y554327D01*
X183860Y553867D01*
X183508Y553516D01*
X183048Y553326D01*
X182800D01*
X152800Y553326D01*
X152651D01*
X152375Y553440D01*
X152164Y553651D01*
X152050Y553926D01*
Y554076D01*
Y562576D01*
Y562725D01*
X152164Y563000D01*
X152375Y563211D01*
X152651Y563326D01*
X182800D01*
Y563326D01*
D02*
G37*
D10*
X59700Y708701D02*
G03*
X58432Y708599I0J-8000D01*
G01*
X62619Y708751D02*
Y708951D01*
X62479Y708701D02*
X62619Y708751D01*
X57100Y708386D02*
X58432Y708599D01*
X53210Y707761D02*
X57100Y708386D01*
X59700Y708701D02*
X62479D01*
D13*
X415750Y502673D02*
Y503000D01*
X403080Y499980D02*
X413057D01*
X402600Y499500D02*
X403080Y499980D01*
X413057D02*
X415750Y502673D01*
X395750Y499500D02*
X402600D01*
X327750Y466000D02*
X337400D01*
X340900Y469500D01*
X347750D01*
X392750Y443000D02*
Y452650D01*
X389250Y456150D02*
Y463000D01*
Y456150D02*
X392750Y452650D01*
X350750D02*
X354250Y456150D01*
X350750Y443000D02*
Y452650D01*
X354250Y456150D02*
Y463000D01*
X47000Y759901D02*
X53250Y766151D01*
X69200D01*
X47000Y727401D02*
Y759901D01*
X69200Y766151D02*
X70950Y767901D01*
X47000Y727401D02*
X52750Y721651D01*
X69200D01*
X70950Y719901D01*
D42*
X102650Y726801D02*
D03*
X92650D02*
D03*
X97650Y713001D02*
D03*
X102650D02*
D03*
X92650D02*
D03*
X97650Y726801D02*
D03*
D43*
X665000Y765875D02*
D03*
Y795125D02*
D03*
X568000Y765875D02*
D03*
Y795125D02*
D03*
D44*
Y888500D02*
D03*
X665000Y876500D02*
D03*
Y847500D02*
D03*
X659250Y49000D02*
D03*
X562250Y90000D02*
D03*
Y61000D02*
D03*
D45*
X568000Y844500D02*
D03*
X665000Y909500D02*
D03*
X562250Y28000D02*
D03*
X659250Y93000D02*
D03*
D46*
X432250Y448250D02*
D03*
X415750D02*
D03*
Y503000D02*
D03*
X110625Y483495D02*
D03*
X127125D02*
D03*
X110625Y468745D02*
D03*
X127125D02*
D03*
X127250Y363770D02*
D03*
X110750D02*
D03*
X327750Y466000D02*
D03*
X311250D02*
D03*
X432250Y503000D02*
D03*
X127250Y349020D02*
D03*
X110750D02*
D03*
X127125Y436875D02*
D03*
X127250Y317150D02*
D03*
X432250Y463000D02*
D03*
X127250Y331900D02*
D03*
X110750D02*
D03*
Y317150D02*
D03*
X415750Y463000D02*
D03*
X127125Y451625D02*
D03*
X110625D02*
D03*
Y436875D02*
D03*
X66450Y666401D02*
D03*
X82950D02*
D03*
D47*
X476425Y511850D02*
D03*
X446925D02*
D03*
X78000Y894500D02*
D03*
X296600Y457150D02*
D03*
X267100D02*
D03*
X107500Y894500D02*
D03*
D48*
X318500Y653428D02*
D03*
Y623927D02*
D03*
X342000Y624000D02*
D03*
Y653500D02*
D03*
X505500Y624000D02*
D03*
Y653500D02*
D03*
X482250D02*
D03*
Y624000D02*
D03*
X458750Y653500D02*
D03*
Y624000D02*
D03*
X435500D02*
D03*
Y653500D02*
D03*
X412000Y624000D02*
D03*
Y653500D02*
D03*
X388750D02*
D03*
Y624000D02*
D03*
X365250Y653500D02*
D03*
Y624000D02*
D03*
X295250Y623927D02*
D03*
Y653428D02*
D03*
X271750Y623900D02*
D03*
Y653400D02*
D03*
X248250Y653500D02*
D03*
Y624000D02*
D03*
X225000D02*
D03*
Y653500D02*
D03*
D49*
X248250Y673400D02*
D03*
X277500D02*
D03*
X78125Y867250D02*
D03*
X240048Y29750D02*
D03*
X269298D02*
D03*
X117508D02*
D03*
X146758D02*
D03*
X269298Y173250D02*
D03*
X240048D02*
D03*
X146758D02*
D03*
X117508D02*
D03*
X318500Y673400D02*
D03*
X347750D02*
D03*
X107375Y867250D02*
D03*
D50*
X269423Y196500D02*
D03*
X239923D02*
D03*
X117383D02*
D03*
X57700Y604901D02*
D03*
X117383Y53000D02*
D03*
X239923D02*
D03*
X146883Y196500D02*
D03*
X269423Y53000D02*
D03*
X146883D02*
D03*
X87200Y604901D02*
D03*
D51*
X525142Y552950D02*
D03*
Y536450D02*
D03*
X539900Y552950D02*
D03*
Y536450D02*
D03*
X392750Y443000D02*
D03*
Y426500D02*
D03*
X350750Y443000D02*
D03*
Y426500D02*
D03*
X43650Y666901D02*
D03*
X95900Y772901D02*
D03*
Y756401D02*
D03*
X43650Y683401D02*
D03*
D52*
X395750Y499500D02*
D03*
Y504500D02*
D03*
X347750Y499500D02*
D03*
Y489500D02*
D03*
Y469500D02*
D03*
X395750Y489500D02*
D03*
Y469500D02*
D03*
Y484500D02*
D03*
Y479500D02*
D03*
Y474500D02*
D03*
X347750Y494500D02*
D03*
X395750D02*
D03*
X347750Y504500D02*
D03*
Y484500D02*
D03*
Y474500D02*
D03*
Y479500D02*
D03*
D53*
X389250Y511000D02*
D03*
X364250Y463000D02*
D03*
X354250D02*
D03*
X369250D02*
D03*
X374250D02*
D03*
X379250D02*
D03*
X389250D02*
D03*
X384250D02*
D03*
X374250Y511000D02*
D03*
X359250D02*
D03*
X369250D02*
D03*
X379250D02*
D03*
X384250D02*
D03*
X354250D02*
D03*
X364250D02*
D03*
X359250Y463000D02*
D03*
D54*
X371750Y487000D02*
D03*
D55*
X341925Y411850D02*
D03*
Y382350D02*
D03*
X401600Y411850D02*
D03*
Y382350D02*
D03*
D56*
X133150Y614601D02*
D03*
X158250Y605101D02*
D03*
X133150Y546776D02*
D03*
X158250Y537276D02*
D03*
X133150D02*
D03*
Y556276D02*
D03*
Y624101D02*
D03*
Y605101D02*
D03*
X158250Y624101D02*
D03*
Y556276D02*
D03*
D57*
X114650Y607151D02*
D03*
X176800Y539326D02*
D03*
X114650Y539326D02*
D03*
X176800Y607151D02*
D03*
X114650Y626151D02*
D03*
Y558326D02*
D03*
X176800Y558326D02*
D03*
Y626151D02*
D03*
D58*
X42400Y804401D02*
D03*
X67450Y626151D02*
D03*
X63950Y683401D02*
D03*
X86450Y626151D02*
D03*
X82950Y683401D02*
D03*
X23400Y804401D02*
D03*
D59*
X70950Y711901D02*
D03*
Y775901D02*
D03*
Y767901D02*
D03*
Y719901D02*
D03*
D60*
X84450Y647401D02*
D03*
X66450D02*
D03*
D61*
X70950Y761401D02*
D03*
Y731401D02*
D03*
Y726401D02*
D03*
Y756401D02*
D03*
Y741401D02*
D03*
Y751401D02*
D03*
Y736401D02*
D03*
Y746401D02*
D03*
D62*
X630510Y793200D02*
D03*
X602490D02*
D03*
X500100Y511050D02*
D03*
X243400Y457950D02*
D03*
X297923Y196500D02*
D03*
X47250Y869000D02*
D03*
Y843600D02*
D03*
X400800Y358725D02*
D03*
X342725D02*
D03*
X438850Y141050D02*
D03*
X85000Y356400D02*
D03*
Y324530D02*
D03*
X340810Y53050D02*
D03*
X207600Y214700D02*
D03*
Y245755D02*
D03*
X85060Y244255D02*
D03*
Y100755D02*
D03*
X207600Y102255D02*
D03*
X297923Y53000D02*
D03*
X175383Y196500D02*
D03*
X340750Y20500D02*
D03*
X175383Y53000D02*
D03*
X84875Y444255D02*
D03*
Y476125D02*
D03*
X57656Y561050D02*
D03*
X667256Y484850D02*
D03*
X271750Y595650D02*
D03*
X306750Y595727D02*
D03*
X353500Y595750D02*
D03*
X493750Y595750D02*
D03*
X447000Y595750D02*
D03*
X400250Y595750D02*
D03*
X236500Y595800D02*
D03*
D63*
X630510Y767800D02*
D03*
X602490D02*
D03*
X500100Y536450D02*
D03*
X243400Y432550D02*
D03*
X47250Y894400D02*
D03*
X85060Y269655D02*
D03*
X57656Y535650D02*
D03*
X207600Y189300D02*
D03*
Y271155D02*
D03*
X85060Y126155D02*
D03*
X207600Y127655D02*
D03*
X667256Y459450D02*
D03*
D64*
X614000Y907500D02*
D03*
Y847500D02*
D03*
X613250Y30000D02*
D03*
Y90000D02*
D03*
D65*
X522620Y140800D02*
D03*
X400080D02*
D03*
X269423Y88500D02*
D03*
Y232000D02*
D03*
X146883Y230500D02*
D03*
Y87000D02*
D03*
D66*
X472620Y140800D02*
D03*
X350080D02*
D03*
D67*
X269423Y138500D02*
D03*
Y282000D02*
D03*
X146883Y280500D02*
D03*
Y137000D02*
D03*
D68*
X591058Y601690D02*
D03*
Y332450D02*
D03*
D69*
Y576290D02*
D03*
X565658Y281650D02*
D03*
X591058Y525490D02*
D03*
X565658Y154650D02*
D03*
X591058D02*
D03*
X565658Y180050D02*
D03*
X591058D02*
D03*
X565658Y205450D02*
D03*
X591058D02*
D03*
X565658Y230850D02*
D03*
X591058D02*
D03*
X565658Y256250D02*
D03*
X591058D02*
D03*
Y281650D02*
D03*
X565658Y307050D02*
D03*
X591058D02*
D03*
X565658Y332450D02*
D03*
Y423890D02*
D03*
Y500090D02*
D03*
Y449290D02*
D03*
Y474690D02*
D03*
Y373090D02*
D03*
X591058D02*
D03*
X565658Y398490D02*
D03*
X591058D02*
D03*
Y423890D02*
D03*
Y449290D02*
D03*
Y474690D02*
D03*
Y500090D02*
D03*
X565658Y525490D02*
D03*
Y550890D02*
D03*
X591058D02*
D03*
X565658Y576290D02*
D03*
Y601690D02*
D03*
D70*
X629000Y714250D02*
D03*
X604000D02*
D03*
D71*
X194850Y907500D02*
D03*
X220250D02*
D03*
X169450D02*
D03*
X30000Y232150D02*
D03*
X467325Y907500D02*
D03*
X318388D02*
D03*
X30000Y88650D02*
D03*
Y353150D02*
D03*
Y327750D02*
D03*
Y206750D02*
D03*
Y181350D02*
D03*
Y37850D02*
D03*
Y63250D02*
D03*
X518125Y907500D02*
D03*
X29875Y447475D02*
D03*
Y472875D02*
D03*
X492725Y907500D02*
D03*
X343787D02*
D03*
X369188D02*
D03*
D72*
X426200Y358725D02*
D03*
X317325D02*
D03*
D73*
X446350Y38500D02*
D03*
X426350Y63500D02*
D03*
X406350Y38500D02*
D03*
X386350Y63500D02*
D03*
X406350D02*
D03*
X426350Y38500D02*
D03*
X446350Y63500D02*
D03*
X466350D02*
D03*
Y38500D02*
D03*
X486350D02*
D03*
Y63500D02*
D03*
D74*
X386350Y38500D02*
D03*
D76*
X60200Y772801D02*
D03*
Y715001D02*
D03*
D77*
X23400Y787101D02*
D03*
Y700701D02*
D03*
D78*
X65200Y787101D02*
D03*
Y700701D02*
D03*
D79*
X403000Y443000D02*
X407000Y439000D01*
Y415034D02*
Y439000D01*
X392750Y443000D02*
X403000D01*
X630510Y864510D02*
X642500Y876500D01*
X630510Y793200D02*
Y864510D01*
X271750Y623900D02*
Y639250D01*
X401600Y411850D02*
X420400D01*
X426200Y358725D02*
Y406050D01*
X420400Y411850D02*
X426200Y406050D01*
X311500Y497500D02*
X335000D01*
X452875Y536450D02*
X500100D01*
X446925Y530500D02*
X452875Y536450D01*
X415750Y503750D02*
X429250Y517250D01*
X443716D01*
X415750Y503000D02*
Y503750D01*
X389282Y519750D02*
X411032Y541500D01*
X407892Y549080D02*
X423830D01*
X466710Y591960D01*
X385642Y526830D02*
X407892Y549080D01*
X411032Y541500D02*
X426970D01*
X474290Y588820D01*
Y619109D01*
X466710Y591960D02*
Y619109D01*
X107375Y825375D02*
X176800Y755950D01*
X107375Y825375D02*
Y867250D01*
X176800Y626151D02*
Y755950D01*
X47350Y894500D02*
X78000D01*
X47250Y894400D02*
X47350Y894500D01*
X78063Y867312D02*
X78125Y867250D01*
X78063Y867312D02*
Y894437D01*
X78000Y894500D02*
X78063Y894437D01*
X411250Y855750D02*
X501125Y765875D01*
X568000D01*
X546750Y795250D02*
X546813Y795188D01*
X567938D01*
X568000Y795125D01*
X318450Y673450D02*
X318500Y673400D01*
X306050Y673450D02*
X318450D01*
X306000Y673500D02*
X306050Y673450D01*
X290200D02*
X290250Y673500D01*
X277550Y673450D02*
X290200D01*
X277500Y673400D02*
X277550Y673450D01*
X347750Y673400D02*
Y690750D01*
X683438Y795188D02*
X683500Y795250D01*
X665062Y795188D02*
X683438D01*
X665000Y795125D02*
X665062Y795188D01*
X665000Y795125D02*
Y847500D01*
X337974Y669833D02*
X344686D01*
X347750Y672897D02*
Y673400D01*
X344686Y669833D02*
X347750Y672897D01*
X321569Y653428D02*
X337974Y669833D01*
X318500Y653428D02*
X321569D01*
X248250Y653500D02*
Y673400D01*
Y690750D01*
X446925Y511850D02*
Y530500D01*
X211340Y880160D02*
X380790Y710710D01*
X203760Y877020D02*
Y898590D01*
Y877020D02*
X373210Y707570D01*
X211340Y880160D02*
Y898590D01*
X380790Y658391D02*
Y710710D01*
X373210Y658391D02*
Y707570D01*
X368319Y653500D02*
X373210Y658391D01*
X194850Y907500D02*
X203760Y898590D01*
X365250Y653500D02*
X368319D01*
X385681D02*
X388750D01*
X380790Y658391D02*
X385681Y653500D01*
X211340Y898590D02*
X220250Y907500D01*
X458750Y653500D02*
X461819D01*
X466710Y658391D01*
X343787Y907500D02*
X352697Y898590D01*
Y838157D02*
X466710Y724144D01*
Y658391D02*
Y724144D01*
X352697Y838157D02*
Y898590D01*
X474290Y658391D02*
Y727284D01*
X360277Y841296D02*
X474290Y727284D01*
Y658391D02*
X479181Y653500D01*
X360277Y841296D02*
Y898590D01*
X479181Y653500D02*
X482250D01*
X360277Y898590D02*
X369188Y907500D01*
X665000Y765875D02*
X665000Y765875D01*
X665000Y750500D02*
Y765875D01*
X568000Y750500D02*
Y765875D01*
Y795125D02*
Y844500D01*
Y888500D02*
X587700D01*
X595381Y830119D02*
Y880819D01*
X587700Y888500D02*
X595381Y880819D01*
X642500Y876500D02*
X665000D01*
X595381Y830119D02*
X602490Y823010D01*
X629000Y714250D02*
Y766290D01*
X630510Y767800D01*
X602490D02*
X630510D01*
X602490Y793200D02*
Y823010D01*
X311750Y486500D02*
X335000D01*
X326250Y169250D02*
Y281500D01*
X295500Y138500D02*
X326250Y169250D01*
X269423Y138500D02*
X295500D01*
X350080Y140800D02*
X350165Y140885D01*
Y282665D01*
X350250Y282750D01*
X438850Y140800D02*
X472620D01*
X136885Y456395D02*
X265860Y327420D01*
X131145Y456395D02*
X136885D01*
X127125Y452375D02*
X131145Y456395D01*
X127125Y451625D02*
Y452375D01*
X265860Y327420D02*
X342140D01*
X368460Y353740D01*
X140025Y463975D02*
X269000Y335000D01*
X131145Y463975D02*
X140025D01*
X127125Y467995D02*
X131145Y463975D01*
X127125Y467995D02*
Y468745D01*
X269000Y335000D02*
X339000D01*
X362960Y358960D01*
X131270Y336670D02*
X211460D01*
X214600Y344250D02*
X243600Y315250D01*
X211460Y336670D02*
X240460Y307670D01*
X131270Y344250D02*
X214600D01*
X127250Y332650D02*
X131270Y336670D01*
X127250Y348270D02*
X131270Y344250D01*
X127250Y331900D02*
Y332650D01*
X379250Y337780D02*
Y339605D01*
X349140Y307670D02*
X379250Y337780D01*
X240460Y307670D02*
X349140D01*
X127250Y348270D02*
Y349020D01*
X372226Y341476D02*
X372226D01*
X346000Y315250D02*
X372226Y341476D01*
X243600Y315250D02*
X346000D01*
X250750Y588250D02*
Y621500D01*
X248250Y624000D02*
X250750Y621500D01*
Y588250D02*
X327250Y511750D01*
X343750D01*
X271750Y595650D02*
X348900Y518500D01*
X353000D01*
X318500Y623977D02*
X318940Y623537D01*
Y562810D02*
Y623537D01*
Y562810D02*
X360000Y521750D01*
X369027Y530240D02*
Y530947D01*
X373210Y535131D02*
Y619109D01*
X368319Y624000D02*
X373210Y619109D01*
X365250Y624000D02*
X368319D01*
X369027Y530947D02*
X373210Y535131D01*
X380790Y531991D02*
Y619109D01*
X385681Y624000D01*
X388750D01*
X375040Y526241D02*
X380790Y531991D01*
X474290Y619109D02*
X479181Y624000D01*
X482250D01*
X387868Y519750D02*
X389282D01*
X461819Y624000D02*
X466710Y619109D01*
X458750Y624000D02*
X461819D01*
X296600Y438350D02*
Y457150D01*
X323100Y411850D02*
X341900D01*
X317300Y358725D02*
Y406050D01*
X243475Y432550D02*
X290800D01*
X327750Y455750D02*
Y466000D01*
X339684Y411850D02*
X341925D01*
X323750Y451750D02*
X327750Y455750D01*
X290800Y432550D02*
X296600Y438350D01*
X317300Y406050D02*
X323100Y411850D01*
X340500Y443000D02*
X350750D01*
X336500Y415034D02*
X339684Y411850D01*
X336500Y415034D02*
Y439000D01*
X299785Y451750D02*
X323750D01*
X336500Y439000D02*
X340500Y443000D01*
X509150Y62800D02*
Y88500D01*
X472620Y125030D02*
X509150Y88500D01*
X497126Y50976D02*
X497326D01*
X472620Y125030D02*
Y140800D01*
X497326Y50976D02*
X509150Y62800D01*
X496950Y50800D02*
X497126Y50976D01*
X458650Y50800D02*
X496950D01*
X446350Y38500D02*
X458650Y50800D01*
X124500Y280500D02*
X146883D01*
X113655Y269655D02*
X124500Y280500D01*
X85060Y269655D02*
X113655D01*
X83390Y326140D02*
X85000Y324530D01*
X31610Y326140D02*
X83390D01*
X30000Y327750D02*
X31610Y326140D01*
X83375Y354775D02*
X85000Y356400D01*
X31625Y354775D02*
X83375D01*
X30000Y353150D02*
X31625Y354775D01*
X83265Y445865D02*
X84875Y444255D01*
X31485Y445865D02*
X83265D01*
X29875Y447475D02*
X31485Y445865D01*
X83250Y474500D02*
X84875Y476125D01*
X31500Y474500D02*
X83250D01*
X29875Y472875D02*
X31500Y474500D01*
X110745Y324530D02*
X110750Y324525D01*
X85000Y324530D02*
X110745D01*
Y356400D02*
X110750Y356395D01*
X85000Y356400D02*
X110745D01*
X235535Y102255D02*
X249290Y88500D01*
X207600Y245755D02*
X235535D01*
X535150Y38100D02*
Y69350D01*
X146758Y29750D02*
X146820Y29813D01*
X413450Y51400D02*
X426350Y38500D01*
X207600Y271155D02*
X236195D01*
X112995Y100755D02*
X126750Y87000D01*
X659250Y71000D02*
Y93000D01*
X247040Y138500D02*
X269423D01*
X207600Y102255D02*
X235535D01*
X113655Y126155D02*
X124500Y137000D01*
X559606Y30644D02*
X562250Y28000D01*
X486350Y38500D02*
X505150D01*
X77750Y29750D02*
X117508D01*
X249290Y88500D02*
X269423D01*
X146883Y53000D02*
Y87000D01*
X269423Y53000D02*
X297923D01*
X420250Y88400D02*
X478550D01*
X69650Y181350D02*
X77750Y173250D01*
X386450Y140800D02*
X400080D01*
X269423Y53000D02*
Y88500D01*
Y196500D02*
Y232000D01*
X236195Y127655D02*
X247040Y138500D01*
X269361Y29813D02*
Y52937D01*
X235535Y245755D02*
X249290Y232000D01*
X185500Y225000D02*
Y262750D01*
X30000Y181350D02*
X69650D01*
X338550Y129270D02*
X350080Y140800D01*
X195800Y214700D02*
X207600D01*
X146820Y173312D02*
Y196437D01*
X30000Y37850D02*
X69650D01*
X146883Y196500D02*
X175383D01*
X126750Y230500D02*
X146883D01*
X146820Y52937D02*
X146883Y53000D01*
X175383D01*
X247040Y282000D02*
X269423D01*
X353350Y107700D02*
X386450Y140800D01*
X369250Y51400D02*
X413450D01*
X353350Y67300D02*
Y107700D01*
X522620Y55970D02*
Y140800D01*
X226000Y173250D02*
X240048D01*
X77750D02*
X117508D01*
X85060Y126155D02*
X113655D01*
X207600Y127655D02*
Y189300D01*
X535150Y38100D02*
X542606Y30644D01*
X236195Y271155D02*
X247040Y282000D01*
X249290Y232000D02*
X269423D01*
X406350Y63500D02*
Y74500D01*
X542606Y30644D02*
X559606D01*
X338550Y56900D02*
X356950Y38500D01*
X124500Y137000D02*
X146883D01*
X207600Y127655D02*
X236195D01*
X85060Y244255D02*
X112995D01*
X193905Y271155D02*
X207600D01*
X562250Y75500D02*
Y90000D01*
X146820Y29813D02*
Y52937D01*
X338550Y56900D02*
Y129270D01*
X356950Y38500D02*
X386350D01*
X269298Y29750D02*
X269361Y29813D01*
X185500Y262750D02*
X193905Y271155D01*
X69650Y37850D02*
X77750Y29750D01*
X85060Y100755D02*
X112995D01*
X185500Y225000D02*
X195800Y214700D01*
X226000Y29750D02*
X240048D01*
X126750Y87000D02*
X146883D01*
X505150Y38500D02*
X522620Y55970D01*
X406350Y74500D02*
X420250Y88400D01*
X353350Y67300D02*
X369250Y51400D01*
X269361Y52937D02*
X269423Y53000D01*
X269361Y173312D02*
Y196437D01*
X269423Y196500D02*
X297923D01*
X112995Y244255D02*
X126750Y230500D01*
X146883Y196500D02*
Y230500D01*
X271750Y595650D02*
Y623900D01*
X353500Y623875D02*
X353625Y624000D01*
X353500Y595750D02*
Y623875D01*
X400250D02*
X400375Y624000D01*
X400250Y595750D02*
Y623875D01*
X493750Y623875D02*
X493875Y624000D01*
X493750Y595750D02*
Y623875D01*
X447000Y623875D02*
X447125Y624000D01*
X447000Y595750D02*
Y623875D01*
X236500Y623925D02*
X236625Y624050D01*
X236500Y595800D02*
Y623925D01*
X306750Y623852D02*
X306875Y623977D01*
X306750Y595727D02*
Y623852D01*
X84875Y444255D02*
X110620D01*
X84875Y476125D02*
X110620D01*
X23400Y787101D02*
Y804401D01*
Y700701D02*
Y787101D01*
X65200D01*
X23400Y700701D02*
X65200D01*
D80*
X296874Y653428D02*
X301250Y657804D01*
X295250Y653428D02*
X296874D01*
X263000Y666500D02*
X266600Y662900D01*
Y657776D02*
Y662900D01*
Y657776D02*
X270977Y653400D01*
X271750D01*
X62619Y708951D02*
X64099D01*
X64566Y709418D02*
X66450Y710151D01*
X64099Y708951D02*
X64566Y709418D01*
X66450Y710151D02*
X70950Y711901D01*
X382750Y487000D02*
Y489500D01*
X360750Y487000D02*
Y498000D01*
X364250Y476000D02*
X371750D01*
X96000Y737033D02*
Y737980D01*
Y737033D02*
X97650Y735383D01*
Y726801D02*
Y735383D01*
X547568Y482000D02*
X565658Y500090D01*
X415028Y474690D02*
X565658D01*
X534250Y486500D02*
X557940Y510190D01*
X406303Y475750D02*
X407250D01*
X405052Y474500D02*
X406303Y475750D01*
X395750Y469500D02*
X409838D01*
X401911Y479500D02*
X404412Y482000D01*
X547568D01*
X400684Y491000D02*
X532386D01*
X402548Y486500D02*
X534250D01*
X409838Y469500D02*
X415028Y474690D01*
X399184Y489500D02*
X400684Y491000D01*
X395750Y474500D02*
X405052D01*
X532386Y491000D02*
X556076Y514690D01*
X400547Y484500D02*
X402548Y486500D01*
X359250Y471000D02*
X364250Y476000D01*
X359250Y463000D02*
Y471000D01*
X382750Y489500D02*
X387750Y494500D01*
X395750D01*
X354250Y504500D02*
X360750Y498000D01*
X347750Y504500D02*
X354250D01*
X358250Y484500D02*
X360750Y487000D01*
X347750Y484500D02*
X358250D01*
X446925Y507876D02*
Y511850D01*
Y507876D02*
X451301Y503500D01*
X460500D01*
X454250Y464750D02*
X495110Y423890D01*
X565658D01*
X432250Y448250D02*
X442750D01*
X415750Y436250D02*
X474750Y377250D01*
X415750Y436250D02*
Y448250D01*
X474750Y270958D02*
Y377250D01*
X415750Y448250D02*
Y463000D01*
X474750Y270958D02*
X565658Y180050D01*
X337400Y463547D02*
Y466000D01*
Y463547D02*
X341000Y459947D01*
Y459000D02*
Y459947D01*
X339250Y504000D02*
X339796D01*
X344296Y499500D01*
X347750D01*
X335000Y497500D02*
X338000Y494500D01*
X335000Y486500D02*
X338000Y489500D01*
X347750D01*
X565658Y373090D02*
X580500Y387932D01*
Y505895D01*
X571705Y514690D02*
X580500Y505895D01*
X556076Y514690D02*
X571705D01*
X395750Y489500D02*
X399184D01*
X575758Y459390D02*
Y504273D01*
X569841Y510190D02*
X575758Y504273D01*
X557940Y510190D02*
X569841D01*
X565658Y449290D02*
X575758Y459390D01*
X395750Y484500D02*
X400547D01*
X429000Y529750D02*
X472750Y573500D01*
X511500D01*
X413250Y529750D02*
X429000D01*
X394500Y511000D02*
X413250Y529750D01*
X389250Y511000D02*
X394500D01*
X536000Y566803D02*
X539950Y562853D01*
Y553000D02*
Y562853D01*
X536000Y566803D02*
Y567750D01*
X539900Y552950D02*
X539950Y553000D01*
X539900Y552950D02*
X547200D01*
X557799Y563549D02*
X578316D01*
X547200Y552950D02*
X557799Y563549D01*
X578316D02*
X591058Y576290D01*
X415750Y502656D02*
Y503000D01*
X395750Y479500D02*
X401911D01*
X403500Y457000D02*
X409465Y462965D01*
X403500Y456750D02*
Y457000D01*
X415715Y462965D02*
X415750Y463000D01*
X409465Y462965D02*
X415715D01*
X328000Y478960D02*
X328540Y479500D01*
X347750D01*
X336366Y472857D02*
X338008Y474500D01*
X347750D01*
X335418Y472857D02*
X336366D01*
X338000Y494500D02*
X347750D01*
X385500Y451000D02*
Y451947D01*
X384250Y453197D02*
X385500Y451947D01*
X384250Y453197D02*
Y463000D01*
X374250Y461250D02*
X374250Y461250D01*
Y343500D02*
Y461250D01*
X379250D02*
X379250Y461250D01*
X379250Y339605D02*
Y461250D01*
X362960Y358960D02*
X364250Y360250D01*
X362960Y358960D02*
X362960D01*
X364250Y461250D02*
X364250Y461250D01*
X364250Y461250D02*
Y463000D01*
X364250Y360250D02*
Y461250D01*
X369250Y360250D02*
Y461250D01*
X369250Y461250D01*
Y463000D01*
X379250Y461250D02*
Y463000D01*
X374250Y461250D02*
Y463000D01*
X343750Y511750D02*
X344500Y511000D01*
X354250D01*
X353000Y518500D02*
X354864D01*
X359250Y514114D01*
Y511000D02*
Y514114D01*
X360000Y521750D02*
X364250Y517500D01*
Y511000D02*
Y517500D01*
X369027Y524473D02*
Y530240D01*
Y524473D02*
X369250Y524250D01*
Y517250D02*
Y524250D01*
X369250Y511000D02*
Y512750D01*
X369250Y517250D02*
X369250Y517250D01*
X369250Y512750D02*
X369250Y512750D01*
Y517250D01*
X374250Y519321D02*
Y524250D01*
X374250Y512750D02*
X374250Y512750D01*
X374250Y519321D02*
X374250Y519321D01*
Y512750D02*
Y519321D01*
X374250Y511000D02*
Y512750D01*
X384250Y511000D02*
Y512750D01*
X384250Y517250D02*
X386750Y519750D01*
X384250Y512750D02*
Y517250D01*
Y512750D02*
X384250Y512750D01*
X383215Y524403D02*
X385642Y526830D01*
X383215Y523286D02*
Y524403D01*
X379250Y519321D02*
X383215Y523286D01*
X379250Y511000D02*
Y512750D01*
X379250Y512750D01*
Y519321D01*
D81*
X102650Y726801D02*
Y740600D01*
X99000Y744250D02*
X102650Y740600D01*
X84425Y744250D02*
X99000D01*
X84425Y744250D02*
X84425Y744250D01*
X84425Y741401D02*
Y744250D01*
Y747626D01*
X461158Y552950D02*
X525142D01*
X433438Y525230D02*
X461158Y552950D01*
X425777Y525230D02*
X433438D01*
X405047Y504500D02*
X425777Y525230D01*
X395750Y504500D02*
X405047D01*
X525142Y552950D02*
Y570642D01*
X543750Y589250D01*
X578618D01*
X500100Y536450D02*
X525142D01*
X539900D01*
X578618Y589250D02*
X591058Y601690D01*
X59150Y736401D02*
X88650D01*
X57150Y738401D02*
X59150Y736401D01*
X57150Y738401D02*
Y744401D01*
X59150Y746401D01*
X70950D01*
X43650Y683401D02*
Y693151D01*
X88650Y736401D02*
X92650Y732401D01*
Y726801D02*
Y732401D01*
X70950Y751401D02*
X80650D01*
X70950Y741401D02*
X84425D01*
X80650Y751401D02*
X84425Y747626D01*
X70950Y756401D02*
X95900D01*
X70950Y726401D02*
X79470D01*
X81970Y728901D02*
X82900D01*
X79470Y726401D02*
X81970Y728901D01*
D82*
X178750Y558326D02*
Y571500D01*
X178750Y558326D02*
X178750Y558326D01*
X176800Y558326D02*
X178750D01*
X202671Y554608D02*
X243400Y513879D01*
Y457950D02*
Y513879D01*
X202671Y554608D02*
Y614829D01*
X191349Y626151D02*
X202671Y614829D01*
X176800Y626151D02*
X191349D01*
D83*
X92650Y703850D02*
Y713001D01*
Y703850D02*
X92750Y703750D01*
X102650Y703850D02*
Y713001D01*
Y703850D02*
X102750Y703750D01*
X82950Y719701D02*
X83150Y719901D01*
X96332D02*
X97650Y718583D01*
X83150Y719901D02*
X96332D01*
X97650Y713001D02*
Y718583D01*
D84*
X369250Y354530D02*
Y360250D01*
X368460Y353740D02*
X369250Y354530D01*
X372226Y341476D02*
X374250Y343500D01*
X374250Y524250D02*
Y525451D01*
X375040Y526241D01*
D85*
X110625Y476125D02*
Y483495D01*
Y468745D02*
Y476125D01*
Y436875D02*
Y451625D01*
X110750Y324525D02*
Y331900D01*
Y356395D02*
Y363770D01*
Y317150D02*
Y324525D01*
Y349020D02*
Y356395D01*
D86*
X386750Y519750D02*
X387868D01*
D87*
X353625Y624000D02*
X365250D01*
X400375D02*
X412000D01*
X342000D02*
X353625D01*
X388750D02*
X400375D01*
X493875Y624000D02*
X505500D01*
X482250D02*
X493875D01*
X447125Y624000D02*
X458750D01*
X435500D02*
X447125D01*
X236625Y624050D02*
X248250D01*
X225000D02*
X236625D01*
X295250Y623977D02*
X306875D01*
X318500D01*
D88*
X133150Y624101D02*
Y637726D01*
Y593726D02*
Y605101D01*
Y556276D02*
Y569901D01*
Y525901D02*
Y537276D01*
D89*
X66450Y647401D02*
Y666401D01*
X82950D02*
Y683401D01*
Y719701D01*
X70950Y719901D02*
X83150D01*
D90*
X370350Y79000D02*
D03*
X502350Y23000D02*
D03*
D91*
X36000Y744125D02*
D03*
Y768750D02*
D03*
Y719500D02*
D03*
X96000Y737980D02*
D03*
X407250Y475750D02*
D03*
X684500Y686750D02*
D03*
X672000Y661750D02*
D03*
X684500Y636750D02*
D03*
X672000Y611750D02*
D03*
X684500Y586750D02*
D03*
X672000Y561750D02*
D03*
X684500Y536750D02*
D03*
Y436750D02*
D03*
X672000Y411750D02*
D03*
X684500Y386750D02*
D03*
X672000Y361750D02*
D03*
X684500Y336750D02*
D03*
X672000Y311750D02*
D03*
X684500Y286750D02*
D03*
X672000Y261750D02*
D03*
X684500Y236750D02*
D03*
X672000Y211750D02*
D03*
X684500Y186750D02*
D03*
X672000Y161750D02*
D03*
X684500Y136750D02*
D03*
Y86750D02*
D03*
Y36750D02*
D03*
X672000Y11750D02*
D03*
X647000Y811750D02*
D03*
Y711750D02*
D03*
X659500Y636750D02*
D03*
X647000Y611750D02*
D03*
X659500Y586750D02*
D03*
X647000Y511750D02*
D03*
Y461750D02*
D03*
X659500Y436750D02*
D03*
X647000Y411750D02*
D03*
X659500Y386750D02*
D03*
X647000Y361750D02*
D03*
X659500Y336750D02*
D03*
X647000Y311750D02*
D03*
X659500Y286750D02*
D03*
X647000Y261750D02*
D03*
X659500Y236750D02*
D03*
X647000Y211750D02*
D03*
X659500Y186750D02*
D03*
X647000Y161750D02*
D03*
X659500Y136750D02*
D03*
X647000Y11750D02*
D03*
X634500Y886750D02*
D03*
Y686750D02*
D03*
Y636750D02*
D03*
X622000Y511750D02*
D03*
X634500Y486750D02*
D03*
X622000Y461750D02*
D03*
X634500Y436750D02*
D03*
X622000Y411750D02*
D03*
X634500Y386750D02*
D03*
X622000Y361750D02*
D03*
X634500Y336750D02*
D03*
X622000Y311750D02*
D03*
X634500Y286750D02*
D03*
X622000Y261750D02*
D03*
X634500Y236750D02*
D03*
X622000Y211750D02*
D03*
X634500Y186750D02*
D03*
X622000Y161750D02*
D03*
X634500Y136750D02*
D03*
X622000Y111750D02*
D03*
X634500Y36750D02*
D03*
X622000Y11750D02*
D03*
X609500Y886750D02*
D03*
Y686750D02*
D03*
X597000Y661750D02*
D03*
X609500Y536750D02*
D03*
Y486750D02*
D03*
Y436750D02*
D03*
Y386750D02*
D03*
Y336750D02*
D03*
Y286750D02*
D03*
Y236750D02*
D03*
Y186750D02*
D03*
Y136750D02*
D03*
X597000Y111750D02*
D03*
Y11750D02*
D03*
X572000Y911750D02*
D03*
Y711750D02*
D03*
X584500Y686750D02*
D03*
X572000Y661750D02*
D03*
X584500Y136750D02*
D03*
X572000Y111750D02*
D03*
X547000Y911750D02*
D03*
Y861750D02*
D03*
Y811750D02*
D03*
X559500Y736750D02*
D03*
X547000Y711750D02*
D03*
X559500Y686750D02*
D03*
X547000Y661750D02*
D03*
Y311750D02*
D03*
Y261750D02*
D03*
Y161750D02*
D03*
X559500Y136750D02*
D03*
X547000Y111750D02*
D03*
X534500Y886750D02*
D03*
Y836750D02*
D03*
X522000Y811750D02*
D03*
X534500Y736750D02*
D03*
X522000Y711750D02*
D03*
X534500Y686750D02*
D03*
X522000Y311750D02*
D03*
X534500Y286750D02*
D03*
X522000Y261750D02*
D03*
X534500Y236750D02*
D03*
Y186750D02*
D03*
X522000Y161750D02*
D03*
X497000Y861750D02*
D03*
Y811750D02*
D03*
X509500Y736750D02*
D03*
X497000Y711750D02*
D03*
X509500Y686750D02*
D03*
Y586750D02*
D03*
X497000Y461750D02*
D03*
X509500Y386750D02*
D03*
X497000Y361750D02*
D03*
Y311750D02*
D03*
X509500Y286750D02*
D03*
X497000Y211750D02*
D03*
X509500Y186750D02*
D03*
X497000Y161750D02*
D03*
X472000Y861750D02*
D03*
X484500Y736750D02*
D03*
Y386750D02*
D03*
Y236750D02*
D03*
X447000Y911750D02*
D03*
X459500Y836750D02*
D03*
Y436750D02*
D03*
X447000Y361750D02*
D03*
Y311750D02*
D03*
X459500Y286750D02*
D03*
X447000Y261750D02*
D03*
X459500Y236750D02*
D03*
Y186750D02*
D03*
X447000Y161750D02*
D03*
Y111750D02*
D03*
X422000Y911750D02*
D03*
X434500Y886750D02*
D03*
X422000Y811750D02*
D03*
X434500Y736750D02*
D03*
Y686750D02*
D03*
X422000Y311750D02*
D03*
X434500Y286750D02*
D03*
X422000Y211750D02*
D03*
X434500Y186750D02*
D03*
X422000Y161750D02*
D03*
Y111750D02*
D03*
X397000Y911750D02*
D03*
X409500Y886750D02*
D03*
X397000Y761750D02*
D03*
Y711750D02*
D03*
Y311750D02*
D03*
X409500Y286750D02*
D03*
Y236750D02*
D03*
X397000Y211750D02*
D03*
X409500Y186750D02*
D03*
X397000Y161750D02*
D03*
Y111750D02*
D03*
Y11750D02*
D03*
X384500Y886750D02*
D03*
Y836750D02*
D03*
X372000Y761750D02*
D03*
Y311750D02*
D03*
X384500Y286750D02*
D03*
Y236750D02*
D03*
X372000Y211750D02*
D03*
X384500Y186750D02*
D03*
X372000Y161750D02*
D03*
Y11750D02*
D03*
X347000Y811750D02*
D03*
Y711750D02*
D03*
X334500Y886750D02*
D03*
Y836750D02*
D03*
X322000Y811750D02*
D03*
Y711750D02*
D03*
X334500Y586750D02*
D03*
X322000Y61750D02*
D03*
Y11750D02*
D03*
X297000Y911750D02*
D03*
X309500Y886750D02*
D03*
Y836750D02*
D03*
X297000Y761750D02*
D03*
Y711750D02*
D03*
Y511750D02*
D03*
X309500Y286750D02*
D03*
Y236750D02*
D03*
Y86750D02*
D03*
Y36750D02*
D03*
X297000Y11750D02*
D03*
X272000Y911750D02*
D03*
X284500Y886750D02*
D03*
Y836750D02*
D03*
X272000Y761750D02*
D03*
Y511750D02*
D03*
X284500Y386750D02*
D03*
X272000Y111750D02*
D03*
X247000Y911750D02*
D03*
X259500Y886750D02*
D03*
X247000Y811750D02*
D03*
X259500Y786750D02*
D03*
X247000Y761750D02*
D03*
X259500Y736750D02*
D03*
X247000Y711750D02*
D03*
Y411750D02*
D03*
Y111750D02*
D03*
X234500Y886750D02*
D03*
X222000Y811750D02*
D03*
X234500Y786750D02*
D03*
X222000Y761750D02*
D03*
X234500Y736750D02*
D03*
X222000Y711750D02*
D03*
Y511750D02*
D03*
Y461750D02*
D03*
Y411750D02*
D03*
Y61750D02*
D03*
Y11750D02*
D03*
X209500Y836750D02*
D03*
X197000Y811750D02*
D03*
X209500Y786750D02*
D03*
X197000Y761750D02*
D03*
X209500Y736750D02*
D03*
X197000Y661750D02*
D03*
Y511750D02*
D03*
Y461750D02*
D03*
X209500Y436750D02*
D03*
X197000Y361750D02*
D03*
Y311750D02*
D03*
Y61750D02*
D03*
Y11750D02*
D03*
X184500Y886750D02*
D03*
Y836750D02*
D03*
X172000Y811750D02*
D03*
X184500Y786750D02*
D03*
Y586750D02*
D03*
X172000Y511750D02*
D03*
X184500Y386750D02*
D03*
X172000Y361750D02*
D03*
Y311750D02*
D03*
X184500Y286750D02*
D03*
X172000Y111750D02*
D03*
X184500Y86750D02*
D03*
X172000Y11750D02*
D03*
X147000Y911750D02*
D03*
X159500Y886750D02*
D03*
Y836750D02*
D03*
X147000Y811750D02*
D03*
Y711750D02*
D03*
X159500Y686750D02*
D03*
Y586750D02*
D03*
X147000Y511750D02*
D03*
X159500Y486750D02*
D03*
X147000Y261750D02*
D03*
Y111750D02*
D03*
X134500Y886750D02*
D03*
Y836750D02*
D03*
X122000Y761750D02*
D03*
X134500Y736750D02*
D03*
X122000Y711750D02*
D03*
Y511750D02*
D03*
Y411750D02*
D03*
Y111750D02*
D03*
X97000Y661750D02*
D03*
X109500Y586750D02*
D03*
X97000Y511750D02*
D03*
Y461750D02*
D03*
Y411750D02*
D03*
X109500Y386750D02*
D03*
Y286750D02*
D03*
X97000Y11750D02*
D03*
X72000Y811750D02*
D03*
X84500Y536750D02*
D03*
X72000Y511750D02*
D03*
Y461750D02*
D03*
Y411750D02*
D03*
X84500Y386750D02*
D03*
X72000Y311750D02*
D03*
X84500Y186750D02*
D03*
X72000Y161750D02*
D03*
Y11750D02*
D03*
X47000Y511750D02*
D03*
Y461750D02*
D03*
Y411750D02*
D03*
X59500Y386750D02*
D03*
X47000Y311750D02*
D03*
X59500Y286750D02*
D03*
X47000Y261750D02*
D03*
X59500Y236750D02*
D03*
X47000Y161750D02*
D03*
X59500Y136750D02*
D03*
X47000Y111750D02*
D03*
X59500Y86750D02*
D03*
X47000Y11750D02*
D03*
X22000Y911750D02*
D03*
Y861750D02*
D03*
Y661750D02*
D03*
X34500Y636750D02*
D03*
X22000Y611750D02*
D03*
X34500Y586750D02*
D03*
X22000Y561750D02*
D03*
X34500Y536750D02*
D03*
X22000Y511750D02*
D03*
Y411750D02*
D03*
X34500Y386750D02*
D03*
Y286750D02*
D03*
X22000Y261750D02*
D03*
Y161750D02*
D03*
X34500Y136750D02*
D03*
X22000Y111750D02*
D03*
Y11750D02*
D03*
X454250Y464750D02*
D03*
X271750Y639250D02*
D03*
X341000Y459000D02*
D03*
X339250Y504000D02*
D03*
X442750Y448250D02*
D03*
X460500Y503500D02*
D03*
X178750Y571500D02*
D03*
X511500Y573500D02*
D03*
X536000Y567750D02*
D03*
X411250Y855750D02*
D03*
X546750Y795250D02*
D03*
X683500D02*
D03*
X306000Y673500D02*
D03*
X290250D02*
D03*
X347750Y690750D02*
D03*
X248250D02*
D03*
X665000Y750500D02*
D03*
X568000D02*
D03*
X102750Y703750D02*
D03*
X92750D02*
D03*
X403500Y456750D02*
D03*
X217000Y540500D02*
D03*
X223036Y534243D02*
D03*
X311750Y486500D02*
D03*
X326250Y281500D02*
D03*
X350250Y282750D02*
D03*
X328000Y478960D02*
D03*
X335418Y472857D02*
D03*
X311500Y497500D02*
D03*
X385500Y451000D02*
D03*
X371750Y498000D02*
D03*
Y476000D02*
D03*
X382750Y487000D02*
D03*
X360750D02*
D03*
X478550Y88400D02*
D03*
X659250Y71000D02*
D03*
X562250Y75500D02*
D03*
X535150Y69350D02*
D03*
X226000Y173250D02*
D03*
Y29750D02*
D03*
X133150Y593726D02*
D03*
Y637726D02*
D03*
Y569901D02*
D03*
Y525901D02*
D03*
X82900Y728901D02*
D03*
X43650Y693151D02*
D03*
M02*
