M48
;Layer_Color=9474304
;FILE_FORMAT=4:4
METRIC
;TYPE=PLATED
T01F00S00C0.3000
T03F00S00C0.7200
T04F00S00C0.8000
T05F00S00C1.0200
T06F00S00C1.0922
T07F00S00C1.2500
;TYPE=NON_PLATED
T08F00S00C0.6500
T09F00S00C1.8000
%
T01
X00022000Y00011750
X00047000
X00072000
X00097000
X00059500Y00086750
X00047000Y00111750
X00022000
X00034500Y00136750
X00059500
X00072000Y00161750
X00047000
X00022000
X00084500Y00186750
X00059500Y00236750
X00047000Y00261750
X00022000
X00122000Y00111750
X00147000
X00172000
X00184500Y00086750
X00197000Y00061750
X00222000
X00226000Y00029750
X00222000Y00011750
X00197000
X00172000
X00297000
X00322000
X00309500Y00036750
X00322000Y00061750
X00309500Y00086750
X00272000Y00111750
X00247000
X00226000Y00173250
X00309500Y00236750
X00384500
X00409500
X00422000Y00211750
X00397000
X00372000
X00384500Y00186750
X00409500
X00434500
X00459500
X00447000Y00161750
X00422000
X00397000
X00372000
X00397000Y00111750
X00422000
X00447000
X00478550Y00088400
X00535150Y00069350
X00522000Y00161750
X00497000
X00509500Y00186750
X00534500
Y00236750
X00522000Y00261750
X00484500Y00236750
X00459500
X00447000Y00261750
X00497000Y00211750
X00397000Y00011750
X00372000
X00147000Y00261750
X00547000
X00622000
X00647000
X00672000
X00684500Y00236750
X00659500
X00634500
X00609500
X00622000Y00211750
X00647000
X00672000
X00684500Y00186750
X00659500
X00634500
X00609500
X00622000Y00161750
X00647000
X00672000
X00684500Y00136750
X00659500
X00634500
X00609500
X00584500
X00559500
X00572000Y00111750
X00597000
X00622000
X00547000
Y00161750
X00562250Y00075500
X00597000Y00011750
X00622000
X00647000
X00672000
X00684500Y00036750
Y00086750
X00659250Y00071000
X00634500Y00036750
Y00286750
X00659500
X00684500
X00672000Y00311750
X00647000
X00622000
X00634500Y00336750
X00659500
X00684500
X00672000Y00361750
X00647000
X00622000
X00634500Y00386750
X00659500
X00684500
X00672000Y00411750
X00647000
X00622000
X00634500Y00436750
X00659500
X00684500
X00647000Y00461750
X00622000
X00634500Y00486750
X00609500
X00622000Y00511750
X00647000
X00684500Y00536750
X00672000Y00561750
X00684500Y00586750
X00659500
X00672000Y00611750
X00647000
X00659500Y00636750
X00684500
X00672000Y00661750
X00634500Y00636750
X00597000Y00661750
X00572000
X00547000
X00609500Y00536750
Y00436750
Y00386750
Y00336750
Y00286750
X00547000Y00311750
X00522000
X00497000
X00509500Y00286750
X00534500
X00459500
X00434500
X00409500
X00384500
X00397000Y00311750
X00422000
X00447000
Y00361750
X00497000
X00509500Y00386750
X00484500
X00459500Y00436750
X00442750Y00448250
X00454250Y00464750
X00460500Y00503500
X00497000Y00461750
X00403500Y00456750
X00407250Y00475750
X00371750Y00476000
Y00498000
X00382750Y00487000
X00360750
X00339250Y00504000
X00311500Y00497500
X00311750Y00486500
X00328000Y00478960
X00335418Y00472857
X00341000Y00459000
X00385500Y00451000
X00297000Y00511750
X00272000
X00222000
X00223036Y00534243
X00217000Y00540500
X00197000Y00511750
X00172000
X00147000
X00159500Y00486750
X00197000Y00461750
X00222000
X00209500Y00436750
X00222000Y00411750
X00247000
X00284500Y00386750
X00184500
X00197000Y00361750
X00172000
Y00311750
X00197000
X00184500Y00286750
X00309500
X00326250Y00281500
X00350250Y00282750
X00372000Y00311750
X00334500Y00586750
X00271750Y00639250
X00290250Y00673500
X00306000
X00197000Y00661750
X00184500Y00586750
X00178750Y00571500
X00159500Y00586750
X00509500
X00511500Y00573500
X00536000Y00567750
X00133150Y00569901
Y00593726
X00109500Y00586750
X00133150Y00637726
X00097000Y00661750
X00022000
X00034500Y00636750
X00022000Y00611750
X00034500Y00586750
X00022000Y00561750
X00034500Y00536750
X00047000Y00511750
X00072000
X00097000
X00122000
X00133150Y00525901
X00084500Y00536750
X00097000Y00461750
X00072000
X00047000
Y00411750
X00072000
X00097000
X00122000
X00109500Y00386750
X00084500
X00059500
X00034500
X00022000Y00411750
Y00511750
X00047000Y00311750
X00072000
X00059500Y00286750
X00034500
X00109500
X00102750Y00703750
X00092750
X00082900Y00728901
X00096000Y00737980
X00134500Y00736750
X00122000Y00761750
Y00711750
X00036000Y00719500
Y00744125
Y00768750
X00072000Y00811750
X00134500Y00836750
Y00886750
X00022000Y00911750
Y00861750
X00043650Y00693151
X00147000Y00711750
X00159500Y00686750
X00222000Y00711750
X00247000
X00248250Y00690750
X00259500Y00736750
X00234500
X00209500
X00222000Y00761750
X00247000
X00272000
X00297000
Y00711750
X00322000
X00347000
X00347750Y00690750
X00397000Y00711750
Y00761750
X00372000
X00347000Y00811750
X00322000
X00334500Y00836750
X00309500
X00284500
Y00886750
X00309500
X00334500
X00384500
X00409500
X00434500
X00447000Y00911750
X00422000
X00397000
X00411250Y00855750
X00384500Y00836750
X00422000Y00811750
X00459500Y00836750
X00472000Y00861750
X00497000
Y00811750
X00522000
X00534500Y00836750
Y00886750
Y00736750
X00509500
X00484500
X00497000Y00711750
X00522000
X00534500Y00686750
X00509500
X00434500
Y00736750
X00259500Y00786750
X00234500
X00209500
X00184500
X00197000Y00811750
X00222000
X00247000
X00209500Y00836750
X00184500
X00159500
X00172000Y00811750
X00147000
X00159500Y00886750
X00184500
X00234500
X00259500
X00272000Y00911750
X00297000
X00247000
X00147000
X00197000Y00761750
X00568000Y00750500
X00559500Y00736750
X00572000Y00711750
X00547000
X00559500Y00686750
X00584500
X00609500
X00634500
X00647000Y00711750
X00665000Y00750500
X00683500Y00795250
X00647000Y00811750
X00634500Y00886750
X00609500
X00572000Y00911750
X00547000
Y00861750
Y00811750
X00546750Y00795250
X00684500Y00686750
T03
X00604000Y00714250
X00629000
T04
X00146883Y00087000
Y00137000
Y00230500
X00269423Y00232000
Y00138500
Y00088500
X00350080Y00140800
X00400080
X00472620
X00522620
X00486350Y00063500
X00466350
X00446350
X00426350
X00406350
X00386350
Y00038500
X00406350
X00426350
X00446350
X00466350
X00486350
X00269423Y00282000
X00146883Y00280500
T05
X00085060Y00100755
Y00126155
Y00244255
Y00269655
X00207600Y00271155
Y00245755
Y00214700
Y00189300
X00175383Y00196500
X00207600Y00127655
Y00102255
X00175383Y00053000
X00297923
X00340810Y00053050
X00340750Y00020500
X00438850Y00141050
X00297923Y00196500
X00565658Y00205450
Y00180050
Y00154650
X00591058
Y00180050
Y00205450
Y00230850
X00565658
Y00256250
X00591058
Y00281650
X00565658
Y00307050
X00591058
Y00332450
X00565658
Y00373090
X00591058
Y00398490
X00565658
Y00423890
Y00449290
Y00474690
Y00500090
X00591058
Y00525490
X00565658
Y00550890
X00591058
Y00576290
Y00601690
X00565658
Y00576290
X00591058Y00474690
Y00449290
Y00423890
X00667256Y00459450
Y00484850
X00500100Y00511050
Y00536450
X00493750Y00595750
X00447000Y00595750
X00400250Y00595750
X00353500
X00306750Y00595727
X00271750Y00595650
X00236500Y00595800
X00243400Y00457950
Y00432550
X00317325Y00358725
X00342725
X00400800
X00426200
X00085000Y00356400
Y00324530
X00084875Y00444255
Y00476125
X00057656Y00535650
Y00561050
X00047250Y00843600
Y00869000
Y00894400
X00602490Y00793200
Y00767800
X00630510
Y00793200
T06
X00030000Y00037850
Y00063250
Y00088650
Y00181350
Y00206750
Y00232150
Y00327750
Y00353150
X00029875Y00447475
Y00472875
X00169450Y00907500
X00194850
X00220250
X00318388
X00343787
X00369188
X00467325
X00492725
X00518125
T07
X00370350Y00079000
X00502350Y00023000
T08
X00060200Y00715001
Y00772801
T09
X00613250Y00030000
Y00090000
X00614000Y00847500
Y00907500
M30
