G04*
G04 #@! TF.GenerationSoftware,Altium Limited,Altium Designer,26.6.0 (10)*
G04*
G04 Layer_Color=16711935*
G04 Board_Origin=9960630|35954724*
%FSLAX44Y44*%
%MOMM*%
G71*
G04*
G04 #@! TF.SameCoordinates,5C4F4FCD-0276-4C2B-93F7-1AEF511F468A*
G04*
G04*
G04 #@! TF.FilePolarity,Negative*
G04*
G01*
G75*
%ADD62C,1.5300*%
%ADD63R,1.5300X1.5300*%
%ADD64C,1.8000*%
%ADD65C,1.6000*%
G04:AMPARAMS|DCode=66|XSize=1.6mm|YSize=1.6mm|CornerRadius=0.4mm|HoleSize=0mm|Usage=FLASHONLY|Rotation=0.000|XOffset=0mm|YOffset=0mm|HoleType=Round|Shape=RoundedRectangle|*
%AMROUNDEDRECTD66*
21,1,1.6000,0.8000,0,0,0.0*
21,1,0.8000,1.6000,0,0,0.0*
1,1,0.8000,0.4000,-0.4000*
1,1,0.8000,-0.4000,-0.4000*
1,1,0.8000,-0.4000,0.4000*
1,1,0.8000,0.4000,0.4000*
%
%ADD66ROUNDEDRECTD66*%
G04:AMPARAMS|DCode=67|XSize=1.6mm|YSize=1.6mm|CornerRadius=0.4mm|HoleSize=0mm|Usage=FLASHONLY|Rotation=270.000|XOffset=0mm|YOffset=0mm|HoleType=Round|Shape=RoundedRectangle|*
%AMROUNDEDRECTD67*
21,1,1.6000,0.8000,0,0,270.0*
21,1,0.8000,1.6000,0,0,270.0*
1,1,0.8000,-0.4000,-0.4000*
1,1,0.8000,-0.4000,0.4000*
1,1,0.8000,0.4000,0.4000*
1,1,0.8000,0.4000,-0.4000*
%
%ADD67ROUNDEDRECTD67*%
%ADD68R,1.3700X1.3700*%
%ADD69C,1.3700*%
%ADD70C,1.2280*%
%ADD71C,1.6002*%
%ADD72R,1.5300X1.5300*%
%ADD73C,1.3080*%
%ADD74R,1.3080X1.3080*%
%ADD75C,2.0790*%
%ADD76C,0.6500*%
G04:AMPARAMS|DCode=77|XSize=1.8mm|YSize=1mm|CornerRadius=0.25mm|HoleSize=0mm|Usage=FLASHONLY|Rotation=0.000|XOffset=0mm|YOffset=0mm|HoleType=Round|Shape=RoundedRectangle|*
%AMROUNDEDRECTD77*
21,1,1.8000,0.5000,0,0,0.0*
21,1,1.3000,1.0000,0,0,0.0*
1,1,0.5000,0.6500,-0.2500*
1,1,0.5000,-0.6500,-0.2500*
1,1,0.5000,-0.6500,0.2500*
1,1,0.5000,0.6500,0.2500*
%
%ADD77ROUNDEDRECTD77*%
%ADD78O,2.1000X1.0000*%
D62*
X630510Y793200D02*
D03*
X602490D02*
D03*
X500100Y511050D02*
D03*
X243400Y457950D02*
D03*
X297923Y196500D02*
D03*
X47250Y869000D02*
D03*
Y843600D02*
D03*
X400800Y358725D02*
D03*
X342725D02*
D03*
X438850Y141050D02*
D03*
X85000Y356400D02*
D03*
Y324530D02*
D03*
X340810Y53050D02*
D03*
X207600Y214700D02*
D03*
Y245755D02*
D03*
X85060Y244255D02*
D03*
Y100755D02*
D03*
X207600Y102255D02*
D03*
X297923Y53000D02*
D03*
X175383Y196500D02*
D03*
X340750Y20500D02*
D03*
X175383Y53000D02*
D03*
X84875Y444255D02*
D03*
Y476125D02*
D03*
X57656Y561050D02*
D03*
X667256Y484850D02*
D03*
X271750Y595650D02*
D03*
X306750Y595727D02*
D03*
X353500Y595750D02*
D03*
X493750Y595750D02*
D03*
X447000Y595750D02*
D03*
X400250Y595750D02*
D03*
X236500Y595800D02*
D03*
D63*
X630510Y767800D02*
D03*
X602490D02*
D03*
X500100Y536450D02*
D03*
X243400Y432550D02*
D03*
X47250Y894400D02*
D03*
X85060Y269655D02*
D03*
X57656Y535650D02*
D03*
X207600Y189300D02*
D03*
Y271155D02*
D03*
X85060Y126155D02*
D03*
X207600Y127655D02*
D03*
X667256Y459450D02*
D03*
D64*
X614000Y907500D02*
D03*
Y847500D02*
D03*
X613250Y30000D02*
D03*
Y90000D02*
D03*
D65*
X522620Y140800D02*
D03*
X400080D02*
D03*
X269423Y88500D02*
D03*
Y232000D02*
D03*
X146883Y230500D02*
D03*
Y87000D02*
D03*
D66*
X472620Y140800D02*
D03*
X350080D02*
D03*
D67*
X269423Y138500D02*
D03*
Y282000D02*
D03*
X146883Y280500D02*
D03*
Y137000D02*
D03*
D68*
X591058Y601690D02*
D03*
Y332450D02*
D03*
D69*
Y576290D02*
D03*
X565658Y281650D02*
D03*
X591058Y525490D02*
D03*
X565658Y154650D02*
D03*
X591058D02*
D03*
X565658Y180050D02*
D03*
X591058D02*
D03*
X565658Y205450D02*
D03*
X591058D02*
D03*
X565658Y230850D02*
D03*
X591058D02*
D03*
X565658Y256250D02*
D03*
X591058D02*
D03*
Y281650D02*
D03*
X565658Y307050D02*
D03*
X591058D02*
D03*
X565658Y332450D02*
D03*
Y423890D02*
D03*
Y500090D02*
D03*
Y449290D02*
D03*
Y474690D02*
D03*
Y373090D02*
D03*
X591058D02*
D03*
X565658Y398490D02*
D03*
X591058D02*
D03*
Y423890D02*
D03*
Y449290D02*
D03*
Y474690D02*
D03*
Y500090D02*
D03*
X565658Y525490D02*
D03*
Y550890D02*
D03*
X591058D02*
D03*
X565658Y576290D02*
D03*
Y601690D02*
D03*
D70*
X629000Y714250D02*
D03*
X604000D02*
D03*
D71*
X194850Y907500D02*
D03*
X220250D02*
D03*
X169450D02*
D03*
X30000Y232150D02*
D03*
X467325Y907500D02*
D03*
X318388D02*
D03*
X30000Y88650D02*
D03*
Y353150D02*
D03*
Y327750D02*
D03*
Y206750D02*
D03*
Y181350D02*
D03*
Y37850D02*
D03*
Y63250D02*
D03*
X518125Y907500D02*
D03*
X29875Y447475D02*
D03*
Y472875D02*
D03*
X492725Y907500D02*
D03*
X343787D02*
D03*
X369188D02*
D03*
D72*
X426200Y358725D02*
D03*
X317325D02*
D03*
D73*
X446350Y38500D02*
D03*
X426350Y63500D02*
D03*
X406350Y38500D02*
D03*
X386350Y63500D02*
D03*
X406350D02*
D03*
X426350Y38500D02*
D03*
X446350Y63500D02*
D03*
X466350D02*
D03*
Y38500D02*
D03*
X486350D02*
D03*
Y63500D02*
D03*
D74*
X386350Y38500D02*
D03*
D75*
X370350Y79000D02*
D03*
X502350Y23000D02*
D03*
D76*
X60200Y772801D02*
D03*
Y715001D02*
D03*
D77*
X23400Y787101D02*
D03*
Y700701D02*
D03*
D78*
X65200Y787101D02*
D03*
Y700701D02*
D03*
M02*
