G04*
G04 #@! TF.GenerationSoftware,Altium Limited,Altium Designer,26.6.0 (10)*
G04*
G04 Layer_Color=8388736*
G04 Board_Origin=9960630|35954724*
%FSLAX44Y44*%
%MOMM*%
G71*
G04*
G04 #@! TF.SameCoordinates,5C4F4FCD-0276-4C2B-93F7-1AEF511F468A*
G04*
G04*
G04 #@! TF.FilePolarity,Negative*
G04*
G01*
G75*
G04:AMPARAMS|DCode=42|XSize=0.635mm|YSize=0.3mm|CornerRadius=0.012mm|HoleSize=0mm|Usage=FLASHONLY|Rotation=270.000|XOffset=0mm|YOffset=0mm|HoleType=Round|Shape=RoundedRectangle|*
%AMROUNDEDRECTD42*
21,1,0.6350,0.2760,0,0,270.0*
21,1,0.6110,0.3000,0,0,270.0*
1,1,0.0240,-0.1380,-0.3055*
1,1,0.0240,-0.1380,0.3055*
1,1,0.0240,0.1380,0.3055*
1,1,0.0240,0.1380,-0.3055*
%
%ADD42ROUNDEDRECTD42*%
G04:AMPARAMS|DCode=43|XSize=1.125mm|YSize=1.75mm|CornerRadius=0.2813mm|HoleSize=0mm|Usage=FLASHONLY|Rotation=90.000|XOffset=0mm|YOffset=0mm|HoleType=Round|Shape=RoundedRectangle|*
%AMROUNDEDRECTD43*
21,1,1.1250,1.1875,0,0,90.0*
21,1,0.5625,1.7500,0,0,90.0*
1,1,0.5625,0.5938,0.2813*
1,1,0.5625,0.5938,-0.2813*
1,1,0.5625,-0.5938,-0.2813*
1,1,0.5625,-0.5938,0.2813*
%
%ADD43ROUNDEDRECTD43*%
G04:AMPARAMS|DCode=44|XSize=1.5mm|YSize=3mm|CornerRadius=0.375mm|HoleSize=0mm|Usage=FLASHONLY|Rotation=270.000|XOffset=0mm|YOffset=0mm|HoleType=Round|Shape=RoundedRectangle|*
%AMROUNDEDRECTD44*
21,1,1.5000,2.2500,0,0,270.0*
21,1,0.7500,3.0000,0,0,270.0*
1,1,0.7500,-1.1250,-0.3750*
1,1,0.7500,-1.1250,0.3750*
1,1,0.7500,1.1250,0.3750*
1,1,0.7500,1.1250,-0.3750*
%
%ADD44ROUNDEDRECTD44*%
G04:AMPARAMS|DCode=45|XSize=2mm|YSize=3mm|CornerRadius=0.5mm|HoleSize=0mm|Usage=FLASHONLY|Rotation=270.000|XOffset=0mm|YOffset=0mm|HoleType=Round|Shape=RoundedRectangle|*
%AMROUNDEDRECTD45*
21,1,2.0000,2.0000,0,0,270.0*
21,1,1.0000,3.0000,0,0,270.0*
1,1,1.0000,-1.0000,-0.5000*
1,1,1.0000,-1.0000,0.5000*
1,1,1.0000,1.0000,0.5000*
1,1,1.0000,1.0000,-0.5000*
%
%ADD45ROUNDEDRECTD45*%
G04:AMPARAMS|DCode=46|XSize=0.8mm|YSize=0.95mm|CornerRadius=0.2mm|HoleSize=0mm|Usage=FLASHONLY|Rotation=0.000|XOffset=0mm|YOffset=0mm|HoleType=Round|Shape=RoundedRectangle|*
%AMROUNDEDRECTD46*
21,1,0.8000,0.5500,0,0,0.0*
21,1,0.4000,0.9500,0,0,0.0*
1,1,0.4000,0.2000,-0.2750*
1,1,0.4000,-0.2000,-0.2750*
1,1,0.4000,-0.2000,0.2750*
1,1,0.4000,0.2000,0.2750*
%
%ADD46ROUNDEDRECTD46*%
G04:AMPARAMS|DCode=47|XSize=1.15mm|YSize=2.7mm|CornerRadius=0.2875mm|HoleSize=0mm|Usage=FLASHONLY|Rotation=180.000|XOffset=0mm|YOffset=0mm|HoleType=Round|Shape=RoundedRectangle|*
%AMROUNDEDRECTD47*
21,1,1.1500,2.1250,0,0,180.0*
21,1,0.5750,2.7000,0,0,180.0*
1,1,0.5750,-0.2875,1.0625*
1,1,0.5750,0.2875,1.0625*
1,1,0.5750,0.2875,-1.0625*
1,1,0.5750,-0.2875,-1.0625*
%
%ADD47ROUNDEDRECTD47*%
G04:AMPARAMS|DCode=48|XSize=1.15mm|YSize=1.8mm|CornerRadius=0.2875mm|HoleSize=0mm|Usage=FLASHONLY|Rotation=270.000|XOffset=0mm|YOffset=0mm|HoleType=Round|Shape=RoundedRectangle|*
%AMROUNDEDRECTD48*
21,1,1.1500,1.2250,0,0,270.0*
21,1,0.5750,1.8000,0,0,270.0*
1,1,0.5750,-0.6125,-0.2875*
1,1,0.5750,-0.6125,0.2875*
1,1,0.5750,0.6125,0.2875*
1,1,0.5750,0.6125,-0.2875*
%
%ADD48ROUNDEDRECTD48*%
G04:AMPARAMS|DCode=49|XSize=1.125mm|YSize=1.75mm|CornerRadius=0.2813mm|HoleSize=0mm|Usage=FLASHONLY|Rotation=180.000|XOffset=0mm|YOffset=0mm|HoleType=Round|Shape=RoundedRectangle|*
%AMROUNDEDRECTD49*
21,1,1.1250,1.1875,0,0,180.0*
21,1,0.5625,1.7500,0,0,180.0*
1,1,0.5625,-0.2813,0.5938*
1,1,0.5625,0.2813,0.5938*
1,1,0.5625,0.2813,-0.5938*
1,1,0.5625,-0.2813,-0.5938*
%
%ADD49ROUNDEDRECTD49*%
G04:AMPARAMS|DCode=50|XSize=1.15mm|YSize=1.8mm|CornerRadius=0.2875mm|HoleSize=0mm|Usage=FLASHONLY|Rotation=0.000|XOffset=0mm|YOffset=0mm|HoleType=Round|Shape=RoundedRectangle|*
%AMROUNDEDRECTD50*
21,1,1.1500,1.2250,0,0,0.0*
21,1,0.5750,1.8000,0,0,0.0*
1,1,0.5750,0.2875,-0.6125*
1,1,0.5750,-0.2875,-0.6125*
1,1,0.5750,-0.2875,0.6125*
1,1,0.5750,0.2875,0.6125*
%
%ADD50ROUNDEDRECTD50*%
G04:AMPARAMS|DCode=51|XSize=0.8mm|YSize=0.95mm|CornerRadius=0.2mm|HoleSize=0mm|Usage=FLASHONLY|Rotation=270.000|XOffset=0mm|YOffset=0mm|HoleType=Round|Shape=RoundedRectangle|*
%AMROUNDEDRECTD51*
21,1,0.8000,0.5500,0,0,270.0*
21,1,0.4000,0.9500,0,0,270.0*
1,1,0.4000,-0.2750,-0.2000*
1,1,0.4000,-0.2750,0.2000*
1,1,0.4000,0.2750,0.2000*
1,1,0.4000,0.2750,-0.2000*
%
%ADD51ROUNDEDRECTD51*%
%ADD52O,0.6000X0.2500*%
%ADD53O,0.2500X0.6000*%
%ADD54R,3.4500X3.4500*%
G04:AMPARAMS|DCode=55|XSize=1.15mm|YSize=2.7mm|CornerRadius=0.2875mm|HoleSize=0mm|Usage=FLASHONLY|Rotation=90.000|XOffset=0mm|YOffset=0mm|HoleType=Round|Shape=RoundedRectangle|*
%AMROUNDEDRECTD55*
21,1,1.1500,2.1250,0,0,90.0*
21,1,0.5750,2.7000,0,0,90.0*
1,1,0.5750,1.0625,0.2875*
1,1,0.5750,1.0625,-0.2875*
1,1,0.5750,-1.0625,-0.2875*
1,1,0.5750,-1.0625,0.2875*
%
%ADD55ROUNDEDRECTD55*%
G04:AMPARAMS|DCode=56|XSize=1.25mm|YSize=0.59mm|CornerRadius=0.0738mm|HoleSize=0mm|Usage=FLASHONLY|Rotation=0.000|XOffset=0mm|YOffset=0mm|HoleType=Round|Shape=RoundedRectangle|*
%AMROUNDEDRECTD56*
21,1,1.2500,0.4425,0,0,0.0*
21,1,1.1025,0.5900,0,0,0.0*
1,1,0.1475,0.5513,-0.2213*
1,1,0.1475,-0.5513,-0.2213*
1,1,0.1475,-0.5513,0.2213*
1,1,0.1475,0.5513,0.2213*
%
%ADD56ROUNDEDRECTD56*%
G04:AMPARAMS|DCode=57|XSize=1mm|YSize=1.45mm|CornerRadius=0.125mm|HoleSize=0mm|Usage=FLASHONLY|Rotation=270.000|XOffset=0mm|YOffset=0mm|HoleType=Round|Shape=RoundedRectangle|*
%AMROUNDEDRECTD57*
21,1,1.0000,1.2000,0,0,270.0*
21,1,0.7500,1.4500,0,0,270.0*
1,1,0.2500,-0.6000,-0.3750*
1,1,0.2500,-0.6000,0.3750*
1,1,0.2500,0.6000,0.3750*
1,1,0.2500,0.6000,-0.3750*
%
%ADD57ROUNDEDRECTD57*%
G04:AMPARAMS|DCode=58|XSize=1mm|YSize=1.45mm|CornerRadius=0.125mm|HoleSize=0mm|Usage=FLASHONLY|Rotation=180.000|XOffset=0mm|YOffset=0mm|HoleType=Round|Shape=RoundedRectangle|*
%AMROUNDEDRECTD58*
21,1,1.0000,1.2000,0,0,180.0*
21,1,0.7500,1.4500,0,0,180.0*
1,1,0.2500,-0.3750,0.6000*
1,1,0.2500,0.3750,0.6000*
1,1,0.2500,0.3750,-0.6000*
1,1,0.2500,-0.3750,-0.6000*
%
%ADD58ROUNDEDRECTD58*%
%ADD59R,1.1500X0.6000*%
%ADD60R,0.6000X1.2500*%
%ADD61R,1.1500X0.3000*%
%ADD62C,1.5300*%
%ADD63R,1.5300X1.5300*%
%ADD64C,1.8000*%
%ADD65C,1.6000*%
G04:AMPARAMS|DCode=66|XSize=1.6mm|YSize=1.6mm|CornerRadius=0.4mm|HoleSize=0mm|Usage=FLASHONLY|Rotation=0.000|XOffset=0mm|YOffset=0mm|HoleType=Round|Shape=RoundedRectangle|*
%AMROUNDEDRECTD66*
21,1,1.6000,0.8000,0,0,0.0*
21,1,0.8000,1.6000,0,0,0.0*
1,1,0.8000,0.4000,-0.4000*
1,1,0.8000,-0.4000,-0.4000*
1,1,0.8000,-0.4000,0.4000*
1,1,0.8000,0.4000,0.4000*
%
%ADD66ROUNDEDRECTD66*%
G04:AMPARAMS|DCode=67|XSize=1.6mm|YSize=1.6mm|CornerRadius=0.4mm|HoleSize=0mm|Usage=FLASHONLY|Rotation=270.000|XOffset=0mm|YOffset=0mm|HoleType=Round|Shape=RoundedRectangle|*
%AMROUNDEDRECTD67*
21,1,1.6000,0.8000,0,0,270.0*
21,1,0.8000,1.6000,0,0,270.0*
1,1,0.8000,-0.4000,-0.4000*
1,1,0.8000,-0.4000,0.4000*
1,1,0.8000,0.4000,0.4000*
1,1,0.8000,0.4000,-0.4000*
%
%ADD67ROUNDEDRECTD67*%
%ADD68R,1.3700X1.3700*%
%ADD69C,1.3700*%
%ADD70C,1.2280*%
%ADD71C,1.6002*%
%ADD72R,1.5300X1.5300*%
%ADD73C,1.3080*%
%ADD74R,1.3080X1.3080*%
%ADD75C,2.0790*%
%ADD76C,0.6500*%
G04:AMPARAMS|DCode=77|XSize=1.8mm|YSize=1mm|CornerRadius=0.25mm|HoleSize=0mm|Usage=FLASHONLY|Rotation=0.000|XOffset=0mm|YOffset=0mm|HoleType=Round|Shape=RoundedRectangle|*
%AMROUNDEDRECTD77*
21,1,1.8000,0.5000,0,0,0.0*
21,1,1.3000,1.0000,0,0,0.0*
1,1,0.5000,0.6500,-0.2500*
1,1,0.5000,-0.6500,-0.2500*
1,1,0.5000,-0.6500,0.2500*
1,1,0.5000,0.6500,0.2500*
%
%ADD77ROUNDEDRECTD77*%
%ADD78O,2.1000X1.0000*%
D42*
X102650Y726801D02*
D03*
X92650D02*
D03*
X97650Y713001D02*
D03*
X102650D02*
D03*
X92650D02*
D03*
X97650Y726801D02*
D03*
D43*
X665000Y765875D02*
D03*
Y795125D02*
D03*
X568000Y765875D02*
D03*
Y795125D02*
D03*
D44*
Y888500D02*
D03*
X665000Y876500D02*
D03*
Y847500D02*
D03*
X659250Y49000D02*
D03*
X562250Y90000D02*
D03*
Y61000D02*
D03*
D45*
X568000Y844500D02*
D03*
X665000Y909500D02*
D03*
X562250Y28000D02*
D03*
X659250Y93000D02*
D03*
D46*
X432250Y448250D02*
D03*
X415750D02*
D03*
Y503000D02*
D03*
X110625Y483495D02*
D03*
X127125D02*
D03*
X110625Y468745D02*
D03*
X127125D02*
D03*
X127250Y363770D02*
D03*
X110750D02*
D03*
X327750Y466000D02*
D03*
X311250D02*
D03*
X432250Y503000D02*
D03*
X127250Y349020D02*
D03*
X110750D02*
D03*
X127125Y436875D02*
D03*
X127250Y317150D02*
D03*
X432250Y463000D02*
D03*
X127250Y331900D02*
D03*
X110750D02*
D03*
Y317150D02*
D03*
X415750Y463000D02*
D03*
X127125Y451625D02*
D03*
X110625D02*
D03*
Y436875D02*
D03*
X66450Y666401D02*
D03*
X82950D02*
D03*
D47*
X476425Y511850D02*
D03*
X446925D02*
D03*
X78000Y894500D02*
D03*
X296600Y457150D02*
D03*
X267100D02*
D03*
X107500Y894500D02*
D03*
D48*
X318500Y653428D02*
D03*
Y623927D02*
D03*
X342000Y624000D02*
D03*
Y653500D02*
D03*
X505500Y624000D02*
D03*
Y653500D02*
D03*
X482250D02*
D03*
Y624000D02*
D03*
X458750Y653500D02*
D03*
Y624000D02*
D03*
X435500D02*
D03*
Y653500D02*
D03*
X412000Y624000D02*
D03*
Y653500D02*
D03*
X388750D02*
D03*
Y624000D02*
D03*
X365250Y653500D02*
D03*
Y624000D02*
D03*
X295250Y623927D02*
D03*
Y653428D02*
D03*
X271750Y623900D02*
D03*
Y653400D02*
D03*
X248250Y653500D02*
D03*
Y624000D02*
D03*
X225000D02*
D03*
Y653500D02*
D03*
D49*
X248250Y673400D02*
D03*
X277500D02*
D03*
X78125Y867250D02*
D03*
X240048Y29750D02*
D03*
X269298D02*
D03*
X117508D02*
D03*
X146758D02*
D03*
X269298Y173250D02*
D03*
X240048D02*
D03*
X146758D02*
D03*
X117508D02*
D03*
X318500Y673400D02*
D03*
X347750D02*
D03*
X107375Y867250D02*
D03*
D50*
X269423Y196500D02*
D03*
X239923D02*
D03*
X117383D02*
D03*
X57700Y604901D02*
D03*
X117383Y53000D02*
D03*
X239923D02*
D03*
X146883Y196500D02*
D03*
X269423Y53000D02*
D03*
X146883D02*
D03*
X87200Y604901D02*
D03*
D51*
X525142Y552950D02*
D03*
Y536450D02*
D03*
X539900Y552950D02*
D03*
Y536450D02*
D03*
X392750Y443000D02*
D03*
Y426500D02*
D03*
X350750Y443000D02*
D03*
Y426500D02*
D03*
X43650Y666901D02*
D03*
X95900Y772901D02*
D03*
Y756401D02*
D03*
X43650Y683401D02*
D03*
D52*
X395750Y499500D02*
D03*
Y504500D02*
D03*
X347750Y499500D02*
D03*
Y489500D02*
D03*
Y469500D02*
D03*
X395750Y489500D02*
D03*
Y469500D02*
D03*
Y484500D02*
D03*
Y479500D02*
D03*
Y474500D02*
D03*
X347750Y494500D02*
D03*
X395750D02*
D03*
X347750Y504500D02*
D03*
Y484500D02*
D03*
Y474500D02*
D03*
Y479500D02*
D03*
D53*
X389250Y511000D02*
D03*
X364250Y463000D02*
D03*
X354250D02*
D03*
X369250D02*
D03*
X374250D02*
D03*
X379250D02*
D03*
X389250D02*
D03*
X384250D02*
D03*
X374250Y511000D02*
D03*
X359250D02*
D03*
X369250D02*
D03*
X379250D02*
D03*
X384250D02*
D03*
X354250D02*
D03*
X364250D02*
D03*
X359250Y463000D02*
D03*
D54*
X371750Y487000D02*
D03*
D55*
X341925Y411850D02*
D03*
Y382350D02*
D03*
X401600Y411850D02*
D03*
Y382350D02*
D03*
D56*
X133150Y614601D02*
D03*
X158250Y605101D02*
D03*
X133150Y546776D02*
D03*
X158250Y537276D02*
D03*
X133150D02*
D03*
Y556276D02*
D03*
Y624101D02*
D03*
Y605101D02*
D03*
X158250Y624101D02*
D03*
Y556276D02*
D03*
D57*
X114650Y607151D02*
D03*
X176800Y539326D02*
D03*
X114650Y539326D02*
D03*
X176800Y607151D02*
D03*
X114650Y626151D02*
D03*
Y558326D02*
D03*
X176800Y558326D02*
D03*
Y626151D02*
D03*
D58*
X42400Y804401D02*
D03*
X67450Y626151D02*
D03*
X63950Y683401D02*
D03*
X86450Y626151D02*
D03*
X82950Y683401D02*
D03*
X23400Y804401D02*
D03*
D59*
X70950Y711901D02*
D03*
Y775901D02*
D03*
Y767901D02*
D03*
Y719901D02*
D03*
D60*
X84450Y647401D02*
D03*
X66450D02*
D03*
D61*
X70950Y761401D02*
D03*
Y731401D02*
D03*
Y726401D02*
D03*
Y756401D02*
D03*
Y741401D02*
D03*
Y751401D02*
D03*
Y736401D02*
D03*
Y746401D02*
D03*
D62*
X630510Y793200D02*
D03*
X602490D02*
D03*
X500100Y511050D02*
D03*
X243400Y457950D02*
D03*
X297923Y196500D02*
D03*
X47250Y869000D02*
D03*
Y843600D02*
D03*
X400800Y358725D02*
D03*
X342725D02*
D03*
X438850Y141050D02*
D03*
X85000Y356400D02*
D03*
Y324530D02*
D03*
X340810Y53050D02*
D03*
X207600Y214700D02*
D03*
Y245755D02*
D03*
X85060Y244255D02*
D03*
Y100755D02*
D03*
X207600Y102255D02*
D03*
X297923Y53000D02*
D03*
X175383Y196500D02*
D03*
X340750Y20500D02*
D03*
X175383Y53000D02*
D03*
X84875Y444255D02*
D03*
Y476125D02*
D03*
X57656Y561050D02*
D03*
X667256Y484850D02*
D03*
X271750Y595650D02*
D03*
X306750Y595727D02*
D03*
X353500Y595750D02*
D03*
X493750Y595750D02*
D03*
X447000Y595750D02*
D03*
X400250Y595750D02*
D03*
X236500Y595800D02*
D03*
D63*
X630510Y767800D02*
D03*
X602490D02*
D03*
X500100Y536450D02*
D03*
X243400Y432550D02*
D03*
X47250Y894400D02*
D03*
X85060Y269655D02*
D03*
X57656Y535650D02*
D03*
X207600Y189300D02*
D03*
Y271155D02*
D03*
X85060Y126155D02*
D03*
X207600Y127655D02*
D03*
X667256Y459450D02*
D03*
D64*
X614000Y907500D02*
D03*
Y847500D02*
D03*
X613250Y30000D02*
D03*
Y90000D02*
D03*
D65*
X522620Y140800D02*
D03*
X400080D02*
D03*
X269423Y88500D02*
D03*
Y232000D02*
D03*
X146883Y230500D02*
D03*
Y87000D02*
D03*
D66*
X472620Y140800D02*
D03*
X350080D02*
D03*
D67*
X269423Y138500D02*
D03*
Y282000D02*
D03*
X146883Y280500D02*
D03*
Y137000D02*
D03*
D68*
X591058Y601690D02*
D03*
Y332450D02*
D03*
D69*
Y576290D02*
D03*
X565658Y281650D02*
D03*
X591058Y525490D02*
D03*
X565658Y154650D02*
D03*
X591058D02*
D03*
X565658Y180050D02*
D03*
X591058D02*
D03*
X565658Y205450D02*
D03*
X591058D02*
D03*
X565658Y230850D02*
D03*
X591058D02*
D03*
X565658Y256250D02*
D03*
X591058D02*
D03*
Y281650D02*
D03*
X565658Y307050D02*
D03*
X591058D02*
D03*
X565658Y332450D02*
D03*
Y423890D02*
D03*
Y500090D02*
D03*
Y449290D02*
D03*
Y474690D02*
D03*
Y373090D02*
D03*
X591058D02*
D03*
X565658Y398490D02*
D03*
X591058D02*
D03*
Y423890D02*
D03*
Y449290D02*
D03*
Y474690D02*
D03*
Y500090D02*
D03*
X565658Y525490D02*
D03*
Y550890D02*
D03*
X591058D02*
D03*
X565658Y576290D02*
D03*
Y601690D02*
D03*
D70*
X629000Y714250D02*
D03*
X604000D02*
D03*
D71*
X194850Y907500D02*
D03*
X220250D02*
D03*
X169450D02*
D03*
X30000Y232150D02*
D03*
X467325Y907500D02*
D03*
X318388D02*
D03*
X30000Y88650D02*
D03*
Y353150D02*
D03*
Y327750D02*
D03*
Y206750D02*
D03*
Y181350D02*
D03*
Y37850D02*
D03*
Y63250D02*
D03*
X518125Y907500D02*
D03*
X29875Y447475D02*
D03*
Y472875D02*
D03*
X492725Y907500D02*
D03*
X343787D02*
D03*
X369188D02*
D03*
D72*
X426200Y358725D02*
D03*
X317325D02*
D03*
D73*
X446350Y38500D02*
D03*
X426350Y63500D02*
D03*
X406350Y38500D02*
D03*
X386350Y63500D02*
D03*
X406350D02*
D03*
X426350Y38500D02*
D03*
X446350Y63500D02*
D03*
X466350D02*
D03*
Y38500D02*
D03*
X486350D02*
D03*
Y63500D02*
D03*
D74*
X386350Y38500D02*
D03*
D75*
X370350Y79000D02*
D03*
X502350Y23000D02*
D03*
D76*
X60200Y772801D02*
D03*
Y715001D02*
D03*
D77*
X23400Y787101D02*
D03*
Y700701D02*
D03*
D78*
X65200Y787101D02*
D03*
Y700701D02*
D03*
M02*
