G04*
G04 #@! TF.GenerationSoftware,Altium Limited,Altium Designer,26.6.0 (10)*
G04*
G04 Layer_Physical_Order=2*
G04 Layer_Color=16711680*
G04 Board_Origin=9960630|35954724*
%FSLAX44Y44*%
%MOMM*%
G71*
G04*
G04 #@! TF.SameCoordinates,5C4F4FCD-0276-4C2B-93F7-1AEF511F468A*
G04*
G04*
G04 #@! TF.FilePolarity,Positive*
G04*
G01*
G75*
%ADD62C,1.5300*%
%ADD63R,1.5300X1.5300*%
%ADD64C,1.8000*%
%ADD65C,1.6000*%
G04:AMPARAMS|DCode=66|XSize=1.6mm|YSize=1.6mm|CornerRadius=0.4mm|HoleSize=0mm|Usage=FLASHONLY|Rotation=0.000|XOffset=0mm|YOffset=0mm|HoleType=Round|Shape=RoundedRectangle|*
%AMROUNDEDRECTD66*
21,1,1.6000,0.8000,0,0,0.0*
21,1,0.8000,1.6000,0,0,0.0*
1,1,0.8000,0.4000,-0.4000*
1,1,0.8000,-0.4000,-0.4000*
1,1,0.8000,-0.4000,0.4000*
1,1,0.8000,0.4000,0.4000*
%
%ADD66ROUNDEDRECTD66*%
G04:AMPARAMS|DCode=67|XSize=1.6mm|YSize=1.6mm|CornerRadius=0.4mm|HoleSize=0mm|Usage=FLASHONLY|Rotation=270.000|XOffset=0mm|YOffset=0mm|HoleType=Round|Shape=RoundedRectangle|*
%AMROUNDEDRECTD67*
21,1,1.6000,0.8000,0,0,270.0*
21,1,0.8000,1.6000,0,0,270.0*
1,1,0.8000,-0.4000,-0.4000*
1,1,0.8000,-0.4000,0.4000*
1,1,0.8000,0.4000,0.4000*
1,1,0.8000,0.4000,-0.4000*
%
%ADD67ROUNDEDRECTD67*%
%ADD68R,1.3700X1.3700*%
%ADD69C,1.3700*%
%ADD70C,1.2280*%
%ADD71C,1.6002*%
%ADD72R,1.5300X1.5300*%
%ADD73C,1.3080*%
%ADD74R,1.3080X1.3080*%
%ADD76C,0.6500*%
G04:AMPARAMS|DCode=77|XSize=1.8mm|YSize=1mm|CornerRadius=0.25mm|HoleSize=0mm|Usage=FLASHONLY|Rotation=0.000|XOffset=0mm|YOffset=0mm|HoleType=Round|Shape=RoundedRectangle|*
%AMROUNDEDRECTD77*
21,1,1.8000,0.5000,0,0,0.0*
21,1,1.3000,1.0000,0,0,0.0*
1,1,0.5000,0.6500,-0.2500*
1,1,0.5000,-0.6500,-0.2500*
1,1,0.5000,-0.6500,0.2500*
1,1,0.5000,0.6500,0.2500*
%
%ADD77ROUNDEDRECTD77*%
%ADD78O,2.1000X1.0000*%
%ADD79C,0.5080*%
%ADD80C,0.2500*%
%ADD81C,0.2540*%
%ADD82C,1.0000*%
%ADD88C,0.5000*%
%ADD90C,1.8750*%
%ADD91C,0.6000*%
%ADD92C,0.6350*%
G36*
X696666Y512401D02*
X695493Y511915D01*
X628119Y579289D01*
Y608658D01*
X627717Y610677D01*
X626573Y612389D01*
X626573Y612389D01*
X623981Y614981D01*
X623981Y614981D01*
X606648Y632314D01*
X604936Y633458D01*
X602917Y633859D01*
X275090D01*
X274773Y634579D01*
X274700Y635129D01*
X275989Y636418D01*
X276750Y638255D01*
Y640245D01*
X275989Y642082D01*
X274582Y643489D01*
X273687Y643860D01*
X70673Y846873D01*
X69171Y847877D01*
X67400Y848229D01*
X67400Y848229D01*
X55720D01*
X54972Y849525D01*
X53175Y851322D01*
X50975Y852592D01*
X48520Y853250D01*
X45979D01*
X43525Y852592D01*
X41325Y851322D01*
X39528Y849525D01*
X38258Y847325D01*
X37600Y844870D01*
Y842329D01*
X38258Y839875D01*
X39528Y837675D01*
X41325Y835878D01*
X43525Y834608D01*
X45979Y833950D01*
X48520D01*
X50975Y834608D01*
X53175Y835878D01*
X54972Y837675D01*
X55720Y838971D01*
X65483D01*
X267140Y637313D01*
X267511Y636418D01*
X268800Y635129D01*
X268727Y634579D01*
X268410Y633859D01*
X193268D01*
X149397Y677731D01*
X147685Y678875D01*
X145666Y679276D01*
X125936D01*
X107451Y697761D01*
Y701471D01*
X107625Y701731D01*
X108026Y703750D01*
X107625Y705769D01*
X106481Y707481D01*
X104769Y708625D01*
X102750Y709026D01*
X100731Y708625D01*
X99019Y707481D01*
X98528Y706990D01*
X98164Y706818D01*
X97336D01*
X96972Y706990D01*
X96481Y707481D01*
X94769Y708625D01*
X92750Y709026D01*
X90731Y708625D01*
X89019Y707481D01*
X87875Y705769D01*
X87474Y703750D01*
X87875Y701731D01*
X88049Y701471D01*
Y691909D01*
X88450Y689890D01*
X89594Y688178D01*
X116353Y661419D01*
X118065Y660275D01*
X120084Y659874D01*
X139815D01*
X157511Y642177D01*
X157511Y642177D01*
X157511Y642177D01*
X181094Y618594D01*
X183686Y616002D01*
X185398Y614858D01*
X187417Y614457D01*
X597066D01*
X599712Y611810D01*
X599186Y610540D01*
X598970Y610540D01*
Y610540D01*
X598937Y610540D01*
X582208D01*
Y592840D01*
X599908D01*
X599908Y609569D01*
Y609602D01*
Y609603D01*
X599908Y609818D01*
X600276Y609971D01*
X601178Y610344D01*
X608716Y602807D01*
Y573438D01*
X609117Y571419D01*
X610261Y569707D01*
X679155Y500813D01*
Y482480D01*
X678526Y481851D01*
X677636D01*
X676695Y482793D01*
X676906Y483580D01*
Y486120D01*
X676248Y488575D01*
X674978Y490775D01*
X673181Y492572D01*
X670981Y493842D01*
X668526Y494500D01*
X665985D01*
X663531Y493842D01*
X661331Y492572D01*
X659534Y490775D01*
X658264Y488575D01*
X657606Y486120D01*
Y483580D01*
X658264Y481125D01*
X659534Y478925D01*
X661331Y477128D01*
X663531Y475858D01*
X665985Y475200D01*
X668526D01*
X669187Y475377D01*
X671636Y472928D01*
X671808Y472564D01*
Y471736D01*
X671636Y471372D01*
X669364Y469100D01*
X657606D01*
Y449800D01*
X676906D01*
Y461718D01*
X677636Y462449D01*
X684377D01*
X686396Y462850D01*
X688108Y463994D01*
X695493Y471379D01*
X696666Y470893D01*
Y3334D01*
X539704D01*
X539579Y4604D01*
X540606Y4808D01*
X542108Y5812D01*
X602667Y66371D01*
X657360D01*
X658255Y66000D01*
X660245D01*
X662082Y66761D01*
X663489Y68168D01*
X664250Y70005D01*
Y71995D01*
X663489Y73832D01*
X662082Y75239D01*
X660245Y76000D01*
X658255D01*
X657360Y75629D01*
X600750D01*
X600750Y75629D01*
X598979Y75277D01*
X597477Y74273D01*
X597477Y74273D01*
X536918Y13714D01*
X510947D01*
X510420Y14984D01*
X511452Y16016D01*
X512950Y18609D01*
X513725Y21502D01*
Y24498D01*
X512950Y27391D01*
X511452Y29984D01*
X509334Y32102D01*
X506740Y33600D01*
X503848Y34375D01*
X500852D01*
X497959Y33600D01*
X495366Y32102D01*
X493248Y29984D01*
X491750Y27391D01*
X490975Y24498D01*
Y21502D01*
X491750Y18609D01*
X493248Y16016D01*
X494279Y14984D01*
X493753Y13714D01*
X437682D01*
X421320Y30077D01*
X422099Y31093D01*
X423054Y30542D01*
X425226Y29960D01*
X427474D01*
X429646Y30542D01*
X431594Y31666D01*
X433184Y33256D01*
X434308Y35204D01*
X434890Y37376D01*
Y39624D01*
X434308Y41796D01*
X433184Y43744D01*
X431594Y45334D01*
X429646Y46458D01*
X427474Y47040D01*
X425226D01*
X423054Y46458D01*
X421106Y45334D01*
X419516Y43744D01*
X418392Y41796D01*
X417810Y39624D01*
Y37376D01*
X418392Y35204D01*
X418943Y34249D01*
X417927Y33470D01*
X414706Y36690D01*
X414890Y37376D01*
Y39624D01*
X414308Y41796D01*
X413184Y43744D01*
X411594Y45334D01*
X409646Y46458D01*
X407474Y47040D01*
X405226D01*
X403054Y46458D01*
X401106Y45334D01*
X399516Y43744D01*
X398392Y41796D01*
X397810Y39624D01*
Y37376D01*
X398392Y35204D01*
X399516Y33256D01*
X401106Y31666D01*
X403054Y30542D01*
X405226Y29960D01*
X407474D01*
X408160Y30144D01*
X432492Y5812D01*
X432492Y5812D01*
X433994Y4808D01*
X435021Y4604D01*
X434896Y3334D01*
X3334D01*
Y934166D01*
X696666D01*
Y512401D01*
D02*
G37*
%LPC*%
G36*
X170838Y918041D02*
X170720D01*
Y908770D01*
X179991D01*
Y908888D01*
X179273Y911569D01*
X177885Y913972D01*
X175922Y915935D01*
X173519Y917323D01*
X170838Y918041D01*
D02*
G37*
G36*
X468713D02*
X468595D01*
Y908770D01*
X477866D01*
Y908888D01*
X477148Y911569D01*
X475760Y913972D01*
X473797Y915935D01*
X471394Y917323D01*
X468713Y918041D01*
D02*
G37*
G36*
X319775D02*
X319657D01*
Y908770D01*
X328928D01*
Y908888D01*
X328210Y911569D01*
X326822Y913972D01*
X324860Y915935D01*
X322456Y917323D01*
X319775Y918041D01*
D02*
G37*
G36*
X466055D02*
X465937D01*
X463256Y917323D01*
X460853Y915935D01*
X458890Y913972D01*
X457502Y911569D01*
X456784Y908888D01*
Y908770D01*
X466055D01*
Y918041D01*
D02*
G37*
G36*
X168180D02*
X168062D01*
X165381Y917323D01*
X162978Y915935D01*
X161015Y913972D01*
X159627Y911569D01*
X158909Y908888D01*
Y908770D01*
X168180D01*
Y918041D01*
D02*
G37*
G36*
X317118D02*
X317000D01*
X314319Y917323D01*
X311915Y915935D01*
X309953Y913972D01*
X308565Y911569D01*
X307847Y908888D01*
Y908770D01*
X317118D01*
Y918041D01*
D02*
G37*
G36*
X494042Y917501D02*
X491408D01*
X488865Y916820D01*
X486584Y915503D01*
X484722Y913641D01*
X483405Y911360D01*
X482724Y908817D01*
Y906183D01*
X483176Y904497D01*
X381476Y802797D01*
X355668D01*
X355668Y802797D01*
X353897Y802445D01*
X352395Y801441D01*
X352395Y801441D01*
X246313Y695360D01*
X245418Y694989D01*
X244011Y693582D01*
X243250Y691745D01*
Y689755D01*
X244011Y687918D01*
X245418Y686511D01*
X247255Y685750D01*
X249245D01*
X251082Y686511D01*
X252489Y687918D01*
X252860Y688813D01*
X357585Y793539D01*
X383393D01*
X383393Y793539D01*
X385164Y793892D01*
X386666Y794895D01*
X489722Y897951D01*
X491408Y897499D01*
X494042D01*
X496585Y898180D01*
X498866Y899497D01*
X500728Y901359D01*
X502044Y903640D01*
X502726Y906183D01*
Y908817D01*
X502044Y911360D01*
X500728Y913641D01*
X498866Y915503D01*
X496585Y916820D01*
X494042Y917501D01*
D02*
G37*
G36*
X370504D02*
X367871D01*
X365327Y916820D01*
X363047Y915503D01*
X361185Y913641D01*
X359868Y911360D01*
X359187Y908817D01*
Y906183D01*
X359868Y903640D01*
X361185Y901359D01*
X363047Y899497D01*
X365327Y898180D01*
X367871Y897499D01*
X370504D01*
X373048Y898180D01*
X375328Y899497D01*
X377190Y901359D01*
X378507Y903640D01*
X379188Y906183D01*
Y908817D01*
X378507Y911360D01*
X377190Y913641D01*
X375328Y915503D01*
X373048Y916820D01*
X370504Y917501D01*
D02*
G37*
G36*
X345104D02*
X342471D01*
X339927Y916820D01*
X337647Y915503D01*
X335785Y913641D01*
X334468Y911360D01*
X333787Y908817D01*
Y906183D01*
X334468Y903640D01*
X335785Y901359D01*
X337647Y899497D01*
X339927Y898180D01*
X342471Y897499D01*
X345104D01*
X347648Y898180D01*
X349928Y899497D01*
X351790Y901359D01*
X353107Y903640D01*
X353788Y906183D01*
Y908817D01*
X353107Y911360D01*
X351790Y913641D01*
X349928Y915503D01*
X347648Y916820D01*
X345104Y917501D01*
D02*
G37*
G36*
X221567D02*
X218933D01*
X216390Y916820D01*
X214109Y915503D01*
X212247Y913641D01*
X210931Y911360D01*
X210249Y908817D01*
Y906183D01*
X210931Y903640D01*
X212247Y901359D01*
X214109Y899497D01*
X216390Y898180D01*
X218933Y897499D01*
X221567D01*
X224110Y898180D01*
X226391Y899497D01*
X228253Y901359D01*
X229569Y903640D01*
X230251Y906183D01*
Y908817D01*
X229569Y911360D01*
X228253Y913641D01*
X226391Y915503D01*
X224110Y916820D01*
X221567Y917501D01*
D02*
G37*
G36*
X196167D02*
X193533D01*
X190990Y916820D01*
X188709Y915503D01*
X186847Y913641D01*
X185530Y911360D01*
X184849Y908817D01*
Y906183D01*
X185530Y903640D01*
X186847Y901359D01*
X188709Y899497D01*
X190990Y898180D01*
X193533Y897499D01*
X196167D01*
X198710Y898180D01*
X200991Y899497D01*
X202853Y901359D01*
X204170Y903640D01*
X204851Y906183D01*
Y908817D01*
X204170Y911360D01*
X202853Y913641D01*
X200991Y915503D01*
X198710Y916820D01*
X196167Y917501D01*
D02*
G37*
G36*
X477866Y906230D02*
X468595D01*
Y896959D01*
X468713D01*
X471394Y897677D01*
X473797Y899065D01*
X475760Y901028D01*
X477148Y903431D01*
X477866Y906112D01*
Y906230D01*
D02*
G37*
G36*
X466055D02*
X456784D01*
Y906112D01*
X457502Y903431D01*
X458890Y901028D01*
X460853Y899065D01*
X463256Y897677D01*
X465937Y896959D01*
X466055D01*
Y906230D01*
D02*
G37*
G36*
X328928D02*
X319657D01*
Y896959D01*
X319775D01*
X322456Y897677D01*
X324860Y899065D01*
X326822Y901028D01*
X328210Y903431D01*
X328928Y906112D01*
Y906230D01*
D02*
G37*
G36*
X317118D02*
X307847D01*
Y906112D01*
X308565Y903431D01*
X309953Y901028D01*
X311915Y899065D01*
X314319Y897677D01*
X317000Y896959D01*
X317118D01*
Y906230D01*
D02*
G37*
G36*
X179991D02*
X170720D01*
Y896959D01*
X170838D01*
X173519Y897677D01*
X175922Y899065D01*
X177885Y901028D01*
X179273Y903431D01*
X179991Y906112D01*
Y906230D01*
D02*
G37*
G36*
X168180D02*
X158909D01*
Y906112D01*
X159627Y903431D01*
X161015Y901028D01*
X162978Y899065D01*
X165381Y897677D01*
X168062Y896959D01*
X168180D01*
Y906230D01*
D02*
G37*
G36*
X615448Y918500D02*
X612552D01*
X609754Y917750D01*
X607246Y916302D01*
X605198Y914254D01*
X603750Y911746D01*
X603000Y908948D01*
Y906052D01*
X603750Y903254D01*
X605198Y900746D01*
X607246Y898698D01*
X609754Y897250D01*
X612552Y896500D01*
X615448D01*
X618246Y897250D01*
X620754Y898698D01*
X622802Y900746D01*
X624250Y903254D01*
X625000Y906052D01*
Y908948D01*
X624250Y911746D01*
X622802Y914254D01*
X620754Y916302D01*
X618246Y917750D01*
X615448Y918500D01*
D02*
G37*
G36*
X56900Y904050D02*
X37600D01*
Y884750D01*
X56900D01*
Y904050D01*
D02*
G37*
G36*
X48520Y878650D02*
X45979D01*
X43525Y877992D01*
X41325Y876722D01*
X39528Y874925D01*
X38258Y872725D01*
X37600Y870270D01*
Y867729D01*
X38258Y865275D01*
X39528Y863075D01*
X41325Y861278D01*
X43525Y860008D01*
X45979Y859350D01*
X48520D01*
X50975Y860008D01*
X53175Y861278D01*
X54972Y863075D01*
X55720Y864371D01*
X396833D01*
X399613Y861591D01*
X399613Y861588D01*
X400617Y860086D01*
X406464Y854239D01*
X407011Y852918D01*
X408418Y851511D01*
X410255Y850750D01*
X412245D01*
X414082Y851511D01*
X415489Y852918D01*
X416250Y854755D01*
Y856745D01*
X415489Y858582D01*
X414082Y859989D01*
X413611Y860184D01*
X408167Y865628D01*
X408166Y865632D01*
X407163Y867133D01*
X407163Y867133D01*
X402023Y872273D01*
X400521Y873277D01*
X398750Y873629D01*
X398750Y873629D01*
X55720D01*
X54972Y874925D01*
X53175Y876722D01*
X50975Y877992D01*
X48520Y878650D01*
D02*
G37*
G36*
X615448Y858500D02*
X612552D01*
X609754Y857750D01*
X607246Y856302D01*
X605198Y854254D01*
X603750Y851746D01*
X603000Y848948D01*
Y846052D01*
X603750Y843254D01*
X605198Y840746D01*
X607246Y838698D01*
X609754Y837250D01*
X612552Y836500D01*
X615448D01*
X618246Y837250D01*
X620754Y838698D01*
X622802Y840746D01*
X624250Y843254D01*
X625000Y846052D01*
Y848948D01*
X624250Y851746D01*
X622802Y854254D01*
X620754Y856302D01*
X618246Y857750D01*
X615448Y858500D01*
D02*
G37*
G36*
X547745Y800250D02*
X545755D01*
X544709Y799816D01*
X512938D01*
X511166Y799464D01*
X509664Y798461D01*
X509664Y798461D01*
X389333Y678129D01*
X307890D01*
X306995Y678500D01*
X305005D01*
X303168Y677739D01*
X301761Y676332D01*
X301000Y674495D01*
Y672505D01*
X301761Y670668D01*
X303168Y669261D01*
X305005Y668500D01*
X306995D01*
X307890Y668871D01*
X391250D01*
X391250Y668871D01*
X393021Y669223D01*
X394523Y670227D01*
X514855Y790558D01*
X545011D01*
X545755Y790250D01*
X547745D01*
X549582Y791011D01*
X550989Y792418D01*
X551750Y794255D01*
Y796245D01*
X550989Y798082D01*
X549582Y799489D01*
X547745Y800250D01*
D02*
G37*
G36*
X631781Y802850D02*
X629240D01*
X626785Y802192D01*
X624585Y800922D01*
X622788Y799125D01*
X621518Y796925D01*
X620860Y794471D01*
Y791930D01*
X621518Y789475D01*
X622788Y787275D01*
X624585Y785478D01*
X626785Y784208D01*
X629240Y783550D01*
X631781D01*
X634235Y784208D01*
X636435Y785478D01*
X638232Y787275D01*
X639502Y789475D01*
X640160Y791930D01*
Y794471D01*
X639502Y796925D01*
X638232Y799125D01*
X636435Y800922D01*
X634235Y802192D01*
X631781Y802850D01*
D02*
G37*
G36*
X603760D02*
X601219D01*
X598765Y802192D01*
X596565Y800922D01*
X594768Y799125D01*
X593498Y796925D01*
X592840Y794471D01*
Y791930D01*
X593498Y789475D01*
X594768Y787275D01*
X596565Y785478D01*
X598765Y784208D01*
X601219Y783550D01*
X603760D01*
X606215Y784208D01*
X608415Y785478D01*
X610212Y787275D01*
X611482Y789475D01*
X612140Y791930D01*
Y794471D01*
X611482Y796925D01*
X610212Y799125D01*
X608415Y800922D01*
X606215Y802192D01*
X603760Y802850D01*
D02*
G37*
G36*
X70700Y794161D02*
X59700D01*
X57873Y793920D01*
X56170Y793215D01*
X54707Y792093D01*
X53585Y790631D01*
X52880Y788928D01*
X52639Y787101D01*
X52880Y785273D01*
X53585Y783570D01*
X54707Y782108D01*
X56170Y780986D01*
X57873Y780281D01*
X59700Y780040D01*
X70700D01*
X72527Y780281D01*
X74230Y780986D01*
X75692Y782108D01*
X76814Y783570D01*
X77520Y785273D01*
X77760Y787101D01*
X77520Y788928D01*
X76814Y790631D01*
X75692Y792093D01*
X74230Y793215D01*
X72527Y793920D01*
X70700Y794161D01*
D02*
G37*
G36*
X29900Y794189D02*
X16900D01*
X15144Y793839D01*
X13656Y792845D01*
X12661Y791356D01*
X12312Y789601D01*
Y784601D01*
X12661Y782845D01*
X13656Y781356D01*
X15144Y780362D01*
X16900Y780013D01*
X29900D01*
X31656Y780362D01*
X33144Y781356D01*
X34139Y782845D01*
X34488Y784601D01*
Y789601D01*
X34139Y791356D01*
X33144Y792845D01*
X31656Y793839D01*
X29900Y794189D01*
D02*
G37*
G36*
X61244Y778051D02*
X59156D01*
X57226Y777251D01*
X55749Y775775D01*
X54950Y773845D01*
Y771756D01*
X55749Y769827D01*
X57226Y768350D01*
X59156Y767551D01*
X61244D01*
X63174Y768350D01*
X64651Y769827D01*
X65450Y771756D01*
Y773845D01*
X64651Y775775D01*
X63174Y777251D01*
X61244Y778051D01*
D02*
G37*
G36*
X640160Y777450D02*
X620860D01*
Y758150D01*
X640160D01*
Y777450D01*
D02*
G37*
G36*
X612140D02*
X592840D01*
Y758150D01*
X612140D01*
Y777450D01*
D02*
G37*
G36*
X665995Y755500D02*
X664005D01*
X662168Y754739D01*
X660761Y753332D01*
X660390Y752437D01*
X649583Y741629D01*
X583417D01*
X572610Y752437D01*
X572239Y753332D01*
X570832Y754739D01*
X568995Y755500D01*
X567005D01*
X565168Y754739D01*
X563761Y753332D01*
X563000Y751495D01*
Y749505D01*
X563761Y747668D01*
X565168Y746261D01*
X566063Y745890D01*
X578227Y733727D01*
X578227Y733727D01*
X579729Y732723D01*
X581500Y732371D01*
X581500Y732371D01*
X651500D01*
X651500Y732371D01*
X653271Y732723D01*
X654773Y733727D01*
X666936Y745890D01*
X667832Y746261D01*
X669239Y747668D01*
X670000Y749505D01*
Y751495D01*
X669239Y753332D01*
X667832Y754739D01*
X665995Y755500D01*
D02*
G37*
G36*
X83894Y733901D02*
X81905D01*
X80068Y733139D01*
X79163Y732235D01*
X57750D01*
X56474Y731981D01*
X55392Y731258D01*
X41292Y717158D01*
X40570Y716077D01*
X40316Y714801D01*
Y706964D01*
Y696888D01*
X39411Y695983D01*
X38650Y694145D01*
Y692156D01*
X39411Y690318D01*
X40818Y688912D01*
X42655Y688151D01*
X44644D01*
X46482Y688912D01*
X47889Y690318D01*
X48650Y692156D01*
Y694145D01*
X47889Y695983D01*
X46984Y696888D01*
Y706964D01*
Y713420D01*
X59131Y725567D01*
X79163D01*
X80068Y724662D01*
X81905Y723901D01*
X83894D01*
X85732Y724662D01*
X87139Y726068D01*
X87900Y727906D01*
Y729895D01*
X87139Y731733D01*
X85732Y733139D01*
X83894Y733901D01*
D02*
G37*
G36*
X605270Y722896D02*
Y715520D01*
X612646D01*
X612089Y717600D01*
X610946Y719580D01*
X609330Y721196D01*
X607350Y722338D01*
X605270Y722896D01*
D02*
G37*
G36*
X602730D02*
X600650Y722338D01*
X598670Y721196D01*
X597054Y719580D01*
X595911Y717600D01*
X595354Y715520D01*
X602730D01*
Y722896D01*
D02*
G37*
G36*
X61244Y720251D02*
X59156D01*
X57226Y719451D01*
X55749Y717974D01*
X54950Y716045D01*
Y713956D01*
X55749Y712027D01*
X57226Y710550D01*
X59156Y709751D01*
X61244D01*
X63174Y710550D01*
X64651Y712027D01*
X65450Y713956D01*
Y716045D01*
X64651Y717974D01*
X63174Y719451D01*
X61244Y720251D01*
D02*
G37*
G36*
X630072Y722390D02*
X627928D01*
X625858Y721835D01*
X624002Y720764D01*
X622486Y719248D01*
X621415Y717392D01*
X620860Y715322D01*
Y713178D01*
X621415Y711108D01*
X622486Y709252D01*
X624002Y707736D01*
X625858Y706665D01*
X627928Y706110D01*
X630072D01*
X632142Y706665D01*
X633998Y707736D01*
X635514Y709252D01*
X636585Y711108D01*
X637140Y713178D01*
Y715322D01*
X636585Y717392D01*
X635514Y719248D01*
X633998Y720764D01*
X632142Y721835D01*
X630072Y722390D01*
D02*
G37*
G36*
X612646Y712980D02*
X605270D01*
Y705604D01*
X607350Y706161D01*
X609330Y707304D01*
X610946Y708920D01*
X612089Y710900D01*
X612646Y712980D01*
D02*
G37*
G36*
X602730D02*
X595354D01*
X595911Y710900D01*
X597054Y708920D01*
X598670Y707304D01*
X600650Y706161D01*
X602730Y705604D01*
Y712980D01*
D02*
G37*
G36*
X70700Y707761D02*
X59700D01*
X57873Y707520D01*
X56170Y706815D01*
X54707Y705693D01*
X53585Y704231D01*
X52880Y702528D01*
X52639Y700701D01*
X52880Y698873D01*
X53585Y697170D01*
X54707Y695708D01*
X56170Y694586D01*
X57873Y693881D01*
X59700Y693640D01*
X70700D01*
X72527Y693881D01*
X74230Y694586D01*
X75692Y695708D01*
X76814Y697170D01*
X77520Y698873D01*
X77760Y700701D01*
X77520Y702528D01*
X76814Y704231D01*
X75692Y705693D01*
X74230Y706815D01*
X72527Y707520D01*
X70700Y707761D01*
D02*
G37*
G36*
X29900Y707789D02*
X16900D01*
X15144Y707439D01*
X13656Y706445D01*
X12661Y704956D01*
X12312Y703201D01*
Y698201D01*
X12661Y696445D01*
X13656Y694956D01*
X15144Y693962D01*
X16900Y693613D01*
X29900D01*
X31656Y693962D01*
X33144Y694956D01*
X34139Y696445D01*
X34488Y698201D01*
Y703201D01*
X34139Y704956D01*
X33144Y706445D01*
X31656Y707439D01*
X29900Y707789D01*
D02*
G37*
G36*
X519442Y917501D02*
X516808D01*
X514265Y916820D01*
X511984Y915503D01*
X510122Y913641D01*
X508806Y911360D01*
X508124Y908817D01*
Y906183D01*
X508806Y903640D01*
X510122Y901359D01*
X511984Y899497D01*
X513496Y898624D01*
Y863042D01*
X345813Y695360D01*
X344918Y694989D01*
X343511Y693582D01*
X342750Y691745D01*
Y689755D01*
X343511Y687918D01*
X344918Y686511D01*
X346755Y685750D01*
X348745D01*
X350582Y686511D01*
X351989Y687918D01*
X352360Y688813D01*
X521398Y857852D01*
X522402Y859353D01*
X522754Y861125D01*
X522754Y861125D01*
Y898624D01*
X524266Y899497D01*
X526128Y901359D01*
X527444Y903640D01*
X528126Y906183D01*
Y908817D01*
X527444Y911360D01*
X526128Y913641D01*
X524266Y915503D01*
X521985Y916820D01*
X519442Y917501D01*
D02*
G37*
G36*
X684495Y800250D02*
X682505D01*
X680668Y799489D01*
X679261Y798082D01*
X678500Y796245D01*
Y794255D01*
X678871Y793360D01*
Y717917D01*
X608333Y647379D01*
X304417D01*
X294879Y656917D01*
Y671610D01*
X295250Y672505D01*
Y674495D01*
X294489Y676332D01*
X293082Y677739D01*
X291245Y678500D01*
X289255D01*
X287418Y677739D01*
X286011Y676332D01*
X285250Y674495D01*
Y672505D01*
X285621Y671610D01*
Y655000D01*
X285621Y655000D01*
X285973Y653229D01*
X286977Y651727D01*
X299227Y639477D01*
X299227Y639477D01*
X300729Y638473D01*
X302500Y638121D01*
X302500Y638121D01*
X610250D01*
X610250Y638121D01*
X612021Y638473D01*
X613523Y639477D01*
X686773Y712727D01*
X686773Y712727D01*
X687777Y714229D01*
X688129Y716000D01*
X688129Y716000D01*
Y793360D01*
X688500Y794255D01*
Y796245D01*
X687739Y798082D01*
X686332Y799489D01*
X684495Y800250D01*
D02*
G37*
G36*
X566823Y610540D02*
X564493D01*
X562242Y609937D01*
X560224Y608772D01*
X558576Y607124D01*
X557411Y605106D01*
X556808Y602855D01*
Y600525D01*
X557411Y598274D01*
X558576Y596256D01*
X560224Y594608D01*
X562242Y593443D01*
X564493Y592840D01*
X566823D01*
X569074Y593443D01*
X571092Y594608D01*
X572740Y596256D01*
X573905Y598274D01*
X574508Y600525D01*
Y602855D01*
X573905Y605106D01*
X572740Y607124D01*
X571092Y608772D01*
X569074Y609937D01*
X566823Y610540D01*
D02*
G37*
G36*
X134144Y642726D02*
X132155D01*
X130318Y641964D01*
X128911Y640558D01*
X128150Y638720D01*
Y636731D01*
X128562Y635737D01*
Y595714D01*
X128150Y594720D01*
Y592731D01*
X128911Y590893D01*
X130318Y589487D01*
X132155Y588726D01*
X134144D01*
X135982Y589487D01*
X137389Y590893D01*
X138150Y592731D01*
Y594720D01*
X137738Y595714D01*
Y635737D01*
X138150Y636731D01*
Y638720D01*
X137389Y640558D01*
X135982Y641964D01*
X134144Y642726D01*
D02*
G37*
G36*
X237771Y605450D02*
X235230D01*
X232775Y604792D01*
X230575Y603522D01*
X228778Y601725D01*
X227508Y599525D01*
X226850Y597070D01*
Y594529D01*
X227508Y592075D01*
X228778Y589875D01*
X230575Y588078D01*
X232775Y586808D01*
X235230Y586150D01*
X237771D01*
X240225Y586808D01*
X242425Y588078D01*
X244222Y589875D01*
X245492Y592075D01*
X246150Y594529D01*
Y597070D01*
X245492Y599525D01*
X244222Y601725D01*
X242425Y603522D01*
X240225Y604792D01*
X237771Y605450D01*
D02*
G37*
G36*
X401521Y605400D02*
X398980D01*
X396525Y604742D01*
X394325Y603472D01*
X392528Y601675D01*
X391258Y599475D01*
X390600Y597020D01*
Y594480D01*
X391258Y592025D01*
X392528Y589825D01*
X394325Y588028D01*
X396525Y586758D01*
X398980Y586100D01*
X401521D01*
X403975Y586758D01*
X406175Y588028D01*
X407972Y589825D01*
X409242Y592025D01*
X409900Y594480D01*
Y597020D01*
X409242Y599475D01*
X407972Y601675D01*
X406175Y603472D01*
X403975Y604742D01*
X401521Y605400D01*
D02*
G37*
G36*
X354771D02*
X352230D01*
X349775Y604742D01*
X347575Y603472D01*
X345778Y601675D01*
X344508Y599475D01*
X343850Y597020D01*
Y594480D01*
X344508Y592025D01*
X345778Y589825D01*
X347575Y588028D01*
X349775Y586758D01*
X352230Y586100D01*
X354771D01*
X357225Y586758D01*
X359425Y588028D01*
X361222Y589825D01*
X362492Y592025D01*
X363150Y594480D01*
Y597020D01*
X362492Y599475D01*
X361222Y601675D01*
X359425Y603472D01*
X357225Y604742D01*
X354771Y605400D01*
D02*
G37*
G36*
X495020Y605400D02*
X492480D01*
X490025Y604742D01*
X487825Y603472D01*
X486028Y601675D01*
X484758Y599475D01*
X484100Y597020D01*
Y594480D01*
X484758Y592025D01*
X486028Y589825D01*
X487825Y588028D01*
X490025Y586758D01*
X492480Y586100D01*
X495020D01*
X497475Y586758D01*
X499675Y588028D01*
X501472Y589825D01*
X502742Y592025D01*
X503400Y594480D01*
Y597020D01*
X502742Y599475D01*
X501472Y601675D01*
X499675Y603472D01*
X497475Y604742D01*
X495020Y605400D01*
D02*
G37*
G36*
X448270Y605400D02*
X445729D01*
X443275Y604742D01*
X441075Y603472D01*
X439278Y601675D01*
X438008Y599475D01*
X437350Y597020D01*
Y594479D01*
X438008Y592025D01*
X439278Y589825D01*
X441075Y588028D01*
X443275Y586758D01*
X445729Y586100D01*
X448270D01*
X450725Y586758D01*
X452925Y588028D01*
X454722Y589825D01*
X455992Y592025D01*
X456650Y594479D01*
Y597020D01*
X455992Y599475D01*
X454722Y601675D01*
X452925Y603472D01*
X450725Y604742D01*
X448270Y605400D01*
D02*
G37*
G36*
X308020Y605377D02*
X305480D01*
X303025Y604720D01*
X300825Y603449D01*
X299028Y601653D01*
X297758Y599452D01*
X297100Y596998D01*
Y594457D01*
X297758Y592003D01*
X299028Y589802D01*
X300825Y588005D01*
X303025Y586735D01*
X305480Y586077D01*
X308020D01*
X310475Y586735D01*
X312675Y588005D01*
X314472Y589802D01*
X315742Y592003D01*
X316400Y594457D01*
Y596998D01*
X315742Y599452D01*
X314472Y601653D01*
X312675Y603449D01*
X310475Y604720D01*
X308020Y605377D01*
D02*
G37*
G36*
X273020Y605300D02*
X270480D01*
X268025Y604642D01*
X265825Y603372D01*
X264028Y601575D01*
X262758Y599375D01*
X262100Y596920D01*
Y594380D01*
X262758Y591925D01*
X264028Y589725D01*
X265825Y587928D01*
X268025Y586658D01*
X270480Y586000D01*
X273020D01*
X275475Y586658D01*
X277675Y587928D01*
X279472Y589725D01*
X280742Y591925D01*
X281400Y594380D01*
Y596920D01*
X280742Y599375D01*
X279472Y601575D01*
X277675Y603372D01*
X275475Y604642D01*
X273020Y605300D01*
D02*
G37*
G36*
X592223Y585140D02*
X589893D01*
X587642Y584537D01*
X585624Y583372D01*
X583976Y581724D01*
X582811Y579706D01*
X582208Y577455D01*
Y575125D01*
X582811Y572874D01*
X583976Y570856D01*
X585624Y569208D01*
X587642Y568043D01*
X589893Y567440D01*
X592223D01*
X594474Y568043D01*
X596492Y569208D01*
X598140Y570856D01*
X599305Y572874D01*
X599908Y575125D01*
Y577455D01*
X599305Y579706D01*
X598140Y581724D01*
X596492Y583372D01*
X594474Y584537D01*
X592223Y585140D01*
D02*
G37*
G36*
X566823D02*
X564493D01*
X562242Y584537D01*
X560224Y583372D01*
X558576Y581724D01*
X557411Y579706D01*
X556808Y577455D01*
Y575125D01*
X557411Y572874D01*
X558576Y570856D01*
X560224Y569208D01*
X562242Y568043D01*
X564493Y567440D01*
X566823D01*
X569074Y568043D01*
X571092Y569208D01*
X572740Y570856D01*
X573905Y572874D01*
X574508Y575125D01*
Y577455D01*
X573905Y579706D01*
X572740Y581724D01*
X571092Y583372D01*
X569074Y584537D01*
X566823Y585140D01*
D02*
G37*
G36*
X512495Y578500D02*
X510505D01*
X508668Y577739D01*
X507261Y576332D01*
X506500Y574495D01*
Y572505D01*
X507261Y570668D01*
X508668Y569261D01*
X510505Y568500D01*
X512495D01*
X514332Y569261D01*
X515257Y570186D01*
X528877D01*
X531000Y568064D01*
Y566755D01*
X531761Y564918D01*
X533168Y563511D01*
X535005Y562750D01*
X536995D01*
X538832Y563511D01*
X540239Y564918D01*
X541000Y566755D01*
Y568745D01*
X540239Y570582D01*
X538832Y571989D01*
X536995Y572750D01*
X535686D01*
X532593Y575843D01*
X531518Y576561D01*
X530250Y576814D01*
X515257D01*
X514332Y577739D01*
X512495Y578500D01*
D02*
G37*
G36*
X58927Y570700D02*
X56385D01*
X53931Y570042D01*
X51731Y568772D01*
X49934Y566975D01*
X48664Y564775D01*
X48006Y562321D01*
Y559780D01*
X48664Y557325D01*
X49934Y555125D01*
X51731Y553328D01*
X53931Y552058D01*
X56385Y551400D01*
X58927D01*
X61381Y552058D01*
X63581Y553328D01*
X65378Y555125D01*
X66648Y557325D01*
X67306Y559780D01*
Y562321D01*
X66648Y564775D01*
X65378Y566975D01*
X63581Y568772D01*
X61381Y570042D01*
X58927Y570700D01*
D02*
G37*
G36*
X592223Y559740D02*
X589893D01*
X587642Y559137D01*
X585624Y557972D01*
X583976Y556324D01*
X582811Y554306D01*
X582208Y552055D01*
Y549725D01*
X582811Y547474D01*
X583976Y545456D01*
X585624Y543808D01*
X587642Y542643D01*
X589893Y542040D01*
X592223D01*
X594474Y542643D01*
X596492Y543808D01*
X598140Y545456D01*
X599305Y547474D01*
X599908Y549725D01*
Y552055D01*
X599305Y554306D01*
X598140Y556324D01*
X596492Y557972D01*
X594474Y559137D01*
X592223Y559740D01*
D02*
G37*
G36*
X566823D02*
X564493D01*
X562242Y559137D01*
X560224Y557972D01*
X558576Y556324D01*
X557411Y554306D01*
X556808Y552055D01*
Y549725D01*
X557411Y547474D01*
X558576Y545456D01*
X560224Y543808D01*
X562242Y542643D01*
X564493Y542040D01*
X566823D01*
X569074Y542643D01*
X571092Y543808D01*
X572740Y545456D01*
X573905Y547474D01*
X574508Y549725D01*
Y552055D01*
X573905Y554306D01*
X572740Y556324D01*
X571092Y557972D01*
X569074Y559137D01*
X566823Y559740D01*
D02*
G37*
G36*
X67846Y545840D02*
X58926D01*
Y536920D01*
X67846D01*
Y545840D01*
D02*
G37*
G36*
X56386D02*
X47466D01*
Y536920D01*
X56386D01*
Y545840D01*
D02*
G37*
G36*
X592328Y534871D02*
Y526760D01*
X600439D01*
X599808Y529114D01*
X598572Y531256D01*
X596824Y533004D01*
X594682Y534240D01*
X592328Y534871D01*
D02*
G37*
G36*
X589788Y534871D02*
X587434Y534240D01*
X585292Y533004D01*
X583544Y531256D01*
X582308Y529114D01*
X581677Y526760D01*
X589788D01*
Y534871D01*
D02*
G37*
G36*
X67846Y534380D02*
X58926D01*
Y525460D01*
X67846D01*
Y534380D01*
D02*
G37*
G36*
X56386D02*
X47466D01*
Y525460D01*
X56386D01*
Y534380D01*
D02*
G37*
G36*
X134144Y574901D02*
X132155D01*
X130318Y574139D01*
X128911Y572733D01*
X128150Y570895D01*
Y568906D01*
X128562Y567912D01*
Y527889D01*
X128150Y526895D01*
Y524906D01*
X128911Y523068D01*
X130318Y521662D01*
X132155Y520901D01*
X134144D01*
X135982Y521662D01*
X137389Y523068D01*
X138150Y524906D01*
Y526895D01*
X137738Y527889D01*
Y567912D01*
X138150Y568906D01*
Y570895D01*
X137389Y572733D01*
X135982Y574139D01*
X134144Y574901D01*
D02*
G37*
G36*
X566823Y534340D02*
X564493D01*
X562242Y533737D01*
X560224Y532572D01*
X558576Y530924D01*
X557411Y528906D01*
X556808Y526655D01*
Y524325D01*
X557411Y522074D01*
X558576Y520056D01*
X560224Y518408D01*
X562242Y517243D01*
X564493Y516640D01*
X566823D01*
X569074Y517243D01*
X571092Y518408D01*
X572740Y520056D01*
X573905Y522074D01*
X574508Y524325D01*
Y526655D01*
X573905Y528906D01*
X572740Y530924D01*
X571092Y532572D01*
X569074Y533737D01*
X566823Y534340D01*
D02*
G37*
G36*
X589788Y524220D02*
X581677D01*
X582308Y521866D01*
X583544Y519724D01*
X585292Y517976D01*
X587434Y516740D01*
X589788Y516109D01*
Y524220D01*
D02*
G37*
G36*
X600439D02*
X592328D01*
Y516109D01*
X594682Y516740D01*
X596824Y517976D01*
X598572Y519724D01*
X599808Y521866D01*
X600439Y524220D01*
D02*
G37*
G36*
X592223Y508940D02*
X589893D01*
X587642Y508337D01*
X585624Y507172D01*
X583976Y505524D01*
X582811Y503506D01*
X582208Y501255D01*
Y498925D01*
X582811Y496674D01*
X583976Y494656D01*
X585624Y493008D01*
X587642Y491843D01*
X589893Y491240D01*
X592223D01*
X594474Y491843D01*
X596492Y493008D01*
X598140Y494656D01*
X599305Y496674D01*
X599908Y498925D01*
Y501255D01*
X599305Y503506D01*
X598140Y505524D01*
X596492Y507172D01*
X594474Y508337D01*
X592223Y508940D01*
D02*
G37*
G36*
X566823D02*
X564493D01*
X562242Y508337D01*
X560224Y507172D01*
X558576Y505524D01*
X557411Y503506D01*
X556808Y501255D01*
Y498925D01*
X557411Y496674D01*
X558576Y494656D01*
X560224Y493008D01*
X562242Y491843D01*
X564493Y491240D01*
X566823D01*
X569074Y491843D01*
X571092Y493008D01*
X572740Y494656D01*
X573905Y496674D01*
X574508Y498925D01*
Y501255D01*
X573905Y503506D01*
X572740Y505524D01*
X571092Y507172D01*
X569074Y508337D01*
X566823Y508940D01*
D02*
G37*
G36*
X86145Y485775D02*
X83604D01*
X81150Y485117D01*
X78950Y483847D01*
X77153Y482050D01*
X75883Y479850D01*
X75225Y477396D01*
Y474855D01*
X75883Y472400D01*
X77153Y470200D01*
X78950Y468403D01*
X81150Y467133D01*
X83604Y466475D01*
X86145D01*
X88600Y467133D01*
X90800Y468403D01*
X92597Y470200D01*
X93867Y472400D01*
X94525Y474855D01*
Y477396D01*
X93867Y479850D01*
X92597Y482050D01*
X90800Y483847D01*
X88600Y485117D01*
X86145Y485775D01*
D02*
G37*
G36*
X592223Y483540D02*
X589893D01*
X587642Y482937D01*
X585624Y481772D01*
X583976Y480124D01*
X582811Y478106D01*
X582208Y475855D01*
Y473525D01*
X582811Y471274D01*
X583976Y469256D01*
X585624Y467608D01*
X587642Y466443D01*
X589893Y465840D01*
X592223D01*
X594474Y466443D01*
X596492Y467608D01*
X598140Y469256D01*
X599305Y471274D01*
X599908Y473525D01*
Y475855D01*
X599305Y478106D01*
X598140Y480124D01*
X596492Y481772D01*
X594474Y482937D01*
X592223Y483540D01*
D02*
G37*
G36*
X566823D02*
X564493D01*
X562242Y482937D01*
X560224Y481772D01*
X558576Y480124D01*
X557411Y478106D01*
X556808Y475855D01*
Y473525D01*
X557411Y471274D01*
X558576Y469256D01*
X560224Y467608D01*
X562242Y466443D01*
X564493Y465840D01*
X566823D01*
X569074Y466443D01*
X571092Y467608D01*
X572740Y469256D01*
X573905Y471274D01*
X574508Y473525D01*
Y475855D01*
X573905Y478106D01*
X572740Y480124D01*
X571092Y481772D01*
X569074Y482937D01*
X566823Y483540D01*
D02*
G37*
G36*
X31192Y482876D02*
X28558D01*
X26015Y482194D01*
X23734Y480878D01*
X21872Y479016D01*
X20556Y476735D01*
X19874Y474192D01*
Y471558D01*
X20556Y469015D01*
X21872Y466734D01*
X23734Y464872D01*
X26015Y463555D01*
X28558Y462874D01*
X31192D01*
X33735Y463555D01*
X36016Y464872D01*
X37878Y466734D01*
X39194Y469015D01*
X39876Y471558D01*
Y474192D01*
X39194Y476735D01*
X37878Y479016D01*
X36016Y480878D01*
X33735Y482194D01*
X31192Y482876D01*
D02*
G37*
G36*
X408245Y480750D02*
X406255D01*
X404418Y479989D01*
X403011Y478583D01*
X402250Y476745D01*
Y474756D01*
X403011Y472918D01*
X404418Y471512D01*
X406255Y470750D01*
X408245D01*
X410082Y471512D01*
X411257Y472686D01*
X441628D01*
X449250Y465064D01*
Y463755D01*
X450011Y461918D01*
X451418Y460511D01*
X453255Y459750D01*
X455245D01*
X457082Y460511D01*
X458489Y461918D01*
X459250Y463755D01*
Y465745D01*
X458489Y467582D01*
X457082Y468989D01*
X455245Y469750D01*
X453936D01*
X445343Y478343D01*
X444268Y479061D01*
X443000Y479314D01*
X410758D01*
X410082Y479989D01*
X408245Y480750D01*
D02*
G37*
G36*
X404495Y461750D02*
X402505D01*
X400668Y460989D01*
X399261Y459582D01*
X398500Y457745D01*
Y456436D01*
X396377Y454314D01*
X389257D01*
X388332Y455239D01*
X386494Y456000D01*
X384505D01*
X382668Y455239D01*
X381261Y453832D01*
X380500Y451995D01*
Y450005D01*
X381261Y448168D01*
X382668Y446761D01*
X384505Y446000D01*
X386494D01*
X388332Y446761D01*
X389257Y447686D01*
X397750D01*
X399018Y447939D01*
X400093Y448657D01*
X403186Y451750D01*
X404495D01*
X406332Y452511D01*
X407739Y453918D01*
X408500Y455755D01*
Y457745D01*
X407739Y459582D01*
X406332Y460989D01*
X404495Y461750D01*
D02*
G37*
G36*
X217000Y547560D02*
X215173Y547320D01*
X213470Y546614D01*
X212008Y545493D01*
X210886Y544030D01*
X210180Y542327D01*
X209940Y540500D01*
X210180Y538673D01*
X210886Y536970D01*
X212008Y535508D01*
X218154Y529361D01*
X222008Y525508D01*
X223470Y524385D01*
X225173Y523680D01*
X227000Y523440D01*
X453326D01*
X470708Y506058D01*
X472170Y504935D01*
X473873Y504230D01*
X475700Y503990D01*
X493513D01*
X494175Y503328D01*
X496375Y502058D01*
X498830Y501400D01*
X499765D01*
X510440Y490726D01*
Y446925D01*
X469076Y405560D01*
X400000D01*
X398173Y405320D01*
X396470Y404614D01*
X395008Y403492D01*
X357300Y365785D01*
X349312D01*
X348650Y366447D01*
X346450Y367717D01*
X343996Y368375D01*
X341455D01*
X339000Y367717D01*
X336800Y366447D01*
X336337Y365984D01*
X335164Y366470D01*
Y456705D01*
X336434Y456958D01*
X336761Y456168D01*
X338168Y454761D01*
X340005Y454000D01*
X341995D01*
X343832Y454761D01*
X345239Y456168D01*
X346000Y458005D01*
Y459995D01*
X345239Y461832D01*
X344982Y462089D01*
Y480626D01*
X344730Y481894D01*
X344011Y482969D01*
X342564Y484417D01*
Y500243D01*
X343489Y501168D01*
X344250Y503005D01*
Y504995D01*
X343489Y506832D01*
X342082Y508239D01*
X340245Y509000D01*
X338255D01*
X336418Y508239D01*
X335011Y506832D01*
X334250Y504995D01*
Y503005D01*
X335011Y501168D01*
X335936Y500243D01*
Y483044D01*
X336189Y481776D01*
X336907Y480701D01*
X338046Y479562D01*
X337959Y478364D01*
X336869Y477668D01*
X336413Y477857D01*
X334424D01*
X334184Y477758D01*
X333000Y478642D01*
Y479955D01*
X332239Y481792D01*
X330832Y483199D01*
X328995Y483960D01*
X327005D01*
X325168Y483199D01*
X323761Y481792D01*
X323390Y480896D01*
X301862Y459368D01*
X300858Y457866D01*
X300506Y456095D01*
X300506Y456095D01*
Y349195D01*
X300506Y349194D01*
X300858Y347423D01*
X301862Y345921D01*
X321621Y326162D01*
Y283390D01*
X321250Y282495D01*
Y280505D01*
X322011Y278668D01*
X323418Y277261D01*
X325255Y276500D01*
X327245D01*
X329082Y277261D01*
X330489Y278668D01*
X331250Y280505D01*
Y282495D01*
X330879Y283390D01*
Y328079D01*
X330879Y328079D01*
X330527Y329851D01*
X329523Y331353D01*
X329523Y331353D01*
X312974Y347902D01*
X313460Y349075D01*
X324902D01*
X325906Y348465D01*
X326258Y346694D01*
X327262Y345192D01*
X345621Y326833D01*
Y284640D01*
X345250Y283745D01*
Y281755D01*
X346011Y279918D01*
X347418Y278511D01*
X349255Y277750D01*
X351245D01*
X353082Y278511D01*
X354489Y279918D01*
X355250Y281755D01*
Y283745D01*
X354879Y284640D01*
Y328750D01*
X354527Y330521D01*
X353523Y332023D01*
X353523Y332023D01*
X335714Y349833D01*
X335783Y350224D01*
X336080Y350451D01*
X337173Y350788D01*
X339000Y349733D01*
X341455Y349075D01*
X343996D01*
X346450Y349733D01*
X348650Y351003D01*
X349312Y351665D01*
X360225D01*
X362052Y351905D01*
X363755Y352611D01*
X365217Y353732D01*
X402924Y391440D01*
X472000D01*
X473827Y391680D01*
X475530Y392385D01*
X476992Y393507D01*
X522492Y439008D01*
X523615Y440470D01*
X524320Y442173D01*
X524560Y444000D01*
Y493650D01*
X524320Y495477D01*
X523615Y497180D01*
X522492Y498643D01*
X509750Y511385D01*
Y512321D01*
X509092Y514775D01*
X507822Y516975D01*
X506025Y518772D01*
X503825Y520042D01*
X501371Y520700D01*
X498830D01*
X496375Y520042D01*
X494175Y518772D01*
X493513Y518110D01*
X478624D01*
X461242Y535493D01*
X459780Y536614D01*
X458077Y537320D01*
X456250Y537560D01*
X229925D01*
X221992Y545493D01*
X220530Y546614D01*
X218827Y547320D01*
X217000Y547560D01*
D02*
G37*
G36*
X461495Y508500D02*
X459505D01*
X457668Y507739D01*
X456261Y506332D01*
X455500Y504495D01*
Y502505D01*
X456261Y500668D01*
X457668Y499261D01*
X459505Y498500D01*
X460814D01*
X466436Y492878D01*
Y459622D01*
X458377Y451564D01*
X446507D01*
X445582Y452489D01*
X443745Y453250D01*
X441755D01*
X439918Y452489D01*
X438511Y451082D01*
X437750Y449245D01*
Y447255D01*
X438511Y445418D01*
X439918Y444011D01*
X441755Y443250D01*
X443745D01*
X445582Y444011D01*
X446507Y444936D01*
X459750D01*
X461018Y445189D01*
X462093Y445907D01*
X472093Y455907D01*
X472811Y456982D01*
X473064Y458250D01*
Y494250D01*
X472811Y495518D01*
X472093Y496593D01*
X465500Y503186D01*
Y504495D01*
X464739Y506332D01*
X463332Y507739D01*
X461495Y508500D01*
D02*
G37*
G36*
X244671Y467600D02*
X242129D01*
X239675Y466942D01*
X237475Y465672D01*
X235678Y463875D01*
X234408Y461675D01*
X233750Y459221D01*
Y456680D01*
X234408Y454225D01*
X235678Y452025D01*
X237475Y450228D01*
X239675Y448958D01*
X242129Y448300D01*
X244671D01*
X247125Y448958D01*
X249325Y450228D01*
X251122Y452025D01*
X252392Y454225D01*
X253050Y456680D01*
Y459221D01*
X252392Y461675D01*
X251122Y463875D01*
X249325Y465672D01*
X247125Y466942D01*
X244671Y467600D01*
D02*
G37*
G36*
X592223Y458140D02*
X589893D01*
X587642Y457537D01*
X585624Y456372D01*
X583976Y454724D01*
X582811Y452706D01*
X582208Y450455D01*
Y448125D01*
X582811Y445874D01*
X583976Y443856D01*
X585624Y442208D01*
X587642Y441043D01*
X589893Y440440D01*
X592223D01*
X594474Y441043D01*
X596492Y442208D01*
X598140Y443856D01*
X599305Y445874D01*
X599908Y448125D01*
Y450455D01*
X599305Y452706D01*
X598140Y454724D01*
X596492Y456372D01*
X594474Y457537D01*
X592223Y458140D01*
D02*
G37*
G36*
X566823D02*
X564493D01*
X562242Y457537D01*
X560224Y456372D01*
X558576Y454724D01*
X557411Y452706D01*
X556808Y450455D01*
Y448125D01*
X557411Y445874D01*
X558576Y443856D01*
X560224Y442208D01*
X562242Y441043D01*
X564493Y440440D01*
X566823D01*
X569074Y441043D01*
X571092Y442208D01*
X572740Y443856D01*
X573905Y445874D01*
X574508Y448125D01*
Y450455D01*
X573905Y452706D01*
X572740Y454724D01*
X571092Y456372D01*
X569074Y457537D01*
X566823Y458140D01*
D02*
G37*
G36*
X31192Y457476D02*
X28558D01*
X26015Y456794D01*
X23734Y455478D01*
X21872Y453616D01*
X20556Y451335D01*
X19874Y448792D01*
Y446158D01*
X20556Y443615D01*
X21872Y441334D01*
X23734Y439472D01*
X26015Y438156D01*
X28558Y437474D01*
X31192D01*
X33735Y438156D01*
X36016Y439472D01*
X37878Y441334D01*
X39194Y443615D01*
X39876Y446158D01*
Y448792D01*
X39194Y451335D01*
X37878Y453616D01*
X36016Y455478D01*
X33735Y456794D01*
X31192Y457476D01*
D02*
G37*
G36*
X86145Y453905D02*
X83604D01*
X81150Y453247D01*
X78950Y451977D01*
X77153Y450180D01*
X75883Y447980D01*
X75225Y445525D01*
Y442985D01*
X75883Y440530D01*
X77153Y438330D01*
X78950Y436533D01*
X81150Y435263D01*
X83604Y434605D01*
X86145D01*
X88600Y435263D01*
X90800Y436533D01*
X92597Y438330D01*
X93867Y440530D01*
X94525Y442985D01*
Y445525D01*
X93867Y447980D01*
X92597Y450180D01*
X90800Y451977D01*
X88600Y453247D01*
X86145Y453905D01*
D02*
G37*
G36*
X253050Y442200D02*
X233750D01*
Y422900D01*
X253050D01*
Y442200D01*
D02*
G37*
G36*
X592223Y432740D02*
X589893D01*
X587642Y432137D01*
X585624Y430972D01*
X583976Y429324D01*
X582811Y427306D01*
X582208Y425055D01*
Y422725D01*
X582811Y420474D01*
X583976Y418456D01*
X585624Y416808D01*
X587642Y415643D01*
X589893Y415040D01*
X592223D01*
X594474Y415643D01*
X596492Y416808D01*
X598140Y418456D01*
X599305Y420474D01*
X599908Y422725D01*
Y425055D01*
X599305Y427306D01*
X598140Y429324D01*
X596492Y430972D01*
X594474Y432137D01*
X592223Y432740D01*
D02*
G37*
G36*
X566823D02*
X564493D01*
X562242Y432137D01*
X560224Y430972D01*
X558576Y429324D01*
X557411Y427306D01*
X556808Y425055D01*
Y422725D01*
X557411Y420474D01*
X558576Y418456D01*
X560224Y416808D01*
X562242Y415643D01*
X564493Y415040D01*
X566823D01*
X569074Y415643D01*
X571092Y416808D01*
X572740Y418456D01*
X573905Y420474D01*
X574508Y422725D01*
Y425055D01*
X573905Y427306D01*
X572740Y429324D01*
X571092Y430972D01*
X569074Y432137D01*
X566823Y432740D01*
D02*
G37*
G36*
X592223Y407340D02*
X589893D01*
X587642Y406737D01*
X585624Y405572D01*
X583976Y403924D01*
X582811Y401906D01*
X582208Y399655D01*
Y397325D01*
X582811Y395074D01*
X583976Y393056D01*
X585624Y391408D01*
X587642Y390243D01*
X589893Y389640D01*
X592223D01*
X594474Y390243D01*
X596492Y391408D01*
X598140Y393056D01*
X599305Y395074D01*
X599908Y397325D01*
Y399655D01*
X599305Y401906D01*
X598140Y403924D01*
X596492Y405572D01*
X594474Y406737D01*
X592223Y407340D01*
D02*
G37*
G36*
X566823D02*
X564493D01*
X562242Y406737D01*
X560224Y405572D01*
X558576Y403924D01*
X557411Y401906D01*
X556808Y399655D01*
Y397325D01*
X557411Y395074D01*
X558576Y393056D01*
X560224Y391408D01*
X562242Y390243D01*
X564493Y389640D01*
X566823D01*
X569074Y390243D01*
X571092Y391408D01*
X572740Y393056D01*
X573905Y395074D01*
X574508Y397325D01*
Y399655D01*
X573905Y401906D01*
X572740Y403924D01*
X571092Y405572D01*
X569074Y406737D01*
X566823Y407340D01*
D02*
G37*
G36*
X592223Y381940D02*
X589893D01*
X587642Y381337D01*
X585624Y380172D01*
X583976Y378524D01*
X582811Y376506D01*
X582208Y374255D01*
Y371925D01*
X582811Y369674D01*
X583976Y367656D01*
X585624Y366008D01*
X587642Y364843D01*
X589893Y364240D01*
X592223D01*
X594474Y364843D01*
X596492Y366008D01*
X598140Y367656D01*
X599305Y369674D01*
X599908Y371925D01*
Y374255D01*
X599305Y376506D01*
X598140Y378524D01*
X596492Y380172D01*
X594474Y381337D01*
X592223Y381940D01*
D02*
G37*
G36*
X566823D02*
X564493D01*
X562242Y381337D01*
X560224Y380172D01*
X558576Y378524D01*
X557411Y376506D01*
X556808Y374255D01*
Y371925D01*
X557411Y369674D01*
X558576Y367656D01*
X560224Y366008D01*
X562242Y364843D01*
X564493Y364240D01*
X566823D01*
X569074Y364843D01*
X571092Y366008D01*
X572740Y367656D01*
X573905Y369674D01*
X574508Y371925D01*
Y374255D01*
X573905Y376506D01*
X572740Y378524D01*
X571092Y380172D01*
X569074Y381337D01*
X566823Y381940D01*
D02*
G37*
G36*
X435850Y368375D02*
X416550D01*
Y349075D01*
X435850D01*
Y368375D01*
D02*
G37*
G36*
X86270Y366050D02*
X83729D01*
X81275Y365392D01*
X79075Y364122D01*
X77278Y362325D01*
X76008Y360125D01*
X75350Y357671D01*
Y355130D01*
X76008Y352675D01*
X77278Y350475D01*
X79075Y348678D01*
X81275Y347408D01*
X83729Y346750D01*
X86270D01*
X88725Y347408D01*
X90925Y348678D01*
X92722Y350475D01*
X93992Y352675D01*
X94650Y355130D01*
Y357671D01*
X93992Y360125D01*
X92722Y362325D01*
X90925Y364122D01*
X88725Y365392D01*
X86270Y366050D01*
D02*
G37*
G36*
X31317Y363151D02*
X28683D01*
X26140Y362469D01*
X23859Y361153D01*
X21997Y359291D01*
X20680Y357010D01*
X19999Y354467D01*
Y351833D01*
X20680Y349290D01*
X21997Y347009D01*
X23859Y345147D01*
X26140Y343830D01*
X28683Y343149D01*
X31317D01*
X33860Y343830D01*
X36141Y345147D01*
X38003Y347009D01*
X39320Y349290D01*
X40001Y351833D01*
Y354467D01*
X39320Y357010D01*
X38003Y359291D01*
X36141Y361153D01*
X33860Y362469D01*
X31317Y363151D01*
D02*
G37*
G36*
X490249Y578560D02*
X186750Y578560D01*
X178750D01*
X176923Y578320D01*
X175220Y577614D01*
X173758Y576492D01*
X172635Y575030D01*
X171930Y573327D01*
X171690Y571500D01*
X171930Y569673D01*
X172635Y567970D01*
X173758Y566507D01*
X175220Y565386D01*
X176923Y564680D01*
X178750Y564440D01*
X186750D01*
X487325Y564440D01*
X504491Y547273D01*
X504005Y546100D01*
X490450D01*
Y526800D01*
X509750D01*
Y540355D01*
X510923Y540841D01*
X528690Y523075D01*
Y356424D01*
X507326Y335060D01*
X409582D01*
X407860Y336782D01*
Y352138D01*
X408522Y352800D01*
X409792Y355000D01*
X410450Y357454D01*
Y359995D01*
X409792Y362450D01*
X408522Y364650D01*
X406725Y366447D01*
X404525Y367717D01*
X402070Y368375D01*
X399529D01*
X397075Y367717D01*
X394875Y366447D01*
X393078Y364650D01*
X391808Y362450D01*
X391150Y359995D01*
Y357454D01*
X391808Y355000D01*
X393078Y352800D01*
X393740Y352138D01*
Y333858D01*
X393980Y332030D01*
X394686Y330328D01*
X395807Y328865D01*
X401665Y323008D01*
X403128Y321885D01*
X404831Y321180D01*
X406658Y320940D01*
X510250D01*
X512077Y321180D01*
X513780Y321885D01*
X515243Y323008D01*
X540742Y348508D01*
X541865Y349970D01*
X542570Y351673D01*
X542810Y353500D01*
Y525999D01*
X542570Y527827D01*
X541865Y529530D01*
X540742Y530992D01*
X495242Y576492D01*
X493780Y577615D01*
X492077Y578320D01*
X490249Y578560D01*
D02*
G37*
G36*
X599908Y341300D02*
X582208D01*
Y323600D01*
X599908D01*
Y341300D01*
D02*
G37*
G36*
X566823D02*
X564493D01*
X562242Y340697D01*
X560224Y339532D01*
X558576Y337884D01*
X557411Y335866D01*
X556808Y333615D01*
Y331285D01*
X557411Y329034D01*
X558576Y327016D01*
X560224Y325368D01*
X562242Y324203D01*
X564493Y323600D01*
X566823D01*
X569074Y324203D01*
X571092Y325368D01*
X572740Y327016D01*
X573905Y329034D01*
X574508Y331285D01*
Y333615D01*
X573905Y335866D01*
X572740Y337884D01*
X571092Y339532D01*
X569074Y340697D01*
X566823Y341300D01*
D02*
G37*
G36*
X31317Y337751D02*
X28683D01*
X26140Y337070D01*
X23859Y335753D01*
X21997Y333891D01*
X20680Y331610D01*
X19999Y329067D01*
Y326433D01*
X20680Y323890D01*
X21997Y321609D01*
X23859Y319747D01*
X26140Y318431D01*
X28683Y317749D01*
X31317D01*
X33860Y318431D01*
X36141Y319747D01*
X38003Y321609D01*
X39320Y323890D01*
X40001Y326433D01*
Y329067D01*
X39320Y331610D01*
X38003Y333891D01*
X36141Y335753D01*
X33860Y337070D01*
X31317Y337751D01*
D02*
G37*
G36*
X86270Y334180D02*
X83729D01*
X81275Y333522D01*
X79075Y332252D01*
X77278Y330455D01*
X76008Y328255D01*
X75350Y325800D01*
Y323260D01*
X76008Y320805D01*
X77278Y318605D01*
X79075Y316808D01*
X81275Y315538D01*
X83729Y314880D01*
X86270D01*
X88725Y315538D01*
X90925Y316808D01*
X92722Y318605D01*
X93992Y320805D01*
X94650Y323260D01*
Y325800D01*
X93992Y328255D01*
X92722Y330455D01*
X90925Y332252D01*
X88725Y333522D01*
X86270Y334180D01*
D02*
G37*
G36*
X592223Y315900D02*
X589893D01*
X587642Y315297D01*
X585624Y314132D01*
X583976Y312484D01*
X582811Y310466D01*
X582208Y308215D01*
Y305885D01*
X582811Y303634D01*
X583976Y301616D01*
X585624Y299968D01*
X587642Y298803D01*
X589893Y298200D01*
X592223D01*
X594474Y298803D01*
X596492Y299968D01*
X598140Y301616D01*
X599305Y303634D01*
X599908Y305885D01*
Y308215D01*
X599305Y310466D01*
X598140Y312484D01*
X596492Y314132D01*
X594474Y315297D01*
X592223Y315900D01*
D02*
G37*
G36*
X566823D02*
X564493D01*
X562242Y315297D01*
X560224Y314132D01*
X558576Y312484D01*
X557411Y310466D01*
X556808Y308215D01*
Y305885D01*
X557411Y303634D01*
X558576Y301616D01*
X560224Y299968D01*
X562242Y298803D01*
X564493Y298200D01*
X566823D01*
X569074Y298803D01*
X571092Y299968D01*
X572740Y301616D01*
X573905Y303634D01*
X574508Y305885D01*
Y308215D01*
X573905Y310466D01*
X572740Y312484D01*
X571092Y314132D01*
X569074Y315297D01*
X566823Y315900D01*
D02*
G37*
G36*
X566928Y291031D02*
Y282920D01*
X575039D01*
X574408Y285274D01*
X573172Y287416D01*
X571424Y289164D01*
X569282Y290400D01*
X566928Y291031D01*
D02*
G37*
G36*
X564388Y291031D02*
X562034Y290400D01*
X559892Y289164D01*
X558144Y287416D01*
X556908Y285274D01*
X556277Y282920D01*
X564388D01*
Y291031D01*
D02*
G37*
G36*
X592223Y290500D02*
X589893D01*
X587642Y289897D01*
X585624Y288732D01*
X583976Y287084D01*
X582811Y285066D01*
X582208Y282815D01*
Y280485D01*
X582811Y278234D01*
X583976Y276216D01*
X585624Y274568D01*
X587642Y273403D01*
X589893Y272800D01*
X592223D01*
X594474Y273403D01*
X596492Y274568D01*
X598140Y276216D01*
X599305Y278234D01*
X599908Y280485D01*
Y282815D01*
X599305Y285066D01*
X598140Y287084D01*
X596492Y288732D01*
X594474Y289897D01*
X592223Y290500D01*
D02*
G37*
G36*
X564388Y280380D02*
X556277D01*
X556908Y278026D01*
X558144Y275884D01*
X559892Y274136D01*
X562034Y272900D01*
X564388Y272269D01*
Y280380D01*
D02*
G37*
G36*
X575039D02*
X566928D01*
Y272269D01*
X569282Y272900D01*
X571424Y274136D01*
X573172Y275884D01*
X574408Y278026D01*
X575039Y280380D01*
D02*
G37*
G36*
X257125Y503629D02*
X257125Y503629D01*
X204500D01*
X202729Y503277D01*
X201227Y502273D01*
X201227Y502273D01*
X143610Y444656D01*
X142606Y443154D01*
X142254Y441383D01*
X142254Y441383D01*
Y290492D01*
X140542Y290152D01*
X138557Y288826D01*
X137231Y286841D01*
X136765Y284500D01*
Y276500D01*
X137231Y274159D01*
X138557Y272174D01*
X140542Y270848D01*
X142883Y270382D01*
X150454D01*
X166165Y254672D01*
X166165Y254672D01*
X167667Y253668D01*
X169438Y253316D01*
X199855D01*
X200340Y252143D01*
X199878Y251680D01*
X198608Y249480D01*
X197950Y247025D01*
Y244485D01*
X198608Y242030D01*
X199878Y239830D01*
X201675Y238033D01*
X203875Y236763D01*
X206329Y236105D01*
X208870D01*
X211325Y236763D01*
X213525Y238033D01*
X215322Y239830D01*
X216592Y242030D01*
X217250Y244485D01*
Y247025D01*
X216592Y249480D01*
X215322Y251680D01*
X214859Y252143D01*
X215345Y253316D01*
X411888D01*
X467991Y197213D01*
Y150793D01*
X466279Y150452D01*
X464294Y149126D01*
X462968Y147141D01*
X462502Y144800D01*
Y136800D01*
X462968Y134459D01*
X464294Y132474D01*
X466279Y131148D01*
X468620Y130682D01*
X476620D01*
X478961Y131148D01*
X480946Y132474D01*
X482272Y134459D01*
X482737Y136800D01*
Y144800D01*
X482272Y147141D01*
X480946Y149126D01*
X478961Y150452D01*
X477249Y150793D01*
Y199130D01*
X477249Y199130D01*
X476897Y200902D01*
X475893Y202403D01*
X475893Y202403D01*
X417078Y261218D01*
X415577Y262222D01*
X413805Y262574D01*
X413805Y262574D01*
X217250D01*
Y280805D01*
X197950D01*
Y262574D01*
X171355D01*
X157001Y276929D01*
Y284500D01*
X156535Y286841D01*
X155209Y288826D01*
X153224Y290152D01*
X151512Y290492D01*
Y439466D01*
X206417Y494371D01*
X255208D01*
X255352Y494227D01*
X255352Y494227D01*
X256854Y493223D01*
X258626Y492871D01*
X309610D01*
X310178Y492635D01*
X310324Y491431D01*
X310305Y491313D01*
X308918Y490739D01*
X307511Y489332D01*
X307140Y488437D01*
X266150Y447446D01*
X265146Y445944D01*
X264794Y444173D01*
X264794Y444173D01*
Y291992D01*
X263082Y291652D01*
X261097Y290326D01*
X259771Y288341D01*
X259305Y286000D01*
Y278000D01*
X259771Y275659D01*
X261097Y273674D01*
X263082Y272348D01*
X265423Y271882D01*
X273423D01*
X275764Y272348D01*
X277749Y273674D01*
X279075Y275659D01*
X279541Y278000D01*
Y286000D01*
X279075Y288341D01*
X277749Y290326D01*
X275764Y291652D01*
X274052Y291992D01*
Y442256D01*
X313687Y481890D01*
X314582Y482261D01*
X315989Y483668D01*
X316750Y485505D01*
Y487495D01*
X315989Y489332D01*
X314582Y490739D01*
X313072Y491364D01*
X312926Y492569D01*
X312945Y492687D01*
X314332Y493261D01*
X315739Y494668D01*
X316500Y496505D01*
Y498495D01*
X315739Y500332D01*
X314332Y501739D01*
X312495Y502500D01*
X310505D01*
X309610Y502129D01*
X260543D01*
X260399Y502273D01*
X258897Y503277D01*
X257125Y503629D01*
D02*
G37*
G36*
X94710Y279305D02*
X75410D01*
Y260005D01*
X94710D01*
Y279305D01*
D02*
G37*
G36*
X592223Y265100D02*
X589893D01*
X587642Y264497D01*
X585624Y263332D01*
X583976Y261684D01*
X582811Y259666D01*
X582208Y257415D01*
Y255085D01*
X582811Y252834D01*
X583976Y250816D01*
X585624Y249168D01*
X587642Y248003D01*
X589893Y247400D01*
X592223D01*
X594474Y248003D01*
X596492Y249168D01*
X598140Y250816D01*
X599305Y252834D01*
X599908Y255085D01*
Y257415D01*
X599305Y259666D01*
X598140Y261684D01*
X596492Y263332D01*
X594474Y264497D01*
X592223Y265100D01*
D02*
G37*
G36*
X566823D02*
X564493D01*
X562242Y264497D01*
X560224Y263332D01*
X558576Y261684D01*
X557411Y259666D01*
X556808Y257415D01*
Y255085D01*
X557411Y252834D01*
X558576Y250816D01*
X560224Y249168D01*
X562242Y248003D01*
X564493Y247400D01*
X566823D01*
X569074Y248003D01*
X571092Y249168D01*
X572740Y250816D01*
X573905Y252834D01*
X574508Y255085D01*
Y257415D01*
X573905Y259666D01*
X572740Y261684D01*
X571092Y263332D01*
X569074Y264497D01*
X566823Y265100D01*
D02*
G37*
G36*
X86330Y253905D02*
X83790D01*
X81335Y253247D01*
X79135Y251977D01*
X77338Y250180D01*
X76068Y247980D01*
X75410Y245525D01*
Y242985D01*
X76068Y240530D01*
X77338Y238330D01*
X79135Y236533D01*
X81335Y235263D01*
X83790Y234605D01*
X86330D01*
X88785Y235263D01*
X90985Y236533D01*
X92782Y238330D01*
X94052Y240530D01*
X94710Y242985D01*
Y245525D01*
X94052Y247980D01*
X92782Y250180D01*
X90985Y251977D01*
X88785Y253247D01*
X86330Y253905D01*
D02*
G37*
G36*
X31388Y242691D02*
X31270D01*
Y233420D01*
X40541D01*
Y233538D01*
X39823Y236219D01*
X38435Y238622D01*
X36472Y240585D01*
X34069Y241973D01*
X31388Y242691D01*
D02*
G37*
G36*
X28730D02*
X28612D01*
X25931Y241973D01*
X23528Y240585D01*
X21565Y238622D01*
X20177Y236219D01*
X19459Y233538D01*
Y233420D01*
X28730D01*
Y242691D01*
D02*
G37*
G36*
X592223Y239700D02*
X589893D01*
X587642Y239097D01*
X585624Y237932D01*
X583976Y236284D01*
X582811Y234266D01*
X582208Y232015D01*
Y229685D01*
X582811Y227434D01*
X583976Y225416D01*
X585624Y223768D01*
X587642Y222603D01*
X589893Y222000D01*
X592223D01*
X594474Y222603D01*
X596492Y223768D01*
X598140Y225416D01*
X599305Y227434D01*
X599908Y229685D01*
Y232015D01*
X599305Y234266D01*
X598140Y236284D01*
X596492Y237932D01*
X594474Y239097D01*
X592223Y239700D01*
D02*
G37*
G36*
X566823D02*
X564493D01*
X562242Y239097D01*
X560224Y237932D01*
X558576Y236284D01*
X557411Y234266D01*
X556808Y232015D01*
Y229685D01*
X557411Y227434D01*
X558576Y225416D01*
X560224Y223768D01*
X562242Y222603D01*
X564493Y222000D01*
X566823D01*
X569074Y222603D01*
X571092Y223768D01*
X572740Y225416D01*
X573905Y227434D01*
X574508Y229685D01*
Y232015D01*
X573905Y234266D01*
X572740Y236284D01*
X571092Y237932D01*
X569074Y239097D01*
X566823Y239700D01*
D02*
G37*
G36*
X270739Y242000D02*
X268106D01*
X265563Y241318D01*
X263283Y240002D01*
X261421Y238140D01*
X260105Y235860D01*
X259423Y233316D01*
Y230683D01*
X260105Y228140D01*
X261421Y225860D01*
X263283Y223998D01*
X265563Y222682D01*
X268106Y222000D01*
X270739D01*
X273283Y222682D01*
X275563Y223998D01*
X277425Y225860D01*
X278741Y228140D01*
X279423Y230683D01*
Y233316D01*
X278741Y235860D01*
X277425Y238140D01*
X275563Y240002D01*
X273283Y241318D01*
X270739Y242000D01*
D02*
G37*
G36*
X40541Y230880D02*
X31270D01*
Y221609D01*
X31388D01*
X34069Y222327D01*
X36472Y223715D01*
X38435Y225678D01*
X39823Y228081D01*
X40541Y230762D01*
Y230880D01*
D02*
G37*
G36*
X28730D02*
X19459D01*
Y230762D01*
X20177Y228081D01*
X21565Y225678D01*
X23528Y223715D01*
X25931Y222327D01*
X28612Y221609D01*
X28730D01*
Y230880D01*
D02*
G37*
G36*
X148200Y240500D02*
X145567D01*
X143023Y239818D01*
X140743Y238502D01*
X138881Y236640D01*
X137564Y234360D01*
X136883Y231817D01*
Y229183D01*
X137564Y226640D01*
X138881Y224360D01*
X140743Y222498D01*
X143023Y221182D01*
X145567Y220500D01*
X148200D01*
X150743Y221182D01*
X153023Y222498D01*
X154885Y224360D01*
X156201Y226640D01*
X156883Y229183D01*
Y231817D01*
X156201Y234360D01*
X154885Y236640D01*
X153023Y238502D01*
X150743Y239818D01*
X148200Y240500D01*
D02*
G37*
G36*
X208870Y224350D02*
X206329D01*
X203875Y223692D01*
X201675Y222422D01*
X199878Y220625D01*
X198608Y218425D01*
X197950Y215970D01*
Y213430D01*
X198608Y210975D01*
X199878Y208775D01*
X201675Y206978D01*
X203875Y205708D01*
X206329Y205050D01*
X208870D01*
X211325Y205708D01*
X213525Y206978D01*
X215322Y208775D01*
X216592Y210975D01*
X217250Y213430D01*
Y215970D01*
X216592Y218425D01*
X215322Y220625D01*
X213525Y222422D01*
X211325Y223692D01*
X208870Y224350D01*
D02*
G37*
G36*
X592223Y214300D02*
X589893D01*
X587642Y213697D01*
X585624Y212532D01*
X583976Y210884D01*
X582811Y208866D01*
X582208Y206615D01*
Y204285D01*
X582811Y202034D01*
X583976Y200016D01*
X585624Y198368D01*
X587642Y197203D01*
X589893Y196600D01*
X592223D01*
X594474Y197203D01*
X596492Y198368D01*
X598140Y200016D01*
X599305Y202034D01*
X599908Y204285D01*
Y206615D01*
X599305Y208866D01*
X598140Y210884D01*
X596492Y212532D01*
X594474Y213697D01*
X592223Y214300D01*
D02*
G37*
G36*
X566823D02*
X564493D01*
X562242Y213697D01*
X560224Y212532D01*
X558576Y210884D01*
X557411Y208866D01*
X556808Y206615D01*
Y204285D01*
X557411Y202034D01*
X558576Y200016D01*
X560224Y198368D01*
X562242Y197203D01*
X564493Y196600D01*
X566823D01*
X569074Y197203D01*
X571092Y198368D01*
X572740Y200016D01*
X573905Y202034D01*
X574508Y204285D01*
Y206615D01*
X573905Y208866D01*
X572740Y210884D01*
X571092Y212532D01*
X569074Y213697D01*
X566823Y214300D01*
D02*
G37*
G36*
X299193Y206150D02*
X296653D01*
X294198Y205492D01*
X291998Y204222D01*
X290201Y202425D01*
X288931Y200225D01*
X288273Y197770D01*
Y195229D01*
X288931Y192775D01*
X290201Y190575D01*
X291998Y188778D01*
X294198Y187508D01*
X296653Y186850D01*
X299193D01*
X301648Y187508D01*
X303848Y188778D01*
X305645Y190575D01*
X306915Y192775D01*
X307573Y195229D01*
Y197770D01*
X306915Y200225D01*
X305645Y202425D01*
X303848Y204222D01*
X301648Y205492D01*
X299193Y206150D01*
D02*
G37*
G36*
X176653D02*
X174112D01*
X171658Y205492D01*
X169458Y204222D01*
X167661Y202425D01*
X166391Y200225D01*
X165733Y197770D01*
Y195229D01*
X166391Y192775D01*
X167661Y190575D01*
X169458Y188778D01*
X171658Y187508D01*
X174112Y186850D01*
X176653D01*
X179108Y187508D01*
X181308Y188778D01*
X183105Y190575D01*
X184375Y192775D01*
X185033Y195229D01*
Y197770D01*
X184375Y200225D01*
X183105Y202425D01*
X181308Y204222D01*
X179108Y205492D01*
X176653Y206150D01*
D02*
G37*
G36*
X217250Y198950D02*
X197950D01*
Y179650D01*
X217250D01*
Y198950D01*
D02*
G37*
G36*
X31317Y191351D02*
X28683D01*
X26140Y190669D01*
X23859Y189353D01*
X21997Y187491D01*
X20680Y185210D01*
X19999Y182667D01*
Y180033D01*
X20680Y177490D01*
X21997Y175209D01*
X23859Y173347D01*
X26140Y172031D01*
X28683Y171349D01*
X31317D01*
X33860Y172031D01*
X36141Y173347D01*
X38003Y175209D01*
X39320Y177490D01*
X40001Y180033D01*
Y182667D01*
X39320Y185210D01*
X38003Y187491D01*
X36141Y189353D01*
X33860Y190669D01*
X31317Y191351D01*
D02*
G37*
G36*
X592223Y188900D02*
X589893D01*
X587642Y188297D01*
X585624Y187132D01*
X583976Y185484D01*
X582811Y183466D01*
X582208Y181215D01*
Y178885D01*
X582811Y176634D01*
X583976Y174616D01*
X585624Y172968D01*
X587642Y171803D01*
X589893Y171200D01*
X592223D01*
X594474Y171803D01*
X596492Y172968D01*
X598140Y174616D01*
X599305Y176634D01*
X599908Y178885D01*
Y181215D01*
X599305Y183466D01*
X598140Y185484D01*
X596492Y187132D01*
X594474Y188297D01*
X592223Y188900D01*
D02*
G37*
G36*
X566823D02*
X564493D01*
X562242Y188297D01*
X560224Y187132D01*
X558576Y185484D01*
X557411Y183466D01*
X556808Y181215D01*
Y178885D01*
X557411Y176634D01*
X558576Y174616D01*
X560224Y172968D01*
X562242Y171803D01*
X564493Y171200D01*
X566823D01*
X569074Y171803D01*
X571092Y172968D01*
X572740Y174616D01*
X573905Y176634D01*
X574508Y178885D01*
Y181215D01*
X573905Y183466D01*
X572740Y185484D01*
X571092Y187132D01*
X569074Y188297D01*
X566823Y188900D01*
D02*
G37*
G36*
X31317Y216751D02*
X28683D01*
X26140Y216069D01*
X23859Y214753D01*
X21997Y212891D01*
X20680Y210610D01*
X19999Y208067D01*
Y205433D01*
X20680Y202890D01*
X21997Y200609D01*
X23859Y198747D01*
X26140Y197430D01*
X28683Y196749D01*
X31317D01*
X33860Y197430D01*
X36141Y198747D01*
X38003Y200609D01*
X38876Y202121D01*
X132083D01*
X164227Y169977D01*
X164227Y169977D01*
X165728Y168973D01*
X167500Y168621D01*
X224110D01*
X225005Y168250D01*
X226994D01*
X228832Y169011D01*
X230239Y170418D01*
X231000Y172255D01*
Y174244D01*
X230239Y176082D01*
X228832Y177489D01*
X226994Y178250D01*
X225005D01*
X224110Y177879D01*
X169417D01*
X137273Y210023D01*
X135771Y211027D01*
X134000Y211379D01*
X134000Y211379D01*
X38876D01*
X38003Y212891D01*
X36141Y214753D01*
X33860Y216069D01*
X31317Y216751D01*
D02*
G37*
G36*
X336880Y158629D02*
X336880Y158629D01*
X185250D01*
X185250Y158629D01*
X183479Y158277D01*
X181977Y157273D01*
X181977Y157273D01*
X166333Y141629D01*
X156875D01*
X156535Y143341D01*
X155209Y145326D01*
X153224Y146652D01*
X150883Y147118D01*
X142883D01*
X140542Y146652D01*
X138557Y145326D01*
X137231Y143341D01*
X136765Y141000D01*
Y133000D01*
X137231Y130659D01*
X138557Y128674D01*
X140542Y127348D01*
X142883Y126882D01*
X150883D01*
X153224Y127348D01*
X155209Y128674D01*
X156535Y130659D01*
X156875Y132371D01*
X168250D01*
X168250Y132371D01*
X170021Y132723D01*
X171523Y133727D01*
X187167Y149371D01*
X262368D01*
X263020Y148194D01*
X263006Y148101D01*
X261097Y146826D01*
X259771Y144841D01*
X259305Y142500D01*
Y134500D01*
X259771Y132159D01*
X261097Y130174D01*
X263082Y128848D01*
X265423Y128382D01*
X272994D01*
X295772Y105605D01*
X295772Y105605D01*
X297274Y104601D01*
X299045Y104249D01*
X299045Y104249D01*
X371955D01*
X381721Y94483D01*
Y84595D01*
X380451Y84255D01*
X379452Y85984D01*
X377334Y88102D01*
X374741Y89600D01*
X371847Y90375D01*
X368852D01*
X365959Y89600D01*
X363366Y88102D01*
X361248Y85984D01*
X359750Y83391D01*
X358975Y80498D01*
Y77502D01*
X359750Y74609D01*
X361248Y72016D01*
X363366Y69898D01*
X365959Y68400D01*
X368852Y67625D01*
X371847D01*
X374741Y68400D01*
X377334Y69898D01*
X379452Y72016D01*
X380451Y73746D01*
X381721Y73405D01*
Y70689D01*
X381106Y70334D01*
X379516Y68744D01*
X378392Y66796D01*
X377810Y64624D01*
Y62806D01*
X344488Y29485D01*
X344475Y29492D01*
X342020Y30150D01*
X339479D01*
X337025Y29492D01*
X334825Y28222D01*
X333028Y26425D01*
X331758Y24225D01*
X331100Y21771D01*
Y19230D01*
X331758Y16775D01*
X333028Y14575D01*
X334825Y12778D01*
X337025Y11508D01*
X339479Y10850D01*
X342020D01*
X344475Y11508D01*
X346675Y12778D01*
X348472Y14575D01*
X349742Y16775D01*
X350400Y19230D01*
Y21771D01*
X350287Y22191D01*
X383515Y55419D01*
X385226Y54960D01*
X387474D01*
X389646Y55542D01*
X391594Y56666D01*
X393184Y58256D01*
X394308Y60204D01*
X394890Y62376D01*
Y64624D01*
X394308Y66796D01*
X393184Y68744D01*
X391594Y70334D01*
X390979Y70689D01*
Y96400D01*
X390979Y96400D01*
X390627Y98172D01*
X389623Y99673D01*
X389623Y99673D01*
X377145Y112151D01*
X375644Y113154D01*
X373872Y113507D01*
X373872Y113507D01*
X300963D01*
X279541Y134929D01*
Y142500D01*
X279075Y144841D01*
X277749Y146826D01*
X275840Y148101D01*
X275826Y148194D01*
X276478Y149371D01*
X334963D01*
X339962Y144371D01*
Y136800D01*
X340428Y134459D01*
X341754Y132474D01*
X343739Y131148D01*
X346080Y130682D01*
X354080D01*
X356421Y131148D01*
X358406Y132474D01*
X359732Y134459D01*
X360197Y136800D01*
Y144800D01*
X359732Y147141D01*
X358406Y149126D01*
X356421Y150452D01*
X354080Y150918D01*
X346509D01*
X340153Y157273D01*
X338651Y158277D01*
X336880Y158629D01*
D02*
G37*
G36*
X592223Y163500D02*
X589893D01*
X587642Y162897D01*
X585624Y161732D01*
X583976Y160084D01*
X582811Y158066D01*
X582208Y155815D01*
Y153485D01*
X582811Y151234D01*
X583976Y149216D01*
X585624Y147568D01*
X587642Y146403D01*
X589893Y145800D01*
X592223D01*
X594474Y146403D01*
X596492Y147568D01*
X598140Y149216D01*
X599305Y151234D01*
X599908Y153485D01*
Y155815D01*
X599305Y158066D01*
X598140Y160084D01*
X596492Y161732D01*
X594474Y162897D01*
X592223Y163500D01*
D02*
G37*
G36*
X566823D02*
X564493D01*
X562242Y162897D01*
X560224Y161732D01*
X558576Y160084D01*
X557411Y158066D01*
X556808Y155815D01*
Y153485D01*
X557411Y151234D01*
X558576Y149216D01*
X560224Y147568D01*
X562242Y146403D01*
X564493Y145800D01*
X566823D01*
X569074Y146403D01*
X571092Y147568D01*
X572740Y149216D01*
X573905Y151234D01*
X574508Y153485D01*
Y155815D01*
X573905Y158066D01*
X572740Y160084D01*
X571092Y161732D01*
X569074Y162897D01*
X566823Y163500D01*
D02*
G37*
G36*
X440120Y150700D02*
X437579D01*
X435125Y150042D01*
X432925Y148772D01*
X431128Y146975D01*
X429858Y144775D01*
X429200Y142320D01*
Y139780D01*
X429858Y137325D01*
X431128Y135125D01*
X432925Y133328D01*
X435125Y132058D01*
X437579Y131400D01*
X440120D01*
X442575Y132058D01*
X444775Y133328D01*
X446572Y135125D01*
X447842Y137325D01*
X448500Y139780D01*
Y142320D01*
X447842Y144775D01*
X446572Y146975D01*
X444775Y148772D01*
X442575Y150042D01*
X440120Y150700D01*
D02*
G37*
G36*
X523936Y150800D02*
X521303D01*
X518760Y150119D01*
X516480Y148802D01*
X514618Y146940D01*
X513301Y144660D01*
X512620Y142117D01*
Y139483D01*
X513301Y136940D01*
X514618Y134660D01*
X516480Y132798D01*
X518760Y131482D01*
X521303Y130800D01*
X523936D01*
X526480Y131482D01*
X528760Y132798D01*
X530622Y134660D01*
X531938Y136940D01*
X532620Y139483D01*
Y142117D01*
X531938Y144660D01*
X530622Y146940D01*
X528760Y148802D01*
X526480Y150119D01*
X523936Y150800D01*
D02*
G37*
G36*
X401396D02*
X398763D01*
X396220Y150119D01*
X393940Y148802D01*
X392078Y146940D01*
X390761Y144660D01*
X390080Y142117D01*
Y139483D01*
X390761Y136940D01*
X392078Y134660D01*
X393940Y132798D01*
X396220Y131482D01*
X398763Y130800D01*
X401396D01*
X403940Y131482D01*
X406220Y132798D01*
X408082Y134660D01*
X409398Y136940D01*
X410080Y139483D01*
Y142117D01*
X409398Y144660D01*
X408082Y146940D01*
X406220Y148802D01*
X403940Y150119D01*
X401396Y150800D01*
D02*
G37*
G36*
X217250Y137305D02*
X197950D01*
Y118005D01*
X217250D01*
Y137305D01*
D02*
G37*
G36*
X94710Y135805D02*
X75410D01*
Y116505D01*
X94710D01*
Y135805D01*
D02*
G37*
G36*
X208870Y111905D02*
X206329D01*
X203875Y111247D01*
X201675Y109977D01*
X199878Y108180D01*
X198608Y105980D01*
X197950Y103525D01*
Y100984D01*
X198608Y98530D01*
X199878Y96330D01*
X201675Y94533D01*
X203875Y93263D01*
X206329Y92605D01*
X208870D01*
X211325Y93263D01*
X213525Y94533D01*
X215322Y96330D01*
X216592Y98530D01*
X217250Y100984D01*
Y103525D01*
X216592Y105980D01*
X215322Y108180D01*
X213525Y109977D01*
X211325Y111247D01*
X208870Y111905D01*
D02*
G37*
G36*
X86330Y110405D02*
X83790D01*
X81335Y109747D01*
X79135Y108477D01*
X77338Y106680D01*
X76068Y104480D01*
X75410Y102025D01*
Y99485D01*
X76068Y97030D01*
X77338Y94830D01*
X79135Y93033D01*
X81335Y91763D01*
X83790Y91105D01*
X86330D01*
X88785Y91763D01*
X90985Y93033D01*
X92782Y94830D01*
X94052Y97030D01*
X94710Y99485D01*
Y102025D01*
X94052Y104480D01*
X92782Y106680D01*
X90985Y108477D01*
X88785Y109747D01*
X86330Y110405D01*
D02*
G37*
G36*
X31388Y99191D02*
X31270D01*
Y89920D01*
X40541D01*
Y90038D01*
X39823Y92719D01*
X38435Y95122D01*
X36472Y97085D01*
X34069Y98473D01*
X31388Y99191D01*
D02*
G37*
G36*
X28730D02*
X28612D01*
X25931Y98473D01*
X23528Y97085D01*
X21565Y95122D01*
X20177Y92719D01*
X19459Y90038D01*
Y89920D01*
X28730D01*
Y99191D01*
D02*
G37*
G36*
X614698Y101000D02*
X611802D01*
X609004Y100250D01*
X606496Y98802D01*
X604448Y96754D01*
X603000Y94246D01*
X602250Y91448D01*
Y88552D01*
X603000Y85754D01*
X604448Y83246D01*
X606496Y81198D01*
X609004Y79750D01*
X611802Y79000D01*
X614698D01*
X617496Y79750D01*
X620004Y81198D01*
X622052Y83246D01*
X623500Y85754D01*
X624250Y88552D01*
Y91448D01*
X623500Y94246D01*
X622052Y96754D01*
X620004Y98802D01*
X617496Y100250D01*
X614698Y101000D01*
D02*
G37*
G36*
X270739Y98500D02*
X268106D01*
X265563Y97818D01*
X263283Y96502D01*
X261421Y94640D01*
X260105Y92360D01*
X259423Y89817D01*
Y87183D01*
X260105Y84640D01*
X261421Y82360D01*
X263283Y80498D01*
X265563Y79181D01*
X268106Y78500D01*
X270739D01*
X273283Y79181D01*
X275563Y80498D01*
X277425Y82360D01*
X278741Y84640D01*
X279423Y87183D01*
Y89817D01*
X278741Y92360D01*
X277425Y94640D01*
X275563Y96502D01*
X273283Y97818D01*
X270739Y98500D01*
D02*
G37*
G36*
X40541Y87380D02*
X31270D01*
Y78109D01*
X31388D01*
X34069Y78827D01*
X36472Y80215D01*
X38435Y82178D01*
X39823Y84581D01*
X40541Y87262D01*
Y87380D01*
D02*
G37*
G36*
X28730D02*
X19459D01*
Y87262D01*
X20177Y84581D01*
X21565Y82178D01*
X23528Y80215D01*
X25931Y78827D01*
X28612Y78109D01*
X28730D01*
Y87380D01*
D02*
G37*
G36*
X148200Y97000D02*
X145567D01*
X143023Y96319D01*
X140743Y95002D01*
X138881Y93140D01*
X137564Y90860D01*
X136883Y88316D01*
Y85683D01*
X137564Y83140D01*
X138881Y80860D01*
X140743Y78998D01*
X143023Y77681D01*
X145567Y77000D01*
X148200D01*
X150743Y77681D01*
X153023Y78998D01*
X154885Y80860D01*
X156201Y83140D01*
X156883Y85683D01*
Y88316D01*
X156201Y90860D01*
X154885Y93140D01*
X153023Y95002D01*
X150743Y96319D01*
X148200Y97000D01*
D02*
G37*
G36*
X427620Y72560D02*
Y64770D01*
X435410D01*
X434811Y67005D01*
X433616Y69075D01*
X431925Y70766D01*
X429855Y71961D01*
X427620Y72560D01*
D02*
G37*
G36*
X425080D02*
X422845Y71961D01*
X420775Y70766D01*
X419084Y69075D01*
X417889Y67005D01*
X417290Y64770D01*
X425080D01*
Y72560D01*
D02*
G37*
G36*
X479545Y93400D02*
X477555D01*
X475718Y92639D01*
X474311Y91232D01*
X473550Y89395D01*
Y87406D01*
X474311Y85568D01*
X475718Y84161D01*
X477555Y83400D01*
X479545D01*
X480440Y83771D01*
X514183D01*
X530540Y67414D01*
X530911Y66518D01*
X532318Y65111D01*
X534155Y64350D01*
X536144D01*
X537982Y65111D01*
X539389Y66518D01*
X540150Y68356D01*
Y70345D01*
X539389Y72182D01*
X537982Y73589D01*
X537086Y73960D01*
X519373Y91673D01*
X517872Y92677D01*
X516100Y93029D01*
X516100Y93029D01*
X480440D01*
X479545Y93400D01*
D02*
G37*
G36*
X563245Y80500D02*
X561255D01*
X559418Y79739D01*
X558011Y78332D01*
X557640Y77436D01*
X535733Y55529D01*
X492164D01*
X491810Y56236D01*
X491726Y56799D01*
X493184Y58256D01*
X494308Y60204D01*
X494890Y62376D01*
Y64624D01*
X494308Y66796D01*
X493184Y68744D01*
X491594Y70334D01*
X489646Y71458D01*
X487474Y72040D01*
X485226D01*
X483054Y71458D01*
X481106Y70334D01*
X479516Y68744D01*
X478392Y66796D01*
X477810Y64624D01*
Y62376D01*
X478392Y60204D01*
X479516Y58256D01*
X480974Y56799D01*
X480891Y56236D01*
X480536Y55529D01*
X479750D01*
X479750Y55529D01*
X477979Y55177D01*
X476477Y54173D01*
X476477Y54173D01*
X468949Y46645D01*
X467474Y47040D01*
X465226D01*
X463054Y46458D01*
X461106Y45334D01*
X459516Y43744D01*
X458392Y41796D01*
X457810Y39624D01*
Y37376D01*
X458392Y35204D01*
X459516Y33256D01*
X461106Y31666D01*
X463054Y30542D01*
X465226Y29960D01*
X467474D01*
X469646Y30542D01*
X471594Y31666D01*
X473184Y33256D01*
X474308Y35204D01*
X474890Y37376D01*
Y39494D01*
X477035Y41639D01*
X478174Y40981D01*
X477810Y39624D01*
Y37376D01*
X478392Y35204D01*
X479516Y33256D01*
X481106Y31666D01*
X483054Y30542D01*
X485226Y29960D01*
X487474D01*
X489646Y30542D01*
X491594Y31666D01*
X493184Y33256D01*
X494308Y35204D01*
X494890Y37376D01*
Y39624D01*
X494308Y41796D01*
X493184Y43744D01*
X491926Y45001D01*
X492397Y46271D01*
X537650D01*
X537650Y46271D01*
X539421Y46623D01*
X540923Y47627D01*
X564187Y70890D01*
X565082Y71261D01*
X566489Y72668D01*
X567250Y74506D01*
Y76495D01*
X566489Y78332D01*
X565082Y79739D01*
X563245Y80500D01*
D02*
G37*
G36*
X467474Y72040D02*
X465226D01*
X463054Y71458D01*
X461106Y70334D01*
X459516Y68744D01*
X458392Y66796D01*
X457810Y64624D01*
Y62376D01*
X458392Y60204D01*
X459516Y58256D01*
X461106Y56666D01*
X463054Y55542D01*
X465226Y54960D01*
X467474D01*
X469646Y55542D01*
X471594Y56666D01*
X473184Y58256D01*
X474308Y60204D01*
X474890Y62376D01*
Y64624D01*
X474308Y66796D01*
X473184Y68744D01*
X471594Y70334D01*
X469646Y71458D01*
X467474Y72040D01*
D02*
G37*
G36*
X447474D02*
X445226D01*
X443054Y71458D01*
X441106Y70334D01*
X439516Y68744D01*
X438392Y66796D01*
X437810Y64624D01*
Y62376D01*
X438392Y60204D01*
X439516Y58256D01*
X441106Y56666D01*
X443054Y55542D01*
X445226Y54960D01*
X447474D01*
X449646Y55542D01*
X451594Y56666D01*
X453184Y58256D01*
X454308Y60204D01*
X454890Y62376D01*
Y64624D01*
X454308Y66796D01*
X453184Y68744D01*
X451594Y70334D01*
X449646Y71458D01*
X447474Y72040D01*
D02*
G37*
G36*
X407474D02*
X405226D01*
X403054Y71458D01*
X401106Y70334D01*
X399516Y68744D01*
X398392Y66796D01*
X397810Y64624D01*
Y62376D01*
X398392Y60204D01*
X399516Y58256D01*
X401106Y56666D01*
X403054Y55542D01*
X405226Y54960D01*
X407474D01*
X409646Y55542D01*
X411594Y56666D01*
X413184Y58256D01*
X414308Y60204D01*
X414890Y62376D01*
Y64624D01*
X414308Y66796D01*
X413184Y68744D01*
X411594Y70334D01*
X409646Y71458D01*
X407474Y72040D01*
D02*
G37*
G36*
X435410Y62230D02*
X427620D01*
Y54440D01*
X429855Y55039D01*
X431925Y56234D01*
X433616Y57925D01*
X434811Y59995D01*
X435410Y62230D01*
D02*
G37*
G36*
X425080D02*
X417290D01*
X417889Y59995D01*
X419084Y57925D01*
X420775Y56234D01*
X422845Y55039D01*
X425080Y54440D01*
Y62230D01*
D02*
G37*
G36*
X342080Y62700D02*
X339539D01*
X337085Y62042D01*
X334885Y60772D01*
X333088Y58975D01*
X331818Y56775D01*
X331160Y54321D01*
Y51780D01*
X331818Y49325D01*
X333088Y47125D01*
X334885Y45328D01*
X337085Y44058D01*
X339539Y43400D01*
X342080D01*
X344535Y44058D01*
X346735Y45328D01*
X348532Y47125D01*
X349802Y49325D01*
X350460Y51780D01*
Y54321D01*
X349802Y56775D01*
X348532Y58975D01*
X346735Y60772D01*
X344535Y62042D01*
X342080Y62700D01*
D02*
G37*
G36*
X299193Y62650D02*
X296653D01*
X294198Y61992D01*
X291998Y60722D01*
X290201Y58925D01*
X288931Y56725D01*
X288273Y54271D01*
Y51729D01*
X288931Y49275D01*
X290201Y47075D01*
X291998Y45278D01*
X294198Y44008D01*
X296653Y43350D01*
X299193D01*
X301648Y44008D01*
X303848Y45278D01*
X305645Y47075D01*
X306915Y49275D01*
X307573Y51729D01*
Y54271D01*
X306915Y56725D01*
X305645Y58925D01*
X303848Y60722D01*
X301648Y61992D01*
X299193Y62650D01*
D02*
G37*
G36*
X176653D02*
X174112D01*
X171658Y61992D01*
X169458Y60722D01*
X167661Y58925D01*
X166391Y56725D01*
X165733Y54271D01*
Y51729D01*
X166391Y49275D01*
X167661Y47075D01*
X169458Y45278D01*
X171658Y44008D01*
X174112Y43350D01*
X176653D01*
X179108Y44008D01*
X181308Y45278D01*
X183105Y47075D01*
X184375Y49275D01*
X185033Y51729D01*
Y54271D01*
X184375Y56725D01*
X183105Y58925D01*
X181308Y60722D01*
X179108Y61992D01*
X176653Y62650D01*
D02*
G37*
G36*
X447474Y47040D02*
X445226D01*
X443054Y46458D01*
X441106Y45334D01*
X439516Y43744D01*
X438392Y41796D01*
X437810Y39624D01*
Y37376D01*
X438392Y35204D01*
X439516Y33256D01*
X441106Y31666D01*
X443054Y30542D01*
X445226Y29960D01*
X447474D01*
X449646Y30542D01*
X451594Y31666D01*
X453184Y33256D01*
X454308Y35204D01*
X454890Y37376D01*
Y39624D01*
X454308Y41796D01*
X453184Y43744D01*
X451594Y45334D01*
X449646Y46458D01*
X447474Y47040D01*
D02*
G37*
G36*
X394890D02*
X377810D01*
Y29960D01*
X394890D01*
Y47040D01*
D02*
G37*
G36*
X31317Y47851D02*
X28683D01*
X26140Y47169D01*
X23859Y45853D01*
X21997Y43991D01*
X20680Y41710D01*
X19999Y39167D01*
Y36533D01*
X20680Y33990D01*
X21997Y31709D01*
X23859Y29847D01*
X26140Y28530D01*
X28683Y27849D01*
X31317D01*
X33860Y28530D01*
X36141Y29847D01*
X38003Y31709D01*
X39320Y33990D01*
X40001Y36533D01*
Y39167D01*
X39320Y41710D01*
X38003Y43991D01*
X36141Y45853D01*
X33860Y47169D01*
X31317Y47851D01*
D02*
G37*
G36*
Y73251D02*
X28683D01*
X26140Y72569D01*
X23859Y71253D01*
X21997Y69391D01*
X20680Y67110D01*
X19999Y64567D01*
Y61933D01*
X20680Y59390D01*
X21997Y57109D01*
X23859Y55247D01*
X26140Y53931D01*
X28683Y53249D01*
X31317D01*
X33860Y53931D01*
X36141Y55247D01*
X38003Y57109D01*
X38876Y58621D01*
X132083D01*
X164227Y26477D01*
X164227Y26477D01*
X165728Y25473D01*
X167500Y25121D01*
X224110D01*
X225005Y24750D01*
X226994D01*
X228832Y25511D01*
X230239Y26918D01*
X231000Y28755D01*
Y30745D01*
X230239Y32582D01*
X228832Y33989D01*
X226994Y34750D01*
X225005D01*
X224110Y34379D01*
X169417D01*
X137273Y66523D01*
X135771Y67527D01*
X134000Y67879D01*
X134000Y67879D01*
X38876D01*
X38003Y69391D01*
X36141Y71253D01*
X33860Y72569D01*
X31317Y73251D01*
D02*
G37*
G36*
X614698Y41000D02*
X611802D01*
X609004Y40250D01*
X606496Y38802D01*
X604448Y36754D01*
X603000Y34246D01*
X602250Y31448D01*
Y28552D01*
X603000Y25754D01*
X604448Y23246D01*
X606496Y21198D01*
X609004Y19750D01*
X611802Y19000D01*
X614698D01*
X617496Y19750D01*
X620004Y21198D01*
X622052Y23246D01*
X623500Y25754D01*
X624250Y28552D01*
Y31448D01*
X623500Y34246D01*
X622052Y36754D01*
X620004Y38802D01*
X617496Y40250D01*
X614698Y41000D01*
D02*
G37*
%LPD*%
G36*
X326104Y468722D02*
X325906Y467725D01*
X325906Y467725D01*
Y368375D01*
X309764D01*
Y454178D01*
X324934Y469348D01*
X326104Y468722D01*
D02*
G37*
D62*
X630510Y793200D02*
D03*
X602490D02*
D03*
X500100Y511050D02*
D03*
X243400Y457950D02*
D03*
X297923Y196500D02*
D03*
X47250Y869000D02*
D03*
Y843600D02*
D03*
X400800Y358725D02*
D03*
X342725D02*
D03*
X438850Y141050D02*
D03*
X85000Y356400D02*
D03*
Y324530D02*
D03*
X340810Y53050D02*
D03*
X207600Y214700D02*
D03*
Y245755D02*
D03*
X85060Y244255D02*
D03*
Y100755D02*
D03*
X207600Y102255D02*
D03*
X297923Y53000D02*
D03*
X175383Y196500D02*
D03*
X340750Y20500D02*
D03*
X175383Y53000D02*
D03*
X84875Y444255D02*
D03*
Y476125D02*
D03*
X57656Y561050D02*
D03*
X667256Y484850D02*
D03*
X271750Y595650D02*
D03*
X306750Y595727D02*
D03*
X353500Y595750D02*
D03*
X493750Y595750D02*
D03*
X447000Y595750D02*
D03*
X400250Y595750D02*
D03*
X236500Y595800D02*
D03*
D63*
X630510Y767800D02*
D03*
X602490D02*
D03*
X500100Y536450D02*
D03*
X243400Y432550D02*
D03*
X47250Y894400D02*
D03*
X85060Y269655D02*
D03*
X57656Y535650D02*
D03*
X207600Y189300D02*
D03*
Y271155D02*
D03*
X85060Y126155D02*
D03*
X207600Y127655D02*
D03*
X667256Y459450D02*
D03*
D64*
X614000Y907500D02*
D03*
Y847500D02*
D03*
X613250Y30000D02*
D03*
Y90000D02*
D03*
D65*
X522620Y140800D02*
D03*
X400080D02*
D03*
X269423Y88500D02*
D03*
Y232000D02*
D03*
X146883Y230500D02*
D03*
Y87000D02*
D03*
D66*
X472620Y140800D02*
D03*
X350080D02*
D03*
D67*
X269423Y138500D02*
D03*
Y282000D02*
D03*
X146883Y280500D02*
D03*
Y137000D02*
D03*
D68*
X591058Y601690D02*
D03*
Y332450D02*
D03*
D69*
Y576290D02*
D03*
X565658Y281650D02*
D03*
X591058Y525490D02*
D03*
X565658Y154650D02*
D03*
X591058D02*
D03*
X565658Y180050D02*
D03*
X591058D02*
D03*
X565658Y205450D02*
D03*
X591058D02*
D03*
X565658Y230850D02*
D03*
X591058D02*
D03*
X565658Y256250D02*
D03*
X591058D02*
D03*
Y281650D02*
D03*
X565658Y307050D02*
D03*
X591058D02*
D03*
X565658Y332450D02*
D03*
Y423890D02*
D03*
Y500090D02*
D03*
Y449290D02*
D03*
Y474690D02*
D03*
Y373090D02*
D03*
X591058D02*
D03*
X565658Y398490D02*
D03*
X591058D02*
D03*
Y423890D02*
D03*
Y449290D02*
D03*
Y474690D02*
D03*
Y500090D02*
D03*
X565658Y525490D02*
D03*
Y550890D02*
D03*
X591058D02*
D03*
X565658Y576290D02*
D03*
Y601690D02*
D03*
D70*
X629000Y714250D02*
D03*
X604000D02*
D03*
D71*
X194850Y907500D02*
D03*
X220250D02*
D03*
X169450D02*
D03*
X30000Y232150D02*
D03*
X467325Y907500D02*
D03*
X318388D02*
D03*
X30000Y88650D02*
D03*
Y353150D02*
D03*
Y327750D02*
D03*
Y206750D02*
D03*
Y181350D02*
D03*
Y37850D02*
D03*
Y63250D02*
D03*
X518125Y907500D02*
D03*
X29875Y447475D02*
D03*
Y472875D02*
D03*
X492725Y907500D02*
D03*
X343787D02*
D03*
X369188D02*
D03*
D72*
X426200Y358725D02*
D03*
X317325D02*
D03*
D73*
X446350Y38500D02*
D03*
X426350Y63500D02*
D03*
X406350Y38500D02*
D03*
X386350Y63500D02*
D03*
X406350D02*
D03*
X426350Y38500D02*
D03*
X446350Y63500D02*
D03*
X466350D02*
D03*
Y38500D02*
D03*
X486350D02*
D03*
Y63500D02*
D03*
D74*
X386350Y38500D02*
D03*
D76*
X60200Y772801D02*
D03*
Y715001D02*
D03*
D77*
X23400Y787101D02*
D03*
Y700701D02*
D03*
D78*
X65200Y787101D02*
D03*
Y700701D02*
D03*
D79*
X47250Y843600D02*
X67400D01*
X271750Y639250D01*
X403890Y863359D02*
X411250Y855999D01*
Y855750D02*
Y855999D01*
X403890Y863359D02*
Y863860D01*
X398750Y869000D02*
X403890Y863860D01*
X47250Y869000D02*
X398750D01*
X302500Y642750D02*
X610250D01*
X683500Y716000D01*
Y795250D01*
X290250Y655000D02*
X302500Y642750D01*
X290250Y655000D02*
Y673251D01*
X391250Y673500D02*
X512938Y795188D01*
X546813D01*
X306000Y673500D02*
X391250D01*
X518125Y861125D02*
Y907500D01*
X347750Y690750D02*
X518125Y861125D01*
X383393Y798168D02*
X492725Y907500D01*
X355668Y798168D02*
X383393D01*
X248250Y690750D02*
X355668Y798168D01*
X568000Y750500D02*
X581500Y737000D01*
X651500D01*
X665000Y750500D01*
X305135Y349194D02*
X326250Y328079D01*
X305135Y349194D02*
Y456095D01*
X330535Y348465D02*
X350250Y328750D01*
X330535Y348465D02*
Y467725D01*
X305135Y456095D02*
X328000Y478960D01*
X350250Y282750D02*
Y328750D01*
X326250Y281500D02*
Y328079D01*
X269423Y444173D02*
X311750Y486500D01*
X335418Y472608D02*
Y472857D01*
X330535Y467725D02*
X335418Y472608D01*
X269423Y282000D02*
Y444173D01*
X204500Y499000D02*
X257125D01*
X258626Y497500D02*
X311500D01*
X257125Y499000D02*
X258626Y497500D01*
X146883Y441383D02*
X204500Y499000D01*
X146883Y280500D02*
Y441383D01*
X413805Y257945D02*
X472620Y199130D01*
Y140800D02*
Y199130D01*
X169438Y257945D02*
X413805D01*
X146883Y280500D02*
X169438Y257945D01*
X466350Y38500D02*
X467350D01*
X373872Y108878D02*
X386350Y96400D01*
X516100Y88400D02*
X535150Y69350D01*
X386350Y63500D02*
Y96400D01*
X269423Y138500D02*
X299045Y108878D01*
X373872D01*
X467350Y38500D02*
X479750Y50900D01*
X167500Y29750D02*
X226000D01*
X340750Y20500D02*
X342050D01*
X146883Y137000D02*
X168250D01*
X537650Y50900D02*
X562250Y75500D01*
X167500Y173250D02*
X226000D01*
X185250Y154000D02*
X336880D01*
X342050Y20500D02*
X385050Y63500D01*
X406350Y38500D02*
X435765Y9085D01*
X134000Y206750D02*
X167500Y173250D01*
X538835Y9085D02*
X600750Y71000D01*
X134000Y63250D02*
X167500Y29750D01*
X168250Y137000D02*
X185250Y154000D01*
X30000Y206750D02*
X134000D01*
X478550Y88400D02*
X516100D01*
X336880Y154000D02*
X350080Y140800D01*
X385050Y63500D02*
X386350D01*
X479750Y50900D02*
X537650D01*
X435765Y9085D02*
X538835D01*
X600750Y71000D02*
X659250D01*
X30000Y63250D02*
X134000D01*
D80*
X407500Y476000D02*
X443000D01*
X407250Y475750D02*
X407500Y476000D01*
X442750Y448250D02*
X459750D01*
X469750Y458250D01*
Y494250D01*
X460500Y503500D02*
X469750Y494250D01*
X443000Y476000D02*
X454250Y464750D01*
X341000Y459000D02*
X341668Y459668D01*
Y480626D01*
X339250Y483044D02*
X341668Y480626D01*
X339250Y483044D02*
Y504000D01*
X530250Y573500D02*
X536000Y567750D01*
X511500Y573500D02*
X530250D01*
X397750Y451000D02*
X403500Y456750D01*
X385500Y451000D02*
X397750D01*
D81*
X43650Y714801D02*
X57750Y728901D01*
X65586D01*
X43650Y706964D02*
Y714801D01*
Y693151D02*
Y706964D01*
X65586Y728901D02*
X82900D01*
D82*
X475700Y511050D02*
X500100D01*
X223146Y534354D02*
X227000Y530500D01*
X456250D01*
X217000Y540500D02*
X223146Y534354D01*
X456250Y530500D02*
X475700Y511050D01*
X535750Y353500D02*
Y525999D01*
X510250Y328000D02*
X535750Y353500D01*
X406658Y328000D02*
X510250D01*
X400800Y333858D02*
X406658Y328000D01*
X400800Y333858D02*
Y358725D01*
X178750Y571500D02*
X186750D01*
X490249Y571500D01*
X535750Y525999D01*
X500100Y511050D02*
X517500Y493650D01*
Y444000D02*
Y493650D01*
X472000Y398500D02*
X517500Y444000D01*
X400000Y398500D02*
X472000D01*
X360225Y358725D02*
X400000Y398500D01*
X342725Y358725D02*
X360225D01*
D88*
X133150Y593726D02*
Y637726D01*
Y525901D02*
Y569901D01*
D90*
X370350Y79000D02*
D03*
X502350Y23000D02*
D03*
D91*
X36000Y744125D02*
D03*
Y768750D02*
D03*
Y719500D02*
D03*
X96000Y737980D02*
D03*
X407250Y475750D02*
D03*
X684500Y686750D02*
D03*
X672000Y661750D02*
D03*
X684500Y636750D02*
D03*
X672000Y611750D02*
D03*
X684500Y586750D02*
D03*
X672000Y561750D02*
D03*
X684500Y536750D02*
D03*
Y436750D02*
D03*
X672000Y411750D02*
D03*
X684500Y386750D02*
D03*
X672000Y361750D02*
D03*
X684500Y336750D02*
D03*
X672000Y311750D02*
D03*
X684500Y286750D02*
D03*
X672000Y261750D02*
D03*
X684500Y236750D02*
D03*
X672000Y211750D02*
D03*
X684500Y186750D02*
D03*
X672000Y161750D02*
D03*
X684500Y136750D02*
D03*
Y86750D02*
D03*
Y36750D02*
D03*
X672000Y11750D02*
D03*
X647000Y811750D02*
D03*
Y711750D02*
D03*
X659500Y636750D02*
D03*
X647000Y611750D02*
D03*
X659500Y586750D02*
D03*
X647000Y511750D02*
D03*
Y461750D02*
D03*
X659500Y436750D02*
D03*
X647000Y411750D02*
D03*
X659500Y386750D02*
D03*
X647000Y361750D02*
D03*
X659500Y336750D02*
D03*
X647000Y311750D02*
D03*
X659500Y286750D02*
D03*
X647000Y261750D02*
D03*
X659500Y236750D02*
D03*
X647000Y211750D02*
D03*
X659500Y186750D02*
D03*
X647000Y161750D02*
D03*
X659500Y136750D02*
D03*
X647000Y11750D02*
D03*
X634500Y886750D02*
D03*
Y686750D02*
D03*
Y636750D02*
D03*
X622000Y511750D02*
D03*
X634500Y486750D02*
D03*
X622000Y461750D02*
D03*
X634500Y436750D02*
D03*
X622000Y411750D02*
D03*
X634500Y386750D02*
D03*
X622000Y361750D02*
D03*
X634500Y336750D02*
D03*
X622000Y311750D02*
D03*
X634500Y286750D02*
D03*
X622000Y261750D02*
D03*
X634500Y236750D02*
D03*
X622000Y211750D02*
D03*
X634500Y186750D02*
D03*
X622000Y161750D02*
D03*
X634500Y136750D02*
D03*
X622000Y111750D02*
D03*
X634500Y36750D02*
D03*
X622000Y11750D02*
D03*
X609500Y886750D02*
D03*
Y686750D02*
D03*
X597000Y661750D02*
D03*
X609500Y536750D02*
D03*
Y486750D02*
D03*
Y436750D02*
D03*
Y386750D02*
D03*
Y336750D02*
D03*
Y286750D02*
D03*
Y236750D02*
D03*
Y186750D02*
D03*
Y136750D02*
D03*
X597000Y111750D02*
D03*
Y11750D02*
D03*
X572000Y911750D02*
D03*
Y711750D02*
D03*
X584500Y686750D02*
D03*
X572000Y661750D02*
D03*
X584500Y136750D02*
D03*
X572000Y111750D02*
D03*
X547000Y911750D02*
D03*
Y861750D02*
D03*
Y811750D02*
D03*
X559500Y736750D02*
D03*
X547000Y711750D02*
D03*
X559500Y686750D02*
D03*
X547000Y661750D02*
D03*
Y311750D02*
D03*
Y261750D02*
D03*
Y161750D02*
D03*
X559500Y136750D02*
D03*
X547000Y111750D02*
D03*
X534500Y886750D02*
D03*
Y836750D02*
D03*
X522000Y811750D02*
D03*
X534500Y736750D02*
D03*
X522000Y711750D02*
D03*
X534500Y686750D02*
D03*
X522000Y311750D02*
D03*
X534500Y286750D02*
D03*
X522000Y261750D02*
D03*
X534500Y236750D02*
D03*
Y186750D02*
D03*
X522000Y161750D02*
D03*
X497000Y861750D02*
D03*
Y811750D02*
D03*
X509500Y736750D02*
D03*
X497000Y711750D02*
D03*
X509500Y686750D02*
D03*
Y586750D02*
D03*
X497000Y461750D02*
D03*
X509500Y386750D02*
D03*
X497000Y361750D02*
D03*
Y311750D02*
D03*
X509500Y286750D02*
D03*
X497000Y211750D02*
D03*
X509500Y186750D02*
D03*
X497000Y161750D02*
D03*
X472000Y861750D02*
D03*
X484500Y736750D02*
D03*
Y386750D02*
D03*
Y236750D02*
D03*
X447000Y911750D02*
D03*
X459500Y836750D02*
D03*
Y436750D02*
D03*
X447000Y361750D02*
D03*
Y311750D02*
D03*
X459500Y286750D02*
D03*
X447000Y261750D02*
D03*
X459500Y236750D02*
D03*
Y186750D02*
D03*
X447000Y161750D02*
D03*
Y111750D02*
D03*
X422000Y911750D02*
D03*
X434500Y886750D02*
D03*
X422000Y811750D02*
D03*
X434500Y736750D02*
D03*
Y686750D02*
D03*
X422000Y311750D02*
D03*
X434500Y286750D02*
D03*
X422000Y211750D02*
D03*
X434500Y186750D02*
D03*
X422000Y161750D02*
D03*
Y111750D02*
D03*
X397000Y911750D02*
D03*
X409500Y886750D02*
D03*
X397000Y761750D02*
D03*
Y711750D02*
D03*
Y311750D02*
D03*
X409500Y286750D02*
D03*
Y236750D02*
D03*
X397000Y211750D02*
D03*
X409500Y186750D02*
D03*
X397000Y161750D02*
D03*
Y111750D02*
D03*
Y11750D02*
D03*
X384500Y886750D02*
D03*
Y836750D02*
D03*
X372000Y761750D02*
D03*
Y311750D02*
D03*
X384500Y286750D02*
D03*
Y236750D02*
D03*
X372000Y211750D02*
D03*
X384500Y186750D02*
D03*
X372000Y161750D02*
D03*
Y11750D02*
D03*
X347000Y811750D02*
D03*
Y711750D02*
D03*
X334500Y886750D02*
D03*
Y836750D02*
D03*
X322000Y811750D02*
D03*
Y711750D02*
D03*
X334500Y586750D02*
D03*
X322000Y61750D02*
D03*
Y11750D02*
D03*
X297000Y911750D02*
D03*
X309500Y886750D02*
D03*
Y836750D02*
D03*
X297000Y761750D02*
D03*
Y711750D02*
D03*
Y511750D02*
D03*
X309500Y286750D02*
D03*
Y236750D02*
D03*
Y86750D02*
D03*
Y36750D02*
D03*
X297000Y11750D02*
D03*
X272000Y911750D02*
D03*
X284500Y886750D02*
D03*
Y836750D02*
D03*
X272000Y761750D02*
D03*
Y511750D02*
D03*
X284500Y386750D02*
D03*
X272000Y111750D02*
D03*
X247000Y911750D02*
D03*
X259500Y886750D02*
D03*
X247000Y811750D02*
D03*
X259500Y786750D02*
D03*
X247000Y761750D02*
D03*
X259500Y736750D02*
D03*
X247000Y711750D02*
D03*
Y411750D02*
D03*
Y111750D02*
D03*
X234500Y886750D02*
D03*
X222000Y811750D02*
D03*
X234500Y786750D02*
D03*
X222000Y761750D02*
D03*
X234500Y736750D02*
D03*
X222000Y711750D02*
D03*
Y511750D02*
D03*
Y461750D02*
D03*
Y411750D02*
D03*
Y61750D02*
D03*
Y11750D02*
D03*
X209500Y836750D02*
D03*
X197000Y811750D02*
D03*
X209500Y786750D02*
D03*
X197000Y761750D02*
D03*
X209500Y736750D02*
D03*
X197000Y661750D02*
D03*
Y511750D02*
D03*
Y461750D02*
D03*
X209500Y436750D02*
D03*
X197000Y361750D02*
D03*
Y311750D02*
D03*
Y61750D02*
D03*
Y11750D02*
D03*
X184500Y886750D02*
D03*
Y836750D02*
D03*
X172000Y811750D02*
D03*
X184500Y786750D02*
D03*
Y586750D02*
D03*
X172000Y511750D02*
D03*
X184500Y386750D02*
D03*
X172000Y361750D02*
D03*
Y311750D02*
D03*
X184500Y286750D02*
D03*
X172000Y111750D02*
D03*
X184500Y86750D02*
D03*
X172000Y11750D02*
D03*
X147000Y911750D02*
D03*
X159500Y886750D02*
D03*
Y836750D02*
D03*
X147000Y811750D02*
D03*
Y711750D02*
D03*
X159500Y686750D02*
D03*
Y586750D02*
D03*
X147000Y511750D02*
D03*
X159500Y486750D02*
D03*
X147000Y261750D02*
D03*
Y111750D02*
D03*
X134500Y886750D02*
D03*
Y836750D02*
D03*
X122000Y761750D02*
D03*
X134500Y736750D02*
D03*
X122000Y711750D02*
D03*
Y511750D02*
D03*
Y411750D02*
D03*
Y111750D02*
D03*
X97000Y661750D02*
D03*
X109500Y586750D02*
D03*
X97000Y511750D02*
D03*
Y461750D02*
D03*
Y411750D02*
D03*
X109500Y386750D02*
D03*
Y286750D02*
D03*
X97000Y11750D02*
D03*
X72000Y811750D02*
D03*
X84500Y536750D02*
D03*
X72000Y511750D02*
D03*
Y461750D02*
D03*
Y411750D02*
D03*
X84500Y386750D02*
D03*
X72000Y311750D02*
D03*
X84500Y186750D02*
D03*
X72000Y161750D02*
D03*
Y11750D02*
D03*
X47000Y511750D02*
D03*
Y461750D02*
D03*
Y411750D02*
D03*
X59500Y386750D02*
D03*
X47000Y311750D02*
D03*
X59500Y286750D02*
D03*
X47000Y261750D02*
D03*
X59500Y236750D02*
D03*
X47000Y161750D02*
D03*
X59500Y136750D02*
D03*
X47000Y111750D02*
D03*
X59500Y86750D02*
D03*
X47000Y11750D02*
D03*
X22000Y911750D02*
D03*
Y861750D02*
D03*
Y661750D02*
D03*
X34500Y636750D02*
D03*
X22000Y611750D02*
D03*
X34500Y586750D02*
D03*
X22000Y561750D02*
D03*
X34500Y536750D02*
D03*
X22000Y511750D02*
D03*
Y411750D02*
D03*
X34500Y386750D02*
D03*
Y286750D02*
D03*
X22000Y261750D02*
D03*
Y161750D02*
D03*
X34500Y136750D02*
D03*
X22000Y111750D02*
D03*
Y11750D02*
D03*
X454250Y464750D02*
D03*
X271750Y639250D02*
D03*
X341000Y459000D02*
D03*
X339250Y504000D02*
D03*
X442750Y448250D02*
D03*
X460500Y503500D02*
D03*
X178750Y571500D02*
D03*
X511500Y573500D02*
D03*
X536000Y567750D02*
D03*
X411250Y855750D02*
D03*
X546750Y795250D02*
D03*
X683500D02*
D03*
X306000Y673500D02*
D03*
X290250D02*
D03*
X347750Y690750D02*
D03*
X248250D02*
D03*
X665000Y750500D02*
D03*
X568000D02*
D03*
X102750Y703750D02*
D03*
X92750D02*
D03*
X403500Y456750D02*
D03*
X217000Y540500D02*
D03*
X223036Y534243D02*
D03*
X311750Y486500D02*
D03*
X326250Y281500D02*
D03*
X350250Y282750D02*
D03*
X328000Y478960D02*
D03*
X335418Y472857D02*
D03*
X311500Y497500D02*
D03*
X385500Y451000D02*
D03*
X371750Y498000D02*
D03*
Y476000D02*
D03*
X382750Y487000D02*
D03*
X360750D02*
D03*
X478550Y88400D02*
D03*
X659250Y71000D02*
D03*
X562250Y75500D02*
D03*
X535150Y69350D02*
D03*
X226000Y173250D02*
D03*
Y29750D02*
D03*
X133150Y593726D02*
D03*
Y637726D02*
D03*
Y569901D02*
D03*
Y525901D02*
D03*
X82900Y728901D02*
D03*
X43650Y693151D02*
D03*
D92*
X620250Y611250D02*
X620250D01*
X622842Y608658D01*
Y577104D02*
Y608658D01*
Y577104D02*
X693281Y506665D01*
Y476629D02*
Y506665D01*
X684377Y467725D02*
X693281Y476629D01*
X675451Y467725D02*
X684377D01*
X671731Y464005D02*
X675451Y467725D01*
X671731Y463925D02*
Y464005D01*
X667256Y459450D02*
X671731Y463925D01*
X602917Y628583D02*
X620250Y611250D01*
X191083Y628583D02*
X602917D01*
X145666Y674000D02*
X191083Y628583D01*
X102175Y703175D02*
X102750Y703750D01*
X102175Y695575D02*
Y703175D01*
Y695575D02*
X123750Y674000D01*
X145666D01*
X613992Y573438D02*
Y604992D01*
Y573438D02*
X684431Y502999D01*
Y480295D02*
Y502999D01*
X680711Y476575D02*
X684431Y480295D01*
X667256Y484770D02*
Y484850D01*
Y484770D02*
X675451Y476575D01*
X680711D01*
X599251Y619733D02*
X613992Y604992D01*
X613992D01*
X187417Y619733D02*
X599251D01*
X161242Y645908D02*
X184825Y622325D01*
X187417Y619733D01*
X161242Y645908D02*
X161242D01*
X142000Y665150D02*
X161242Y645908D01*
X93325Y691909D02*
Y703175D01*
Y691909D02*
X120084Y665150D01*
X142000D01*
X92750Y703750D02*
X93325Y703175D01*
M02*
